  0
SECTION
  2
HEADER
  9
$ACADVER
  1
AC1024
  9
$ACADMAINTVER
 70
6
  9
$DWGCODEPAGE
  3
ANSI_1252
  9
$LASTSAVEDBY
  1
ezdxf
  9
$INSBASE
 10
0.0
 20
0.0
 30
0.0
  9
$EXTMIN
 10
1e+20
 20
1e+20
 30
1e+20
  9
$EXTMAX
 10
-1e+20
 20
-1e+20
 30
-1e+20
  9
$LIMMIN
 10
0.0
 20
0.0
  9
$LIMMAX
 10
420.0
 20
297.0
  9
$ORTHOMODE
 70
0
  9
$REGENMODE
 70
1
  9
$FILLMODE
 70
1
  9
$QTEXTMODE
 70
0
  9
$MIRRTEXT
 70
1
  9
$LTSCALE
 40
1.0
  9
$ATTMODE
 70
1
  9
$TEXTSIZE
 40
2.5
  9
$TRACEWID
 40
1.0
  9
$TEXTSTYLE
  7
Standard
  9
$CLAYER
  8
0
  9
$CELTYPE
  6
ByLayer
  9
$CECOLOR
 62
256
  9
$CELTSCALE
 40
1.0
  9
$DISPSILH
 70
0
  9
$DIMSCALE
 40
1.0
  9
$DIMASZ
 40
2.5
  9
$DIMEXO
 40
0.625
  9
$DIMDLI
 40
3.75
  9
$DIMRND
 40
0.0
  9
$DIMDLE
 40
0.0
  9
$DIMEXE
 40
1.25
  9
$DIMTP
 40
0.0
  9
$DIMTM
 40
0.0
  9
$DIMTXT
 40
2.5
  9
$DIMCEN
 40
2.5
  9
$DIMTSZ
 40
0.0
  9
$DIMTOL
 70
0
  9
$DIMLIM
 70
0
  9
$DIMTIH
 70
0
  9
$DIMTOH
 70
0
  9
$DIMSE1
 70
0
  9
$DIMSE2
 70
0
  9
$DIMTAD
 70
1
  9
$DIMZIN
 70
8
  9
$DIMBLK
  1

  9
$DIMASO
 70
1
  9
$DIMSHO
 70
1
  9
$DIMPOST
  1

  9
$DIMAPOST
  1

  9
$DIMALT
 70
0
  9
$DIMALTD
 70
3
  9
$DIMALTF
 40
0.03937007874
  9
$DIMLFAC
 40
1.0
  9
$DIMTOFL
 70
1
  9
$DIMTVP
 40
0.0
  9
$DIMTIX
 70
0
  9
$DIMSOXD
 70
0
  9
$DIMSAH
 70
0
  9
$DIMBLK1
  1

  9
$DIMBLK2
  1

  9
$DIMSTYLE
  2
ISO-25
  9
$DIMCLRD
 70
0
  9
$DIMCLRE
 70
0
  9
$DIMCLRT
 70
0
  9
$DIMTFAC
 40
1.0
  9
$DIMGAP
 40
0.625
  9
$DIMJUST
 70
0
  9
$DIMSD1
 70
0
  9
$DIMSD2
 70
0
  9
$DIMTOLJ
 70
0
  9
$DIMTZIN
 70
8
  9
$DIMALTZ
 70
0
  9
$DIMALTTZ
 70
0
  9
$DIMUPT
 70
0
  9
$DIMDEC
 70
2
  9
$DIMTDEC
 70
2
  9
$DIMALTU
 70
2
  9
$DIMALTTD
 70
3
  9
$DIMTXSTY
  7
Standard
  9
$DIMAUNIT
 70
0
  9
$DIMADEC
 70
0
  9
$DIMALTRND
 40
0.0
  9
$DIMAZIN
 70
0
  9
$DIMDSEP
 70
44
  9
$DIMATFIT
 70
3
  9
$DIMFRAC
 70
0
  9
$DIMLDRBLK
  1

  9
$DIMLUNIT
 70
2
  9
$DIMLWD
 70
-2
  9
$DIMLWE
 70
-2
  9
$DIMTMOVE
 70
0
  9
$DIMFXL
 40
1.0
  9
$DIMFXLON
 70
0
  9
$DIMJOGANG
 40
0.785398163397
  9
$DIMTFILL
 70
0
  9
$DIMTFILLCLR
 70
0
  9
$DIMARCSYM
 70
0
  9
$DIMLTYPE
  6

  9
$DIMLTEX1
  6

  9
$DIMLTEX2
  6

  9
$DIMTXTDIRECTION
 70
0
  9
$LUNITS
 70
2
  9
$LUPREC
 70
4
  9
$SKETCHINC
 40
1.0
  9
$FILLETRAD
 40
10.0
  9
$AUNITS
 70
0
  9
$AUPREC
 70
2
  9
$MENU
  1
.
  9
$ELEVATION
 40
0.0
  9
$PELEVATION
 40
0.0
  9
$THICKNESS
 40
0.0
  9
$LIMCHECK
 70
0
  9
$CHAMFERA
 40
0.0
  9
$CHAMFERB
 40
0.0
  9
$CHAMFERC
 40
0.0
  9
$CHAMFERD
 40
0.0
  9
$SKPOLY
 70
0
  9
$TDCREATE
 40
2461295.0335069443
  9
$TDUCREATE
 40
2458532.153996898
  9
$TDUPDATE
 40
2461295.0335069443
  9
$TDUUPDATE
 40
2458532.1544311
  9
$TDINDWG
 40
0.0
  9
$TDUSRTIMER
 40
0.0
  9
$USRTIMER
 70
1
  9
$ANGBASE
 50
0.0
  9
$ANGDIR
 70
0
  9
$PDMODE
 70
0
  9
$PDSIZE
 40
0.0
  9
$PLINEWID
 40
0.0
  9
$SPLFRAME
 70
0
  9
$SPLINETYPE
 70
6
  9
$SPLINESEGS
 70
8
  9
$HANDSEED
  5
17E
  9
$SURFTAB1
 70
6
  9
$SURFTAB2
 70
6
  9
$SURFTYPE
 70
6
  9
$SURFU
 70
6
  9
$SURFV
 70
6
  9
$UCSBASE
  2

  9
$UCSNAME
  2

  9
$UCSORG
 10
0.0
 20
0.0
 30
0.0
  9
$UCSXDIR
 10
1.0
 20
0.0
 30
0.0
  9
$UCSYDIR
 10
0.0
 20
1.0
 30
0.0
  9
$UCSORTHOREF
  2

  9
$UCSORTHOVIEW
 70
0
  9
$UCSORGTOP
 10
0.0
 20
0.0
 30
0.0
  9
$UCSORGBOTTOM
 10
0.0
 20
0.0
 30
0.0
  9
$UCSORGLEFT
 10
0.0
 20
0.0
 30
0.0
  9
$UCSORGRIGHT
 10
0.0
 20
0.0
 30
0.0
  9
$UCSORGFRONT
 10
0.0
 20
0.0
 30
0.0
  9
$UCSORGBACK
 10
0.0
 20
0.0
 30
0.0
  9
$PUCSBASE
  2

  9
$PUCSNAME
  2

  9
$PUCSORG
 10
0.0
 20
0.0
 30
0.0
  9
$PUCSXDIR
 10
1.0
 20
0.0
 30
0.0
  9
$PUCSYDIR
 10
0.0
 20
1.0
 30
0.0
  9
$PUCSORTHOREF
  2

  9
$PUCSORTHOVIEW
 70
0
  9
$PUCSORGTOP
 10
0.0
 20
0.0
 30
0.0
  9
$PUCSORGBOTTOM
 10
0.0
 20
0.0
 30
0.0
  9
$PUCSORGLEFT
 10
0.0
 20
0.0
 30
0.0
  9
$PUCSORGRIGHT
 10
0.0
 20
0.0
 30
0.0
  9
$PUCSORGFRONT
 10
0.0
 20
0.0
 30
0.0
  9
$PUCSORGBACK
 10
0.0
 20
0.0
 30
0.0
  9
$USERI1
 70
0
  9
$USERI2
 70
0
  9
$USERI3
 70
0
  9
$USERI4
 70
0
  9
$USERI5
 70
0
  9
$USERR1
 40
0.0
  9
$USERR2
 40
0.0
  9
$USERR3
 40
0.0
  9
$USERR4
 40
0.0
  9
$USERR5
 40
0.0
  9
$WORLDVIEW
 70
1
  9
$SHADEDGE
 70
3
  9
$SHADEDIF
 70
70
  9
$TILEMODE
 70
1
  9
$MAXACTVP
 70
64
  9
$PINSBASE
 10
0.0
 20
0.0
 30
0.0
  9
$PLIMCHECK
 70
0
  9
$PEXTMIN
 10
1e+20
 20
1e+20
 30
1e+20
  9
$PEXTMAX
 10
-1e+20
 20
-1e+20
 30
-1e+20
  9
$PLIMMIN
 10
0.0
 20
0.0
  9
$PLIMMAX
 10
420.0
 20
297.0
  9
$UNITMODE
 70
0
  9
$VISRETAIN
 70
1
  9
$PLINEGEN
 70
0
  9
$PSLTSCALE
 70
1
  9
$TREEDEPTH
 70
3020
  9
$CMLSTYLE
  2
Standard
  9
$CMLJUST
 70
0
  9
$CMLSCALE
 40
20.0
  9
$PROXYGRAPHICS
 70
1
  9
$MEASUREMENT
 70
1
  9
$CELWEIGHT
370
-1
  9
$ENDCAPS
280
0
  9
$JOINSTYLE
280
0
  9
$LWDISPLAY
290
0
  9
$INSUNITS
 70
4
  9
$HYPERLINKBASE
  1

  9
$STYLESHEET
  1

  9
$XEDIT
290
1
  9
$CEPSNTYPE
380
0
  9
$PSTYLEMODE
290
1
  9
$FINGERPRINTGUID
  2
{5DD239FC-44BA-4B71-A574-AAF66C52FB33}
  9
$VERSIONGUID
  2
{E9456076-3EF5-4A69-88BF-310D9219BA85}
  9
$EXTNAMES
290
1
  9
$PSVPSCALE
 40
0.0
  9
$OLESTARTUP
290
0
  9
$SORTENTS
280
127
  9
$INDEXCTL
280
0
  9
$HIDETEXT
280
1
  9
$XCLIPFRAME
280
1
  9
$HALOGAP
280
0
  9
$OBSCOLOR
 70
257
  9
$OBSLTYPE
280
0
  9
$INTERSECTIONDISPLAY
280
0
  9
$INTERSECTIONCOLOR
 70
257
  9
$DIMASSOC
280
2
  9
$PROJECTNAME
  1

  9
$CAMERADISPLAY
290
0
  9
$LENSLENGTH
 40
50.0
  9
$CAMERAHEIGHT
 40
0.0
  9
$STEPSPERSEC
 40
24.0
  9
$STEPSIZE
 40
100.0
  9
$3DDWFPREC
 40
2.0
  9
$PSOLWIDTH
 40
0.005
  9
$PSOLHEIGHT
 40
0.08
  9
$LOFTANG1
 40
1.570796326795
  9
$LOFTANG2
 40
1.570796326795
  9
$LOFTMAG1
 40
0.0
  9
$LOFTMAG2
 40
0.0
  9
$LOFTPARAM
 70
7
  9
$LOFTNORMALS
280
1
  9
$LATITUDE
 40
37.795
  9
$LONGITUDE
 40
-122.394
  9
$NORTHDIRECTION
 40
0.0
  9
$TIMEZONE
 70
-8000
  9
$LIGHTGLYPHDISPLAY
280
1
  9
$TILEMODELIGHTSYNCH
280
1
  9
$CMATERIAL
347
20
  9
$SOLIDHIST
280
0
  9
$SHOWHIST
280
1
  9
$DWFFRAME
280
2
  9
$DGNFRAME
280
2
  9
$REALWORLDSCALE
290
1
  9
$INTERFERECOLOR
 62
256
  9
$CSHADOW
280
0
  9
$SHADOWPLANELOCATION
 40
0.0
  0
ENDSEC
  0
SECTION
  2
CLASSES
  0
CLASS
  1
ACDBDICTIONARYWDFLT
  2
AcDbDictionaryWithDefault
  3
ObjectDBX Classes
 90
0
 91
0
280
0
281
0
  0
CLASS
  1
SUN
  2
AcDbSun
  3
SCENEOE
 90
1153
 91
0
280
0
281
0
  0
CLASS
  1
VISUALSTYLE
  2
AcDbVisualStyle
  3
ObjectDBX Classes
 90
4095
 91
0
280
0
281
0
  0
CLASS
  1
MATERIAL
  2
AcDbMaterial
  3
ObjectDBX Classes
 90
1153
 91
0
280
0
281
0
  0
CLASS
  1
SCALE
  2
AcDbScale
  3
ObjectDBX Classes
 90
1153
 91
0
280
0
281
0
  0
CLASS
  1
TABLESTYLE
  2
AcDbTableStyle
  3
ObjectDBX Classes
 90
4095
 91
0
280
0
281
0
  0
CLASS
  1
MLEADERSTYLE
  2
AcDbMLeaderStyle
  3
ACDB_MLEADERSTYLE_CLASS
 90
4095
 91
0
280
0
281
0
  0
CLASS
  1
DICTIONARYVAR
  2
AcDbDictionaryVar
  3
ObjectDBX Classes
 90
0
 91
0
280
0
281
0
  0
CLASS
  1
CELLSTYLEMAP
  2
AcDbCellStyleMap
  3
ObjectDBX Classes
 90
1152
 91
0
280
0
281
0
  0
CLASS
  1
MENTALRAYRENDERSETTINGS
  2
AcDbMentalRayRenderSettings
  3
SCENEOE
 90
1024
 91
0
280
0
281
0
  0
CLASS
  1
ACDBDETAILVIEWSTYLE
  2
AcDbDetailViewStyle
  3
ObjectDBX Classes
 90
1025
 91
0
280
0
281
0
  0
CLASS
  1
ACDBSECTIONVIEWSTYLE
  2
AcDbSectionViewStyle
  3
ObjectDBX Classes
 90
1025
 91
0
280
0
281
0
  0
CLASS
  1
RASTERVARIABLES
  2
AcDbRasterVariables
  3
ISM
 90
0
 91
0
280
0
281
0
  0
CLASS
  1
ACDBPLACEHOLDER
  2
AcDbPlaceHolder
  3
ObjectDBX Classes
 90
0
 91
0
280
0
281
0
  0
CLASS
  1
LAYOUT
  2
AcDbLayout
  3
ObjectDBX Classes
 90
0
 91
0
280
0
281
0
  0
ENDSEC
  0
SECTION
  2
TABLES
  0
TABLE
  2
VPORT
  5
8
330
0
100
AcDbSymbolTable
 70
1
  0
VPORT
  5
17A
330
8
100
AcDbSymbolTableRecord
100
AcDbViewportTableRecord
  2
*Active
 70
0
 10
0.0
 20
0.0
 11
1.0
 21
1.0
 12
29000.0
 22
17000.0
 13
0.0
 23
0.0
 14
0.5
 24
0.5
 15
0.5
 25
0.5
 16
0.0
 26
0.0
 36
1.0
 17
0.0
 27
0.0
 37
0.0
 40
44000.0
 41
1.34
 42
50.0
 43
0.0
 44
0.0
 50
0.0
 51
0.0
 71
0
 72
1000
 73
1
 74
3
 75
0
 76
0
 77
0
 78
0
281
0
 65
1
110
0.0
120
0.0
130
0.0
111
1.0
121
0.0
131
0.0
112
0.0
122
1.0
132
0.0
 79
0
146
0.0
  0
ENDTAB
  0
TABLE
  2
LTYPE
  5
2
330
0
100
AcDbSymbolTable
 70
3
  0
LTYPE
  5
24
330
2
100
AcDbSymbolTableRecord
100
AcDbLinetypeTableRecord
  2
ByBlock
 70
0
  3

 72
65
 73
0
 40
0.0
  0
LTYPE
  5
25
330
2
100
AcDbSymbolTableRecord
100
AcDbLinetypeTableRecord
  2
ByLayer
 70
0
  3

 72
65
 73
0
 40
0.0
  0
LTYPE
  5
26
330
2
100
AcDbSymbolTableRecord
100
AcDbLinetypeTableRecord
  2
Continuous
 70
0
  3

 72
65
 73
0
 40
0.0
  0
ENDTAB
  0
TABLE
  2
LAYER
  5
1
330
0
100
AcDbSymbolTable
 70
10
  0
LAYER
  5
27
330
1
100
AcDbSymbolTableRecord
100
AcDbLayerTableRecord
  2
0
 70
0
 62
7
  6
Continuous
370
-3
390
13
347
21
  0
LAYER
  5
28
330
1
100
AcDbSymbolTableRecord
100
AcDbLayerTableRecord
  2
Defpoints
 70
0
 62
7
  6
Continuous
290
0
370
-3
390
13
347
21
  0
LAYER
  5
31
330
1
100
AcDbSymbolTableRecord
100
AcDbLayerTableRecord
  2
F01_WALLS
 70
0
 62
7
420
12897493
  6
Continuous
370
18
390
13
347
21
  0
LAYER
  5
E0
330
1
100
AcDbSymbolTableRecord
100
AcDbLayerTableRecord
  2
F01_DOORS
 70
0
 62
7
420
11566155
  6
Continuous
370
18
390
13
347
21
  0
LAYER
  5
F1
330
1
100
AcDbSymbolTableRecord
100
AcDbLayerTableRecord
  2
F01_GLAZING
 70
0
 62
7
420
7254473
  6
Continuous
370
18
390
13
347
21
  0
LAYER
  5
F4
330
1
100
AcDbSymbolTableRecord
100
AcDbLayerTableRecord
  2
F01_COLUMNS
 70
0
 62
7
420
6453648
  6
Continuous
370
18
390
13
347
21
  0
LAYER
  5
FB
330
1
100
AcDbSymbolTableRecord
100
AcDbLayerTableRecord
  2
F01_STAIRS
 70
0
 62
7
420
10069169
  6
Continuous
370
18
390
13
347
21
  0
LAYER
  5
16C
330
1
100
AcDbSymbolTableRecord
100
AcDbLayerTableRecord
  2
F01_PIT
 70
0
 62
7
420
4815495
  6
Continuous
370
18
390
13
347
21
  0
LAYER
  5
16E
330
1
100
AcDbSymbolTableRecord
100
AcDbLayerTableRecord
  2
F01_ROOMS
 70
0
 62
7
420
5264735
  6
Continuous
370
18
390
13
347
21
  0
LAYER
  5
178
330
1
100
AcDbSymbolTableRecord
100
AcDbLayerTableRecord
  2
ANNOTATION
 70
0
 62
7
420
5264735
  6
Continuous
370
18
390
13
347
21
  0
ENDTAB
  0
TABLE
  2
STYLE
  5
5
330
0
100
AcDbSymbolTable
 70
2
  0
STYLE
  5
29
330
5
100
AcDbSymbolTableRecord
100
AcDbTextStyleTableRecord
  2
Standard
 70
0
 40
0.0
 41
1.0
 50
0.0
 71
0
 42
2.5
  3
txt
  4

  0
STYLE
  5
2F
330
5
100
AcDbSymbolTableRecord
100
AcDbTextStyleTableRecord
  2
JAPANESE
 70
0
 40
0.0
 41
1.0
 50
0.0
 71
0
 42
2.5
  3
msgothic.ttc
  4

  0
ENDTAB
  0
TABLE
  2
VIEW
  5
7
330
0
100
AcDbSymbolTable
 70
0
  0
ENDTAB
  0
TABLE
  2
UCS
  5
6
330
0
100
AcDbSymbolTable
 70
0
  0
ENDTAB
  0
TABLE
  2
APPID
  5
3
330
0
100
AcDbSymbolTable
 70
4
  0
APPID
  5
2A
330
3
100
AcDbSymbolTableRecord
100
AcDbRegAppTableRecord
  2
ACAD
 70
0
  0
APPID
  5
30
330
3
100
AcDbSymbolTableRecord
100
AcDbRegAppTableRecord
  2
SHOCHIKUZA
 70
0
  0
APPID
  5
17B
330
3
100
AcDbSymbolTableRecord
100
AcDbRegAppTableRecord
  2
HATCHBACKGROUNDCOLOR
 70
0
  0
APPID
  5
17C
330
3
100
AcDbSymbolTableRecord
100
AcDbRegAppTableRecord
  2
EZDXF
 70
0
  0
ENDTAB
  0
TABLE
  2
DIMSTYLE
  5
4
330
0
100
AcDbSymbolTable
 70
1
100
AcDbDimStyleTable
  0
DIMSTYLE
105
2B
330
4
100
AcDbSymbolTableRecord
100
AcDbDimStyleTableRecord
  2
Standard
 70
0
 40
1.0
 41
2.5
 42
0.625
 43
3.75
 44
1.25
 45
0.0
 46
0.0
 47
0.0
 48
0.0
 49
2.5
140
2.5
141
2.5
142
0.0
143
0.03937007874
144
1.0
145
0.0
146
1.0
147
0.625
148
0.0
 69
0
 70
0
 71
0
 72
0
 73
0
 74
0
 75
0
 76
0
 77
1
 78
8
 79
3
170
0
171
3
172
1
173
0
174
0
175
0
176
0
177
0
178
0
179
2
271
2
272
2
273
2
274
3
275
0
276
0
277
2
278
44
279
0
280
0
281
0
282
0
283
0
284
8
285
0
286
0
288
0
289
3
290
0
371
-2
372
-2
  0
ENDTAB
  0
TABLE
  2
BLOCK_RECORD
  5
9
330
0
100
AcDbSymbolTable
 70
2
  0
BLOCK_RECORD
  5
17
330
9
100
AcDbSymbolTableRecord
100
AcDbBlockTableRecord
  2
*Model_Space
340
1A
 70
0
280
1
281
0
  0
BLOCK_RECORD
  5
1B
330
9
100
AcDbSymbolTableRecord
100
AcDbBlockTableRecord
  2
*Paper_Space
340
1E
 70
0
280
1
281
0
  0
ENDTAB
  0
ENDSEC
  0
SECTION
  2
BLOCKS
  0
BLOCK
  5
18
330
17
100
AcDbEntity
  8
0
100
AcDbBlockBegin
  2
*Model_Space
 70
0
 10
0.0
 20
0.0
 30
0.0
  3
*Model_Space
  1

  0
ENDBLK
  5
19
330
17
100
AcDbEntity
  8
0
100
AcDbBlockEnd
  0
BLOCK
  5
1C
330
1B
100
AcDbEntity
  8
0
100
AcDbBlockBegin
  2
*Paper_Space
 70
0
 10
0.0
 20
0.0
 30
0.0
  3
*Paper_Space
  1

  0
ENDBLK
  5
1D
330
1B
100
AcDbEntity
  8
0
100
AcDbBlockEnd
  0
ENDSEC
  0
SECTION
  2
ENTITIES
  0
LWPOLYLINE
  5
32
330
17
100
AcDbEntity
  8
F01_WALLS
100
AcDbPolyline
 90
5
 70
1
 10
5958.904109589041
 20
35470.13698630137
 10
53178.08219178082
 20
35470.13698630137
 10
53178.08219178082
 20
35790.13698630137
 10
5958.904109589041
 20
35790.13698630137
 10
5958.904109589041
 20
35470.13698630137
  0
LWPOLYLINE
  5
33
330
17
100
AcDbEntity
  8
F01_WALLS
100
AcDbPolyline
 90
5
 70
1
 10
55479.452054794514
 20
35470.13698630137
 10
59917.80821917808
 20
35470.13698630137
 10
59917.80821917808
 20
35790.13698630137
 10
55479.452054794514
 20
35790.13698630137
 10
55479.452054794514
 20
35470.13698630137
  0
LWPOLYLINE
  5
34
330
17
100
AcDbEntity
  8
F01_WALLS
100
AcDbPolyline
 90
5
 70
1
 10
59757.80821917808
 20
35630.13698630137
 10
59757.80821917808
 20
23794.520547945205
 10
60077.80821917808
 20
23794.520547945205
 10
60077.80821917808
 20
35630.13698630137
 10
59757.80821917808
 20
35630.13698630137
  0
LWPOLYLINE
  5
35
330
17
100
AcDbEntity
  8
F01_WALLS
100
AcDbPolyline
 90
5
 70
1
 10
59797.80821917808
 20
23794.520547945205
 10
59797.80821917808
 20
4726.027397260274
 10
60037.80821917808
 20
4726.027397260274
 10
60037.80821917808
 20
23794.520547945205
 10
59797.80821917808
 20
23794.520547945205
  0
LWPOLYLINE
  5
36
330
17
100
AcDbEntity
  8
F01_WALLS
100
AcDbPolyline
 90
5
 70
1
 10
59757.80821917808
 20
986.3013698630136
 10
59757.80821917808
 20
123.2876712328767
 10
60077.80821917808
 20
123.2876712328767
 10
60077.80821917808
 20
986.3013698630136
 10
59757.80821917808
 20
986.3013698630136
  0
LWPOLYLINE
  5
37
330
17
100
AcDbEntity
  8
F01_WALLS
100
AcDbPolyline
 90
5
 70
1
 10
59917.80821917808
 20
283.28767123287673
 10
55479.452054794514
 20
283.28767123287673
 10
55479.452054794514
 20
-36.712328767123296
 10
59917.80821917808
 20
-36.712328767123296
 10
59917.80821917808
 20
283.28767123287673
  0
LWPOLYLINE
  5
38
330
17
100
AcDbEntity
  8
F01_WALLS
100
AcDbPolyline
 90
5
 70
1
 10
53342.46575342465
 20
283.28767123287673
 10
9657.534246575342
 20
283.28767123287673
 10
9657.534246575342
 20
-36.712328767123296
 10
53342.46575342465
 20
-36.712328767123296
 10
53342.46575342465
 20
283.28767123287673
  0
LWPOLYLINE
  5
39
330
17
100
AcDbEntity
  8
F01_WALLS
100
AcDbPolyline
 90
5
 70
1
 10
9761.83605507662
 20
244.61834642824036
 10
7419.370301651962
 20
2258.3169765652265
 10
7210.766684649408
 20
2015.655626174499
 10
9553.232438074065
 20
1.9569960375130506
 10
9761.83605507662
 20
244.61834642824036
  0
LWPOLYLINE
  5
3A
330
17
100
AcDbEntity
  8
F01_WALLS
100
AcDbPolyline
 90
5
 70
1
 10
7315.068493150685
 20
2296.9863013698628
 10
821.917808219178
 20
2296.9863013698628
 10
821.917808219178
 20
1976.9863013698628
 10
7315.068493150685
 20
1976.9863013698628
 10
7315.068493150685
 20
2296.9863013698628
  0
LWPOLYLINE
  5
3B
330
17
100
AcDbEntity
  8
F01_WALLS
100
AcDbPolyline
 90
5
 70
1
 10
5867.87911050244
 20
35715.80757367699
 10
4552.810617351755
 20
34318.54729970438
 10
4734.860615524956
 20
34147.20612495314
 10
6049.929108675641
 20
35544.466398925746
 10
5867.87911050244
 20
35715.80757367699
  0
LWPOLYLINE
  5
3C
330
17
100
AcDbEntity
  8
F01_WALLS
100
AcDbPolyline
 90
5
 70
1
 10
4518.835616438356
 20
34232.87671232876
 10
4518.835616438356
 20
32260.27397260274
 10
4768.835616438356
 20
32260.27397260274
 10
4768.835616438356
 20
34232.87671232876
 10
4518.835616438356
 20
34232.87671232876
  0
LWPOLYLINE
  5
3D
330
17
100
AcDbEntity
  8
F01_WALLS
100
AcDbPolyline
 90
5
 70
1
 10
4643.835616438356
 20
32385.27397260274
 10
-82.1917808219178
 20
32385.27397260274
 10
-82.1917808219178
 20
32135.27397260274
 10
4643.835616438356
 20
32135.27397260274
 10
4643.835616438356
 20
32385.27397260274
  0
LWPOLYLINE
  5
3E
330
17
100
AcDbEntity
  8
F01_WALLS
100
AcDbPolyline
 90
5
 70
1
 10
42.8082191780822
 20
32260.27397260274
 10
42.8082191780822
 20
35671.232876712325
 10
-207.1917808219178
 20
35671.232876712325
 10
-207.1917808219178
 20
32260.27397260274
 10
42.8082191780822
 20
32260.27397260274
  0
LWPOLYLINE
  5
3F
330
17
100
AcDbEntity
  8
F01_WALLS
100
AcDbPolyline
 90
5
 70
1
 10
-83.04210128305378
 20
35546.23576892533
 10
5958.053789127905
 20
35505.139878514376
 10
5959.754430050177
 20
35755.13409408836
 10
-81.34146036078182
 20
35796.22998449932
 10
-83.04210128305378
 20
35546.23576892533
  0
LWPOLYLINE
  5
40
330
17
100
AcDbEntity
  8
F01_WALLS
100
AcDbPolyline
 90
5
 70
1
 10
4523.835616438356
 20
28767.12328767123
 10
4523.835616438356
 20
25191.780821917808
 10
4763.835616438356
 20
25191.780821917808
 10
4763.835616438356
 20
28767.12328767123
 10
4523.835616438356
 20
28767.12328767123
  0
LWPOLYLINE
  5
41
330
17
100
AcDbEntity
  8
F01_WALLS
100
AcDbPolyline
 90
5
 70
1
 10
4643.835616438356
 20
25071.780821917808
 10
5712.328767123287
 20
25071.780821917808
 10
5712.328767123287
 20
25311.780821917808
 10
4643.835616438356
 20
25311.780821917808
 10
4643.835616438356
 20
25071.780821917808
  0
LWPOLYLINE
  5
42
330
17
100
AcDbEntity
  8
F01_WALLS
100
AcDbPolyline
 90
5
 70
1
 10
5625.398878933144
 20
25109.05721864009
 10
8050.056413179719
 20
22561.112013160637
 10
8223.916189560006
 20
22726.559219716073
 10
5799.258655313431
 20
25274.504425195526
 10
5625.398878933144
 20
25109.05721864009
  0
LWPOLYLINE
  5
43
330
17
100
AcDbEntity
  8
F01_WALLS
100
AcDbPolyline
 90
5
 70
1
 10
3178.767123287671
 20
25520.54794520548
 10
3178.767123287671
 20
16726.027397260274
 10
3478.767123287671
 20
16726.027397260274
 10
3478.767123287671
 20
25520.54794520548
 10
3178.767123287671
 20
25520.54794520548
  0
LWPOLYLINE
  5
44
330
17
100
AcDbEntity
  8
F01_WALLS
100
AcDbPolyline
 90
5
 70
1
 10
3671.917808219178
 20
14178.08219178082
 10
3671.917808219178
 20
5301.369863013699
 10
3971.917808219178
 20
5301.369863013699
 10
3971.917808219178
 20
14178.08219178082
 10
3671.917808219178
 20
14178.08219178082
  0
LWPOLYLINE
  5
45
330
17
100
AcDbEntity
  8
F01_WALLS
100
AcDbPolyline
 90
5
 70
1
 10
4606.027397260274
 20
13808.21917808219
 10
4606.027397260274
 20
7726.027397260274
 10
4846.027397260274
 20
7726.027397260274
 10
4846.027397260274
 20
13808.21917808219
 10
4606.027397260274
 20
13808.21917808219
  0
LWPOLYLINE
  5
46
330
17
100
AcDbEntity
  8
F01_WALLS
100
AcDbPolyline
 90
5
 70
1
 10
4726.027397260274
 20
7606.027397260274
 10
5424.657534246575
 20
7606.027397260274
 10
5424.657534246575
 20
7846.027397260274
 10
4726.027397260274
 20
7846.027397260274
 10
4726.027397260274
 20
7606.027397260274
  0
LWPOLYLINE
  5
47
330
17
100
AcDbEntity
  8
F01_WALLS
100
AcDbPolyline
 90
5
 70
1
 10
5304.657534246575
 20
7726.027397260274
 10
5304.657534246575
 20
6041.095890410958
 10
5544.657534246575
 20
6041.095890410958
 10
5544.657534246575
 20
7726.027397260274
 10
5304.657534246575
 20
7726.027397260274
  0
LWPOLYLINE
  5
48
330
17
100
AcDbEntity
  8
F01_WALLS
100
AcDbPolyline
 90
5
 70
1
 10
5424.657534246575
 20
5921.095890410958
 10
7972.602739726027
 20
5921.095890410958
 10
7972.602739726027
 20
6161.095890410958
 10
5424.657534246575
 20
6161.095890410958
 10
5424.657534246575
 20
5921.095890410958
  0
LWPOLYLINE
  5
49
330
17
100
AcDbEntity
  8
F01_WALLS
100
AcDbPolyline
 90
5
 70
1
 10
8424.657534246575
 20
5931.095890410958
 10
13808.21917808219
 20
5931.095890410958
 10
13808.21917808219
 20
6151.095890410958
 10
8424.657534246575
 20
6151.095890410958
 10
8424.657534246575
 20
5931.095890410958
  0
LWPOLYLINE
  5
4A
330
17
100
AcDbEntity
  8
F01_WALLS
100
AcDbPolyline
 90
5
 70
1
 10
15205.479452054793
 20
5931.095890410958
 10
16027.397260273972
 20
5931.095890410958
 10
16027.397260273972
 20
6151.095890410958
 10
15205.479452054793
 20
6151.095890410958
 10
15205.479452054793
 20
5931.095890410958
  0
LWPOLYLINE
  5
4B
330
17
100
AcDbEntity
  8
F01_WALLS
100
AcDbPolyline
 90
5
 70
1
 10
16137.397260273972
 20
6041.095890410958
 10
16137.397260273972
 20
10397.260273972603
 10
15917.397260273972
 20
10397.260273972603
 10
15917.397260273972
 20
6041.095890410958
 10
16137.397260273972
 20
6041.095890410958
  0
LWPOLYLINE
  5
4C
330
17
100
AcDbEntity
  8
F01_WALLS
100
AcDbPolyline
 90
5
 70
1
 10
16027.397260273972
 20
10507.260273972603
 10
14013.698630136985
 20
10507.260273972603
 10
14013.698630136985
 20
10287.260273972603
 10
16027.397260273972
 20
10287.260273972603
 10
16027.397260273972
 20
10507.260273972603
  0
LWPOLYLINE
  5
4D
330
17
100
AcDbEntity
  8
F01_WALLS
100
AcDbPolyline
 90
5
 70
1
 10
13903.698630136985
 20
10397.260273972603
 10
13903.698630136985
 20
9780.821917808218
 10
14123.698630136985
 20
9780.821917808218
 10
14123.698630136985
 20
10397.260273972603
 10
13903.698630136985
 20
10397.260273972603
  0
LWPOLYLINE
  5
4E
330
17
100
AcDbEntity
  8
F01_WALLS
100
AcDbPolyline
 90
5
 70
1
 10
14013.698630136985
 20
9890.821917808218
 10
13232.876712328767
 20
9890.821917808218
 10
13232.876712328767
 20
9670.821917808218
 10
14013.698630136985
 20
9670.821917808218
 10
14013.698630136985
 20
9890.821917808218
  0
LWPOLYLINE
  5
4F
330
17
100
AcDbEntity
  8
F01_WALLS
100
AcDbPolyline
 90
5
 70
1
 10
13342.876712328767
 20
9780.821917808218
 10
13342.876712328767
 20
10397.260273972603
 10
13122.876712328767
 20
10397.260273972603
 10
13122.876712328767
 20
9780.821917808218
 10
13342.876712328767
 20
9780.821917808218
  0
LWPOLYLINE
  5
50
330
17
100
AcDbEntity
  8
F01_WALLS
100
AcDbPolyline
 90
5
 70
1
 10
13232.876712328767
 20
10507.260273972603
 10
6821.9178082191775
 20
10507.260273972603
 10
6821.9178082191775
 20
10287.260273972603
 10
13232.876712328767
 20
10287.260273972603
 10
13232.876712328767
 20
10507.260273972603
  0
LWPOLYLINE
  5
51
330
17
100
AcDbEntity
  8
F01_WALLS
100
AcDbPolyline
 90
5
 70
1
 10
6931.9178082191775
 20
10397.260273972603
 10
6931.9178082191775
 20
15041.095890410958
 10
6711.9178082191775
 20
15041.095890410958
 10
6711.9178082191775
 20
10397.260273972603
 10
6931.9178082191775
 20
10397.260273972603
  0
LWPOLYLINE
  5
52
330
17
100
AcDbEntity
  8
F01_WALLS
100
AcDbPolyline
 90
5
 70
1
 10
16027.397260273972
 20
7851.506849315068
 10
18000.0
 20
7851.506849315068
 10
18000.0
 20
8011.506849315068
 10
16027.397260273972
 20
8011.506849315068
 10
16027.397260273972
 20
7851.506849315068
  0
LWPOLYLINE
  5
53
330
17
100
AcDbEntity
  8
F01_WALLS
100
AcDbPolyline
 90
5
 70
1
 10
18080.0
 20
7931.506849315068
 10
18080.0
 20
10027.397260273972
 10
17920.0
 20
10027.397260273972
 10
17920.0
 20
7931.506849315068
 10
18080.0
 20
7931.506849315068
  0
LWPOLYLINE
  5
54
330
17
100
AcDbEntity
  8
F01_WALLS
100
AcDbPolyline
 90
5
 70
1
 10
18071.554175279995
 20
10063.17434791397
 10
17701.691161581362
 20
10802.90037531123
 10
17558.582811021373
 20
10731.346200031236
 10
17928.445824720005
 20
9991.620172633975
 10
18071.554175279995
 20
10063.17434791397
  0
LWPOLYLINE
  5
55
330
17
100
AcDbEntity
  8
F01_WALLS
100
AcDbPolyline
 90
5
 70
1
 10
16027.397260273972
 20
5961.095890410958
 10
17917.80821917808
 20
5961.095890410958
 10
17917.80821917808
 20
6121.095890410958
 10
16027.397260273972
 20
6121.095890410958
 10
16027.397260273972
 20
5961.095890410958
  0
LWPOLYLINE
  5
56
330
17
100
AcDbEntity
  8
F01_WALLS
100
AcDbPolyline
 90
5
 70
1
 10
17997.80821917808
 20
6041.095890410958
 10
17997.80821917808
 20
6863.013698630137
 10
17837.80821917808
 20
6863.013698630137
 10
17837.80821917808
 20
6041.095890410958
 10
17997.80821917808
 20
6041.095890410958
  0
LWPOLYLINE
  5
57
330
17
100
AcDbEntity
  8
F01_WALLS
100
AcDbPolyline
 90
5
 70
1
 10
17053.08219178082
 20
35424.65753424657
 10
17053.08219178082
 20
32013.698630136983
 10
17303.08219178082
 20
32013.698630136983
 10
17303.08219178082
 20
35424.65753424657
 10
17053.08219178082
 20
35424.65753424657
  0
LWPOLYLINE
  5
58
330
17
100
AcDbEntity
  8
F01_WALLS
100
AcDbPolyline
 90
5
 70
1
 10
17178.08219178082
 20
31888.698630136983
 10
19520.54794520548
 20
31888.698630136983
 10
19520.54794520548
 20
32138.698630136983
 10
17178.08219178082
 20
32138.698630136983
 10
17178.08219178082
 20
31888.698630136983
  0
LWPOLYLINE
  5
59
330
17
100
AcDbEntity
  8
F01_WALLS
100
AcDbPolyline
 90
5
 70
1
 10
19645.54794520548
 20
32013.698630136983
 10
19645.54794520548
 20
35301.36986301369
 10
19395.54794520548
 20
35301.36986301369
 10
19395.54794520548
 20
32013.698630136983
 10
19645.54794520548
 20
32013.698630136983
  0
LWPOLYLINE
  5
5A
330
17
100
AcDbEntity
  8
F01_WALLS
100
AcDbPolyline
 90
5
 70
1
 10
21670.821917808218
 20
35260.273972602736
 10
21670.821917808218
 20
34027.39726027397
 10
21890.821917808218
 20
34027.39726027397
 10
21890.821917808218
 20
35260.273972602736
 10
21670.821917808218
 20
35260.273972602736
  0
LWPOLYLINE
  5
5B
330
17
100
AcDbEntity
  8
F01_WALLS
100
AcDbPolyline
 90
5
 70
1
 10
21780.821917808218
 20
33917.39726027397
 10
22356.16438356164
 20
33917.39726027397
 10
22356.16438356164
 20
34137.39726027397
 10
21780.821917808218
 20
34137.39726027397
 10
21780.821917808218
 20
33917.39726027397
  0
LWPOLYLINE
  5
5C
330
17
100
AcDbEntity
  8
F01_WALLS
100
AcDbPolyline
 90
5
 70
1
 10
22466.16438356164
 20
34027.39726027397
 10
22466.16438356164
 20
35301.36986301369
 10
22246.16438356164
 20
35301.36986301369
 10
22246.16438356164
 20
34027.39726027397
 10
22466.16438356164
 20
34027.39726027397
  0
LWPOLYLINE
  5
5D
330
17
100
AcDbEntity
  8
F01_WALLS
100
AcDbPolyline
 90
5
 70
1
 10
22356.16438356164
 20
35191.36986301369
 10
24534.246575342466
 20
35191.36986301369
 10
24534.246575342466
 20
35411.36986301369
 10
22356.16438356164
 20
35411.36986301369
 10
22356.16438356164
 20
35191.36986301369
  0
LWPOLYLINE
  5
5E
330
17
100
AcDbEntity
  8
F01_WALLS
100
AcDbPolyline
 90
5
 70
1
 10
24424.246575342466
 20
35301.36986301369
 10
24424.246575342466
 20
31808.21917808219
 10
24644.246575342466
 20
31808.21917808219
 10
24644.246575342466
 20
35301.36986301369
 10
24424.246575342466
 20
35301.36986301369
  0
LWPOLYLINE
  5
5F
330
17
100
AcDbEntity
  8
F01_WALLS
100
AcDbPolyline
 90
5
 70
1
 10
24534.246575342466
 20
31698.21917808219
 10
25890.410958904107
 20
31698.21917808219
 10
25890.410958904107
 20
31918.21917808219
 10
24534.246575342466
 20
31918.21917808219
 10
24534.246575342466
 20
31698.21917808219
  0
LWPOLYLINE
  5
60
330
17
100
AcDbEntity
  8
F01_WALLS
100
AcDbPolyline
 90
5
 70
1
 10
26000.410958904107
 20
31808.21917808219
 10
26000.410958904107
 20
35301.36986301369
 10
25780.410958904107
 20
35301.36986301369
 10
25780.410958904107
 20
31808.21917808219
 10
26000.410958904107
 20
31808.21917808219
  0
LWPOLYLINE
  5
61
330
17
100
AcDbEntity
  8
F01_WALLS
100
AcDbPolyline
 90
5
 70
1
 10
25790.410958904107
 20
31479.452054794518
 10
25790.410958904107
 20
29465.75342465753
 10
25990.410958904107
 20
29465.75342465753
 10
25990.410958904107
 20
31479.452054794518
 10
25790.410958904107
 20
31479.452054794518
  0
LWPOLYLINE
  5
62
330
17
100
AcDbEntity
  8
F01_WALLS
100
AcDbPolyline
 90
5
 70
1
 10
26301.369863013697
 20
33218.76712328767
 10
31150.684931506847
 20
33218.76712328767
 10
31150.684931506847
 20
33438.76712328767
 10
26301.369863013697
 20
33438.76712328767
 10
26301.369863013697
 20
33218.76712328767
  0
LWPOLYLINE
  5
63
330
17
100
AcDbEntity
  8
F01_WALLS
100
AcDbPolyline
 90
5
 70
1
 10
31040.684931506847
 20
33328.76712328767
 10
31040.684931506847
 20
31643.835616438355
 10
31260.684931506847
 20
31643.835616438355
 10
31260.684931506847
 20
33328.76712328767
 10
31040.684931506847
 20
33328.76712328767
  0
LWPOLYLINE
  5
64
330
17
100
AcDbEntity
  8
F01_WALLS
100
AcDbPolyline
 90
5
 70
1
 10
31150.684931506847
 20
31753.835616438355
 10
28315.068493150684
 20
31753.835616438355
 10
28315.068493150684
 20
31533.835616438355
 10
31150.684931506847
 20
31533.835616438355
 10
31150.684931506847
 20
31753.835616438355
  0
LWPOLYLINE
  5
65
330
17
100
AcDbEntity
  8
F01_WALLS
100
AcDbPolyline
 90
5
 70
1
 10
30082.191780821915
 20
35227.46575342466
 10
33205.479452054795
 20
35227.46575342466
 10
33205.479452054795
 20
35457.46575342466
 10
30082.191780821915
 20
35457.46575342466
 10
30082.191780821915
 20
35227.46575342466
  0
LWPOLYLINE
  5
66
330
17
100
AcDbEntity
  8
F01_WALLS
100
AcDbPolyline
 90
5
 70
1
 10
33090.479452054795
 20
35342.46575342466
 10
33090.479452054795
 20
31726.027397260274
 10
33320.479452054795
 20
31726.027397260274
 10
33320.479452054795
 20
35342.46575342466
 10
33090.479452054795
 20
35342.46575342466
  0
LWPOLYLINE
  5
67
330
17
100
AcDbEntity
  8
F01_WALLS
100
AcDbPolyline
 90
5
 70
1
 10
33205.479452054795
 20
31841.027397260274
 10
32260.27397260274
 20
31841.027397260274
 10
32260.27397260274
 20
31611.027397260274
 10
33205.479452054795
 20
31611.027397260274
 10
33205.479452054795
 20
31841.027397260274
  0
LWPOLYLINE
  5
68
330
17
100
AcDbEntity
  8
F01_WALLS
100
AcDbPolyline
 90
5
 70
1
 10
33780.821917808214
 20
35252.46575342466
 10
35958.904109589035
 20
35252.46575342466
 10
35958.904109589035
 20
35432.46575342466
 10
33780.821917808214
 20
35432.46575342466
 10
33780.821917808214
 20
35252.46575342466
  0
LWPOLYLINE
  5
69
330
17
100
AcDbEntity
  8
F01_WALLS
100
AcDbPolyline
 90
5
 70
1
 10
35868.904109589035
 20
35342.46575342466
 10
35868.904109589035
 20
32506.84931506849
 10
36048.904109589035
 20
32506.84931506849
 10
36048.904109589035
 20
35342.46575342466
 10
35868.904109589035
 20
35342.46575342466
  0
LWPOLYLINE
  5
6A
330
17
100
AcDbEntity
  8
F01_WALLS
100
AcDbPolyline
 90
5
 70
1
 10
35958.904109589035
 20
32596.84931506849
 10
33780.821917808214
 20
32596.84931506849
 10
33780.821917808214
 20
32416.84931506849
 10
35958.904109589035
 20
32416.84931506849
 10
35958.904109589035
 20
32596.84931506849
  0
LWPOLYLINE
  5
6B
330
17
100
AcDbEntity
  8
F01_WALLS
100
AcDbPolyline
 90
5
 70
1
 10
33870.821917808214
 20
32506.84931506849
 10
33870.821917808214
 20
35342.46575342466
 10
33690.821917808214
 20
35342.46575342466
 10
33690.821917808214
 20
32506.84931506849
 10
33870.821917808214
 20
32506.84931506849
  0
LWPOLYLINE
  5
6C
330
17
100
AcDbEntity
  8
F01_WALLS
100
AcDbPolyline
 90
5
 70
1
 10
36205.479452054795
 20
35252.46575342466
 10
41917.80821917808
 20
35252.46575342466
 10
41917.80821917808
 20
35432.46575342466
 10
36205.479452054795
 20
35432.46575342466
 10
36205.479452054795
 20
35252.46575342466
  0
LWPOLYLINE
  5
6D
330
17
100
AcDbEntity
  8
F01_WALLS
100
AcDbPolyline
 90
5
 70
1
 10
41827.80821917808
 20
35342.46575342466
 10
41827.80821917808
 20
33246.57534246575
 10
42007.80821917808
 20
33246.57534246575
 10
42007.80821917808
 20
35342.46575342466
 10
41827.80821917808
 20
35342.46575342466
  0
LWPOLYLINE
  5
6E
330
17
100
AcDbEntity
  8
F01_WALLS
100
AcDbPolyline
 90
5
 70
1
 10
41917.80821917808
 20
33336.57534246575
 10
36205.479452054795
 20
33336.57534246575
 10
36205.479452054795
 20
33156.57534246575
 10
41917.80821917808
 20
33156.57534246575
 10
41917.80821917808
 20
33336.57534246575
  0
LWPOLYLINE
  5
6F
330
17
100
AcDbEntity
  8
F01_WALLS
100
AcDbPolyline
 90
5
 70
1
 10
36115.479452054795
 20
33246.57534246575
 10
36115.479452054795
 20
30904.109589041094
 10
36295.479452054795
 20
30904.109589041094
 10
36295.479452054795
 20
33246.57534246575
 10
36115.479452054795
 20
33246.57534246575
  0
LWPOLYLINE
  5
70
330
17
100
AcDbEntity
  8
F01_WALLS
100
AcDbPolyline
 90
5
 70
1
 10
36205.479452054795
 20
30814.109589041094
 10
38958.904109589035
 20
30814.109589041094
 10
38958.904109589035
 20
30994.109589041094
 10
36205.479452054795
 20
30994.109589041094
 10
36205.479452054795
 20
30814.109589041094
  0
LWPOLYLINE
  5
71
330
17
100
AcDbEntity
  8
F01_WALLS
100
AcDbPolyline
 90
5
 70
1
 10
39048.904109589035
 20
30904.109589041094
 10
39048.904109589035
 20
33205.479452054795
 10
38868.904109589035
 20
33205.479452054795
 10
38868.904109589035
 20
30904.109589041094
 10
39048.904109589035
 20
30904.109589041094
  0
LWPOLYLINE
  5
72
330
17
100
AcDbEntity
  8
F01_WALLS
100
AcDbPolyline
 90
5
 70
1
 10
41180.273972602736
 20
33164.38356164383
 10
41180.273972602736
 20
29383.561643835616
 10
41340.273972602736
 20
29383.561643835616
 10
41340.273972602736
 20
33164.38356164383
 10
41180.273972602736
 20
33164.38356164383
  0
LWPOLYLINE
  5
73
330
17
100
AcDbEntity
  8
F01_WALLS
100
AcDbPolyline
 90
5
 70
1
 10
41260.273972602736
 20
29463.561643835616
 10
40273.97260273973
 20
29463.561643835616
 10
40273.97260273973
 20
29303.561643835616
 10
41260.273972602736
 20
29303.561643835616
 10
41260.273972602736
 20
29463.561643835616
  0
LWPOLYLINE
  5
74
330
17
100
AcDbEntity
  8
F01_WALLS
100
AcDbPolyline
 90
5
 70
1
 10
40353.97260273973
 20
29383.561643835616
 10
40353.97260273973
 20
30945.20547945205
 10
40193.97260273973
 20
30945.20547945205
 10
40193.97260273973
 20
29383.561643835616
 10
40353.97260273973
 20
29383.561643835616
  0
LWPOLYLINE
  5
75
330
17
100
AcDbEntity
  8
F01_WALLS
100
AcDbPolyline
 90
5
 70
1
 10
40273.97260273973
 20
31025.20547945205
 10
38958.904109589035
 20
31025.20547945205
 10
38958.904109589035
 20
30865.20547945205
 10
40273.97260273973
 20
30865.20547945205
 10
40273.97260273973
 20
31025.20547945205
  0
LWPOLYLINE
  5
76
330
17
100
AcDbEntity
  8
F01_WALLS
100
AcDbPolyline
 90
5
 70
1
 10
38878.904109589035
 20
30945.20547945205
 10
38878.904109589035
 20
29342.465753424654
 10
39038.904109589035
 20
29342.465753424654
 10
39038.904109589035
 20
30945.20547945205
 10
38878.904109589035
 20
30945.20547945205
  0
LWPOLYLINE
  5
77
330
17
100
AcDbEntity
  8
F01_WALLS
100
AcDbPolyline
 90
5
 70
1
 10
42082.191780821915
 20
35232.46575342466
 10
44547.945205479446
 20
35232.46575342466
 10
44547.945205479446
 20
35452.46575342466
 10
42082.191780821915
 20
35452.46575342466
 10
42082.191780821915
 20
35232.46575342466
  0
LWPOLYLINE
  5
78
330
17
100
AcDbEntity
  8
F01_WALLS
100
AcDbPolyline
 90
5
 70
1
 10
44437.945205479446
 20
35342.46575342466
 10
44437.945205479446
 20
32547.94520547945
 10
44657.945205479446
 20
32547.94520547945
 10
44657.945205479446
 20
35342.46575342466
 10
44437.945205479446
 20
35342.46575342466
  0
LWPOLYLINE
  5
79
330
17
100
AcDbEntity
  8
F01_WALLS
100
AcDbPolyline
 90
5
 70
1
 10
44547.945205479446
 20
32657.94520547945
 10
42082.191780821915
 20
32657.94520547945
 10
42082.191780821915
 20
32437.94520547945
 10
44547.945205479446
 20
32437.94520547945
 10
44547.945205479446
 20
32657.94520547945
  0
LWPOLYLINE
  5
7A
330
17
100
AcDbEntity
  8
F01_WALLS
100
AcDbPolyline
 90
5
 70
1
 10
42192.191780821915
 20
32547.94520547945
 10
42192.191780821915
 20
35342.46575342466
 10
41972.191780821915
 20
35342.46575342466
 10
41972.191780821915
 20
32547.94520547945
 10
42192.191780821915
 20
32547.94520547945
  0
LWPOLYLINE
  5
7B
330
17
100
AcDbEntity
  8
F01_WALLS
100
AcDbPolyline
 90
5
 70
1
 10
19975.890410958902
 20
29589.04109589041
 10
19975.890410958902
 20
25684.931506849312
 10
20215.890410958902
 20
25684.931506849312
 10
20215.890410958902
 20
29589.04109589041
 10
19975.890410958902
 20
29589.04109589041
  0
LWPOLYLINE
  5
7C
330
17
100
AcDbEntity
  8
F01_WALLS
100
AcDbPolyline
 90
5
 70
1
 10
20095.890410958902
 20
25804.931506849312
 10
19561.643835616436
 20
25804.931506849312
 10
19561.643835616436
 20
25564.931506849312
 10
20095.890410958902
 20
25564.931506849312
 10
20095.890410958902
 20
25804.931506849312
  0
LWPOLYLINE
  5
7D
330
17
100
AcDbEntity
  8
F01_WALLS
100
AcDbPolyline
 90
5
 70
1
 10
19441.643835616436
 20
25684.931506849312
 10
19441.643835616436
 20
22232.876712328765
 10
19681.643835616436
 20
22232.876712328765
 10
19681.643835616436
 20
25684.931506849312
 10
19441.643835616436
 20
25684.931506849312
  0
LWPOLYLINE
  5
7E
330
17
100
AcDbEntity
  8
F01_WALLS
100
AcDbPolyline
 90
5
 70
1
 10
19453.577639252686
 20
22180.706824429024
 10
20028.920105006113
 20
20988.926002511216
 10
20245.052497733614
 20
21093.2657783107
 10
19669.710031980187
 20
22285.046600228507
 10
19453.577639252686
 20
22180.706824429024
  0
LWPOLYLINE
  5
7F
330
17
100
AcDbEntity
  8
F01_WALLS
100
AcDbPolyline
 90
5
 70
1
 10
20136.986301369863
 20
20921.095890410958
 10
21821.917808219176
 20
20921.095890410958
 10
21821.917808219176
 20
21161.095890410958
 10
20136.986301369863
 20
21161.095890410958
 10
20136.986301369863
 20
20921.095890410958
  0
LWPOLYLINE
  5
80
330
17
100
AcDbEntity
  8
F01_WALLS
100
AcDbPolyline
 90
5
 70
1
 10
21941.917808219176
 20
21041.095890410958
 10
21941.917808219176
 20
23630.136986301368
 10
21701.917808219176
 20
23630.136986301368
 10
21701.917808219176
 20
21041.095890410958
 10
21941.917808219176
 20
21041.095890410958
  0
LWPOLYLINE
  5
81
330
17
100
AcDbEntity
  8
F01_WALLS
100
AcDbPolyline
 90
5
 70
1
 10
21900.821917808218
 20
24041.095890410958
 10
21900.821917808218
 20
29506.84931506849
 10
21660.821917808218
 20
29506.84931506849
 10
21660.821917808218
 20
24041.095890410958
 10
21900.821917808218
 20
24041.095890410958
  0
LWPOLYLINE
  5
82
330
17
100
AcDbEntity
  8
F01_WALLS
100
AcDbPolyline
 90
5
 70
1
 10
21780.821917808218
 20
29386.84931506849
 10
27328.76712328767
 20
29386.84931506849
 10
27328.76712328767
 20
29626.84931506849
 10
21780.821917808218
 20
29626.84931506849
 10
21780.821917808218
 20
29386.84931506849
  0
LWPOLYLINE
  5
83
330
17
100
AcDbEntity
  8
F01_WALLS
100
AcDbPolyline
 90
5
 70
1
 10
27208.76712328767
 20
29506.84931506849
 10
27208.76712328767
 20
28808.21917808219
 10
27448.76712328767
 20
28808.21917808219
 10
27448.76712328767
 20
29506.84931506849
 10
27208.76712328767
 20
29506.84931506849
  0
LWPOLYLINE
  5
84
330
17
100
AcDbEntity
  8
F01_WALLS
100
AcDbPolyline
 90
5
 70
1
 10
27328.76712328767
 20
28688.21917808219
 10
28315.068493150684
 20
28688.21917808219
 10
28315.068493150684
 20
28928.21917808219
 10
27328.76712328767
 20
28928.21917808219
 10
27328.76712328767
 20
28688.21917808219
  0
LWPOLYLINE
  5
85
330
17
100
AcDbEntity
  8
F01_WALLS
100
AcDbPolyline
 90
5
 70
1
 10
30325.47945205479
 20
28767.12328767123
 10
30325.47945205479
 20
29506.84931506849
 10
30085.47945205479
 20
29506.84931506849
 10
30085.47945205479
 20
28767.12328767123
 10
30325.47945205479
 20
28767.12328767123
  0
LWPOLYLINE
  5
86
330
17
100
AcDbEntity
  8
F01_WALLS
100
AcDbPolyline
 90
5
 70
1
 10
30205.47945205479
 20
29386.84931506849
 10
33123.28767123287
 20
29386.84931506849
 10
33123.28767123287
 20
29626.84931506849
 10
30205.47945205479
 20
29626.84931506849
 10
30205.47945205479
 20
29386.84931506849
  0
LWPOLYLINE
  5
87
330
17
100
AcDbEntity
  8
F01_WALLS
100
AcDbPolyline
 90
5
 70
1
 10
33003.28767123287
 20
29506.84931506849
 10
33003.28767123287
 20
28561.643835616436
 10
33243.28767123287
 20
28561.643835616436
 10
33243.28767123287
 20
29506.84931506849
 10
33003.28767123287
 20
29506.84931506849
  0
LWPOLYLINE
  5
88
330
17
100
AcDbEntity
  8
F01_WALLS
100
AcDbPolyline
 90
5
 70
1
 10
33003.28767123287
 20
26424.657534246573
 10
33003.28767123287
 20
23917.80821917808
 10
33243.28767123287
 20
23917.80821917808
 10
33243.28767123287
 20
26424.657534246573
 10
33003.28767123287
 20
26424.657534246573
  0
LWPOLYLINE
  5
89
330
17
100
AcDbEntity
  8
F01_WALLS
100
AcDbPolyline
 90
5
 70
1
 10
33123.28767123287
 20
24037.80821917808
 10
21698.6301369863
 20
24037.80821917808
 10
21698.6301369863
 20
23797.80821917808
 10
33123.28767123287
 20
23797.80821917808
 10
33123.28767123287
 20
24037.80821917808
  0
LWPOLYLINE
  5
8A
330
17
100
AcDbEntity
  8
F01_WALLS
100
AcDbPolyline
 90
5
 70
1
 10
30176.575342465752
 20
26342.465753424654
 10
30176.575342465752
 20
24082.191780821915
 10
30316.575342465752
 20
24082.191780821915
 10
30316.575342465752
 20
26342.465753424654
 10
30176.575342465752
 20
26342.465753424654
  0
LWPOLYLINE
  5
8B
330
17
100
AcDbEntity
  8
F01_WALLS
100
AcDbPolyline
 90
5
 70
1
 10
32054.794520547945
 20
25203.972602739723
 10
33000.0
 20
25203.972602739723
 10
33000.0
 20
25343.972602739723
 10
32054.794520547945
 20
25343.972602739723
 10
32054.794520547945
 20
25203.972602739723
  0
LWPOLYLINE
  5
8C
330
17
100
AcDbEntity
  8
F01_WALLS
100
AcDbPolyline
 90
5
 70
1
 10
22195.068493150684
 20
20917.80821917808
 10
22195.068493150684
 20
18246.575342465752
 10
22435.068493150684
 20
18246.575342465752
 10
22435.068493150684
 20
20917.80821917808
 10
22195.068493150684
 20
20917.80821917808
  0
LWPOLYLINE
  5
8D
330
17
100
AcDbEntity
  8
F01_WALLS
100
AcDbPolyline
 90
5
 70
1
 10
22195.068493150684
 20
17260.27397260274
 10
22195.068493150684
 20
9698.630136986301
 10
22435.068493150684
 20
9698.630136986301
 10
22435.068493150684
 20
17260.27397260274
 10
22195.068493150684
 20
17260.27397260274
  0
LWPOLYLINE
  5
8E
330
17
100
AcDbEntity
  8
F01_WALLS
100
AcDbPolyline
 90
5
 70
1
 10
22315.068493150684
 20
9578.630136986301
 10
24246.575342465752
 20
9578.630136986301
 10
24246.575342465752
 20
9818.630136986301
 10
22315.068493150684
 20
9818.630136986301
 10
22315.068493150684
 20
9578.630136986301
  0
LWPOLYLINE
  5
8F
330
17
100
AcDbEntity
  8
F01_WALLS
100
AcDbPolyline
 90
5
 70
1
 10
24041.095890410958
 20
11643.424657534246
 10
33123.28767123287
 20
11643.424657534246
 10
33123.28767123287
 20
11863.424657534246
 10
24041.095890410958
 20
11863.424657534246
 10
24041.095890410958
 20
11643.424657534246
  0
LWPOLYLINE
  5
90
330
17
100
AcDbEntity
  8
F01_WALLS
100
AcDbPolyline
 90
5
 70
1
 10
33233.28767123287
 20
11753.424657534246
 10
33233.28767123287
 20
12369.863013698628
 10
33013.28767123287
 20
12369.863013698628
 10
33013.28767123287
 20
11753.424657534246
 10
33233.28767123287
 20
11753.424657534246
  0
LWPOLYLINE
  5
91
330
17
100
AcDbEntity
  8
F01_WALLS
100
AcDbPolyline
 90
5
 70
1
 10
33013.28767123287
 20
11178.08219178082
 10
33013.28767123287
 20
8671.232876712329
 10
33233.28767123287
 20
8671.232876712329
 10
33233.28767123287
 20
11178.08219178082
 10
33013.28767123287
 20
11178.08219178082
  0
LWPOLYLINE
  5
92
330
17
100
AcDbEntity
  8
F01_WALLS
100
AcDbPolyline
 90
5
 70
1
 10
24493.150684931505
 20
9618.630136986301
 10
27246.575342465752
 20
9618.630136986301
 10
27246.575342465752
 20
9778.630136986301
 10
24493.150684931505
 20
9778.630136986301
 10
24493.150684931505
 20
9618.630136986301
  0
LWPOLYLINE
  5
93
330
17
100
AcDbEntity
  8
F01_WALLS
100
AcDbPolyline
 90
5
 70
1
 10
27166.575342465752
 20
9698.630136986301
 10
27166.575342465752
 20
8260.27397260274
 10
27326.575342465752
 20
8260.27397260274
 10
27326.575342465752
 20
9698.630136986301
 10
27166.575342465752
 20
9698.630136986301
  0
LWPOLYLINE
  5
94
330
17
100
AcDbEntity
  8
F01_WALLS
100
AcDbPolyline
 90
5
 70
1
 10
27246.575342465752
 20
8340.27397260274
 10
26589.04109589041
 20
8340.27397260274
 10
26589.04109589041
 20
8180.273972602739
 10
27246.575342465752
 20
8180.273972602739
 10
27246.575342465752
 20
8340.27397260274
  0
LWPOLYLINE
  5
95
330
17
100
AcDbEntity
  8
F01_WALLS
100
AcDbPolyline
 90
5
 70
1
 10
26509.04109589041
 20
8260.27397260274
 10
26509.04109589041
 20
5958.904109589041
 10
26669.04109589041
 20
5958.904109589041
 10
26669.04109589041
 20
8260.27397260274
 10
26509.04109589041
 20
8260.27397260274
  0
LWPOLYLINE
  5
96
330
17
100
AcDbEntity
  8
F01_WALLS
100
AcDbPolyline
 90
5
 70
1
 10
19163.972602739726
 20
10849.31506849315
 10
19163.972602739726
 20
5958.904109589041
 10
19383.972602739726
 20
5958.904109589041
 10
19383.972602739726
 20
10849.31506849315
 10
19163.972602739726
 20
10849.31506849315
  0
LWPOLYLINE
  5
97
330
17
100
AcDbEntity
  8
F01_WALLS
100
AcDbPolyline
 90
5
 70
1
 10
19273.972602739726
 20
5848.904109589041
 10
26506.84931506849
 20
5848.904109589041
 10
26506.84931506849
 20
6068.904109589041
 10
19273.972602739726
 20
6068.904109589041
 10
19273.972602739726
 20
5848.904109589041
  0
LWPOLYLINE
  5
98
330
17
100
AcDbEntity
  8
F01_WALLS
100
AcDbPolyline
 90
5
 70
1
 10
26616.84931506849
 20
5958.904109589041
 10
26616.84931506849
 20
6698.630136986301
 10
26396.84931506849
 20
6698.630136986301
 10
26396.84931506849
 20
5958.904109589041
 10
26616.84931506849
 20
5958.904109589041
  0
LWPOLYLINE
  5
99
330
17
100
AcDbEntity
  8
F01_WALLS
100
AcDbPolyline
 90
5
 70
1
 10
27410.958904109586
 20
9618.630136986301
 10
32054.794520547945
 20
9618.630136986301
 10
32054.794520547945
 20
9778.630136986301
 10
27410.958904109586
 20
9778.630136986301
 10
27410.958904109586
 20
9618.630136986301
  0
LWPOLYLINE
  5
9A
330
17
100
AcDbEntity
  8
F01_WALLS
100
AcDbPolyline
 90
5
 70
1
 10
31974.794520547945
 20
9698.630136986301
 10
31974.794520547945
 20
6041.095890410958
 10
32134.794520547945
 20
6041.095890410958
 10
32134.794520547945
 20
9698.630136986301
 10
31974.794520547945
 20
9698.630136986301
  0
LWPOLYLINE
  5
9B
330
17
100
AcDbEntity
  8
F01_WALLS
100
AcDbPolyline
 90
5
 70
1
 10
32054.794520547945
 20
6121.095890410958
 10
26876.71232876712
 20
6121.095890410958
 10
26876.71232876712
 20
5961.095890410958
 10
32054.794520547945
 20
5961.095890410958
 10
32054.794520547945
 20
6121.095890410958
  0
LWPOLYLINE
  5
9C
330
17
100
AcDbEntity
  8
F01_WALLS
100
AcDbPolyline
 90
5
 70
1
 10
32095.890410958902
 20
5848.904109589041
 10
35917.80821917808
 20
5848.904109589041
 10
35917.80821917808
 20
6068.904109589041
 10
32095.890410958902
 20
6068.904109589041
 10
32095.890410958902
 20
5848.904109589041
  0
LWPOLYLINE
  5
9D
330
17
100
AcDbEntity
  8
F01_WALLS
100
AcDbPolyline
 90
5
 70
1
 10
28378.35616438356
 20
9616.438356164383
 10
28378.35616438356
 20
8136.986301369862
 10
28498.35616438356
 20
8136.986301369862
 10
28498.35616438356
 20
9616.438356164383
 10
28378.35616438356
 20
9616.438356164383
  0
LWPOLYLINE
  5
9E
330
17
100
AcDbEntity
  8
F01_WALLS
100
AcDbPolyline
 90
5
 70
1
 10
29570.136986301368
 20
9616.438356164383
 10
29570.136986301368
 20
8136.986301369862
 10
29690.136986301368
 20
8136.986301369862
 10
29690.136986301368
 20
9616.438356164383
 10
29570.136986301368
 20
9616.438356164383
  0
LWPOLYLINE
  5
9F
330
17
100
AcDbEntity
  8
F01_WALLS
100
AcDbPolyline
 90
5
 70
1
 10
30761.917808219176
 20
9616.438356164383
 10
30761.917808219176
 20
8136.986301369862
 10
30881.917808219176
 20
8136.986301369862
 10
30881.917808219176
 20
9616.438356164383
 10
30761.917808219176
 20
9616.438356164383
  0
LWPOLYLINE
  5
A0
330
17
100
AcDbEntity
  8
F01_WALLS
100
AcDbPolyline
 90
5
 70
1
 10
35967.191780821915
 20
29630.136986301368
 10
35967.191780821915
 20
24986.301369863013
 10
36197.191780821915
 20
24986.301369863013
 10
36197.191780821915
 20
29630.136986301368
 10
35967.191780821915
 20
29630.136986301368
  0
LWPOLYLINE
  5
A1
330
17
100
AcDbEntity
  8
F01_WALLS
100
AcDbPolyline
 90
5
 70
1
 10
36082.191780821915
 20
24871.301369863013
 10
43520.54794520548
 20
24871.301369863013
 10
43520.54794520548
 20
25101.301369863013
 10
36082.191780821915
 20
25101.301369863013
 10
36082.191780821915
 20
24871.301369863013
  0
LWPOLYLINE
  5
A2
330
17
100
AcDbEntity
  8
F01_WALLS
100
AcDbPolyline
 90
5
 70
1
 10
36164.38356164383
 20
29391.84931506849
 10
44342.46575342466
 20
29391.84931506849
 10
44342.46575342466
 20
29621.84931506849
 10
36164.38356164383
 20
29621.84931506849
 10
36164.38356164383
 20
29391.84931506849
  0
LWPOLYLINE
  5
A3
330
17
100
AcDbEntity
  8
F01_WALLS
100
AcDbPolyline
 90
5
 70
1
 10
44227.46575342466
 20
29506.84931506849
 10
44227.46575342466
 20
28767.12328767123
 10
44457.46575342466
 20
28767.12328767123
 10
44457.46575342466
 20
29506.84931506849
 10
44227.46575342466
 20
29506.84931506849
  0
LWPOLYLINE
  5
A4
330
17
100
AcDbEntity
  8
F01_WALLS
100
AcDbPolyline
 90
5
 70
1
 10
44342.46575342466
 20
28652.12328767123
 10
45328.76712328767
 20
28652.12328767123
 10
45328.76712328767
 20
28882.12328767123
 10
44342.46575342466
 20
28882.12328767123
 10
44342.46575342466
 20
28652.12328767123
  0
LWPOLYLINE
  5
A5
330
17
100
AcDbEntity
  8
F01_WALLS
100
AcDbPolyline
 90
5
 70
1
 10
45443.76712328767
 20
28767.12328767123
 10
45443.76712328767
 20
29506.84931506849
 10
45213.76712328767
 20
29506.84931506849
 10
45213.76712328767
 20
28767.12328767123
 10
45443.76712328767
 20
28767.12328767123
  0
LWPOLYLINE
  5
A6
330
17
100
AcDbEntity
  8
F01_WALLS
100
AcDbPolyline
 90
5
 70
1
 10
45328.76712328767
 20
29391.84931506849
 10
50219.17808219178
 20
29391.84931506849
 10
50219.17808219178
 20
29621.84931506849
 10
45328.76712328767
 20
29621.84931506849
 10
45328.76712328767
 20
29391.84931506849
  0
LWPOLYLINE
  5
A7
330
17
100
AcDbEntity
  8
F01_WALLS
100
AcDbPolyline
 90
5
 70
1
 10
50104.17808219178
 20
29589.04109589041
 10
50104.17808219178
 20
27041.095890410958
 10
50334.17808219178
 20
27041.095890410958
 10
50334.17808219178
 20
29589.04109589041
 10
50104.17808219178
 20
29589.04109589041
  0
LWPOLYLINE
  5
A8
330
17
100
AcDbEntity
  8
F01_WALLS
100
AcDbPolyline
 90
5
 70
1
 10
50219.17808219178
 20
26926.095890410958
 10
50958.904109589035
 20
26926.095890410958
 10
50958.904109589035
 20
27156.095890410958
 10
50219.17808219178
 20
27156.095890410958
 10
50219.17808219178
 20
26926.095890410958
  0
LWPOLYLINE
  5
A9
330
17
100
AcDbEntity
  8
F01_WALLS
100
AcDbPolyline
 90
5
 70
1
 10
50843.904109589035
 20
27041.095890410958
 10
50843.904109589035
 20
23383.561643835616
 10
51073.904109589035
 20
23383.561643835616
 10
51073.904109589035
 20
27041.095890410958
 10
50843.904109589035
 20
27041.095890410958
  0
LWPOLYLINE
  5
AA
330
17
100
AcDbEntity
  8
F01_WALLS
100
AcDbPolyline
 90
5
 70
1
 10
50958.904109589035
 20
23498.561643835616
 10
50136.98630136986
 20
23498.561643835616
 10
50136.98630136986
 20
23268.561643835616
 10
50958.904109589035
 20
23268.561643835616
 10
50958.904109589035
 20
23498.561643835616
  0
LWPOLYLINE
  5
AB
330
17
100
AcDbEntity
  8
F01_WALLS
100
AcDbPolyline
 90
5
 70
1
 10
44342.46575342466
 20
25652.12328767123
 10
45534.24657534246
 20
25652.12328767123
 10
45534.24657534246
 20
25882.12328767123
 10
44342.46575342466
 20
25882.12328767123
 10
44342.46575342466
 20
25652.12328767123
  0
LWPOLYLINE
  5
AC
330
17
100
AcDbEntity
  8
F01_WALLS
100
AcDbPolyline
 90
5
 70
1
 10
45419.24657534246
 20
25767.12328767123
 10
45419.24657534246
 20
23465.753424657534
 10
45649.24657534246
 20
23465.753424657534
 10
45649.24657534246
 20
25767.12328767123
 10
45419.24657534246
 20
25767.12328767123
  0
LWPOLYLINE
  5
AD
330
17
100
AcDbEntity
  8
F01_WALLS
100
AcDbPolyline
 90
5
 70
1
 10
45534.24657534246
 20
23350.753424657534
 10
46890.4109589041
 20
23350.753424657534
 10
46890.4109589041
 20
23580.753424657534
 10
45534.24657534246
 20
23580.753424657534
 10
45534.24657534246
 20
23350.753424657534
  0
LWPOLYLINE
  5
AE
330
17
100
AcDbEntity
  8
F01_WALLS
100
AcDbPolyline
 90
5
 70
1
 10
40726.02739726027
 20
29591.232876712325
 10
41383.561643835616
 20
29591.232876712325
 10
41383.561643835616
 20
29751.232876712325
 10
40726.02739726027
 20
29751.232876712325
 10
40726.02739726027
 20
29591.232876712325
  0
LWPOLYLINE
  5
AF
330
17
100
AcDbEntity
  8
F01_WALLS
100
AcDbPolyline
 90
5
 70
1
 10
50329.17808219178
 20
29671.232876712325
 10
50329.17808219178
 20
32465.75342465753
 10
50109.17808219178
 20
32465.75342465753
 10
50109.17808219178
 20
29671.232876712325
 10
50329.17808219178
 20
29671.232876712325
  0
LWPOLYLINE
  5
B0
330
17
100
AcDbEntity
  8
F01_WALLS
100
AcDbPolyline
 90
5
 70
1
 10
50219.17808219178
 20
32355.75342465753
 10
54821.91780821917
 20
32355.75342465753
 10
54821.91780821917
 20
32575.75342465753
 10
50219.17808219178
 20
32575.75342465753
 10
50219.17808219178
 20
32355.75342465753
  0
LWPOLYLINE
  5
B1
330
17
100
AcDbEntity
  8
F01_WALLS
100
AcDbPolyline
 90
5
 70
1
 10
54711.91780821917
 20
32465.75342465753
 10
54711.91780821917
 20
26630.136986301368
 10
54931.91780821917
 20
26630.136986301368
 10
54931.91780821917
 20
32465.75342465753
 10
54711.91780821917
 20
32465.75342465753
  0
LWPOLYLINE
  5
B2
330
17
100
AcDbEntity
  8
F01_WALLS
100
AcDbPolyline
 90
5
 70
1
 10
54821.91780821917
 20
26740.136986301368
 10
53260.273972602736
 20
26740.136986301368
 10
53260.273972602736
 20
26520.136986301368
 10
54821.91780821917
 20
26520.136986301368
 10
54821.91780821917
 20
26740.136986301368
  0
LWPOLYLINE
  5
B3
330
17
100
AcDbEntity
  8
F01_WALLS
100
AcDbPolyline
 90
5
 70
1
 10
55232.87671232876
 20
32325.75342465753
 10
55684.93150684931
 20
32325.75342465753
 10
55684.93150684931
 20
32605.75342465753
 10
55232.87671232876
 20
32605.75342465753
 10
55232.87671232876
 20
32325.75342465753
  0
LWPOLYLINE
  5
B4
330
17
100
AcDbEntity
  8
F01_WALLS
100
AcDbPolyline
 90
5
 70
1
 10
55544.93150684931
 20
32465.75342465753
 10
55544.93150684931
 20
23876.71232876712
 10
55824.93150684931
 20
23876.71232876712
 10
55824.93150684931
 20
32465.75342465753
 10
55544.93150684931
 20
32465.75342465753
  0
LWPOLYLINE
  5
B5
330
17
100
AcDbEntity
  8
F01_WALLS
100
AcDbPolyline
 90
5
 70
1
 10
55684.93150684931
 20
24016.71232876712
 10
55068.493150684924
 20
24016.71232876712
 10
55068.493150684924
 20
23736.71232876712
 10
55684.93150684931
 20
23736.71232876712
 10
55684.93150684931
 20
24016.71232876712
  0
LWPOLYLINE
  5
B6
330
17
100
AcDbEntity
  8
F01_WALLS
100
AcDbPolyline
 90
5
 70
1
 10
55232.87671232876
 20
11901.095890410958
 10
55726.02739726027
 20
11901.095890410958
 10
55726.02739726027
 20
12181.095890410958
 10
55232.87671232876
 20
12181.095890410958
 10
55232.87671232876
 20
11901.095890410958
  0
LWPOLYLINE
  5
B7
330
17
100
AcDbEntity
  8
F01_WALLS
100
AcDbPolyline
 90
5
 70
1
 10
55586.02739726027
 20
12041.095890410958
 10
55586.02739726027
 20
3575.342465753424
 10
55866.02739726027
 20
3575.342465753424
 10
55866.02739726027
 20
12041.095890410958
 10
55586.02739726027
 20
12041.095890410958
  0
LWPOLYLINE
  5
B8
330
17
100
AcDbEntity
  8
F01_WALLS
100
AcDbPolyline
 90
5
 70
1
 10
55726.02739726027
 20
3715.342465753424
 10
52726.02739726027
 20
3715.342465753424
 10
52726.02739726027
 20
3435.342465753424
 10
55726.02739726027
 20
3435.342465753424
 10
55726.02739726027
 20
3715.342465753424
  0
LWPOLYLINE
  5
B9
330
17
100
AcDbEntity
  8
F01_WALLS
100
AcDbPolyline
 90
5
 70
1
 10
52866.02739726027
 20
3575.342465753424
 10
52866.02739726027
 20
4808.219178082191
 10
52586.02739726027
 20
4808.219178082191
 10
52586.02739726027
 20
3575.342465753424
 10
52866.02739726027
 20
3575.342465753424
  0
LWPOLYLINE
  5
BA
330
17
100
AcDbEntity
  8
F01_WALLS
100
AcDbPolyline
 90
5
 70
1
 10
50058.08219178082
 20
10438.35616438356
 10
50058.08219178082
 20
3452.0547945205476
 10
50298.08219178082
 20
3452.0547945205476
 10
50298.08219178082
 20
10438.35616438356
 10
50058.08219178082
 20
10438.35616438356
  0
LWPOLYLINE
  5
BB
330
17
100
AcDbEntity
  8
F01_WALLS
100
AcDbPolyline
 90
5
 70
1
 10
52903.69863013698
 20
9780.821917808218
 10
52903.69863013698
 20
4602.739726027397
 10
53123.69863013698
 20
4602.739726027397
 10
53123.69863013698
 20
9780.821917808218
 10
52903.69863013698
 20
9780.821917808218
  0
LWPOLYLINE
  5
BC
330
17
100
AcDbEntity
  8
F01_WALLS
100
AcDbPolyline
 90
5
 70
1
 10
53013.69863013698
 20
4492.739726027397
 10
54616.43835616438
 20
4492.739726027397
 10
54616.43835616438
 20
4712.739726027397
 10
53013.69863013698
 20
4712.739726027397
 10
53013.69863013698
 20
4492.739726027397
  0
LWPOLYLINE
  5
BD
330
17
100
AcDbEntity
  8
F01_WALLS
100
AcDbPolyline
 90
5
 70
1
 10
54726.43835616438
 20
4602.739726027397
 10
54726.43835616438
 20
11835.616438356163
 10
54506.43835616438
 20
11835.616438356163
 10
54506.43835616438
 20
4602.739726027397
 10
54726.43835616438
 20
4602.739726027397
  0
LWPOLYLINE
  5
BE
330
17
100
AcDbEntity
  8
F01_WALLS
100
AcDbPolyline
 90
5
 70
1
 10
36048.904109589035
 20
6041.095890410958
 10
36048.904109589035
 20
10438.35616438356
 10
35868.904109589035
 20
10438.35616438356
 10
35868.904109589035
 20
6041.095890410958
 10
36048.904109589035
 20
6041.095890410958
  0
LWPOLYLINE
  5
BF
330
17
100
AcDbEntity
  8
F01_WALLS
100
AcDbPolyline
 90
5
 70
1
 10
35958.904109589035
 20
10348.35616438356
 10
38958.904109589035
 20
10348.35616438356
 10
38958.904109589035
 20
10528.35616438356
 10
35958.904109589035
 20
10528.35616438356
 10
35958.904109589035
 20
10348.35616438356
  0
LWPOLYLINE
  5
C0
330
17
100
AcDbEntity
  8
F01_WALLS
100
AcDbPolyline
 90
5
 70
1
 10
38868.904109589035
 20
10438.35616438356
 10
38868.904109589035
 20
7150.684931506848
 10
39048.904109589035
 20
7150.684931506848
 10
39048.904109589035
 20
10438.35616438356
 10
38868.904109589035
 20
10438.35616438356
  0
LWPOLYLINE
  5
C1
330
17
100
AcDbEntity
  8
F01_WALLS
100
AcDbPolyline
 90
5
 70
1
 10
38958.904109589035
 20
7240.684931506848
 10
36164.38356164383
 20
7240.684931506848
 10
36164.38356164383
 20
7060.684931506848
 10
38958.904109589035
 20
7060.684931506848
 10
38958.904109589035
 20
7240.684931506848
  0
LWPOLYLINE
  5
C2
330
17
100
AcDbEntity
  8
F01_WALLS
100
AcDbPolyline
 90
5
 70
1
 10
37573.83561643835
 20
10191.780821917808
 10
37573.83561643835
 20
7232.876712328767
 10
37713.83561643835
 20
7232.876712328767
 10
37713.83561643835
 20
10191.780821917808
 10
37573.83561643835
 20
10191.780821917808
  0
LWPOLYLINE
  5
C3
330
17
100
AcDbEntity
  8
F01_WALLS
100
AcDbPolyline
 90
5
 70
1
 10
39465.34246575342
 20
6698.630136986301
 10
39465.34246575342
 20
5958.904109589041
 10
39685.34246575342
 20
5958.904109589041
 10
39685.34246575342
 20
6698.630136986301
 10
39465.34246575342
 20
6698.630136986301
  0
LWPOLYLINE
  5
C4
330
17
100
AcDbEntity
  8
F01_WALLS
100
AcDbPolyline
 90
5
 70
1
 10
39575.34246575342
 20
5848.904109589041
 10
41219.17808219178
 20
5848.904109589041
 10
41219.17808219178
 20
6068.904109589041
 10
39575.34246575342
 20
6068.904109589041
 10
39575.34246575342
 20
5848.904109589041
  0
LWPOLYLINE
  5
C5
330
17
100
AcDbEntity
  8
F01_WALLS
100
AcDbPolyline
 90
5
 70
1
 10
37137.39726027397
 20
123.2876712328767
 10
37137.39726027397
 20
2178.0821917808216
 10
36917.39726027397
 20
2178.0821917808216
 10
36917.39726027397
 20
123.2876712328767
 10
37137.39726027397
 20
123.2876712328767
  0
LWPOLYLINE
  5
C6
330
17
100
AcDbEntity
  8
F01_WALLS
100
AcDbPolyline
 90
5
 70
1
 10
37027.39726027397
 20
2068.0821917808216
 10
44589.04109589041
 20
2068.0821917808216
 10
44589.04109589041
 20
2288.0821917808216
 10
37027.39726027397
 20
2288.0821917808216
 10
37027.39726027397
 20
2068.0821917808216
  0
LWPOLYLINE
  5
C7
330
17
100
AcDbEntity
  8
F01_WALLS
100
AcDbPolyline
 90
5
 70
1
 10
44699.04109589041
 20
2178.0821917808216
 10
44699.04109589041
 20
3863.013698630137
 10
44479.04109589041
 20
3863.013698630137
 10
44479.04109589041
 20
2178.0821917808216
 10
44699.04109589041
 20
2178.0821917808216
  0
LWPOLYLINE
  5
C8
330
17
100
AcDbEntity
  8
F01_WALLS
100
AcDbPolyline
 90
5
 70
1
 10
44589.04109589041
 20
3753.013698630137
 10
45616.43835616438
 20
3753.013698630137
 10
45616.43835616438
 20
3973.013698630137
 10
44589.04109589041
 20
3973.013698630137
 10
44589.04109589041
 20
3753.013698630137
  0
LWPOLYLINE
  5
C9
330
17
100
AcDbEntity
  8
F01_WALLS
100
AcDbPolyline
 90
5
 70
1
 10
45506.43835616438
 20
3863.013698630137
 10
45506.43835616438
 20
205.4794520547945
 10
45726.43835616438
 20
205.4794520547945
 10
45726.43835616438
 20
3863.013698630137
 10
45506.43835616438
 20
3863.013698630137
  0
LWPOLYLINE
  5
CA
330
17
100
AcDbEntity
  8
F01_WALLS
100
AcDbPolyline
 90
5
 70
1
 10
37068.49315068493
 20
1162.876712328767
 10
44589.04109589041
 20
1162.876712328767
 10
44589.04109589041
 20
1302.876712328767
 10
37068.49315068493
 20
1302.876712328767
 10
37068.49315068493
 20
1162.876712328767
  0
LWPOLYLINE
  5
CB
330
17
100
AcDbEntity
  8
F01_WALLS
100
AcDbPolyline
 90
5
 70
1
 10
19137.39726027397
 20
246.5753424657534
 10
19137.39726027397
 20
4109.58904109589
 10
18917.39726027397
 20
4109.58904109589
 10
18917.39726027397
 20
246.5753424657534
 10
19137.39726027397
 20
246.5753424657534
  0
LWPOLYLINE
  5
CC
330
17
100
AcDbEntity
  8
F01_WALLS
100
AcDbPolyline
 90
5
 70
1
 10
19027.39726027397
 20
3999.58904109589
 10
21575.342465753423
 20
3999.58904109589
 10
21575.342465753423
 20
4219.58904109589
 10
19027.39726027397
 20
4219.58904109589
 10
19027.39726027397
 20
3999.58904109589
  0
LWPOLYLINE
  5
CD
330
17
100
AcDbEntity
  8
F01_WALLS
100
AcDbPolyline
 90
5
 70
1
 10
21465.342465753423
 20
4109.58904109589
 10
21465.342465753423
 20
246.5753424657534
 10
21685.342465753423
 20
246.5753424657534
 10
21685.342465753423
 20
4109.58904109589
 10
21465.342465753423
 20
4109.58904109589
  0
LWPOLYLINE
  5
CE
330
17
100
AcDbEntity
  8
F01_WALLS
100
AcDbPolyline
 90
5
 70
1
 10
16949.31506849315
 20
246.5753424657534
 10
16949.31506849315
 20
3082.1917808219177
 10
16749.31506849315
 20
3082.1917808219177
 10
16749.31506849315
 20
246.5753424657534
 10
16949.31506849315
 20
246.5753424657534
  0
LWPOLYLINE
  5
CF
330
17
100
AcDbEntity
  8
F01_WALLS
100
AcDbPolyline
 90
5
 70
1
 10
16849.31506849315
 20
2982.1917808219177
 10
18904.109589041094
 20
2982.1917808219177
 10
18904.109589041094
 20
3182.1917808219177
 10
16849.31506849315
 20
3182.1917808219177
 10
16849.31506849315
 20
2982.1917808219177
  0
LWPOLYLINE
  5
D0
330
17
100
AcDbEntity
  8
F01_WALLS
100
AcDbPolyline
 90
5
 70
1
 10
26123.698630136983
 20
164.3835616438356
 10
26123.698630136983
 20
3986.3013698630134
 10
25903.698630136983
 20
3986.3013698630134
 10
25903.698630136983
 20
164.3835616438356
 10
26123.698630136983
 20
164.3835616438356
  0
LWPOLYLINE
  5
D1
330
17
100
AcDbEntity
  8
F01_WALLS
100
AcDbPolyline
 90
5
 70
1
 10
26013.698630136983
 20
3876.3013698630134
 10
26917.80821917808
 20
3876.3013698630134
 10
26917.80821917808
 20
4096.301369863013
 10
26013.698630136983
 20
4096.301369863013
 10
26013.698630136983
 20
3876.3013698630134
  0
LWPOLYLINE
  5
D2
330
17
100
AcDbEntity
  8
F01_WALLS
100
AcDbPolyline
 90
5
 70
1
 10
28232.876712328765
 20
3835.2054794520545
 10
33082.191780821915
 20
3835.2054794520545
 10
33082.191780821915
 20
4055.2054794520545
 10
28232.876712328765
 20
4055.2054794520545
 10
28232.876712328765
 20
3835.2054794520545
  0
LWPOLYLINE
  5
D3
330
17
100
AcDbEntity
  8
F01_WALLS
100
AcDbPolyline
 90
5
 70
1
 10
32972.191780821915
 20
3945.2054794520545
 10
32972.191780821915
 20
205.4794520547945
 10
33192.191780821915
 20
205.4794520547945
 10
33192.191780821915
 20
3945.2054794520545
 10
32972.191780821915
 20
3945.2054794520545
  0
LWPOLYLINE
  5
D4
330
17
100
AcDbEntity
  8
F01_WALLS
100
AcDbPolyline
 90
5
 70
1
 10
26301.369863013697
 20
2078.0821917808216
 10
31109.58904109589
 20
2078.0821917808216
 10
31109.58904109589
 20
2278.0821917808216
 10
26301.369863013697
 20
2278.0821917808216
 10
26301.369863013697
 20
2078.0821917808216
  0
LWPOLYLINE
  5
D5
330
17
100
AcDbEntity
  8
F01_WALLS
100
AcDbPolyline
 90
5
 70
1
 10
31209.58904109589
 20
2178.0821917808216
 10
31209.58904109589
 20
3863.013698630137
 10
31009.58904109589
 20
3863.013698630137
 10
31009.58904109589
 20
2178.0821917808216
 10
31209.58904109589
 20
2178.0821917808216
  0
LWPOLYLINE
  5
D6
330
17
100
AcDbEntity
  8
F01_WALLS
100
AcDbPolyline
 90
5
 70
1
 10
33839.72602739726
 20
164.3835616438356
 10
33839.72602739726
 20
3863.013698630137
 10
33639.72602739726
 20
3863.013698630137
 10
33639.72602739726
 20
164.3835616438356
 10
33839.72602739726
 20
164.3835616438356
  0
LWPOLYLINE
  5
D7
330
17
100
AcDbEntity
  8
F01_WALLS
100
AcDbPolyline
 90
5
 70
1
 10
33739.72602739726
 20
3763.013698630137
 10
36904.109589041094
 20
3763.013698630137
 10
36904.109589041094
 20
3963.013698630137
 10
33739.72602739726
 20
3963.013698630137
 10
33739.72602739726
 20
3763.013698630137
  0
LWPOLYLINE
  5
D8
330
17
100
AcDbEntity
  8
F01_WALLS
100
AcDbPolyline
 90
5
 70
1
 10
36804.109589041094
 20
3863.013698630137
 10
36804.109589041094
 20
205.4794520547945
 10
37004.109589041094
 20
205.4794520547945
 10
37004.109589041094
 20
3863.013698630137
 10
36804.109589041094
 20
3863.013698630137
  0
LWPOLYLINE
  5
D9
330
17
100
AcDbEntity
  8
F01_WALLS
100
AcDbPolyline
 90
5
 70
1
 10
9798.630136986301
 20
246.5753424657534
 10
9798.630136986301
 20
1356.1643835616437
 10
9598.630136986301
 20
1356.1643835616437
 10
9598.630136986301
 20
246.5753424657534
 10
9798.630136986301
 20
246.5753424657534
  0
LWPOLYLINE
  5
DA
330
17
100
AcDbEntity
  8
F01_WALLS
100
AcDbPolyline
 90
5
 70
1
 10
9698.630136986301
 20
1256.1643835616437
 10
10150.684931506848
 20
1256.1643835616437
 10
10150.684931506848
 20
1456.1643835616437
 10
9698.630136986301
 20
1456.1643835616437
 10
9698.630136986301
 20
1256.1643835616437
  0
LWPOLYLINE
  5
DB
330
17
100
AcDbEntity
  8
F01_WALLS
100
AcDbPolyline
 90
5
 70
1
 10
10250.684931506848
 20
1356.1643835616437
 10
10250.684931506848
 20
4027.3972602739723
 10
10050.684931506848
 20
4027.3972602739723
 10
10050.684931506848
 20
1356.1643835616437
 10
10250.684931506848
 20
1356.1643835616437
  0
LWPOLYLINE
  5
DC
330
17
100
AcDbEntity
  8
F01_WALLS
100
AcDbPolyline
 90
5
 70
1
 10
12616.438356164383
 20
3927.3972602739723
 10
16684.931506849312
 20
3927.3972602739723
 10
16684.931506849312
 20
4127.397260273972
 10
12616.438356164383
 20
4127.397260273972
 10
12616.438356164383
 20
3927.3972602739723
  0
LWPOLYLINE
  5
DD
330
17
100
AcDbEntity
  8
F01_WALLS
100
AcDbPolyline
 90
5
 70
1
 10
16584.931506849312
 20
4027.3972602739723
 10
16584.931506849312
 20
1767.1232876712327
 10
16784.931506849312
 20
1767.1232876712327
 10
16784.931506849312
 20
4027.3972602739723
 10
16584.931506849312
 20
4027.3972602739723
  0
LWPOLYLINE
  5
DE
330
17
100
AcDbEntity
  8
F01_WALLS
100
AcDbPolyline
 90
5
 70
1
 10
16684.931506849312
 20
1867.1232876712327
 10
13232.876712328767
 20
1867.1232876712327
 10
13232.876712328767
 20
1667.1232876712327
 10
16684.931506849312
 20
1667.1232876712327
 10
16684.931506849312
 20
1867.1232876712327
  0
LWPOLYLINE
  5
DF
330
17
100
AcDbEntity
  8
F01_WALLS
100
AcDbPolyline
 90
5
 70
1
 10
13132.876712328767
 20
1767.1232876712327
 10
13132.876712328767
 20
205.4794520547945
 10
13332.876712328767
 20
205.4794520547945
 10
13332.876712328767
 20
1767.1232876712327
 10
13132.876712328767
 20
1767.1232876712327
  0
LWPOLYLINE
  5
E1
330
17
100
AcDbEntity
  8
F01_DOORS
100
AcDbPolyline
 90
5
 70
1
 10
28331.16438356164
 20
28808.21917808219
 10
28331.16438356164
 20
27863.013698630137
 10
28381.16438356164
 20
27863.013698630137
 10
28381.16438356164
 20
28808.21917808219
 10
28331.16438356164
 20
28808.21917808219
  0
LWPOLYLINE
  5
E2
330
17
100
AcDbEntity
  8
F01_DOORS
100
AcDbPolyline
 90
5
 70
1
 10
33123.28767123287
 20
28495.54794520548
 10
34068.49315068493
 20
28495.54794520548
 10
34068.49315068493
 20
28545.54794520548
 10
33123.28767123287
 20
28545.54794520548
 10
33123.28767123287
 20
28495.54794520548
  0
LWPOLYLINE
  5
E3
330
17
100
AcDbEntity
  8
F01_DOORS
100
AcDbPolyline
 90
5
 70
1
 10
33123.28767123287
 20
26481.84931506849
 10
33986.30136986301
 20
26481.84931506849
 10
33986.30136986301
 20
26531.84931506849
 10
33123.28767123287
 20
26531.84931506849
 10
33123.28767123287
 20
26481.84931506849
  0
LWPOLYLINE
  5
E4
330
17
100
AcDbEntity
  8
F01_DOORS
100
AcDbPolyline
 90
5
 70
1
 10
43586.643835616436
 20
24986.301369863013
 10
43586.643835616436
 20
25890.410958904107
 10
43536.643835616436
 20
25890.410958904107
 10
43536.643835616436
 20
24986.301369863013
 10
43586.643835616436
 20
24986.301369863013
  0
LWPOLYLINE
  5
E5
330
17
100
AcDbEntity
  8
F01_DOORS
100
AcDbPolyline
 90
5
 70
1
 10
47358.561643835616
 20
23424.657534246573
 10
47358.561643835616
 20
22438.35616438356
 10
47408.561643835616
 20
22438.35616438356
 10
47408.561643835616
 20
23424.657534246573
 10
47358.561643835616
 20
23424.657534246573
  0
LWPOLYLINE
  5
E6
330
17
100
AcDbEntity
  8
F01_DOORS
100
AcDbPolyline
 90
5
 70
1
 10
49413.35616438356
 20
23424.657534246573
 10
49413.35616438356
 20
22438.35616438356
 10
49463.35616438356
 20
22438.35616438356
 10
49463.35616438356
 20
23424.657534246573
 10
49413.35616438356
 20
23424.657534246573
  0
LWPOLYLINE
  5
E7
330
17
100
AcDbEntity
  8
F01_DOORS
100
AcDbPolyline
 90
5
 70
1
 10
47408.561643835616
 20
12041.095890410958
 10
47408.561643835616
 20
13027.397260273972
 10
47358.561643835616
 20
13027.397260273972
 10
47358.561643835616
 20
12041.095890410958
 10
47408.561643835616
 20
12041.095890410958
  0
LWPOLYLINE
  5
E8
330
17
100
AcDbEntity
  8
F01_DOORS
100
AcDbPolyline
 90
5
 70
1
 10
49463.35616438356
 20
12041.095890410958
 10
49463.35616438356
 20
13027.397260273972
 10
49413.35616438356
 20
13027.397260273972
 10
49413.35616438356
 20
12041.095890410958
 10
49463.35616438356
 20
12041.095890410958
  0
LWPOLYLINE
  5
E9
330
17
100
AcDbEntity
  8
F01_DOORS
100
AcDbPolyline
 90
5
 70
1
 10
13783.21917808219
 20
6041.095890410958
 10
13783.21917808219
 20
5095.890410958904
 10
13833.21917808219
 20
5095.890410958904
 10
13833.21917808219
 20
6041.095890410958
 10
13783.21917808219
 20
6041.095890410958
  0
LWPOLYLINE
  5
EA
330
17
100
AcDbEntity
  8
F01_DOORS
100
AcDbPolyline
 90
5
 70
1
 10
24312.67123287671
 20
9698.630136986301
 10
24312.67123287671
 20
10602.739726027397
 10
24262.67123287671
 20
10602.739726027397
 10
24262.67123287671
 20
9698.630136986301
 10
24312.67123287671
 20
9698.630136986301
  0
LWPOLYLINE
  5
EB
330
17
100
AcDbEntity
  8
F01_DOORS
100
AcDbPolyline
 90
5
 70
1
 10
3879.47631382685
 20
32155.800718737533
 10
2564.407820676165
 20
33306.48565024438
 10
2531.482590282739
 20
33268.85681550904
 10
3846.5510834334236
 20
32118.171884002186
 10
3879.47631382685
 20
32155.800718737533
  0
LWPOLYLINE
  5
EC
330
17
100
AcDbEntity
  8
F01_DOORS
100
AcDbPolyline
 90
5
 70
1
 10
3848.2296070394486
 20
28910.5710838005
 10
2615.3528947106815
 20
28006.461494759405
 10
2644.921077892058
 20
27966.14124496662
 10
3877.797790220825
 20
28870.250834007715
 10
3848.2296070394486
 20
28910.5710838005
  0
LWPOLYLINE
  5
ED
330
17
100
AcDbEntity
  8
F01_DOORS
100
AcDbPolyline
 90
5
 70
1
 10
55284.19900034204
 20
19666.64834955123
 10
54092.41817842424
 20
20200.894924893695
 10
54071.96538321959
 20
20155.269458667946
 10
55263.746205137395
 20
19621.02288332548
 10
55284.19900034204
 20
19666.64834955123
  0
LWPOLYLINE
  5
EE
330
17
100
AcDbEntity
  8
F01_DOORS
100
AcDbPolyline
 90
5
 70
1
 10
55263.10387609394
 20
16296.486393648838
 10
54071.32305417614
 20
15721.143927895413
 10
54093.06050746769
 20
15676.116346077186
 10
55284.8413293855
 20
16251.458811830611
 10
55263.10387609394
 20
16296.486393648838
  0
LWPOLYLINE
  5
EF
330
17
100
AcDbEntity
  8
F01_DOORS
100
AcDbPolyline
 90
5
 70
1
 10
30106.094055035108
 20
28785.272104768876
 10
29325.272137226886
 20
28045.546077371615
 10
29359.659369622423
 20
28009.248443176326
 10
30140.481287430644
 20
28748.974470573587
 10
30106.094055035108
 20
28785.272104768876
  0
LWPOLYLINE
  5
F0
330
17
100
AcDbEntity
  8
F01_DOORS
100
AcDbPolyline
 90
5
 70
1
 10
37027.39726027397
 20
3879.1095890410957
 10
37808.21917808219
 20
3879.1095890410957
 10
37808.21917808219
 20
3929.1095890410957
 10
37027.39726027397
 20
3929.1095890410957
 10
37027.39726027397
 20
3879.1095890410957
  0
LWPOLYLINE
  5
F2
330
17
100
AcDbEntity
  8
F01_GLAZING
100
AcDbPolyline
 90
5
 70
1
 10
59055.8904109589
 20
23630.136986301368
 10
59055.8904109589
 20
12287.671232876712
 10
59135.8904109589
 20
12287.671232876712
 10
59135.8904109589
 20
23630.136986301368
 10
59055.8904109589
 20
23630.136986301368
  0
LWPOLYLINE
  5
F3
330
17
100
AcDbEntity
  8
F01_GLAZING
100
AcDbPolyline
 90
5
 70
1
 10
59055.8904109589
 20
11013.698630136985
 10
59055.8904109589
 20
4767.123287671233
 10
59135.8904109589
 20
4767.123287671233
 10
59135.8904109589
 20
11013.698630136985
 10
59055.8904109589
 20
11013.698630136985
  0
LWPOLYLINE
  5
F5
330
17
100
AcDbEntity
  8
F01_COLUMNS
100
AcDbPolyline
 90
5
 70
1
 10
13232.876712328767
 20
25109.58904109589
 10
13972.602739726026
 20
25109.58904109589
 10
13972.602739726026
 20
25849.315068493146
 10
13232.876712328767
 20
25849.315068493146
 10
13232.876712328767
 20
25109.58904109589
  0
LWPOLYLINE
  5
F6
330
17
100
AcDbEntity
  8
F01_COLUMNS
100
AcDbPolyline
 90
5
 70
1
 10
50136.98630136986
 20
11342.465753424656
 10
50958.904109589035
 20
11342.465753424656
 10
50958.904109589035
 20
12164.383561643835
 10
50136.98630136986
 20
12164.383561643835
 10
50136.98630136986
 20
11342.465753424656
  0
LWPOLYLINE
  5
F7
330
17
100
AcDbEntity
  8
F01_COLUMNS
100
AcDbPolyline
 90
5
 70
1
 10
44363.01369863014
 20
28746.57534246575
 10
45143.83561643835
 20
28746.57534246575
 10
45143.83561643835
 20
29527.39726027397
 10
44363.01369863014
 20
29527.39726027397
 10
44363.01369863014
 20
28746.57534246575
  0
LWPOLYLINE
  5
F8
330
17
100
AcDbEntity
  8
F01_COLUMNS
100
AcDbPolyline
 90
5
 70
1
 10
59136.986301369856
 20
34767.12328767123
 10
60041.09589041096
 20
34767.12328767123
 10
60041.09589041096
 20
35671.232876712325
 10
59136.986301369856
 20
35671.232876712325
 10
59136.986301369856
 20
34767.12328767123
  0
LWPOLYLINE
  5
F9
330
17
100
AcDbEntity
  8
F01_COLUMNS
100
AcDbPolyline
 90
5
 70
1
 10
59116.43835616438
 20
308.2191780821918
 10
60061.643835616436
 20
308.2191780821918
 10
60061.643835616436
 20
1253.4246575342465
 10
59116.43835616438
 20
1253.4246575342465
 10
59116.43835616438
 20
308.2191780821918
  0
LWPOLYLINE
  5
FA
330
17
100
AcDbEntity
  8
F01_COLUMNS
100
AcDbPolyline
 90
5
 70
1
 10
52191.780821917804
 20
34808.21917808219
 10
53013.69863013698
 20
34808.21917808219
 10
53013.69863013698
 20
35630.13698630137
 10
52191.780821917804
 20
35630.13698630137
 10
52191.780821917804
 20
34808.21917808219
  0
LWPOLYLINE
  5
FC
330
17
100
AcDbEntity
  8
F01_STAIRS
100
AcDbPolyline
 90
5
 70
1
 10
27657.534246575342
 20
34376.71232876713
 10
27845.890410958902
 20
34376.71232876713
 10
27845.890410958902
 20
35404.109589041094
 10
27657.534246575342
 20
35404.109589041094
 10
27657.534246575342
 20
34376.71232876713
  0
LWPOLYLINE
  5
FD
330
17
100
AcDbEntity
  8
F01_STAIRS
100
AcDbPolyline
 90
5
 70
1
 10
27845.890410958902
 20
34376.71232876713
 10
28034.246575342462
 20
34376.71232876713
 10
28034.246575342462
 20
35404.109589041094
 10
27845.890410958902
 20
35404.109589041094
 10
27845.890410958902
 20
34376.71232876713
  0
LWPOLYLINE
  5
FE
330
17
100
AcDbEntity
  8
F01_STAIRS
100
AcDbPolyline
 90
5
 70
1
 10
28034.246575342462
 20
34376.71232876713
 10
28222.602739726026
 20
34376.71232876713
 10
28222.602739726026
 20
35404.109589041094
 10
28034.246575342462
 20
35404.109589041094
 10
28034.246575342462
 20
34376.71232876713
  0
LWPOLYLINE
  5
FF
330
17
100
AcDbEntity
  8
F01_STAIRS
100
AcDbPolyline
 90
5
 70
1
 10
28222.602739726026
 20
34376.71232876713
 10
28410.95890410959
 20
34376.71232876713
 10
28410.95890410959
 20
35404.109589041094
 10
28222.602739726026
 20
35404.109589041094
 10
28222.602739726026
 20
34376.71232876713
  0
LWPOLYLINE
  5
100
330
17
100
AcDbEntity
  8
F01_STAIRS
100
AcDbPolyline
 90
5
 70
1
 10
28410.95890410959
 20
34376.71232876713
 10
28599.315068493146
 20
34376.71232876713
 10
28599.315068493146
 20
35404.109589041094
 10
28410.95890410959
 20
35404.109589041094
 10
28410.95890410959
 20
34376.71232876713
  0
LWPOLYLINE
  5
101
330
17
100
AcDbEntity
  8
F01_STAIRS
100
AcDbPolyline
 90
5
 70
1
 10
28599.315068493146
 20
34376.71232876713
 10
28787.67123287671
 20
34376.71232876713
 10
28787.67123287671
 20
35404.109589041094
 10
28599.315068493146
 20
35404.109589041094
 10
28599.315068493146
 20
34376.71232876713
  0
LWPOLYLINE
  5
102
330
17
100
AcDbEntity
  8
F01_STAIRS
100
AcDbPolyline
 90
5
 70
1
 10
28787.67123287671
 20
34376.71232876713
 10
28976.027397260274
 20
34376.71232876713
 10
28976.027397260274
 20
35404.109589041094
 10
28787.67123287671
 20
35404.109589041094
 10
28787.67123287671
 20
34376.71232876713
  0
LWPOLYLINE
  5
103
330
17
100
AcDbEntity
  8
F01_STAIRS
100
AcDbPolyline
 90
5
 70
1
 10
28976.027397260274
 20
34376.71232876713
 10
29164.383561643834
 20
34376.71232876713
 10
29164.383561643834
 20
35404.109589041094
 10
28976.027397260274
 20
35404.109589041094
 10
28976.027397260274
 20
34376.71232876713
  0
LWPOLYLINE
  5
104
330
17
100
AcDbEntity
  8
F01_STAIRS
100
AcDbPolyline
 90
5
 70
1
 10
29164.383561643834
 20
34376.71232876713
 10
29352.739726027394
 20
34376.71232876713
 10
29352.739726027394
 20
35404.109589041094
 10
29164.383561643834
 20
35404.109589041094
 10
29164.383561643834
 20
34376.71232876713
  0
LWPOLYLINE
  5
105
330
17
100
AcDbEntity
  8
F01_STAIRS
100
AcDbPolyline
 90
5
 70
1
 10
29352.739726027394
 20
34376.71232876713
 10
29541.095890410958
 20
34376.71232876713
 10
29541.095890410958
 20
35404.109589041094
 10
29352.739726027394
 20
35404.109589041094
 10
29352.739726027394
 20
34376.71232876713
  0
LWPOLYLINE
  5
106
330
17
100
AcDbEntity
  8
F01_STAIRS
100
AcDbPolyline
 90
5
 70
1
 10
29541.095890410958
 20
34376.71232876713
 10
29729.452054794518
 20
34376.71232876713
 10
29729.452054794518
 20
35404.109589041094
 10
29541.095890410958
 20
35404.109589041094
 10
29541.095890410958
 20
34376.71232876713
  0
LWPOLYLINE
  5
107
330
17
100
AcDbEntity
  8
F01_STAIRS
100
AcDbPolyline
 90
5
 70
1
 10
29729.452054794518
 20
34376.71232876713
 10
29917.80821917808
 20
34376.71232876713
 10
29917.80821917808
 20
35404.109589041094
 10
29729.452054794518
 20
35404.109589041094
 10
29729.452054794518
 20
34376.71232876713
  0
LWPOLYLINE
  5
108
330
17
100
AcDbEntity
  8
F01_STAIRS
100
AcDbPolyline
 90
5
 70
1
 10
29917.80821917808
 20
32876.71232876712
 10
29732.876712328765
 20
32876.71232876712
 10
29732.876712328765
 20
31808.21917808219
 10
29917.80821917808
 20
31808.21917808219
 10
29917.80821917808
 20
32876.71232876712
  0
LWPOLYLINE
  5
109
330
17
100
AcDbEntity
  8
F01_STAIRS
100
AcDbPolyline
 90
5
 70
1
 10
29732.876712328765
 20
32876.71232876712
 10
29547.94520547945
 20
32876.71232876712
 10
29547.94520547945
 20
31808.21917808219
 10
29732.876712328765
 20
31808.21917808219
 10
29732.876712328765
 20
32876.71232876712
  0
LWPOLYLINE
  5
10A
330
17
100
AcDbEntity
  8
F01_STAIRS
100
AcDbPolyline
 90
5
 70
1
 10
29547.94520547945
 20
32876.71232876712
 10
29363.013698630137
 20
32876.71232876712
 10
29363.013698630137
 20
31808.21917808219
 10
29547.94520547945
 20
31808.21917808219
 10
29547.94520547945
 20
32876.71232876712
  0
LWPOLYLINE
  5
10B
330
17
100
AcDbEntity
  8
F01_STAIRS
100
AcDbPolyline
 90
5
 70
1
 10
29363.013698630137
 20
32876.71232876712
 10
29178.08219178082
 20
32876.71232876712
 10
29178.08219178082
 20
31808.21917808219
 10
29363.013698630137
 20
31808.21917808219
 10
29363.013698630137
 20
32876.71232876712
  0
LWPOLYLINE
  5
10C
330
17
100
AcDbEntity
  8
F01_STAIRS
100
AcDbPolyline
 90
5
 70
1
 10
29178.08219178082
 20
32876.71232876712
 10
28993.150684931505
 20
32876.71232876712
 10
28993.150684931505
 20
31808.21917808219
 10
29178.08219178082
 20
31808.21917808219
 10
29178.08219178082
 20
32876.71232876712
  0
LWPOLYLINE
  5
10D
330
17
100
AcDbEntity
  8
F01_STAIRS
100
AcDbPolyline
 90
5
 70
1
 10
28993.150684931505
 20
32876.71232876712
 10
28808.21917808219
 20
32876.71232876712
 10
28808.21917808219
 20
31808.21917808219
 10
28993.150684931505
 20
31808.21917808219
 10
28993.150684931505
 20
32876.71232876712
  0
LWPOLYLINE
  5
10E
330
17
100
AcDbEntity
  8
F01_STAIRS
100
AcDbPolyline
 90
5
 70
1
 10
28808.21917808219
 20
32876.71232876712
 10
28623.287671232876
 20
32876.71232876712
 10
28623.287671232876
 20
31808.21917808219
 10
28808.21917808219
 20
31808.21917808219
 10
28808.21917808219
 20
32876.71232876712
  0
LWPOLYLINE
  5
10F
330
17
100
AcDbEntity
  8
F01_STAIRS
100
AcDbPolyline
 90
5
 70
1
 10
28623.287671232876
 20
32876.71232876712
 10
28438.35616438356
 20
32876.71232876712
 10
28438.35616438356
 20
31808.21917808219
 10
28623.287671232876
 20
31808.21917808219
 10
28623.287671232876
 20
32876.71232876712
  0
LWPOLYLINE
  5
110
330
17
100
AcDbEntity
  8
F01_STAIRS
100
AcDbPolyline
 90
5
 70
1
 10
28438.35616438356
 20
32876.71232876712
 10
28253.424657534244
 20
32876.71232876712
 10
28253.424657534244
 20
31808.21917808219
 10
28438.35616438356
 20
31808.21917808219
 10
28438.35616438356
 20
32876.71232876712
  0
LWPOLYLINE
  5
111
330
17
100
AcDbEntity
  8
F01_STAIRS
100
AcDbPolyline
 90
5
 70
1
 10
28253.424657534244
 20
32876.71232876712
 10
28068.493150684928
 20
32876.71232876712
 10
28068.493150684928
 20
31808.21917808219
 10
28253.424657534244
 20
31808.21917808219
 10
28253.424657534244
 20
32876.71232876712
  0
LWPOLYLINE
  5
112
330
17
100
AcDbEntity
  8
F01_STAIRS
100
AcDbPolyline
 90
5
 70
1
 10
28068.493150684928
 20
32876.71232876712
 10
27883.561643835616
 20
32876.71232876712
 10
27883.561643835616
 20
31808.21917808219
 10
28068.493150684928
 20
31808.21917808219
 10
28068.493150684928
 20
32876.71232876712
  0
LWPOLYLINE
  5
113
330
17
100
AcDbEntity
  8
F01_STAIRS
100
AcDbPolyline
 90
5
 70
1
 10
27883.561643835616
 20
32876.71232876712
 10
27698.6301369863
 20
32876.71232876712
 10
27698.6301369863
 20
31808.21917808219
 10
27883.561643835616
 20
31808.21917808219
 10
27883.561643835616
 20
32876.71232876712
  0
LWPOLYLINE
  5
114
330
17
100
AcDbEntity
  8
F01_STAIRS
100
AcDbPolyline
 90
5
 70
1
 10
27657.534246575342
 20
780.8219178082192
 10
27849.315068493146
 20
780.8219178082192
 10
27849.315068493146
 20
1849.3150684931506
 10
27657.534246575342
 20
1849.3150684931506
 10
27657.534246575342
 20
780.8219178082192
  0
LWPOLYLINE
  5
115
330
17
100
AcDbEntity
  8
F01_STAIRS
100
AcDbPolyline
 90
5
 70
1
 10
27849.315068493146
 20
780.8219178082192
 10
28041.095890410958
 20
780.8219178082192
 10
28041.095890410958
 20
1849.3150684931506
 10
27849.315068493146
 20
1849.3150684931506
 10
27849.315068493146
 20
780.8219178082192
  0
LWPOLYLINE
  5
116
330
17
100
AcDbEntity
  8
F01_STAIRS
100
AcDbPolyline
 90
5
 70
1
 10
28041.095890410958
 20
780.8219178082192
 10
28232.876712328765
 20
780.8219178082192
 10
28232.876712328765
 20
1849.3150684931506
 10
28041.095890410958
 20
1849.3150684931506
 10
28041.095890410958
 20
780.8219178082192
  0
LWPOLYLINE
  5
117
330
17
100
AcDbEntity
  8
F01_STAIRS
100
AcDbPolyline
 90
5
 70
1
 10
28232.876712328765
 20
780.8219178082192
 10
28424.657534246573
 20
780.8219178082192
 10
28424.657534246573
 20
1849.3150684931506
 10
28232.876712328765
 20
1849.3150684931506
 10
28232.876712328765
 20
780.8219178082192
  0
LWPOLYLINE
  5
118
330
17
100
AcDbEntity
  8
F01_STAIRS
100
AcDbPolyline
 90
5
 70
1
 10
28424.657534246573
 20
780.8219178082192
 10
28616.438356164384
 20
780.8219178082192
 10
28616.438356164384
 20
1849.3150684931506
 10
28424.657534246573
 20
1849.3150684931506
 10
28424.657534246573
 20
780.8219178082192
  0
LWPOLYLINE
  5
119
330
17
100
AcDbEntity
  8
F01_STAIRS
100
AcDbPolyline
 90
5
 70
1
 10
28616.438356164384
 20
780.8219178082192
 10
28808.21917808219
 20
780.8219178082192
 10
28808.21917808219
 20
1849.3150684931506
 10
28616.438356164384
 20
1849.3150684931506
 10
28616.438356164384
 20
780.8219178082192
  0
LWPOLYLINE
  5
11A
330
17
100
AcDbEntity
  8
F01_STAIRS
100
AcDbPolyline
 90
5
 70
1
 10
28808.21917808219
 20
780.8219178082192
 10
28999.999999999996
 20
780.8219178082192
 10
28999.999999999996
 20
1849.3150684931506
 10
28808.21917808219
 20
1849.3150684931506
 10
28808.21917808219
 20
780.8219178082192
  0
LWPOLYLINE
  5
11B
330
17
100
AcDbEntity
  8
F01_STAIRS
100
AcDbPolyline
 90
5
 70
1
 10
28999.999999999996
 20
780.8219178082192
 10
29191.780821917808
 20
780.8219178082192
 10
29191.780821917808
 20
1849.3150684931506
 10
28999.999999999996
 20
1849.3150684931506
 10
28999.999999999996
 20
780.8219178082192
  0
LWPOLYLINE
  5
11C
330
17
100
AcDbEntity
  8
F01_STAIRS
100
AcDbPolyline
 90
5
 70
1
 10
29191.780821917808
 20
780.8219178082192
 10
29383.561643835616
 20
780.8219178082192
 10
29383.561643835616
 20
1849.3150684931506
 10
29191.780821917808
 20
1849.3150684931506
 10
29191.780821917808
 20
780.8219178082192
  0
LWPOLYLINE
  5
11D
330
17
100
AcDbEntity
  8
F01_STAIRS
100
AcDbPolyline
 90
5
 70
1
 10
29383.561643835616
 20
780.8219178082192
 10
29575.34246575342
 20
780.8219178082192
 10
29575.34246575342
 20
1849.3150684931506
 10
29383.561643835616
 20
1849.3150684931506
 10
29383.561643835616
 20
780.8219178082192
  0
LWPOLYLINE
  5
11E
330
17
100
AcDbEntity
  8
F01_STAIRS
100
AcDbPolyline
 90
5
 70
1
 10
29575.34246575342
 20
780.8219178082192
 10
29767.12328767123
 20
780.8219178082192
 10
29767.12328767123
 20
1849.3150684931506
 10
29575.34246575342
 20
1849.3150684931506
 10
29575.34246575342
 20
780.8219178082192
  0
LWPOLYLINE
  5
11F
330
17
100
AcDbEntity
  8
F01_STAIRS
100
AcDbPolyline
 90
5
 70
1
 10
29767.12328767123
 20
780.8219178082192
 10
29958.90410958904
 20
780.8219178082192
 10
29958.90410958904
 20
1849.3150684931506
 10
29767.12328767123
 20
1849.3150684931506
 10
29767.12328767123
 20
780.8219178082192
  0
LWPOLYLINE
  5
120
330
17
100
AcDbEntity
  8
F01_STAIRS
100
AcDbPolyline
 90
5
 70
1
 10
29958.90410958904
 20
3595.890410958904
 10
29767.12328767123
 20
3595.890410958904
 10
29767.12328767123
 20
2568.4931506849316
 10
29958.90410958904
 20
2568.4931506849316
 10
29958.90410958904
 20
3595.890410958904
  0
LWPOLYLINE
  5
121
330
17
100
AcDbEntity
  8
F01_STAIRS
100
AcDbPolyline
 90
5
 70
1
 10
29767.12328767123
 20
3595.890410958904
 10
29575.34246575342
 20
3595.890410958904
 10
29575.34246575342
 20
2568.4931506849316
 10
29767.12328767123
 20
2568.4931506849316
 10
29767.12328767123
 20
3595.890410958904
  0
LWPOLYLINE
  5
122
330
17
100
AcDbEntity
  8
F01_STAIRS
100
AcDbPolyline
 90
5
 70
1
 10
29575.34246575342
 20
3595.890410958904
 10
29383.561643835616
 20
3595.890410958904
 10
29383.561643835616
 20
2568.4931506849316
 10
29575.34246575342
 20
2568.4931506849316
 10
29575.34246575342
 20
3595.890410958904
  0
LWPOLYLINE
  5
123
330
17
100
AcDbEntity
  8
F01_STAIRS
100
AcDbPolyline
 90
5
 70
1
 10
29383.561643835616
 20
3595.890410958904
 10
29191.780821917808
 20
3595.890410958904
 10
29191.780821917808
 20
2568.4931506849316
 10
29383.561643835616
 20
2568.4931506849316
 10
29383.561643835616
 20
3595.890410958904
  0
LWPOLYLINE
  5
124
330
17
100
AcDbEntity
  8
F01_STAIRS
100
AcDbPolyline
 90
5
 70
1
 10
29191.780821917808
 20
3595.890410958904
 10
28999.999999999996
 20
3595.890410958904
 10
28999.999999999996
 20
2568.4931506849316
 10
29191.780821917808
 20
2568.4931506849316
 10
29191.780821917808
 20
3595.890410958904
  0
LWPOLYLINE
  5
125
330
17
100
AcDbEntity
  8
F01_STAIRS
100
AcDbPolyline
 90
5
 70
1
 10
28999.999999999996
 20
3595.890410958904
 10
28808.21917808219
 20
3595.890410958904
 10
28808.21917808219
 20
2568.4931506849316
 10
28999.999999999996
 20
2568.4931506849316
 10
28999.999999999996
 20
3595.890410958904
  0
LWPOLYLINE
  5
126
330
17
100
AcDbEntity
  8
F01_STAIRS
100
AcDbPolyline
 90
5
 70
1
 10
28808.21917808219
 20
3595.890410958904
 10
28616.438356164384
 20
3595.890410958904
 10
28616.438356164384
 20
2568.4931506849316
 10
28808.21917808219
 20
2568.4931506849316
 10
28808.21917808219
 20
3595.890410958904
  0
LWPOLYLINE
  5
127
330
17
100
AcDbEntity
  8
F01_STAIRS
100
AcDbPolyline
 90
5
 70
1
 10
28616.438356164384
 20
3595.890410958904
 10
28424.657534246573
 20
3595.890410958904
 10
28424.657534246573
 20
2568.4931506849316
 10
28616.438356164384
 20
2568.4931506849316
 10
28616.438356164384
 20
3595.890410958904
  0
LWPOLYLINE
  5
128
330
17
100
AcDbEntity
  8
F01_STAIRS
100
AcDbPolyline
 90
5
 70
1
 10
28424.657534246573
 20
3595.890410958904
 10
28232.876712328765
 20
3595.890410958904
 10
28232.876712328765
 20
2568.4931506849316
 10
28424.657534246573
 20
2568.4931506849316
 10
28424.657534246573
 20
3595.890410958904
  0
LWPOLYLINE
  5
129
330
17
100
AcDbEntity
  8
F01_STAIRS
100
AcDbPolyline
 90
5
 70
1
 10
28232.876712328765
 20
3595.890410958904
 10
28041.095890410958
 20
3595.890410958904
 10
28041.095890410958
 20
2568.4931506849316
 10
28232.876712328765
 20
2568.4931506849316
 10
28232.876712328765
 20
3595.890410958904
  0
LWPOLYLINE
  5
12A
330
17
100
AcDbEntity
  8
F01_STAIRS
100
AcDbPolyline
 90
5
 70
1
 10
28041.095890410958
 20
3595.890410958904
 10
27849.315068493146
 20
3595.890410958904
 10
27849.315068493146
 20
2568.4931506849316
 10
28041.095890410958
 20
2568.4931506849316
 10
28041.095890410958
 20
3595.890410958904
  0
LWPOLYLINE
  5
12B
330
17
100
AcDbEntity
  8
F01_STAIRS
100
AcDbPolyline
 90
5
 70
1
 10
27849.315068493146
 20
3595.890410958904
 10
27657.534246575342
 20
3595.890410958904
 10
27657.534246575342
 20
2568.4931506849316
 10
27849.315068493146
 20
2568.4931506849316
 10
27849.315068493146
 20
3595.890410958904
  0
LWPOLYLINE
  5
12C
330
17
100
AcDbEntity
  8
F01_STAIRS
100
AcDbPolyline
 90
5
 70
1
 10
50942.48173641755
 20
26212.968195980222
 10
51178.78310628056
 20
26063.995593240496
 10
51704.778537555045
 20
26898.333173882787
 10
51468.47716769203
 20
27047.305776622514
 10
50942.48173641755
 20
26212.968195980222
  0
LWPOLYLINE
  5
12D
330
17
100
AcDbEntity
  8
F01_STAIRS
100
AcDbPolyline
 90
5
 70
1
 10
51178.78310628056
 20
26063.995593240496
 10
51415.08447614358
 20
25915.02299050077
 10
51941.07990741806
 20
26749.36057114306
 10
51704.778537555045
 20
26898.333173882787
 10
51178.78310628056
 20
26063.995593240496
  0
LWPOLYLINE
  5
12E
330
17
100
AcDbEntity
  8
F01_STAIRS
100
AcDbPolyline
 90
5
 70
1
 10
51415.08447614357
 20
25915.022990500773
 10
51651.38584600658
 20
25766.050387761046
 10
52177.38127728108
 20
26600.38796840333
 10
51941.07990741807
 20
26749.360571143057
 10
51415.08447614357
 20
25915.022990500773
  0
LWPOLYLINE
  5
12F
330
17
100
AcDbEntity
  8
F01_STAIRS
100
AcDbPolyline
 90
5
 70
1
 10
51651.3858460066
 20
25766.050387761043
 10
51887.68721586961
 20
25617.07778502132
 10
52413.68264714408
 20
26451.41536566361
 10
52177.38127728106
 20
26600.387968403335
 10
51651.3858460066
 20
25766.050387761043
  0
LWPOLYLINE
  5
130
330
17
100
AcDbEntity
  8
F01_STAIRS
100
AcDbPolyline
 90
5
 70
1
 10
51887.6872158696
 20
25617.077785021324
 10
52123.98858573261
 20
25468.105182281597
 10
52649.984017007104
 20
26302.44276292388
 10
52413.682647144095
 20
26451.415365663608
 10
51887.6872158696
 20
25617.077785021324
  0
LWPOLYLINE
  5
131
330
17
100
AcDbEntity
  8
F01_STAIRS
100
AcDbPolyline
 90
5
 70
1
 10
52123.988585732615
 20
25468.105182281593
 10
52360.28995559563
 20
25319.132579541867
 10
52886.28538687011
 20
26153.47016018416
 10
52649.9840170071
 20
26302.442762923885
 10
52123.988585732615
 20
25468.105182281593
  0
LWPOLYLINE
  5
132
330
17
100
AcDbEntity
  8
F01_STAIRS
100
AcDbPolyline
 90
5
 70
1
 10
52360.28995559563
 20
25319.132579541867
 10
52596.59132545865
 20
25170.15997680214
 10
53122.58675673313
 20
26004.497557444432
 10
52886.28538687011
 20
26153.47016018416
 10
52360.28995559563
 20
25319.132579541867
  0
LWPOLYLINE
  5
133
330
17
100
AcDbEntity
  8
F01_STAIRS
100
AcDbPolyline
 90
5
 70
1
 10
52596.59132545864
 20
25170.159976802144
 10
52832.89269532165
 20
25021.187374062418
 10
53358.888126596146
 20
25855.524954704702
 10
53122.58675673314
 20
26004.49755744443
 10
52596.59132545864
 20
25170.159976802144
  0
LWPOLYLINE
  5
134
330
17
100
AcDbEntity
  8
F01_STAIRS
100
AcDbPolyline
 90
5
 70
1
 10
52027.39726027397
 20
5054.794520547945
 10
52027.39726027397
 20
5434.931506849315
 10
50794.5205479452
 20
5434.931506849315
 10
50794.5205479452
 20
5054.794520547945
 10
52027.39726027397
 20
5054.794520547945
  0
LWPOLYLINE
  5
135
330
17
100
AcDbEntity
  8
F01_STAIRS
100
AcDbPolyline
 90
5
 70
1
 10
52027.39726027397
 20
5434.931506849315
 10
52027.39726027397
 20
5815.068493150685
 10
50794.5205479452
 20
5815.068493150685
 10
50794.5205479452
 20
5434.931506849315
 10
52027.39726027397
 20
5434.931506849315
  0
LWPOLYLINE
  5
136
330
17
100
AcDbEntity
  8
F01_STAIRS
100
AcDbPolyline
 90
5
 70
1
 10
52027.39726027397
 20
5815.068493150685
 10
52027.39726027397
 20
6195.2054794520545
 10
50794.5205479452
 20
6195.2054794520545
 10
50794.5205479452
 20
5815.068493150685
 10
52027.39726027397
 20
5815.068493150685
  0
LWPOLYLINE
  5
137
330
17
100
AcDbEntity
  8
F01_STAIRS
100
AcDbPolyline
 90
5
 70
1
 10
52027.39726027397
 20
6195.2054794520545
 10
52027.39726027397
 20
6575.342465753424
 10
50794.5205479452
 20
6575.342465753424
 10
50794.5205479452
 20
6195.2054794520545
 10
52027.39726027397
 20
6195.2054794520545
  0
LWPOLYLINE
  5
138
330
17
100
AcDbEntity
  8
F01_STAIRS
100
AcDbPolyline
 90
5
 70
1
 10
52027.39726027397
 20
6575.342465753424
 10
52027.39726027397
 20
6955.479452054794
 10
50794.5205479452
 20
6955.479452054794
 10
50794.5205479452
 20
6575.342465753424
 10
52027.39726027397
 20
6575.342465753424
  0
LWPOLYLINE
  5
139
330
17
100
AcDbEntity
  8
F01_STAIRS
100
AcDbPolyline
 90
5
 70
1
 10
52027.39726027397
 20
6955.479452054794
 10
52027.39726027397
 20
7335.616438356164
 10
50794.5205479452
 20
7335.616438356164
 10
50794.5205479452
 20
6955.479452054794
 10
52027.39726027397
 20
6955.479452054794
  0
LWPOLYLINE
  5
13A
330
17
100
AcDbEntity
  8
F01_STAIRS
100
AcDbPolyline
 90
5
 70
1
 10
52027.39726027397
 20
7335.616438356164
 10
52027.39726027397
 20
7715.753424657533
 10
50794.5205479452
 20
7715.753424657533
 10
50794.5205479452
 20
7335.616438356164
 10
52027.39726027397
 20
7335.616438356164
  0
LWPOLYLINE
  5
13B
330
17
100
AcDbEntity
  8
F01_STAIRS
100
AcDbPolyline
 90
5
 70
1
 10
52027.39726027397
 20
7715.753424657533
 10
52027.39726027397
 20
8095.890410958904
 10
50794.5205479452
 20
8095.890410958904
 10
50794.5205479452
 20
7715.753424657533
 10
52027.39726027397
 20
7715.753424657533
  0
LWPOLYLINE
  5
13C
330
17
100
AcDbEntity
  8
F01_STAIRS
100
AcDbPolyline
 90
5
 70
1
 10
52027.39726027397
 20
8095.890410958904
 10
52027.39726027397
 20
8476.027397260274
 10
50794.5205479452
 20
8476.027397260274
 10
50794.5205479452
 20
8095.890410958904
 10
52027.39726027397
 20
8095.890410958904
  0
LWPOLYLINE
  5
13D
330
17
100
AcDbEntity
  8
F01_STAIRS
100
AcDbPolyline
 90
5
 70
1
 10
52027.39726027397
 20
8476.027397260274
 10
52027.39726027397
 20
8856.164383561643
 10
50794.5205479452
 20
8856.164383561643
 10
50794.5205479452
 20
8476.027397260274
 10
52027.39726027397
 20
8476.027397260274
  0
LWPOLYLINE
  5
13E
330
17
100
AcDbEntity
  8
F01_STAIRS
100
AcDbPolyline
 90
5
 70
1
 10
52027.39726027397
 20
8856.164383561643
 10
52027.39726027397
 20
9236.301369863013
 10
50794.5205479452
 20
9236.301369863013
 10
50794.5205479452
 20
8856.164383561643
 10
52027.39726027397
 20
8856.164383561643
  0
LWPOLYLINE
  5
13F
330
17
100
AcDbEntity
  8
F01_STAIRS
100
AcDbPolyline
 90
5
 70
1
 10
52027.39726027397
 20
9236.301369863013
 10
52027.39726027397
 20
9616.438356164383
 10
50794.5205479452
 20
9616.438356164383
 10
50794.5205479452
 20
9236.301369863013
 10
52027.39726027397
 20
9236.301369863013
  0
LWPOLYLINE
  5
140
330
17
100
AcDbEntity
  8
F01_STAIRS
100
AcDbPolyline
 90
5
 70
1
 10
41917.80821917808
 20
32219.17808219178
 10
41917.80821917808
 20
32103.362391033625
 10
43561.643835616436
 20
32103.362391033625
 10
43561.643835616436
 20
32219.17808219178
 10
41917.80821917808
 20
32219.17808219178
  0
LWPOLYLINE
  5
141
330
17
100
AcDbEntity
  8
F01_STAIRS
100
AcDbPolyline
 90
5
 70
1
 10
41917.80821917808
 20
32103.362391033625
 10
41917.80821917808
 20
31987.546699875464
 10
43561.643835616436
 20
31987.546699875464
 10
43561.643835616436
 20
32103.362391033625
 10
41917.80821917808
 20
32103.362391033625
  0
LWPOLYLINE
  5
142
330
17
100
AcDbEntity
  8
F01_STAIRS
100
AcDbPolyline
 90
5
 70
1
 10
41917.80821917808
 20
31987.546699875464
 10
41917.80821917808
 20
31871.731008717306
 10
43561.643835616436
 20
31871.731008717306
 10
43561.643835616436
 20
31987.546699875464
 10
41917.80821917808
 20
31987.546699875464
  0
LWPOLYLINE
  5
143
330
17
100
AcDbEntity
  8
F01_STAIRS
100
AcDbPolyline
 90
5
 70
1
 10
41917.80821917808
 20
31871.731008717306
 10
41917.80821917808
 20
31755.915317559153
 10
43561.643835616436
 20
31755.915317559153
 10
43561.643835616436
 20
31871.731008717306
 10
41917.80821917808
 20
31871.731008717306
  0
LWPOLYLINE
  5
144
330
17
100
AcDbEntity
  8
F01_STAIRS
100
AcDbPolyline
 90
5
 70
1
 10
41917.80821917808
 20
31755.915317559153
 10
41917.80821917808
 20
31640.099626400992
 10
43561.643835616436
 20
31640.099626400992
 10
43561.643835616436
 20
31755.915317559153
 10
41917.80821917808
 20
31755.915317559153
  0
LWPOLYLINE
  5
145
330
17
100
AcDbEntity
  8
F01_STAIRS
100
AcDbPolyline
 90
5
 70
1
 10
41917.80821917808
 20
31640.099626400992
 10
41917.80821917808
 20
31524.28393524284
 10
43561.643835616436
 20
31524.28393524284
 10
43561.643835616436
 20
31640.099626400992
 10
41917.80821917808
 20
31640.099626400992
  0
LWPOLYLINE
  5
146
330
17
100
AcDbEntity
  8
F01_STAIRS
100
AcDbPolyline
 90
5
 70
1
 10
41917.80821917808
 20
31524.28393524284
 10
41917.80821917808
 20
31408.46824408468
 10
43561.643835616436
 20
31408.46824408468
 10
43561.643835616436
 20
31524.28393524284
 10
41917.80821917808
 20
31524.28393524284
  0
LWPOLYLINE
  5
147
330
17
100
AcDbEntity
  8
F01_STAIRS
100
AcDbPolyline
 90
5
 70
1
 10
41917.80821917808
 20
31408.46824408468
 10
41917.80821917808
 20
31292.652552926524
 10
43561.643835616436
 20
31292.652552926524
 10
43561.643835616436
 20
31408.46824408468
 10
41917.80821917808
 20
31408.46824408468
  0
LWPOLYLINE
  5
148
330
17
100
AcDbEntity
  8
F01_STAIRS
100
AcDbPolyline
 90
5
 70
1
 10
41917.80821917808
 20
31292.652552926524
 10
41917.80821917808
 20
31176.836861768366
 10
43561.643835616436
 20
31176.836861768366
 10
43561.643835616436
 20
31292.652552926524
 10
41917.80821917808
 20
31292.652552926524
  0
LWPOLYLINE
  5
149
330
17
100
AcDbEntity
  8
F01_STAIRS
100
AcDbPolyline
 90
5
 70
1
 10
41917.80821917808
 20
31176.836861768366
 10
41917.80821917808
 20
31061.021170610205
 10
43561.643835616436
 20
31061.021170610205
 10
43561.643835616436
 20
31176.836861768366
 10
41917.80821917808
 20
31176.836861768366
  0
LWPOLYLINE
  5
14A
330
17
100
AcDbEntity
  8
F01_STAIRS
100
AcDbPolyline
 90
5
 70
1
 10
41917.80821917808
 20
31061.021170610205
 10
41917.80821917808
 20
30945.20547945205
 10
43561.643835616436
 20
30945.20547945205
 10
43561.643835616436
 20
31061.021170610205
 10
41917.80821917808
 20
31061.021170610205
  0
LWPOLYLINE
  5
14B
330
17
100
AcDbEntity
  8
F01_STAIRS
100
AcDbPolyline
 90
5
 70
1
 10
41917.80821917808
 20
30945.20547945205
 10
41917.80821917808
 20
30829.389788293898
 10
43561.643835616436
 20
30829.389788293898
 10
43561.643835616436
 20
30945.20547945205
 10
41917.80821917808
 20
30945.20547945205
  0
LWPOLYLINE
  5
14C
330
17
100
AcDbEntity
  8
F01_STAIRS
100
AcDbPolyline
 90
5
 70
1
 10
41917.80821917808
 20
30829.389788293898
 10
41917.80821917808
 20
30713.57409713574
 10
43561.643835616436
 20
30713.57409713574
 10
43561.643835616436
 20
30829.389788293898
 10
41917.80821917808
 20
30829.389788293898
  0
LWPOLYLINE
  5
14D
330
17
100
AcDbEntity
  8
F01_STAIRS
100
AcDbPolyline
 90
5
 70
1
 10
41917.80821917808
 20
30713.57409713574
 10
41917.80821917808
 20
30597.75840597758
 10
43561.643835616436
 20
30597.75840597758
 10
43561.643835616436
 20
30713.57409713574
 10
41917.80821917808
 20
30713.57409713574
  0
LWPOLYLINE
  5
14E
330
17
100
AcDbEntity
  8
F01_STAIRS
100
AcDbPolyline
 90
5
 70
1
 10
41917.80821917808
 20
30597.75840597758
 10
41917.80821917808
 20
30481.942714819426
 10
43561.643835616436
 20
30481.942714819426
 10
43561.643835616436
 20
30597.75840597758
 10
41917.80821917808
 20
30597.75840597758
  0
LWPOLYLINE
  5
14F
330
17
100
AcDbEntity
  8
F01_STAIRS
100
AcDbPolyline
 90
5
 70
1
 10
41917.80821917808
 20
30481.942714819426
 10
41917.80821917808
 20
30366.127023661265
 10
43561.643835616436
 20
30366.127023661265
 10
43561.643835616436
 20
30481.942714819426
 10
41917.80821917808
 20
30481.942714819426
  0
LWPOLYLINE
  5
150
330
17
100
AcDbEntity
  8
F01_STAIRS
100
AcDbPolyline
 90
5
 70
1
 10
41917.80821917808
 20
30366.127023661265
 10
41917.80821917808
 20
30250.31133250311
 10
43561.643835616436
 20
30250.31133250311
 10
43561.643835616436
 20
30366.127023661265
 10
41917.80821917808
 20
30366.127023661265
  0
LWPOLYLINE
  5
151
330
17
100
AcDbEntity
  8
F01_STAIRS
100
AcDbPolyline
 90
5
 70
1
 10
41917.80821917808
 20
30250.31133250311
 10
41917.80821917808
 20
30134.495641344954
 10
43561.643835616436
 20
30134.495641344954
 10
43561.643835616436
 20
30250.31133250311
 10
41917.80821917808
 20
30250.31133250311
  0
LWPOLYLINE
  5
152
330
17
100
AcDbEntity
  8
F01_STAIRS
100
AcDbPolyline
 90
5
 70
1
 10
41917.80821917808
 20
30134.495641344954
 10
41917.80821917808
 20
30018.6799501868
 10
43561.643835616436
 20
30018.6799501868
 10
43561.643835616436
 20
30134.495641344954
 10
41917.80821917808
 20
30134.495641344954
  0
LWPOLYLINE
  5
153
330
17
100
AcDbEntity
  8
F01_STAIRS
100
AcDbPolyline
 90
5
 70
1
 10
41917.80821917808
 20
30018.6799501868
 10
41917.80821917808
 20
29902.86425902864
 10
43561.643835616436
 20
29902.86425902864
 10
43561.643835616436
 20
30018.6799501868
 10
41917.80821917808
 20
30018.6799501868
  0
LWPOLYLINE
  5
154
330
17
100
AcDbEntity
  8
F01_STAIRS
100
AcDbPolyline
 90
5
 70
1
 10
41917.80821917808
 20
29902.86425902864
 10
41917.80821917808
 20
29787.048567870483
 10
43561.643835616436
 20
29787.048567870483
 10
43561.643835616436
 20
29902.86425902864
 10
41917.80821917808
 20
29902.86425902864
  0
LWPOLYLINE
  5
155
330
17
100
AcDbEntity
  8
F01_STAIRS
100
AcDbPolyline
 90
5
 70
1
 10
41917.80821917808
 20
29787.048567870483
 10
41917.80821917808
 20
29671.232876712325
 10
43561.643835616436
 20
29671.232876712325
 10
43561.643835616436
 20
29787.048567870483
 10
41917.80821917808
 20
29787.048567870483
  0
LWPOLYLINE
  5
156
330
17
100
AcDbEntity
  8
F01_STAIRS
100
AcDbPolyline
 90
5
 70
1
 10
40232.87671232876
 20
9493.150684931506
 10
40232.87671232876
 20
9373.599003735992
 10
41958.904109589035
 20
9373.599003735992
 10
41958.904109589035
 20
9493.150684931506
 10
40232.87671232876
 20
9493.150684931506
  0
LWPOLYLINE
  5
157
330
17
100
AcDbEntity
  8
F01_STAIRS
100
AcDbPolyline
 90
5
 70
1
 10
40232.87671232876
 20
9373.599003735992
 10
40232.87671232876
 20
9254.047322540471
 10
41958.904109589035
 20
9254.047322540471
 10
41958.904109589035
 20
9373.599003735992
 10
40232.87671232876
 20
9373.599003735992
  0
LWPOLYLINE
  5
158
330
17
100
AcDbEntity
  8
F01_STAIRS
100
AcDbPolyline
 90
5
 70
1
 10
40232.87671232876
 20
9254.047322540471
 10
40232.87671232876
 20
9134.495641344954
 10
41958.904109589035
 20
9134.495641344954
 10
41958.904109589035
 20
9254.047322540471
 10
40232.87671232876
 20
9254.047322540471
  0
LWPOLYLINE
  5
159
330
17
100
AcDbEntity
  8
F01_STAIRS
100
AcDbPolyline
 90
5
 70
1
 10
40232.87671232876
 20
9134.495641344954
 10
40232.87671232876
 20
9014.94396014944
 10
41958.904109589035
 20
9014.94396014944
 10
41958.904109589035
 20
9134.495641344954
 10
40232.87671232876
 20
9134.495641344954
  0
LWPOLYLINE
  5
15A
330
17
100
AcDbEntity
  8
F01_STAIRS
100
AcDbPolyline
 90
5
 70
1
 10
40232.87671232876
 20
9014.94396014944
 10
40232.87671232876
 20
8895.392278953925
 10
41958.904109589035
 20
8895.392278953925
 10
41958.904109589035
 20
9014.94396014944
 10
40232.87671232876
 20
9014.94396014944
  0
LWPOLYLINE
  5
15B
330
17
100
AcDbEntity
  8
F01_STAIRS
100
AcDbPolyline
 90
5
 70
1
 10
40232.87671232876
 20
8895.392278953925
 10
40232.87671232876
 20
8775.840597758404
 10
41958.904109589035
 20
8775.840597758404
 10
41958.904109589035
 20
8895.392278953925
 10
40232.87671232876
 20
8895.392278953925
  0
LWPOLYLINE
  5
15C
330
17
100
AcDbEntity
  8
F01_STAIRS
100
AcDbPolyline
 90
5
 70
1
 10
40232.87671232876
 20
8775.840597758404
 10
40232.87671232876
 20
8656.288916562888
 10
41958.904109589035
 20
8656.288916562888
 10
41958.904109589035
 20
8775.840597758404
 10
40232.87671232876
 20
8775.840597758404
  0
LWPOLYLINE
  5
15D
330
17
100
AcDbEntity
  8
F01_STAIRS
100
AcDbPolyline
 90
5
 70
1
 10
40232.87671232876
 20
8656.288916562888
 10
40232.87671232876
 20
8536.737235367373
 10
41958.904109589035
 20
8536.737235367373
 10
41958.904109589035
 20
8656.288916562888
 10
40232.87671232876
 20
8656.288916562888
  0
LWPOLYLINE
  5
15E
330
17
100
AcDbEntity
  8
F01_STAIRS
100
AcDbPolyline
 90
5
 70
1
 10
40232.87671232876
 20
8536.737235367373
 10
40232.87671232876
 20
8417.185554171858
 10
41958.904109589035
 20
8417.185554171858
 10
41958.904109589035
 20
8536.737235367373
 10
40232.87671232876
 20
8536.737235367373
  0
LWPOLYLINE
  5
15F
330
17
100
AcDbEntity
  8
F01_STAIRS
100
AcDbPolyline
 90
5
 70
1
 10
40232.87671232876
 20
8417.185554171858
 10
40232.87671232876
 20
8297.633872976337
 10
41958.904109589035
 20
8297.633872976337
 10
41958.904109589035
 20
8417.185554171858
 10
40232.87671232876
 20
8417.185554171858
  0
LWPOLYLINE
  5
160
330
17
100
AcDbEntity
  8
F01_STAIRS
100
AcDbPolyline
 90
5
 70
1
 10
40232.87671232876
 20
8297.633872976337
 10
40232.87671232876
 20
8178.082191780822
 10
41958.904109589035
 20
8178.082191780822
 10
41958.904109589035
 20
8297.633872976337
 10
40232.87671232876
 20
8297.633872976337
  0
LWPOLYLINE
  5
161
330
17
100
AcDbEntity
  8
F01_STAIRS
100
AcDbPolyline
 90
5
 70
1
 10
40232.87671232876
 20
8178.082191780822
 10
40232.87671232876
 20
8058.530510585306
 10
41958.904109589035
 20
8058.530510585306
 10
41958.904109589035
 20
8178.082191780822
 10
40232.87671232876
 20
8178.082191780822
  0
LWPOLYLINE
  5
162
330
17
100
AcDbEntity
  8
F01_STAIRS
100
AcDbPolyline
 90
5
 70
1
 10
40232.87671232876
 20
8058.530510585306
 10
40232.87671232876
 20
7938.9788293897855
 10
41958.904109589035
 20
7938.9788293897855
 10
41958.904109589035
 20
8058.530510585306
 10
40232.87671232876
 20
8058.530510585306
  0
LWPOLYLINE
  5
163
330
17
100
AcDbEntity
  8
F01_STAIRS
100
AcDbPolyline
 90
5
 70
1
 10
40232.87671232876
 20
7938.9788293897855
 10
40232.87671232876
 20
7819.427148194271
 10
41958.904109589035
 20
7819.427148194271
 10
41958.904109589035
 20
7938.9788293897855
 10
40232.87671232876
 20
7938.9788293897855
  0
LWPOLYLINE
  5
164
330
17
100
AcDbEntity
  8
F01_STAIRS
100
AcDbPolyline
 90
5
 70
1
 10
40232.87671232876
 20
7819.427148194271
 10
40232.87671232876
 20
7699.875466998755
 10
41958.904109589035
 20
7699.875466998755
 10
41958.904109589035
 20
7819.427148194271
 10
40232.87671232876
 20
7819.427148194271
  0
LWPOLYLINE
  5
165
330
17
100
AcDbEntity
  8
F01_STAIRS
100
AcDbPolyline
 90
5
 70
1
 10
40232.87671232876
 20
7699.875466998755
 10
40232.87671232876
 20
7580.323785803239
 10
41958.904109589035
 20
7580.323785803239
 10
41958.904109589035
 20
7699.875466998755
 10
40232.87671232876
 20
7699.875466998755
  0
LWPOLYLINE
  5
166
330
17
100
AcDbEntity
  8
F01_STAIRS
100
AcDbPolyline
 90
5
 70
1
 10
40232.87671232876
 20
7580.323785803239
 10
40232.87671232876
 20
7460.772104607719
 10
41958.904109589035
 20
7460.772104607719
 10
41958.904109589035
 20
7580.323785803239
 10
40232.87671232876
 20
7580.323785803239
  0
LWPOLYLINE
  5
167
330
17
100
AcDbEntity
  8
F01_STAIRS
100
AcDbPolyline
 90
5
 70
1
 10
40232.87671232876
 20
7460.772104607719
 10
40232.87671232876
 20
7341.220423412204
 10
41958.904109589035
 20
7341.220423412204
 10
41958.904109589035
 20
7460.772104607719
 10
40232.87671232876
 20
7460.772104607719
  0
LWPOLYLINE
  5
168
330
17
100
AcDbEntity
  8
F01_STAIRS
100
AcDbPolyline
 90
5
 70
1
 10
40232.87671232876
 20
7341.220423412204
 10
40232.87671232876
 20
7221.668742216688
 10
41958.904109589035
 20
7221.668742216688
 10
41958.904109589035
 20
7341.220423412204
 10
40232.87671232876
 20
7341.220423412204
  0
LWPOLYLINE
  5
169
330
17
100
AcDbEntity
  8
F01_STAIRS
100
AcDbPolyline
 90
5
 70
1
 10
40232.87671232876
 20
7221.668742216688
 10
40232.87671232876
 20
7102.117061021172
 10
41958.904109589035
 20
7102.117061021172
 10
41958.904109589035
 20
7221.668742216688
 10
40232.87671232876
 20
7221.668742216688
  0
LWPOLYLINE
  5
16A
330
17
100
AcDbEntity
  8
F01_STAIRS
100
AcDbPolyline
 90
5
 70
1
 10
40232.87671232876
 20
7102.117061021172
 10
40232.87671232876
 20
6982.565379825652
 10
41958.904109589035
 20
6982.565379825652
 10
41958.904109589035
 20
7102.117061021172
 10
40232.87671232876
 20
7102.117061021172
  0
LWPOLYLINE
  5
16B
330
17
100
AcDbEntity
  8
F01_STAIRS
100
AcDbPolyline
 90
5
 70
1
 10
40232.87671232876
 20
6982.565379825652
 10
40232.87671232876
 20
6863.013698630137
 10
41958.904109589035
 20
6863.013698630137
 10
41958.904109589035
 20
6982.565379825652
 10
40232.87671232876
 20
6982.565379825652
  0
LWPOLYLINE
  5
16D
330
17
100
AcDbEntity
  8
F01_PIT
100
AcDbPolyline
 90
257
 70
1
 10
20712.328767123287
 20
17835.616438356163
 10
20710.187491826437
 20
17661.138388994637
 10
20703.76495576006
 20
17486.76543868589
 10
20693.065027619727
 20
17312.602623174964
 10
20678.094152642057
 20
17138.75485162956
 10
20658.861348722334
 20
16965.326843446666
 10
20635.378200982483
 20
16792.423065173523
 10
20607.658854792608
 20
16620.14766758087
 10
20575.720007250362
 20
16448.60442292643
 10
20539.580897123236
 20
16277.896662446363
 10
20499.26329325984
 20
16108.12721411241
 10
20454.791481477165
 20
15939.39834069216
 10
20406.19224993173
 20
15771.81167814978
 10
20353.49487298337
 20
15605.468174424317
 10
20296.731093561473
 20
15440.468028622434
 10
20235.935104044238
 20
15276.910630662205
 10
20171.14352566243
 20
15114.89450140436
 10
20102.39538644017
 20
14954.517233306988
 10
20029.732097685846
 20
14795.875431639499
 10
19953.197429047566
 20
14639.06465629122
 10
19872.837482147894
 20
14484.179364209685
 10
19788.700662813986
 20
14331.312852503315
 10
19700.83765191974
 20
14180.557202242711
 10
19609.301374857503
 20
14032.003222994472
 10
19514.14696965782
 20
13885.74039812091
 10
19415.431753776327
 20
13741.856830878605
 10
19313.21518956787
 20
13600.439191348316
 10
19207.55884846861
 20
13461.572664228144
 10
19098.526373907676
 20
13325.340897521477
 10
18986.18344297076
 20
13191.825952150544
 10
18870.59772683868
 20
13061.108252525992
 10
18751.83885002481
 20
12933.266538102223
 10
18629.978348435863
 20
12808.377815947693
 10
18505.089626281337
 20
12686.517314358749
 10
18377.247911857565
 20
12567.758437544879
 10
18246.530212233014
 20
12452.1727214128
 10
18113.01526686208
 20
12339.829790475884
 10
17976.783500155412
 20
12230.797315914948
 10
17837.916973035244
 20
12125.140974815688
 10
17696.499333504955
 20
12022.924410607233
 10
17552.61576626265
 20
11924.20919472574
 10
17406.352941389086
 20
11829.054789526053
 10
17257.79896214085
 20
11737.518512463817
 10
17107.043311880243
 20
11649.65550156957
 10
16954.176800173875
 20
11565.518682235666
 10
16799.291508092338
 20
11485.158735335994
 10
16642.480732744058
 20
11408.62406669771
 10
16483.83893107657
 20
11335.96077794339
 10
16323.461662979198
 20
11267.212638721125
 10
16161.445533721353
 20
11202.421060339322
 10
15997.888135761124
 20
11141.625070822083
 10
15832.887989959241
 20
11084.86129140019
 10
15666.544486233779
 20
11032.163914451829
 10
15498.957823691399
 20
10983.564682906392
 10
15330.228950271148
 20
10939.092871123721
 10
15160.459501937195
 20
10898.775267260324
 10
14989.75174145713
 20
10862.636157133196
 10
14818.208496802688
 20
10830.69730959095
 10
14645.933099210037
 20
10802.977963401077
 10
14473.029320936892
 20
10779.494815661226
 10
14299.601312753999
 20
10760.262011741503
 10
14125.753541208593
 20
10745.291136763832
 10
13951.59072569767
 20
10734.5912086235
 10
13777.217775388923
 20
10728.168672557122
 10
13602.739726027396
 20
10726.027397260274
 10
13428.26167666587
 20
10728.168672557122
 10
13253.888726357123
 20
10734.5912086235
 10
13079.725910846199
 20
10745.291136763832
 10
12905.878139300794
 20
10760.262011741503
 10
12732.4501311179
 20
10779.494815661226
 10
12559.546352844756
 20
10802.977963401077
 10
12387.270955252103
 20
10830.69730959095
 10
12215.727710597663
 20
10862.636157133196
 10
12045.019950117596
 20
10898.775267260324
 10
11875.250501783643
 20
10939.092871123721
 10
11706.521628363393
 20
10983.564682906392
 10
11538.934965821014
 20
11032.163914451829
 10
11372.591462095552
 20
11084.86129140019
 10
11207.591316293667
 20
11141.625070822083
 10
11044.033918333438
 20
11202.421060339322
 10
10882.017789075593
 20
11267.212638721125
 10
10721.640520978222
 20
11335.96077794339
 10
10562.998719310734
 20
11408.62406669771
 10
10406.187943962452
 20
11485.158735335994
 10
10251.302651880918
 20
11565.518682235666
 10
10098.436140174548
 20
11649.65550156957
 10
9947.680489913944
 20
11737.518512463817
 10
9799.126510665707
 20
11829.054789526053
 10
9652.863685792145
 20
11924.209194725738
 10
9508.980118549838
 20
12022.924410607233
 10
9367.562479019547
 20
12125.140974815688
 10
9228.695951899379
 20
12230.797315914948
 10
9092.464185192712
 20
12339.82979047588
 10
8958.949239821779
 20
12452.1727214128
 10
8828.231540197223
 20
12567.758437544879
 10
8700.389825773455
 20
12686.517314358749
 10
8575.501103618928
 20
12808.377815947693
 10
8453.64060202998
 20
12933.26653810222
 10
8334.881725216113
 20
13061.10825252599
 10
8219.296009084032
 20
13191.825952150546
 10
8106.953078147115
 20
13325.340897521477
 10
7997.920603586182
 20
13461.572664228144
 10
7892.264262486921
 20
13600.439191348314
 10
7790.047698278466
 20
13741.856830878605
 10
7691.332482396971
 20
13885.74039812091
 10
7596.178077197286
 20
14032.003222994472
 10
7504.641800135051
 20
14180.55720224271
 10
7416.778789240804
 20
14331.312852503313
 10
7332.6419699069
 20
14484.179364209685
 10
7252.282023007226
 20
14639.064656291219
 10
7175.747354368943
 20
14795.8754316395
 10
7103.084065614623
 20
14954.517233306988
 10
7034.335926392358
 20
15114.89450140436
 10
6969.544348010554
 20
15276.910630662205
 10
6908.748358493317
 20
15440.468028622432
 10
6851.984579071423
 20
15605.468174424319
 10
6799.287202123062
 20
15771.81167814978
 10
6750.6879705776255
 20
15939.398340692158
 10
6706.216158794953
 20
16108.127214112408
 10
6665.898554931557
 20
16277.896662446361
 10
6629.759444804429
 20
16448.604422926426
 10
6597.820597262184
 20
16620.14766758087
 10
6570.101251072309
 20
16792.423065173523
 10
6546.618103332458
 20
16965.326843446666
 10
6527.3852994127365
 20
17138.754851629557
 10
6512.414424435065
 20
17312.602623174964
 10
6501.714496294732
 20
17486.76543868589
 10
6495.291960228355
 20
17661.138388994634
 10
6493.150684931506
 20
17835.616438356163
 10
6495.291960228355
 20
18010.094487717688
 10
6501.714496294732
 20
18184.467438026433
 10
6512.414424435065
 20
18358.63025353736
 10
6527.385299412736
 20
18532.478025082764
 10
6546.618103332458
 20
18705.90603326566
 10
6570.101251072309
 20
18878.809811538802
 10
6597.820597262183
 20
19051.085209131452
 10
6629.759444804429
 20
19222.628453785896
 10
6665.898554931556
 20
19393.336214265964
 10
6706.216158794953
 20
19563.105662599915
 10
6750.687970577625
 20
19731.834536020164
 10
6799.287202123061
 20
19899.421198562544
 10
6851.984579071422
 20
20065.764702288005
 10
6908.748358493316
 20
20230.764848089893
 10
6969.544348010553
 20
20394.32224605012
 10
7034.335926392357
 20
20556.338375307965
 10
7103.084065614623
 20
20716.715643405336
 10
7175.747354368942
 20
20875.357445072823
 10
7252.282023007226
 20
21032.168220421107
 10
7332.641969906899
 20
21187.05351250264
 10
7416.778789240803
 20
21339.92002420901
 10
7504.64180013505
 20
21490.675674469614
 10
7596.178077197285
 20
21639.22965371785
 10
7691.33248239697
 20
21785.492478591415
 10
7790.047698278465
 20
21929.37604583372
 10
7892.26426248692
 20
22070.79368536401
 10
7997.920603586181
 20
22209.66021248418
 10
8106.953078147114
 20
22345.891979190845
 10
8219.296009084032
 20
22479.40692456178
 10
8334.881725216112
 20
22610.124624186334
 10
8453.64060202998
 20
22737.966338610102
 10
8575.501103618928
 20
22862.855060764632
 10
8700.389825773455
 20
22984.715562353576
 10
8828.231540197223
 20
23103.474439167447
 10
8958.949239821775
 20
23219.06015529952
 10
9092.464185192708
 20
23331.40308623644
 10
9228.695951899375
 20
23440.435560797374
 10
9367.562479019549
 20
23546.091901896638
 10
9508.980118549838
 20
23648.308466105096
 10
9652.863685792141
 20
23747.023681986586
 10
9799.126510665705
 20
23842.178087186272
 10
9947.680489913942
 20
23933.714364248506
 10
10098.436140174546
 20
24021.577375142755
 10
10251.302651880918
 20
24105.71419447666
 10
10406.18794396245
 20
24186.07414137633
 10
10562.99871931073
 20
24262.608810014615
 10
10721.640520978217
 20
24335.27209876893
 10
10882.01778907559
 20
24404.0202379912
 10
11044.03391833344
 20
24468.811816373003
 10
11207.591316293667
 20
24529.607805890242
 10
11372.591462095552
 20
24586.371585312136
 10
11538.934965821012
 20
24639.068962260495
 10
11706.52162836339
 20
24687.668193805934
 10
11875.250501783641
 20
24732.140005588604
 10
12045.019950117594
 20
24772.457609452
 10
12215.72771059766
 20
24808.596719579127
 10
12387.270955252101
 20
24840.535567121373
 10
12559.54635284475
 20
24868.254913311248
 10
12732.450131117901
 20
24891.738061051103
 10
12905.878139300794
 20
24910.970864970823
 10
13079.725910846199
 20
24925.941739948496
 10
13253.888726357121
 20
24936.641668088825
 10
13428.261676665868
 20
24943.064204155206
 10
13602.739726027396
 20
24945.20547945205
 10
13777.217775388921
 20
24943.064204155206
 10
13951.590725697666
 20
24936.641668088825
 10
14125.753541208589
 20
24925.941739948496
 10
14299.601312753994
 20
24910.970864970823
 10
14473.029320936887
 20
24891.738061051103
 10
14645.933099210037
 20
24868.254913311248
 10
14818.208496802688
 20
24840.535567121377
 10
14989.75174145713
 20
24808.59671957913
 10
15160.459501937195
 20
24772.457609452
 10
15330.228950271146
 20
24732.140005588604
 10
15498.957823691399
 20
24687.668193805934
 10
15666.544486233775
 20
24639.0689622605
 10
15832.887989959238
 20
24586.371585312136
 10
15997.88813576112
 20
24529.607805890242
 10
16161.445533721348
 20
24468.811816373007
 10
16323.4616629792
 20
24404.0202379912
 10
16483.83893107657
 20
24335.272098768935
 10
16642.480732744058
 20
24262.608810014615
 10
16799.291508092338
 20
24186.07414137633
 10
16954.17680017387
 20
24105.71419447666
 10
17107.043311880243
 20
24021.577375142755
 10
17257.79896214085
 20
23933.71436424851
 10
17406.352941389086
 20
23842.178087186272
 10
17552.615766262647
 20
23747.02368198659
 10
17696.49933350495
 20
23648.308466105096
 10
17837.91697303524
 20
23546.09190189664
 10
17976.783500155416
 20
23440.435560797378
 10
18113.01526686208
 20
23331.40308623644
 10
18246.530212233014
 20
23219.060155299525
 10
18377.247911857565
 20
23103.474439167447
 10
18505.089626281337
 20
22984.71556235358
 10
18629.978348435863
 20
22862.855060764632
 10
18751.83885002481
 20
22737.966338610106
 10
18870.597726838678
 20
22610.124624186337
 10
18986.183442970756
 20
22479.406924561783
 10
19098.526373907673
 20
22345.891979190852
 10
19207.55884846861
 20
22209.660212484185
 10
19313.215189567873
 20
22070.79368536401
 10
19415.431753776327
 20
21929.37604583372
 10
19514.14696965782
 20
21785.492478591415
 10
19609.301374857503
 20
21639.229653717855
 10
19700.83765191974
 20
21490.675674469618
 10
19788.700662813986
 20
21339.920024209012
 10
19872.83748214789
 20
21187.05351250264
 10
19953.197429047563
 20
21032.168220421107
 10
20029.732097685846
 20
20875.35744507283
 10
20102.395386440166
 20
20716.71564340534
 10
20171.14352566243
 20
20556.33837530797
 10
20235.935104044238
 20
20394.32224605012
 10
20296.731093561473
 20
20230.76484808989
 10
20353.49487298337
 20
20065.76470228801
 10
20406.19224993173
 20
19899.421198562548
 10
20454.791481477165
 20
19731.834536020167
 10
20499.26329325984
 20
19563.10566259992
 10
20539.580897123233
 20
19393.336214265964
 10
20575.720007250362
 20
19222.6284537859
 10
20607.658854792608
 20
19051.08520913146
 10
20635.378200982483
 20
18878.809811538806
 10
20658.861348722334
 20
18705.90603326566
 10
20678.094152642057
 20
18532.478025082764
 10
20693.065027619727
 20
18358.63025353736
 10
20703.76495576006
 20
18184.467438026437
 10
20710.187491826437
 20
18010.09448771769
 10
20712.328767123287
 20
17835.616438356163
  0
TEXT
  5
16F
330
17
100
AcDbEntity
  8
F01_ROOMS
100
AcDbText
 10
11506.849315068494
 20
30328.767123287667
 30
0.0
 40
450.0
  1
大道具搬入・組立場
  7
JAPANESE
100
AcDbText
  0
TEXT
  5
170
330
17
100
AcDbEntity
  8
F01_ROOMS
100
AcDbText
 10
13602.739726027396
 20
17835.616438356163
 30
0.0
 40
450.0
  1
ピット
  7
JAPANESE
100
AcDbText
  0
TEXT
  5
171
330
17
100
AcDbEntity
  8
F01_ROOMS
100
AcDbText
 10
10849.31506849315
 20
8301.369863013699
 30
0.0
 40
450.0
  1
防災センター
  7
JAPANESE
100
AcDbText
  0
TEXT
  5
172
330
17
100
AcDbEntity
  8
F01_ROOMS
100
AcDbText
 10
26917.80821917808
 20
26630.13698630137
 30
0.0
 40
450.0
  1
貴賓室
  7
JAPANESE
100
AcDbText
  0
TEXT
  5
173
330
17
100
AcDbEntity
  8
F01_ROOMS
100
AcDbText
 10
28479.452054794518
 20
17876.712328767124
 30
0.0
 40
450.0
  1
ラウンジ
  7
JAPANESE
100
AcDbText
  0
TEXT
  5
174
330
17
100
AcDbEntity
  8
F01_ROOMS
100
AcDbText
 10
22890.41095890411
 20
8054.7945205479455
 30
0.0
 40
450.0
  1
厨房
  7
JAPANESE
100
AcDbText
  0
TEXT
  5
175
330
17
100
AcDbEntity
  8
F01_ROOMS
100
AcDbText
 10
41506.849315068495
 20
27164.383561643834
 30
0.0
 40
450.0
  1
事務所
  7
JAPANESE
100
AcDbText
  0
TEXT
  5
176
330
17
100
AcDbEntity
  8
F01_ROOMS
100
AcDbText
 10
44013.69863013698
 20
17835.616438356163
 30
0.0
 40
450.0
  1
エントランスロビー
  7
JAPANESE
100
AcDbText
  0
TEXT
  5
177
330
17
100
AcDbEntity
  8
F01_ROOMS
100
AcDbText
 10
41671.232876712325
 20
4315.068493150685
 30
0.0
 40
450.0
  1
店舗
  7
JAPANESE
100
AcDbText
  0
TEXT
  5
179
330
17
100
AcDbEntity
  8
ANNOTATION
100
AcDbText
 10
-1000.0
 20
-2500.0
 30
0.0
 40
650.0
  1
1F / SCHEMATIC / Z 0 mm
  7
JAPANESE
100
AcDbText
  0
ENDSEC
  0
SECTION
  2
OBJECTS
  0
DICTIONARY
  5
A
330
0
100
AcDbDictionary
281
1
  3
ACAD_COLOR
350
B
  3
ACAD_GROUP
350
C
  3
ACAD_LAYOUT
350
D
  3
ACAD_MATERIAL
350
E
  3
ACAD_MLEADERSTYLE
350
F
  3
ACAD_MLINESTYLE
350
10
  3
ACAD_PLOTSETTINGS
350
11
  3
ACAD_PLOTSTYLENAME
350
12
  3
ACAD_SCALELIST
350
14
  3
ACAD_TABLESTYLE
350
15
  3
ACAD_VISUALSTYLE
350
16
  3
EZDXF_META
350
2D
  0
DICTIONARY
  5
B
330
A
100
AcDbDictionary
281
1
  0
DICTIONARY
  5
C
330
A
100
AcDbDictionary
281
1
  0
DICTIONARY
  5
D
330
A
100
AcDbDictionary
281
1
  3
Model
350
1A
  3
Layout1
350
1E
  0
DICTIONARY
  5
E
330
A
100
AcDbDictionary
281
1
  3
ByBlock
350
1F
  3
ByLayer
350
20
  3
Global
350
21
  0
DICTIONARY
  5
F
330
A
100
AcDbDictionary
281
1
  3
Standard
350
2C
  0
DICTIONARY
  5
10
330
A
100
AcDbDictionary
281
1
  3
Standard
350
22
  0
DICTIONARY
  5
11
330
A
100
AcDbDictionary
281
1
  0
ACDBDICTIONARYWDFLT
  5
12
330
A
100
AcDbDictionary
281
1
  3
Normal
350
13
100
AcDbDictionaryWithDefault
340
13
  0
ACDBPLACEHOLDER
  5
13
330
12
  0
DICTIONARY
  5
14
330
A
100
AcDbDictionary
281
1
  0
DICTIONARY
  5
15
330
A
100
AcDbDictionary
281
1
  0
DICTIONARY
  5
16
330
A
100
AcDbDictionary
281
1
  0
LAYOUT
  5
1A
330
D
100
AcDbPlotSettings
  1

  4
A3
  6

 40
7.5
 41
20.0
 42
7.5
 43
20.0
 44
420.0
 45
297.0
 46
0.0
 47
0.0
 48
0.0
 49
0.0
140
0.0
141
0.0
142
1.0
143
1.0
 70
1024
 72
1
 73
0
 74
5
  7

 75
16
 76
0
 77
2
 78
300
147
1.0
148
0.0
149
0.0
100
AcDbLayout
  1
Model
 70
1
 71
0
 10
0.0
 20
0.0
 11
420.0
 21
297.0
 12
0.0
 22
0.0
 32
0.0
 14
1e+20
 24
1e+20
 34
1e+20
 15
-1e+20
 25
-1e+20
 35
-1e+20
146
0.0
 13
0.0
 23
0.0
 33
0.0
 16
1.0
 26
0.0
 36
0.0
 17
0.0
 27
1.0
 37
0.0
 76
1
330
17
  0
LAYOUT
  5
1E
330
D
100
AcDbPlotSettings
  1

  4
A3
  6

 40
7.5
 41
20.0
 42
7.5
 43
20.0
 44
420.0
 45
297.0
 46
0.0
 47
0.0
 48
0.0
 49
0.0
140
0.0
141
0.0
142
1.0
143
1.0
 70
0
 72
1
 73
0
 74
5
  7

 75
16
 76
0
 77
2
 78
300
147
1.0
148
0.0
149
0.0
100
AcDbLayout
  1
Layout1
 70
1
 71
1
 10
0.0
 20
0.0
 11
420.0
 21
297.0
 12
0.0
 22
0.0
 32
0.0
 14
1e+20
 24
1e+20
 34
1e+20
 15
-1e+20
 25
-1e+20
 35
-1e+20
146
0.0
 13
0.0
 23
0.0
 33
0.0
 16
1.0
 26
0.0
 36
0.0
 17
0.0
 27
1.0
 37
0.0
 76
1
330
1B
  0
MATERIAL
  5
1F
102
{ACAD_REACTORS
330
E
102
}
330
E
100
AcDbMaterial
  1
ByBlock
  2

 70
0
 40
1.0
 71
1
 41
1.0
 91
-1023410177
 42
1.0
 72
1
  3

 73
1
 74
1
 75
1
 44
0.5
 73
0
 45
1.0
 46
1.0
 77
1
  4

 78
1
 79
1
170
1
 48
1.0
171
1
  6

172
1
173
1
174
1
140
1.0
141
1.0
175
1
  7

176
1
177
1
178
1
143
1.0
179
1
  8

270
1
271
1
272
1
145
1.0
146
1.0
273
1
  9

274
1
275
1
276
1
 42
1.0
 72
1
  3

 73
1
 74
1
 75
1
 94
63
  0
MATERIAL
  5
20
102
{ACAD_REACTORS
330
E
102
}
330
E
100
AcDbMaterial
  1
ByLayer
  2

 70
0
 40
1.0
 71
1
 41
1.0
 91
-1023410177
 42
1.0
 72
1
  3

 73
1
 74
1
 75
1
 44
0.5
 73
0
 45
1.0
 46
1.0
 77
1
  4

 78
1
 79
1
170
1
 48
1.0
171
1
  6

172
1
173
1
174
1
140
1.0
141
1.0
175
1
  7

176
1
177
1
178
1
143
1.0
179
1
  8

270
1
271
1
272
1
145
1.0
146
1.0
273
1
  9

274
1
275
1
276
1
 42
1.0
 72
1
  3

 73
1
 74
1
 75
1
 94
63
  0
MATERIAL
  5
21
102
{ACAD_REACTORS
330
E
102
}
330
E
100
AcDbMaterial
  1
Global
  2

 70
0
 40
1.0
 71
1
 41
1.0
 91
-1023410177
 42
1.0
 72
1
  3

 73
1
 74
1
 75
1
 44
0.5
 73
0
 45
1.0
 46
1.0
 77
1
  4

 78
1
 79
1
170
1
 48
1.0
171
1
  6

172
1
173
1
174
1
140
1.0
141
1.0
175
1
  7

176
1
177
1
178
1
143
1.0
179
1
  8

270
1
271
1
272
1
145
1.0
146
1.0
273
1
  9

274
1
275
1
276
1
 42
1.0
 72
1
  3

 73
1
 74
1
 75
1
 94
63
  0
MLINESTYLE
  5
22
102
{ACAD_REACTORS
330
10
102
}
330
10
100
AcDbMlineStyle
  2
Standard
 70
0
  3

 62
256
 51
90.0
 52
90.0
 71
2
 49
0.5
 62
256
  6
BYLAYER
 49
-0.5
 62
256
  6
BYLAYER
  0
MLEADERSTYLE
  5
2C
102
{ACAD_REACTORS
330
F
102
}
330
F
100
AcDbMLeaderStyle
179
2
170
2
171
1
172
0
 90
2
 40
0.0
 41
0.0
173
1
 91
-1056964608
 92
-2
290
1
 42
2.0
291
1
 43
8.0
  3
Standard
 44
4.0
300

342
29
174
1
175
1
176
0
178
1
 93
-1056964608
 45
4.0
292
0
297
0
 46
4.0
 94
-1056964608
 47
1.0
 49
1.0
140
1.0
294
1
141
0.0
177
0
142
1.0
295
0
296
0
143
3.75
271
0
272
9
273
9
  0
DICTIONARY
  5
2D
330
A
100
AcDbDictionary
280
1
281
1
  3
CREATED_BY_EZDXF
350
2E
  3
WRITTEN_BY_EZDXF
350
17D
  0
DICTIONARYVAR
  5
2E
330
2D
100
DictionaryVariables
280
0
  1
1.4.4 @ 2026-09-10T15:48:15.038561+00:00
  0
DICTIONARYVAR
  5
17D
330
2D
100
DictionaryVariables
280
0
  1
1.4.4 @ 2026-09-10T15:48:15.065985+00:00
  0
ENDSEC
  0
EOF
