  0
SECTION
  2
HEADER
  9
$ACADVER
  1
AC1024
  9
$ACADMAINTVER
 70
6
  9
$DWGCODEPAGE
  3
ANSI_1252
  9
$LASTSAVEDBY
  1
ezdxf
  9
$INSBASE
 10
0.0
 20
0.0
 30
0.0
  9
$EXTMIN
 10
1e+20
 20
1e+20
 30
1e+20
  9
$EXTMAX
 10
-1e+20
 20
-1e+20
 30
-1e+20
  9
$LIMMIN
 10
0.0
 20
0.0
  9
$LIMMAX
 10
420.0
 20
297.0
  9
$ORTHOMODE
 70
0
  9
$REGENMODE
 70
1
  9
$FILLMODE
 70
1
  9
$QTEXTMODE
 70
0
  9
$MIRRTEXT
 70
1
  9
$LTSCALE
 40
1.0
  9
$ATTMODE
 70
1
  9
$TEXTSIZE
 40
2.5
  9
$TRACEWID
 40
1.0
  9
$TEXTSTYLE
  7
Standard
  9
$CLAYER
  8
0
  9
$CELTYPE
  6
ByLayer
  9
$CECOLOR
 62
256
  9
$CELTSCALE
 40
1.0
  9
$DISPSILH
 70
0
  9
$DIMSCALE
 40
1.0
  9
$DIMASZ
 40
2.5
  9
$DIMEXO
 40
0.625
  9
$DIMDLI
 40
3.75
  9
$DIMRND
 40
0.0
  9
$DIMDLE
 40
0.0
  9
$DIMEXE
 40
1.25
  9
$DIMTP
 40
0.0
  9
$DIMTM
 40
0.0
  9
$DIMTXT
 40
2.5
  9
$DIMCEN
 40
2.5
  9
$DIMTSZ
 40
0.0
  9
$DIMTOL
 70
0
  9
$DIMLIM
 70
0
  9
$DIMTIH
 70
0
  9
$DIMTOH
 70
0
  9
$DIMSE1
 70
0
  9
$DIMSE2
 70
0
  9
$DIMTAD
 70
1
  9
$DIMZIN
 70
8
  9
$DIMBLK
  1

  9
$DIMASO
 70
1
  9
$DIMSHO
 70
1
  9
$DIMPOST
  1

  9
$DIMAPOST
  1

  9
$DIMALT
 70
0
  9
$DIMALTD
 70
3
  9
$DIMALTF
 40
0.03937007874
  9
$DIMLFAC
 40
1.0
  9
$DIMTOFL
 70
1
  9
$DIMTVP
 40
0.0
  9
$DIMTIX
 70
0
  9
$DIMSOXD
 70
0
  9
$DIMSAH
 70
0
  9
$DIMBLK1
  1

  9
$DIMBLK2
  1

  9
$DIMSTYLE
  2
ISO-25
  9
$DIMCLRD
 70
0
  9
$DIMCLRE
 70
0
  9
$DIMCLRT
 70
0
  9
$DIMTFAC
 40
1.0
  9
$DIMGAP
 40
0.625
  9
$DIMJUST
 70
0
  9
$DIMSD1
 70
0
  9
$DIMSD2
 70
0
  9
$DIMTOLJ
 70
0
  9
$DIMTZIN
 70
8
  9
$DIMALTZ
 70
0
  9
$DIMALTTZ
 70
0
  9
$DIMUPT
 70
0
  9
$DIMDEC
 70
2
  9
$DIMTDEC
 70
2
  9
$DIMALTU
 70
2
  9
$DIMALTTD
 70
3
  9
$DIMTXSTY
  7
Standard
  9
$DIMAUNIT
 70
0
  9
$DIMADEC
 70
0
  9
$DIMALTRND
 40
0.0
  9
$DIMAZIN
 70
0
  9
$DIMDSEP
 70
44
  9
$DIMATFIT
 70
3
  9
$DIMFRAC
 70
0
  9
$DIMLDRBLK
  1

  9
$DIMLUNIT
 70
2
  9
$DIMLWD
 70
-2
  9
$DIMLWE
 70
-2
  9
$DIMTMOVE
 70
0
  9
$DIMFXL
 40
1.0
  9
$DIMFXLON
 70
0
  9
$DIMJOGANG
 40
0.785398163397
  9
$DIMTFILL
 70
0
  9
$DIMTFILLCLR
 70
0
  9
$DIMARCSYM
 70
0
  9
$DIMLTYPE
  6

  9
$DIMLTEX1
  6

  9
$DIMLTEX2
  6

  9
$DIMTXTDIRECTION
 70
0
  9
$LUNITS
 70
2
  9
$LUPREC
 70
4
  9
$SKETCHINC
 40
1.0
  9
$FILLETRAD
 40
10.0
  9
$AUNITS
 70
0
  9
$AUPREC
 70
2
  9
$MENU
  1
.
  9
$ELEVATION
 40
0.0
  9
$PELEVATION
 40
0.0
  9
$THICKNESS
 40
0.0
  9
$LIMCHECK
 70
0
  9
$CHAMFERA
 40
0.0
  9
$CHAMFERB
 40
0.0
  9
$CHAMFERC
 40
0.0
  9
$CHAMFERD
 40
0.0
  9
$SKPOLY
 70
0
  9
$TDCREATE
 40
2461295.0335069443
  9
$TDUCREATE
 40
2458532.153996898
  9
$TDUPDATE
 40
2461295.0335069443
  9
$TDUUPDATE
 40
2458532.1544311
  9
$TDINDWG
 40
0.0
  9
$TDUSRTIMER
 40
0.0
  9
$USRTIMER
 70
1
  9
$ANGBASE
 50
0.0
  9
$ANGDIR
 70
0
  9
$PDMODE
 70
0
  9
$PDSIZE
 40
0.0
  9
$PLINEWID
 40
0.0
  9
$SPLFRAME
 70
0
  9
$SPLINETYPE
 70
6
  9
$SPLINESEGS
 70
8
  9
$HANDSEED
  5
187
  9
$SURFTAB1
 70
6
  9
$SURFTAB2
 70
6
  9
$SURFTYPE
 70
6
  9
$SURFU
 70
6
  9
$SURFV
 70
6
  9
$UCSBASE
  2

  9
$UCSNAME
  2

  9
$UCSORG
 10
0.0
 20
0.0
 30
0.0
  9
$UCSXDIR
 10
1.0
 20
0.0
 30
0.0
  9
$UCSYDIR
 10
0.0
 20
1.0
 30
0.0
  9
$UCSORTHOREF
  2

  9
$UCSORTHOVIEW
 70
0
  9
$UCSORGTOP
 10
0.0
 20
0.0
 30
0.0
  9
$UCSORGBOTTOM
 10
0.0
 20
0.0
 30
0.0
  9
$UCSORGLEFT
 10
0.0
 20
0.0
 30
0.0
  9
$UCSORGRIGHT
 10
0.0
 20
0.0
 30
0.0
  9
$UCSORGFRONT
 10
0.0
 20
0.0
 30
0.0
  9
$UCSORGBACK
 10
0.0
 20
0.0
 30
0.0
  9
$PUCSBASE
  2

  9
$PUCSNAME
  2

  9
$PUCSORG
 10
0.0
 20
0.0
 30
0.0
  9
$PUCSXDIR
 10
1.0
 20
0.0
 30
0.0
  9
$PUCSYDIR
 10
0.0
 20
1.0
 30
0.0
  9
$PUCSORTHOREF
  2

  9
$PUCSORTHOVIEW
 70
0
  9
$PUCSORGTOP
 10
0.0
 20
0.0
 30
0.0
  9
$PUCSORGBOTTOM
 10
0.0
 20
0.0
 30
0.0
  9
$PUCSORGLEFT
 10
0.0
 20
0.0
 30
0.0
  9
$PUCSORGRIGHT
 10
0.0
 20
0.0
 30
0.0
  9
$PUCSORGFRONT
 10
0.0
 20
0.0
 30
0.0
  9
$PUCSORGBACK
 10
0.0
 20
0.0
 30
0.0
  9
$USERI1
 70
0
  9
$USERI2
 70
0
  9
$USERI3
 70
0
  9
$USERI4
 70
0
  9
$USERI5
 70
0
  9
$USERR1
 40
0.0
  9
$USERR2
 40
0.0
  9
$USERR3
 40
0.0
  9
$USERR4
 40
0.0
  9
$USERR5
 40
0.0
  9
$WORLDVIEW
 70
1
  9
$SHADEDGE
 70
3
  9
$SHADEDIF
 70
70
  9
$TILEMODE
 70
1
  9
$MAXACTVP
 70
64
  9
$PINSBASE
 10
0.0
 20
0.0
 30
0.0
  9
$PLIMCHECK
 70
0
  9
$PEXTMIN
 10
1e+20
 20
1e+20
 30
1e+20
  9
$PEXTMAX
 10
-1e+20
 20
-1e+20
 30
-1e+20
  9
$PLIMMIN
 10
0.0
 20
0.0
  9
$PLIMMAX
 10
420.0
 20
297.0
  9
$UNITMODE
 70
0
  9
$VISRETAIN
 70
1
  9
$PLINEGEN
 70
0
  9
$PSLTSCALE
 70
1
  9
$TREEDEPTH
 70
3020
  9
$CMLSTYLE
  2
Standard
  9
$CMLJUST
 70
0
  9
$CMLSCALE
 40
20.0
  9
$PROXYGRAPHICS
 70
1
  9
$MEASUREMENT
 70
1
  9
$CELWEIGHT
370
-1
  9
$ENDCAPS
280
0
  9
$JOINSTYLE
280
0
  9
$LWDISPLAY
290
0
  9
$INSUNITS
 70
4
  9
$HYPERLINKBASE
  1

  9
$STYLESHEET
  1

  9
$XEDIT
290
1
  9
$CEPSNTYPE
380
0
  9
$PSTYLEMODE
290
1
  9
$FINGERPRINTGUID
  2
{2EEE18B7-41DD-48E4-A70B-6CFFEAC009AF}
  9
$VERSIONGUID
  2
{C43458CC-D5DE-44B0-8F38-504BB20E9E0A}
  9
$EXTNAMES
290
1
  9
$PSVPSCALE
 40
0.0
  9
$OLESTARTUP
290
0
  9
$SORTENTS
280
127
  9
$INDEXCTL
280
0
  9
$HIDETEXT
280
1
  9
$XCLIPFRAME
280
1
  9
$HALOGAP
280
0
  9
$OBSCOLOR
 70
257
  9
$OBSLTYPE
280
0
  9
$INTERSECTIONDISPLAY
280
0
  9
$INTERSECTIONCOLOR
 70
257
  9
$DIMASSOC
280
2
  9
$PROJECTNAME
  1

  9
$CAMERADISPLAY
290
0
  9
$LENSLENGTH
 40
50.0
  9
$CAMERAHEIGHT
 40
0.0
  9
$STEPSPERSEC
 40
24.0
  9
$STEPSIZE
 40
100.0
  9
$3DDWFPREC
 40
2.0
  9
$PSOLWIDTH
 40
0.005
  9
$PSOLHEIGHT
 40
0.08
  9
$LOFTANG1
 40
1.570796326795
  9
$LOFTANG2
 40
1.570796326795
  9
$LOFTMAG1
 40
0.0
  9
$LOFTMAG2
 40
0.0
  9
$LOFTPARAM
 70
7
  9
$LOFTNORMALS
280
1
  9
$LATITUDE
 40
37.795
  9
$LONGITUDE
 40
-122.394
  9
$NORTHDIRECTION
 40
0.0
  9
$TIMEZONE
 70
-8000
  9
$LIGHTGLYPHDISPLAY
280
1
  9
$TILEMODELIGHTSYNCH
280
1
  9
$CMATERIAL
347
20
  9
$SOLIDHIST
280
0
  9
$SHOWHIST
280
1
  9
$DWFFRAME
280
2
  9
$DGNFRAME
280
2
  9
$REALWORLDSCALE
290
1
  9
$INTERFERECOLOR
 62
256
  9
$CSHADOW
280
0
  9
$SHADOWPLANELOCATION
 40
0.0
  0
ENDSEC
  0
SECTION
  2
CLASSES
  0
CLASS
  1
ACDBDICTIONARYWDFLT
  2
AcDbDictionaryWithDefault
  3
ObjectDBX Classes
 90
0
 91
0
280
0
281
0
  0
CLASS
  1
SUN
  2
AcDbSun
  3
SCENEOE
 90
1153
 91
0
280
0
281
0
  0
CLASS
  1
VISUALSTYLE
  2
AcDbVisualStyle
  3
ObjectDBX Classes
 90
4095
 91
0
280
0
281
0
  0
CLASS
  1
MATERIAL
  2
AcDbMaterial
  3
ObjectDBX Classes
 90
1153
 91
0
280
0
281
0
  0
CLASS
  1
SCALE
  2
AcDbScale
  3
ObjectDBX Classes
 90
1153
 91
0
280
0
281
0
  0
CLASS
  1
TABLESTYLE
  2
AcDbTableStyle
  3
ObjectDBX Classes
 90
4095
 91
0
280
0
281
0
  0
CLASS
  1
MLEADERSTYLE
  2
AcDbMLeaderStyle
  3
ACDB_MLEADERSTYLE_CLASS
 90
4095
 91
0
280
0
281
0
  0
CLASS
  1
DICTIONARYVAR
  2
AcDbDictionaryVar
  3
ObjectDBX Classes
 90
0
 91
0
280
0
281
0
  0
CLASS
  1
CELLSTYLEMAP
  2
AcDbCellStyleMap
  3
ObjectDBX Classes
 90
1152
 91
0
280
0
281
0
  0
CLASS
  1
MENTALRAYRENDERSETTINGS
  2
AcDbMentalRayRenderSettings
  3
SCENEOE
 90
1024
 91
0
280
0
281
0
  0
CLASS
  1
ACDBDETAILVIEWSTYLE
  2
AcDbDetailViewStyle
  3
ObjectDBX Classes
 90
1025
 91
0
280
0
281
0
  0
CLASS
  1
ACDBSECTIONVIEWSTYLE
  2
AcDbSectionViewStyle
  3
ObjectDBX Classes
 90
1025
 91
0
280
0
281
0
  0
CLASS
  1
RASTERVARIABLES
  2
AcDbRasterVariables
  3
ISM
 90
0
 91
0
280
0
281
0
  0
CLASS
  1
ACDBPLACEHOLDER
  2
AcDbPlaceHolder
  3
ObjectDBX Classes
 90
0
 91
0
280
0
281
0
  0
CLASS
  1
LAYOUT
  2
AcDbLayout
  3
ObjectDBX Classes
 90
0
 91
0
280
0
281
0
  0
ENDSEC
  0
SECTION
  2
TABLES
  0
TABLE
  2
VPORT
  5
8
330
0
100
AcDbSymbolTable
 70
1
  0
VPORT
  5
183
330
8
100
AcDbSymbolTableRecord
100
AcDbViewportTableRecord
  2
*Active
 70
0
 10
0.0
 20
0.0
 11
1.0
 21
1.0
 12
29000.0
 22
17000.0
 13
0.0
 23
0.0
 14
0.5
 24
0.5
 15
0.5
 25
0.5
 16
0.0
 26
0.0
 36
1.0
 17
0.0
 27
0.0
 37
0.0
 40
44000.0
 41
1.34
 42
50.0
 43
0.0
 44
0.0
 50
0.0
 51
0.0
 71
0
 72
1000
 73
1
 74
3
 75
0
 76
0
 77
0
 78
0
281
0
 65
1
110
0.0
120
0.0
130
0.0
111
1.0
121
0.0
131
0.0
112
0.0
122
1.0
132
0.0
 79
0
146
0.0
  0
ENDTAB
  0
TABLE
  2
LTYPE
  5
2
330
0
100
AcDbSymbolTable
 70
3
  0
LTYPE
  5
24
330
2
100
AcDbSymbolTableRecord
100
AcDbLinetypeTableRecord
  2
ByBlock
 70
0
  3

 72
65
 73
0
 40
0.0
  0
LTYPE
  5
25
330
2
100
AcDbSymbolTableRecord
100
AcDbLinetypeTableRecord
  2
ByLayer
 70
0
  3

 72
65
 73
0
 40
0.0
  0
LTYPE
  5
26
330
2
100
AcDbSymbolTableRecord
100
AcDbLinetypeTableRecord
  2
Continuous
 70
0
  3

 72
65
 73
0
 40
0.0
  0
ENDTAB
  0
TABLE
  2
LAYER
  5
1
330
0
100
AcDbSymbolTable
 70
8
  0
LAYER
  5
27
330
1
100
AcDbSymbolTableRecord
100
AcDbLayerTableRecord
  2
0
 70
0
 62
7
  6
Continuous
370
-3
390
13
347
21
  0
LAYER
  5
28
330
1
100
AcDbSymbolTableRecord
100
AcDbLayerTableRecord
  2
Defpoints
 70
0
 62
7
  6
Continuous
290
0
370
-3
390
13
347
21
  0
LAYER
  5
31
330
1
100
AcDbSymbolTableRecord
100
AcDbLayerTableRecord
  2
F04_WALLS
 70
0
 62
7
420
12897493
  6
Continuous
370
18
390
13
347
21
  0
LAYER
  5
7A
330
1
100
AcDbSymbolTableRecord
100
AcDbLayerTableRecord
  2
F04_RAILS
 70
0
 62
7
420
6453648
  6
Continuous
370
18
390
13
347
21
  0
LAYER
  5
80
330
1
100
AcDbSymbolTableRecord
100
AcDbLayerTableRecord
  2
F04_SEATING
 70
0
 62
7
420
11292754
  6
Continuous
370
18
390
13
347
21
  0
LAYER
  5
161
330
1
100
AcDbSymbolTableRecord
100
AcDbLayerTableRecord
  2
F04_STAIRS
 70
0
 62
7
420
10069169
  6
Continuous
370
18
390
13
347
21
  0
LAYER
  5
17A
330
1
100
AcDbSymbolTableRecord
100
AcDbLayerTableRecord
  2
F04_ROOMS
 70
0
 62
7
420
5264735
  6
Continuous
370
18
390
13
347
21
  0
LAYER
  5
181
330
1
100
AcDbSymbolTableRecord
100
AcDbLayerTableRecord
  2
ANNOTATION
 70
0
 62
7
420
5264735
  6
Continuous
370
18
390
13
347
21
  0
ENDTAB
  0
TABLE
  2
STYLE
  5
5
330
0
100
AcDbSymbolTable
 70
2
  0
STYLE
  5
29
330
5
100
AcDbSymbolTableRecord
100
AcDbTextStyleTableRecord
  2
Standard
 70
0
 40
0.0
 41
1.0
 50
0.0
 71
0
 42
2.5
  3
txt
  4

  0
STYLE
  5
2F
330
5
100
AcDbSymbolTableRecord
100
AcDbTextStyleTableRecord
  2
JAPANESE
 70
0
 40
0.0
 41
1.0
 50
0.0
 71
0
 42
2.5
  3
msgothic.ttc
  4

  0
ENDTAB
  0
TABLE
  2
VIEW
  5
7
330
0
100
AcDbSymbolTable
 70
0
  0
ENDTAB
  0
TABLE
  2
UCS
  5
6
330
0
100
AcDbSymbolTable
 70
0
  0
ENDTAB
  0
TABLE
  2
APPID
  5
3
330
0
100
AcDbSymbolTable
 70
4
  0
APPID
  5
2A
330
3
100
AcDbSymbolTableRecord
100
AcDbRegAppTableRecord
  2
ACAD
 70
0
  0
APPID
  5
30
330
3
100
AcDbSymbolTableRecord
100
AcDbRegAppTableRecord
  2
SHOCHIKUZA
 70
0
  0
APPID
  5
184
330
3
100
AcDbSymbolTableRecord
100
AcDbRegAppTableRecord
  2
HATCHBACKGROUNDCOLOR
 70
0
  0
APPID
  5
185
330
3
100
AcDbSymbolTableRecord
100
AcDbRegAppTableRecord
  2
EZDXF
 70
0
  0
ENDTAB
  0
TABLE
  2
DIMSTYLE
  5
4
330
0
100
AcDbSymbolTable
 70
1
100
AcDbDimStyleTable
  0
DIMSTYLE
105
2B
330
4
100
AcDbSymbolTableRecord
100
AcDbDimStyleTableRecord
  2
Standard
 70
0
 40
1.0
 41
2.5
 42
0.625
 43
3.75
 44
1.25
 45
0.0
 46
0.0
 47
0.0
 48
0.0
 49
2.5
140
2.5
141
2.5
142
0.0
143
0.03937007874
144
1.0
145
0.0
146
1.0
147
0.625
148
0.0
 69
0
 70
0
 71
0
 72
0
 73
0
 74
0
 75
0
 76
0
 77
1
 78
8
 79
3
170
0
171
3
172
1
173
0
174
0
175
0
176
0
177
0
178
0
179
2
271
2
272
2
273
2
274
3
275
0
276
0
277
2
278
44
279
0
280
0
281
0
282
0
283
0
284
8
285
0
286
0
288
0
289
3
290
0
371
-2
372
-2
  0
ENDTAB
  0
TABLE
  2
BLOCK_RECORD
  5
9
330
0
100
AcDbSymbolTable
 70
2
  0
BLOCK_RECORD
  5
17
330
9
100
AcDbSymbolTableRecord
100
AcDbBlockTableRecord
  2
*Model_Space
340
1A
 70
0
280
1
281
0
  0
BLOCK_RECORD
  5
1B
330
9
100
AcDbSymbolTableRecord
100
AcDbBlockTableRecord
  2
*Paper_Space
340
1E
 70
0
280
1
281
0
  0
ENDTAB
  0
ENDSEC
  0
SECTION
  2
BLOCKS
  0
BLOCK
  5
18
330
17
100
AcDbEntity
  8
0
100
AcDbBlockBegin
  2
*Model_Space
 70
0
 10
0.0
 20
0.0
 30
0.0
  3
*Model_Space
  1

  0
ENDBLK
  5
19
330
17
100
AcDbEntity
  8
0
100
AcDbBlockEnd
  0
BLOCK
  5
1C
330
1B
100
AcDbEntity
  8
0
100
AcDbBlockBegin
  2
*Paper_Space
 70
0
 10
0.0
 20
0.0
 30
0.0
  3
*Paper_Space
  1

  0
ENDBLK
  5
1D
330
1B
100
AcDbEntity
  8
0
100
AcDbBlockEnd
  0
ENDSEC
  0
SECTION
  2
ENTITIES
  0
LWPOLYLINE
  5
32
330
17
100
AcDbEntity
  8
F04_WALLS
100
AcDbPolyline
 90
5
 70
1
 10
6290.5969336841135
 20
35380.696238901146
 10
52764.673863739445
 20
35380.696238901146
 10
52764.673863739445
 20
35660.696238901146
 10
6290.5969336841135
 20
35660.696238901146
 10
6290.5969336841135
 20
35380.696238901146
  0
LWPOLYLINE
  5
33
330
17
100
AcDbEntity
  8
F04_WALLS
100
AcDbPolyline
 90
5
 70
1
 10
52624.673863739445
 20
35520.696238901146
 10
52624.673863739445
 20
32359.260014458636
 10
52904.673863739445
 20
32359.260014458636
 10
52904.673863739445
 20
35520.696238901146
 10
52624.673863739445
 20
35520.696238901146
  0
LWPOLYLINE
  5
34
330
17
100
AcDbEntity
  8
F04_WALLS
100
AcDbPolyline
 90
5
 70
1
 10
52764.673863739445
 20
32219.260014458636
 10
54411.23106232422
 20
32219.260014458636
 10
54411.23106232422
 20
32499.260014458636
 10
52764.673863739445
 20
32499.260014458636
 10
52764.673863739445
 20
32219.260014458636
  0
LWPOLYLINE
  5
35
330
17
100
AcDbEntity
  8
F04_WALLS
100
AcDbPolyline
 90
5
 70
1
 10
54271.23106232422
 20
32359.260014458636
 10
54271.23106232422
 20
23633.696034997316
 10
54551.23106232422
 20
23633.696034997316
 10
54551.23106232422
 20
32359.260014458636
 10
54271.23106232422
 20
32359.260014458636
  0
LWPOLYLINE
  5
36
330
17
100
AcDbEntity
  8
F04_WALLS
100
AcDbPolyline
 90
5
 70
1
 10
54271.23106232422
 20
11578.085899123214
 10
54271.23106232422
 20
3442.656681557828
 10
54551.23106232422
 20
3442.656681557828
 10
54551.23106232422
 20
11578.085899123214
 10
54271.23106232422
 20
11578.085899123214
  0
LWPOLYLINE
  5
37
330
17
100
AcDbEntity
  8
F04_WALLS
100
AcDbPolyline
 90
5
 70
1
 10
54411.23106232422
 20
3582.656681557828
 10
52805.837793704064
 20
3582.656681557828
 10
52805.837793704064
 20
3302.656681557828
 10
54411.23106232422
 20
3302.656681557828
 10
54411.23106232422
 20
3582.656681557828
  0
LWPOLYLINE
  5
38
330
17
100
AcDbEntity
  8
F04_WALLS
100
AcDbPolyline
 90
5
 70
1
 10
52665.837793704064
 20
3442.656681557828
 10
52665.837793704064
 20
-98.15188981778104
 10
52945.837793704064
 20
-98.15188981778104
 10
52945.837793704064
 20
3442.656681557828
 10
52665.837793704064
 20
3442.656681557828
  0
LWPOLYLINE
  5
39
330
17
100
AcDbEntity
  8
F04_WALLS
100
AcDbPolyline
 90
5
 70
1
 10
52805.837793704064
 20
41.84811018221896
 10
10036.51456046448
 20
41.84811018221896
 10
10036.51456046448
 20
-238.15188981778104
 10
52805.837793704064
 20
-238.15188981778104
 10
52805.837793704064
 20
41.84811018221896
  0
LWPOLYLINE
  5
3A
330
17
100
AcDbEntity
  8
F04_WALLS
100
AcDbPolyline
 90
5
 70
1
 10
10127.134725392036
 20
8.562615796511082
 10
5063.971339743846
 20
4308.11588103832
 10
4882.731009888737
 20
4094.6868698097364
 10
9945.894395536925
 20
-204.86639543207315
 10
10127.134725392036
 20
8.562615796511082
  0
LWPOLYLINE
  5
3B
330
17
100
AcDbEntity
  8
F04_WALLS
100
AcDbPolyline
 90
5
 70
1
 10
5113.168372832702
 20
4208.553377859717
 10
4660.365143221888
 20
13060.574806298739
 10
4380.730747189068
 20
13046.270801427361
 10
4833.533976799882
 20
4194.24937298834
 10
5113.168372832702
 20
4208.553377859717
  0
LWPOLYLINE
  5
3C
330
17
100
AcDbEntity
  8
F04_WALLS
100
AcDbPolyline
 90
5
 70
1
 10
4660.53179488015
 20
14151.513821229395
 10
4372.384285127814
 20
33120.13116788444
 10
4092.4165857784687
 20
33115.87824876523
 10
4380.564095530805
 20
14147.260902110183
 10
4660.53179488015
 20
14151.513821229395
  0
LWPOLYLINE
  5
3D
330
17
100
AcDbEntity
  8
F04_WALLS
100
AcDbPolyline
 90
5
 70
1
 10
4338.723760961591
 20
33026.92589381331
 10
6396.920259192563
 20
35429.617424389624
 10
6184.273608175664
 20
35611.77505341267
 10
4126.077109944692
 20
33209.08352283636
 10
4338.723760961591
 20
33026.92589381331
  0
LWPOLYLINE
  5
3E
330
17
100
AcDbEntity
  8
F04_WALLS
100
AcDbPolyline
 90
5
 70
1
 10
17140.20230427288
 20
35394.238789923445
 10
17140.20230427288
 20
32064.19263351067
 10
17340.20230427288
 20
32064.19263351067
 10
17340.20230427288
 20
35394.238789923445
 10
17140.20230427288
 20
35394.238789923445
  0
LWPOLYLINE
  5
3F
330
17
100
AcDbEntity
  8
F04_WALLS
100
AcDbPolyline
 90
5
 70
1
 10
17240.20230427288
 20
31964.19263351067
 10
20697.972421300914
 20
31964.19263351067
 10
20697.972421300914
 20
32164.19263351067
 10
17240.20230427288
 20
32164.19263351067
 10
17240.20230427288
 20
31964.19263351067
  0
LWPOLYLINE
  5
40
330
17
100
AcDbEntity
  8
F04_WALLS
100
AcDbPolyline
 90
5
 70
1
 10
20597.972421300914
 20
32064.19263351067
 10
20597.972421300914
 20
29577.196136949227
 10
20797.972421300914
 20
29577.196136949227
 10
20797.972421300914
 20
32064.19263351067
 10
20597.972421300914
 20
32064.19263351067
  0
LWPOLYLINE
  5
41
330
17
100
AcDbEntity
  8
F04_WALLS
100
AcDbPolyline
 90
5
 70
1
 10
20697.972421300914
 20
29477.196136949227
 10
22097.546040097975
 20
29477.196136949227
 10
22097.546040097975
 20
29677.196136949227
 10
20697.972421300914
 20
29677.196136949227
 10
20697.972421300914
 20
29477.196136949227
  0
LWPOLYLINE
  5
42
330
17
100
AcDbEntity
  8
F04_WALLS
100
AcDbPolyline
 90
5
 70
1
 10
22203.365689921073
 20
35394.238789923445
 10
22203.365689921073
 20
31726.972769570133
 10
22403.365689921073
 20
31726.972769570133
 10
22403.365689921073
 20
35394.238789923445
 10
22203.365689921073
 20
35394.238789923445
  0
LWPOLYLINE
  5
43
330
17
100
AcDbEntity
  8
F04_WALLS
100
AcDbPolyline
 90
5
 70
1
 10
22303.365689921073
 20
31626.972769570133
 10
24279.234328222803
 20
31626.972769570133
 10
24279.234328222803
 20
31826.972769570133
 10
22303.365689921073
 20
31826.972769570133
 10
22303.365689921073
 20
31626.972769570133
  0
LWPOLYLINE
  5
44
330
17
100
AcDbEntity
  8
F04_WALLS
100
AcDbPolyline
 90
5
 70
1
 10
24379.234328222803
 20
31726.972769570133
 10
24379.234328222803
 20
35394.238789923445
 10
24179.234328222803
 20
35394.238789923445
 10
24179.234328222803
 20
31726.972769570133
 10
24379.234328222803
 20
31726.972769570133
  0
LWPOLYLINE
  5
45
330
17
100
AcDbEntity
  8
F04_WALLS
100
AcDbPolyline
 90
5
 70
1
 10
25925.791526807578
 20
31500.51532059243
 10
33129.47927061598
 20
31500.51532059243
 10
33129.47927061598
 20
31700.51532059243
 10
25925.791526807578
 20
31700.51532059243
 10
25925.791526807578
 20
31500.51532059243
  0
LWPOLYLINE
  5
46
330
17
100
AcDbEntity
  8
F04_WALLS
100
AcDbPolyline
 90
5
 70
1
 10
33229.47927061598
 20
31600.51532059243
 10
33229.47927061598
 20
35394.238789923445
 10
33029.47927061598
 20
35394.238789923445
 10
33029.47927061598
 20
31600.51532059243
 10
33229.47927061598
 20
31600.51532059243
  0
LWPOLYLINE
  5
47
330
17
100
AcDbEntity
  8
F04_WALLS
100
AcDbPolyline
 90
5
 70
1
 10
33458.790710332934
 20
35252.086306930876
 10
35311.16755874081
 20
35252.086306930876
 10
35311.16755874081
 20
35452.086306930876
 10
33458.790710332934
 20
35452.086306930876
 10
33458.790710332934
 20
35252.086306930876
  0
LWPOLYLINE
  5
48
330
17
100
AcDbEntity
  8
F04_WALLS
100
AcDbPolyline
 90
5
 70
1
 10
35211.16755874081
 20
35352.086306930876
 10
35211.16755874081
 20
32401.4124974512
 10
35411.16755874081
 20
32401.4124974512
 10
35411.16755874081
 20
35352.086306930876
 10
35211.16755874081
 20
35352.086306930876
  0
LWPOLYLINE
  5
49
330
17
100
AcDbEntity
  8
F04_WALLS
100
AcDbPolyline
 90
5
 70
1
 10
35311.16755874081
 20
32501.4124974512
 10
33458.790710332934
 20
32501.4124974512
 10
33458.790710332934
 20
32301.4124974512
 10
35311.16755874081
 20
32301.4124974512
 10
35311.16755874081
 20
32501.4124974512
  0
LWPOLYLINE
  5
4A
330
17
100
AcDbEntity
  8
F04_WALLS
100
AcDbPolyline
 90
5
 70
1
 10
33558.790710332934
 20
32401.4124974512
 10
33558.790710332934
 20
35352.086306930876
 10
33358.790710332934
 20
35352.086306930876
 10
33358.790710332934
 20
32401.4124974512
 10
33558.790710332934
 20
32401.4124974512
  0
LWPOLYLINE
  5
4B
330
17
100
AcDbEntity
  8
F04_WALLS
100
AcDbPolyline
 90
5
 70
1
 10
36340.265807856296
 20
33734.59691919847
 10
44161.412501133986
 20
33734.59691919847
 10
44161.412501133986
 20
33934.59691919847
 10
36340.265807856296
 20
33934.59691919847
 10
36340.265807856296
 20
33734.59691919847
  0
LWPOLYLINE
  5
4C
330
17
100
AcDbEntity
  8
F04_WALLS
100
AcDbPolyline
 90
5
 70
1
 10
44061.412501133986
 20
33834.59691919847
 10
44061.412501133986
 20
31305.447939644466
 10
44261.412501133986
 20
31305.447939644466
 10
44261.412501133986
 20
33834.59691919847
 10
44061.412501133986
 20
33834.59691919847
  0
LWPOLYLINE
  5
4D
330
17
100
AcDbEntity
  8
F04_WALLS
100
AcDbPolyline
 90
5
 70
1
 10
44161.412501133986
 20
31405.447939644466
 10
37369.36405697178
 20
31405.447939644466
 10
37369.36405697178
 20
31205.447939644466
 10
44161.412501133986
 20
31205.447939644466
 10
44161.412501133986
 20
31405.447939644466
  0
LWPOLYLINE
  5
4E
330
17
100
AcDbEntity
  8
F04_WALLS
100
AcDbPolyline
 90
5
 70
1
 10
37469.36405697178
 20
31305.447939644466
 10
37469.36405697178
 20
32654.327395406603
 10
37269.36405697178
 20
32654.327395406603
 10
37269.36405697178
 20
31305.447939644466
 10
37469.36405697178
 20
31305.447939644466
  0
LWPOLYLINE
  5
4F
330
17
100
AcDbEntity
  8
F04_WALLS
100
AcDbPolyline
 90
5
 70
1
 10
44637.70752063866
 20
35309.93382393831
 10
44637.70752063866
 20
31684.820286577564
 10
44837.70752063866
 20
31684.820286577564
 10
44837.70752063866
 20
35309.93382393831
 10
44637.70752063866
 20
35309.93382393831
  0
LWPOLYLINE
  5
50
330
17
100
AcDbEntity
  8
F04_WALLS
100
AcDbPolyline
 90
5
 70
1
 10
45684.477909824906
 20
31078.99049066676
 10
49924.36269618071
 20
31078.99049066676
 10
49924.36269618071
 20
31278.99049066676
 10
45684.477909824906
 20
31278.99049066676
 10
45684.477909824906
 20
31078.99049066676
  0
LWPOLYLINE
  5
51
330
17
100
AcDbEntity
  8
F04_WALLS
100
AcDbPolyline
 90
5
 70
1
 10
49824.36269618071
 20
31178.99049066676
 10
49824.36269618071
 20
30083.025932860026
 10
50024.36269618071
 20
30083.025932860026
 10
50024.36269618071
 20
31178.99049066676
 10
49824.36269618071
 20
31178.99049066676
  0
LWPOLYLINE
  5
52
330
17
100
AcDbEntity
  8
F04_WALLS
100
AcDbPolyline
 90
5
 70
1
 10
21438.923160664064
 20
28549.841511112758
 10
24196.906468293568
 20
28549.841511112758
 10
24196.906468293568
 20
28749.841511112758
 10
21438.923160664064
 20
28749.841511112758
 10
21438.923160664064
 20
28549.841511112758
  0
LWPOLYLINE
  5
53
330
17
100
AcDbEntity
  8
F04_WALLS
100
AcDbPolyline
 90
5
 70
1
 10
24296.906468293568
 20
28649.841511112758
 10
24296.906468293568
 20
29956.568483882325
 10
24096.906468293568
 20
29956.568483882325
 10
24096.906468293568
 20
28649.841511112758
 10
24296.906468293568
 20
28649.841511112758
  0
LWPOLYLINE
  5
54
330
17
100
AcDbEntity
  8
F04_WALLS
100
AcDbPolyline
 90
5
 70
1
 10
24196.906468293568
 20
29856.568483882325
 10
25431.824367232144
 20
29856.568483882325
 10
25431.824367232144
 20
30056.568483882325
 10
24196.906468293568
 20
30056.568483882325
 10
24196.906468293568
 20
29856.568483882325
  0
LWPOLYLINE
  5
55
330
17
100
AcDbEntity
  8
F04_WALLS
100
AcDbPolyline
 90
5
 70
1
 10
27284.201215640023
 20
29435.043653956658
 10
30783.135262632673
 20
29435.043653956658
 10
30783.135262632673
 20
29635.043653956658
 10
27284.201215640023
 20
29635.043653956658
 10
27284.201215640023
 20
29435.043653956658
  0
LWPOLYLINE
  5
56
330
17
100
AcDbEntity
  8
F04_WALLS
100
AcDbPolyline
 90
5
 70
1
 10
32512.020321146687
 20
29435.043653956658
 10
41856.232423115296
 20
29435.043653956658
 10
41856.232423115296
 20
29635.043653956658
 10
32512.020321146687
 20
29635.043653956658
 10
32512.020321146687
 20
29435.043653956658
  0
LWPOLYLINE
  5
57
330
17
100
AcDbEntity
  8
F04_WALLS
100
AcDbPolyline
 90
5
 70
1
 10
41756.232423115296
 20
29535.043653956658
 10
41756.232423115296
 20
28607.68902812019
 10
41956.232423115296
 20
28607.68902812019
 10
41956.232423115296
 20
29535.043653956658
 10
41756.232423115296
 20
29535.043653956658
  0
LWPOLYLINE
  5
58
330
17
100
AcDbEntity
  8
F04_WALLS
100
AcDbPolyline
 90
5
 70
1
 10
43801.72036367628
 20
29296.566947003575
 10
44748.490752862526
 20
28327.05983817454
 10
44891.58000827327
 20
28466.793388140173
 10
43944.80961908702
 20
29436.30049696921
 10
43801.72036367628
 20
29296.566947003575
  0
LWPOLYLINE
  5
59
330
17
100
AcDbEntity
  8
F04_WALLS
100
AcDbPolyline
 90
5
 70
1
 10
44820.0353805679
 20
28296.926613157357
 10
50130.1823460038
 20
28296.926613157357
 10
50130.1823460038
 20
28496.926613157357
 10
44820.0353805679
 20
28496.926613157357
 10
44820.0353805679
 20
28296.926613157357
  0
LWPOLYLINE
  5
5A
330
17
100
AcDbEntity
  8
F04_WALLS
100
AcDbPolyline
 90
5
 70
1
 10
50030.1823460038
 20
28396.926613157357
 10
50030.1823460038
 20
26162.845014551316
 10
50230.1823460038
 20
26162.845014551316
 10
50230.1823460038
 20
28396.926613157357
 10
50030.1823460038
 20
28396.926613157357
  0
LWPOLYLINE
  5
5B
330
17
100
AcDbEntity
  8
F04_WALLS
100
AcDbPolyline
 90
5
 70
1
 10
50130.1823460038
 20
26262.845014551316
 10
48442.4612174544
 20
26262.845014551316
 10
48442.4612174544
 20
26062.845014551316
 10
50130.1823460038
 20
26062.845014551316
 10
50130.1823460038
 20
26262.845014551316
  0
LWPOLYLINE
  5
5C
330
17
100
AcDbEntity
  8
F04_WALLS
100
AcDbPolyline
 90
5
 70
1
 10
49659.706976322224
 20
25404.100320685116
 10
49659.706976322224
 20
20345.8023615771
 10
49859.706976322224
 20
20345.8023615771
 10
49859.706976322224
 20
25404.100320685116
 10
49659.706976322224
 20
25404.100320685116
  0
LWPOLYLINE
  5
5D
330
17
100
AcDbEntity
  8
F04_WALLS
100
AcDbPolyline
 90
5
 70
1
 10
49759.706976322224
 20
20445.8023615771
 10
47331.03510840968
 20
20445.8023615771
 10
47331.03510840968
 20
20245.8023615771
 10
49759.706976322224
 20
20245.8023615771
 10
49759.706976322224
 20
20445.8023615771
  0
LWPOLYLINE
  5
5E
330
17
100
AcDbEntity
  8
F04_WALLS
100
AcDbPolyline
 90
5
 70
1
 10
47231.03510840968
 20
20345.8023615771
 10
47231.03510840968
 20
14865.979572543423
 10
47431.03510840968
 20
14865.979572543423
 10
47431.03510840968
 20
20345.8023615771
 10
47231.03510840968
 20
20345.8023615771
  0
LWPOLYLINE
  5
5F
330
17
100
AcDbEntity
  8
F04_WALLS
100
AcDbPolyline
 90
5
 70
1
 10
47331.03510840968
 20
14765.979572543423
 10
49800.870906286844
 20
14765.979572543423
 10
49800.870906286844
 20
14965.979572543423
 10
47331.03510840968
 20
14965.979572543423
 10
47331.03510840968
 20
14765.979572543423
  0
LWPOLYLINE
  5
60
330
17
100
AcDbEntity
  8
F04_WALLS
100
AcDbPolyline
 90
5
 70
1
 10
49700.870906286844
 20
13770.015014736688
 10
49700.870906286844
 20
10945.798654234713
 10
49900.870906286844
 20
10945.798654234713
 10
49900.870906286844
 20
13770.015014736688
 10
49700.870906286844
 20
13770.015014736688
  0
LWPOLYLINE
  5
61
330
17
100
AcDbEntity
  8
F04_WALLS
100
AcDbPolyline
 90
5
 70
1
 10
49700.870906286844
 20
9175.394368546906
 10
49700.870906286844
 20
7236.380150888837
 10
49900.870906286844
 20
7236.380150888837
 10
49900.870906286844
 20
9175.394368546906
 10
49700.870906286844
 20
9175.394368546906
  0
LWPOLYLINE
  5
62
330
17
100
AcDbEntity
  8
F04_WALLS
100
AcDbPolyline
 90
5
 70
1
 10
49771.196948343444
 20
7331.875994882036
 10
43802.42710347363
 20
5477.166743209096
 10
43861.77501936043
 20
5286.175055222699
 10
49830.54486423024
 20
7140.8843068956385
 10
49771.196948343444
 20
7331.875994882036
  0
LWPOLYLINE
  5
63
330
17
100
AcDbEntity
  8
F04_WALLS
100
AcDbPolyline
 90
5
 70
1
 10
41650.412773292206
 20
6409.02552505237
 10
32553.18425111131
 20
6409.02552505237
 10
32553.18425111131
 20
6209.02552505237
 10
41650.412773292206
 20
6209.02552505237
 10
41650.412773292206
 20
6409.02552505237
  0
LWPOLYLINE
  5
64
330
17
100
AcDbEntity
  8
F04_WALLS
100
AcDbPolyline
 90
5
 70
1
 10
30700.80740270343
 20
6324.720559067231
 10
27284.201215640023
 20
6324.720559067231
 10
27284.201215640023
 20
6124.720559067231
 10
30700.80740270343
 20
6124.720559067231
 10
30700.80740270343
 20
6324.720559067231
  0
LWPOLYLINE
  5
65
330
17
100
AcDbEntity
  8
F04_WALLS
100
AcDbPolyline
 90
5
 70
1
 10
25390.66043726753
 20
6493.330491037503
 10
24196.906468293568
 20
6493.330491037503
 10
24196.906468293568
 20
6293.330491037503
 10
25390.66043726753
 20
6293.330491037503
 10
25390.66043726753
 20
6493.330491037503
  0
LWPOLYLINE
  5
66
330
17
100
AcDbEntity
  8
F04_WALLS
100
AcDbPolyline
 90
5
 70
1
 10
24096.906468293568
 20
6393.330491037503
 10
24096.906468293568
 20
5339.51841622333
 10
24296.906468293568
 20
5339.51841622333
 10
24296.906468293568
 20
6393.330491037503
 10
24096.906468293568
 20
6393.330491037503
  0
LWPOLYLINE
  5
67
330
17
100
AcDbEntity
  8
F04_WALLS
100
AcDbPolyline
 90
5
 70
1
 10
24196.906468293568
 20
5439.51841622333
 10
21397.75923069944
 20
5439.51841622333
 10
21397.75923069944
 20
5239.51841622333
 10
24196.906468293568
 20
5239.51841622333
 10
24196.906468293568
 20
5439.51841622333
  0
LWPOLYLINE
  5
68
330
17
100
AcDbEntity
  8
F04_WALLS
100
AcDbPolyline
 90
5
 70
1
 10
21497.75923069944
 20
5339.51841622333
 10
21497.75923069944
 20
7700.057463807071
 10
21297.75923069944
 20
7700.057463807071
 10
21297.75923069944
 20
5339.51841622333
 10
21497.75923069944
 20
5339.51841622333
  0
LWPOLYLINE
  5
69
330
17
100
AcDbEntity
  8
F04_WALLS
100
AcDbPolyline
 90
5
 70
1
 10
18475.120203211463
 20
5197.365933230763
 10
21397.75923069944
 20
5197.365933230763
 10
21397.75923069944
 20
5397.365933230763
 10
18475.120203211463
 20
5397.365933230763
 10
18475.120203211463
 20
5197.365933230763
  0
LWPOLYLINE
  5
6A
330
17
100
AcDbEntity
  8
F04_WALLS
100
AcDbPolyline
 90
5
 70
1
 10
21297.75923069944
 20
5297.365933230763
 10
21297.75923069944
 20
3737.7240625057952
 10
21497.75923069944
 20
3737.7240625057952
 10
21497.75923069944
 20
5297.365933230763
 10
21297.75923069944
 20
5297.365933230763
  0
LWPOLYLINE
  5
6B
330
17
100
AcDbEntity
  8
F04_WALLS
100
AcDbPolyline
 90
5
 70
1
 10
21397.75923069944
 20
3837.7240625057952
 10
18475.120203211463
 20
3837.7240625057952
 10
18475.120203211463
 20
3637.7240625057952
 10
21397.75923069944
 20
3637.7240625057952
 10
21397.75923069944
 20
3837.7240625057952
  0
LWPOLYLINE
  5
6C
330
17
100
AcDbEntity
  8
F04_WALLS
100
AcDbPolyline
 90
5
 70
1
 10
18575.120203211463
 20
3737.7240625057952
 10
18575.120203211463
 20
5297.365933230763
 10
18375.120203211463
 20
5297.365933230763
 10
18375.120203211463
 20
3737.7240625057952
 10
18575.120203211463
 20
3737.7240625057952
  0
LWPOLYLINE
  5
6D
330
17
100
AcDbEntity
  8
F04_WALLS
100
AcDbPolyline
 90
5
 70
1
 10
19069.087362786897
 20
-98.15188981778104
 10
19069.087362786897
 20
3358.3517155726945
 10
18869.087362786897
 20
3358.3517155726945
 10
18869.087362786897
 20
-98.15188981778104
 10
19069.087362786897
 20
-98.15188981778104
  0
LWPOLYLINE
  5
6E
330
17
100
AcDbEntity
  8
F04_WALLS
100
AcDbPolyline
 90
5
 70
1
 10
18969.087362786897
 20
3258.3517155726945
 10
21438.923160664064
 20
3258.3517155726945
 10
21438.923160664064
 20
3458.3517155726945
 10
18969.087362786897
 20
3458.3517155726945
 10
18969.087362786897
 20
3258.3517155726945
  0
LWPOLYLINE
  5
6F
330
17
100
AcDbEntity
  8
F04_WALLS
100
AcDbPolyline
 90
5
 70
1
 10
21338.923160664064
 20
3358.3517155726945
 10
21338.923160664064
 20
154.76300813761927
 10
21538.923160664064
 20
154.76300813761927
 10
21538.923160664064
 20
3358.3517155726945
 10
21338.923160664064
 20
3358.3517155726945
  0
LWPOLYLINE
  5
70
330
17
100
AcDbEntity
  8
F04_WALLS
100
AcDbPolyline
 90
5
 70
1
 10
25802.299736913723
 20
3469.114130535528
 10
33129.47927061598
 20
3469.114130535528
 10
33129.47927061598
 20
3669.114130535528
 10
25802.299736913723
 20
3669.114130535528
 10
25802.299736913723
 20
3469.114130535528
  0
LWPOLYLINE
  5
71
330
17
100
AcDbEntity
  8
F04_WALLS
100
AcDbPolyline
 90
5
 70
1
 10
33029.47927061598
 20
3569.114130535528
 10
33029.47927061598
 20
28.305559159919113
 10
33229.47927061598
 20
28.305559159919113
 10
33229.47927061598
 20
3569.114130535528
 10
33029.47927061598
 20
3569.114130535528
  0
LWPOLYLINE
  5
72
330
17
100
AcDbEntity
  8
F04_WALLS
100
AcDbPolyline
 90
5
 70
1
 10
33499.954640297554
 20
3469.114130535528
 10
35475.82327859929
 20
3469.114130535528
 10
35475.82327859929
 20
3669.114130535528
 10
33499.954640297554
 20
3669.114130535528
 10
33499.954640297554
 20
3469.114130535528
  0
LWPOLYLINE
  5
73
330
17
100
AcDbEntity
  8
F04_WALLS
100
AcDbPolyline
 90
5
 70
1
 10
35375.82327859929
 20
3569.114130535528
 10
35375.82327859929
 20
-55.99940682521432
 10
35575.82327859929
 20
-55.99940682521432
 10
35575.82327859929
 20
3569.114130535528
 10
35375.82327859929
 20
3569.114130535528
  0
LWPOLYLINE
  5
74
330
17
100
AcDbEntity
  8
F04_WALLS
100
AcDbPolyline
 90
5
 70
1
 10
37904.495146511836
 20
3595.5715795132282
 10
42926.49460219541
 20
3595.5715795132282
 10
42926.49460219541
 20
3795.5715795132282
 10
37904.495146511836
 20
3795.5715795132282
 10
37904.495146511836
 20
3595.5715795132282
  0
LWPOLYLINE
  5
75
330
17
100
AcDbEntity
  8
F04_WALLS
100
AcDbPolyline
 90
5
 70
1
 10
42826.49460219541
 20
3695.5715795132282
 10
42826.49460219541
 20
1461.4899809071876
 10
43026.49460219541
 20
1461.4899809071876
 10
43026.49460219541
 20
3695.5715795132282
 10
42826.49460219541
 20
3695.5715795132282
  0
LWPOLYLINE
  5
76
330
17
100
AcDbEntity
  8
F04_WALLS
100
AcDbPolyline
 90
5
 70
1
 10
42926.49460219541
 20
1561.4899809071876
 10
37904.495146511836
 20
1561.4899809071876
 10
37904.495146511836
 20
1361.4899809071876
 10
42926.49460219541
 20
1361.4899809071876
 10
42926.49460219541
 20
1561.4899809071876
  0
LWPOLYLINE
  5
77
330
17
100
AcDbEntity
  8
F04_WALLS
100
AcDbPolyline
 90
5
 70
1
 10
38004.495146511836
 20
1461.4899809071876
 10
38004.495146511836
 20
3695.5715795132282
 10
37804.495146511836
 20
3695.5715795132282
 10
37804.495146511836
 20
1461.4899809071876
 10
38004.495146511836
 20
1461.4899809071876
  0
LWPOLYLINE
  5
78
330
17
100
AcDbEntity
  8
F04_WALLS
100
AcDbPolyline
 90
5
 70
1
 10
44120.248571169366
 20
3722.0290284909283
 10
50047.85448607457
 20
3722.0290284909283
 10
50047.85448607457
 20
3922.0290284909283
 10
44120.248571169366
 20
3922.0290284909283
 10
44120.248571169366
 20
3722.0290284909283
  0
LWPOLYLINE
  5
79
330
17
100
AcDbEntity
  8
F04_WALLS
100
AcDbPolyline
 90
5
 70
1
 10
50147.85448607457
 20
3822.0290284909283
 10
50147.85448607457
 20
4917.993586297664
 10
49947.85448607457
 20
4917.993586297664
 10
49947.85448607457
 20
3822.0290284909283
 10
50147.85448607457
 20
3822.0290284909283
  0
LWPOLYLINE
  5
7B
330
17
100
AcDbEntity
  8
F04_RAILS
100
AcDbPolyline
 90
5
 70
1
 10
27366.529075569262
 20
27883.24930023912
 10
37492.85584686564
 20
27883.24930023912
 10
37492.85584686564
 20
27983.24930023912
 10
27366.529075569262
 20
27983.24930023912
 10
27366.529075569262
 20
27883.24930023912
  0
LWPOLYLINE
  5
7C
330
17
100
AcDbEntity
  8
F04_RAILS
100
AcDbPolyline
 90
5
 70
1
 10
37456.31686931607
 20
27899.118623134324
 10
38361.9233285377
 20
26929.61151430529
 10
38435.00128363684
 20
26997.87286851488
 10
37529.39482441521
 20
27967.379977343917
 10
37456.31686931607
 20
27899.118623134324
  0
LWPOLYLINE
  5
7D
330
17
100
AcDbEntity
  8
F04_RAILS
100
AcDbPolyline
 90
5
 70
1
 10
38348.46230608727
 20
26963.742191410085
 10
38348.46230608727
 20
8163.734776725305
 10
38448.46230608727
 20
8163.734776725305
 10
38448.46230608727
 20
26963.742191410085
 10
38348.46230608727
 20
26963.742191410085
  0
LWPOLYLINE
  5
7E
330
17
100
AcDbEntity
  8
F04_RAILS
100
AcDbPolyline
 90
5
 70
1
 10
38364.393570035645
 20
8200.3315146106
 10
37458.78711081402
 20
7357.281854759264
 10
37526.924582917265
 20
7284.088378988677
 10
38432.53104213889
 20
8127.138038840011
 10
38364.393570035645
 20
8200.3315146106
  0
LWPOLYLINE
  5
7F
330
17
100
AcDbEntity
  8
F04_RAILS
100
AcDbPolyline
 90
5
 70
1
 10
37492.85584686564
 20
7370.68511687397
 10
27407.693005533878
 20
7370.68511687397
 10
27407.693005533878
 20
7270.68511687397
 10
37492.85584686564
 20
7270.68511687397
 10
37492.85584686564
 20
7370.68511687397
  0
LWPOLYLINE
  5
81
330
17
100
AcDbEntity
  8
F04_SEATING
100
AcDbPolyline
 90
5
 70
1
 10
39303.163158849675
 20
27104.53148460526
 10
39938.89889322325
 20
27104.53148460526
 10
39938.89889322325
 20
26705.86266768
 10
39303.163158849675
 20
26705.86266768
 10
39303.163158849675
 20
27104.53148460526
  0
LWPOLYLINE
  5
82
330
17
100
AcDbEntity
  8
F04_SEATING
100
AcDbPolyline
 90
5
 70
1
 10
39303.163158849675
 20
26481.61145815955
 10
39938.89889322325
 20
26481.61145815955
 10
39938.89889322325
 20
26082.942641234295
 10
39303.163158849675
 20
26082.942641234295
 10
39303.163158849675
 20
26481.61145815955
  0
LWPOLYLINE
  5
83
330
17
100
AcDbEntity
  8
F04_SEATING
100
AcDbPolyline
 90
5
 70
1
 10
39303.163158849675
 20
25858.69143171384
 10
39938.89889322325
 20
25858.69143171384
 10
39938.89889322325
 20
25460.022614788588
 10
39303.163158849675
 20
25460.022614788588
 10
39303.163158849675
 20
25858.69143171384
  0
LWPOLYLINE
  5
84
330
17
100
AcDbEntity
  8
F04_SEATING
100
AcDbPolyline
 90
5
 70
1
 10
39303.163158849675
 20
25235.77140526813
 10
39938.89889322325
 20
25235.77140526813
 10
39938.89889322325
 20
24837.102588342877
 10
39303.163158849675
 20
24837.102588342877
 10
39303.163158849675
 20
25235.77140526813
  0
LWPOLYLINE
  5
85
330
17
100
AcDbEntity
  8
F04_SEATING
100
AcDbPolyline
 90
5
 70
1
 10
39303.163158849675
 20
24612.851378822423
 10
39938.89889322325
 20
24612.851378822423
 10
39938.89889322325
 20
24214.18256189717
 10
39303.163158849675
 20
24214.18256189717
 10
39303.163158849675
 20
24612.851378822423
  0
LWPOLYLINE
  5
86
330
17
100
AcDbEntity
  8
F04_SEATING
100
AcDbPolyline
 90
5
 70
1
 10
39303.163158849675
 20
23989.931352376712
 10
39938.89889322325
 20
23989.931352376712
 10
39938.89889322325
 20
23591.262535451464
 10
39303.163158849675
 20
23591.262535451464
 10
39303.163158849675
 20
23989.931352376712
  0
LWPOLYLINE
  5
87
330
17
100
AcDbEntity
  8
F04_SEATING
100
AcDbPolyline
 90
5
 70
1
 10
39303.163158849675
 20
23367.011325931006
 10
39938.89889322325
 20
23367.011325931006
 10
39938.89889322325
 20
22968.34250900575
 10
39303.163158849675
 20
22968.34250900575
 10
39303.163158849675
 20
23367.011325931006
  0
LWPOLYLINE
  5
88
330
17
100
AcDbEntity
  8
F04_SEATING
100
AcDbPolyline
 90
5
 70
1
 10
39303.163158849675
 20
22744.0912994853
 10
39938.89889322325
 20
22744.0912994853
 10
39938.89889322325
 20
22345.42248256004
 10
39303.163158849675
 20
22345.42248256004
 10
39303.163158849675
 20
22744.0912994853
  0
LWPOLYLINE
  5
89
330
17
100
AcDbEntity
  8
F04_SEATING
100
AcDbPolyline
 90
5
 70
1
 10
39303.163158849675
 20
22121.171273039592
 10
39938.89889322325
 20
22121.171273039592
 10
39938.89889322325
 20
21722.502456114333
 10
39303.163158849675
 20
21722.502456114333
 10
39303.163158849675
 20
22121.171273039592
  0
LWPOLYLINE
  5
8A
330
17
100
AcDbEntity
  8
F04_SEATING
100
AcDbPolyline
 90
5
 70
1
 10
40266.39912002177
 20
27104.53148460526
 10
40902.13485439536
 20
27104.53148460526
 10
40902.13485439536
 20
26705.86266768
 10
40266.39912002177
 20
26705.86266768
 10
40266.39912002177
 20
27104.53148460526
  0
LWPOLYLINE
  5
8B
330
17
100
AcDbEntity
  8
F04_SEATING
100
AcDbPolyline
 90
5
 70
1
 10
40266.39912002177
 20
26481.61145815955
 10
40902.13485439536
 20
26481.61145815955
 10
40902.13485439536
 20
26082.942641234295
 10
40266.39912002177
 20
26082.942641234295
 10
40266.39912002177
 20
26481.61145815955
  0
LWPOLYLINE
  5
8C
330
17
100
AcDbEntity
  8
F04_SEATING
100
AcDbPolyline
 90
5
 70
1
 10
40266.39912002177
 20
25858.69143171384
 10
40902.13485439536
 20
25858.69143171384
 10
40902.13485439536
 20
25460.022614788588
 10
40266.39912002177
 20
25460.022614788588
 10
40266.39912002177
 20
25858.69143171384
  0
LWPOLYLINE
  5
8D
330
17
100
AcDbEntity
  8
F04_SEATING
100
AcDbPolyline
 90
5
 70
1
 10
40266.39912002177
 20
25235.77140526813
 10
40902.13485439536
 20
25235.77140526813
 10
40902.13485439536
 20
24837.102588342877
 10
40266.39912002177
 20
24837.102588342877
 10
40266.39912002177
 20
25235.77140526813
  0
LWPOLYLINE
  5
8E
330
17
100
AcDbEntity
  8
F04_SEATING
100
AcDbPolyline
 90
5
 70
1
 10
40266.39912002177
 20
24612.851378822423
 10
40902.13485439536
 20
24612.851378822423
 10
40902.13485439536
 20
24214.18256189717
 10
40266.39912002177
 20
24214.18256189717
 10
40266.39912002177
 20
24612.851378822423
  0
LWPOLYLINE
  5
8F
330
17
100
AcDbEntity
  8
F04_SEATING
100
AcDbPolyline
 90
5
 70
1
 10
40266.39912002177
 20
23989.931352376712
 10
40902.13485439536
 20
23989.931352376712
 10
40902.13485439536
 20
23591.262535451464
 10
40266.39912002177
 20
23591.262535451464
 10
40266.39912002177
 20
23989.931352376712
  0
LWPOLYLINE
  5
90
330
17
100
AcDbEntity
  8
F04_SEATING
100
AcDbPolyline
 90
5
 70
1
 10
40266.39912002177
 20
23367.011325931006
 10
40902.13485439536
 20
23367.011325931006
 10
40902.13485439536
 20
22968.34250900575
 10
40266.39912002177
 20
22968.34250900575
 10
40266.39912002177
 20
23367.011325931006
  0
LWPOLYLINE
  5
91
330
17
100
AcDbEntity
  8
F04_SEATING
100
AcDbPolyline
 90
5
 70
1
 10
40266.39912002177
 20
22744.0912994853
 10
40902.13485439536
 20
22744.0912994853
 10
40902.13485439536
 20
22345.42248256004
 10
40266.39912002177
 20
22345.42248256004
 10
40266.39912002177
 20
22744.0912994853
  0
LWPOLYLINE
  5
92
330
17
100
AcDbEntity
  8
F04_SEATING
100
AcDbPolyline
 90
5
 70
1
 10
40266.39912002177
 20
22121.171273039592
 10
40902.13485439536
 20
22121.171273039592
 10
40902.13485439536
 20
21722.502456114333
 10
40266.39912002177
 20
21722.502456114333
 10
40266.39912002177
 20
22121.171273039592
  0
LWPOLYLINE
  5
93
330
17
100
AcDbEntity
  8
F04_SEATING
100
AcDbPolyline
 90
5
 70
1
 10
41229.63508119386
 20
27104.53148460526
 10
41865.37081556744
 20
27104.53148460526
 10
41865.37081556744
 20
26705.86266768
 10
41229.63508119386
 20
26705.86266768
 10
41229.63508119386
 20
27104.53148460526
  0
LWPOLYLINE
  5
94
330
17
100
AcDbEntity
  8
F04_SEATING
100
AcDbPolyline
 90
5
 70
1
 10
41229.63508119386
 20
26481.61145815955
 10
41865.37081556744
 20
26481.61145815955
 10
41865.37081556744
 20
26082.942641234295
 10
41229.63508119386
 20
26082.942641234295
 10
41229.63508119386
 20
26481.61145815955
  0
LWPOLYLINE
  5
95
330
17
100
AcDbEntity
  8
F04_SEATING
100
AcDbPolyline
 90
5
 70
1
 10
41229.63508119386
 20
25858.69143171384
 10
41865.37081556744
 20
25858.69143171384
 10
41865.37081556744
 20
25460.022614788588
 10
41229.63508119386
 20
25460.022614788588
 10
41229.63508119386
 20
25858.69143171384
  0
LWPOLYLINE
  5
96
330
17
100
AcDbEntity
  8
F04_SEATING
100
AcDbPolyline
 90
5
 70
1
 10
41229.63508119386
 20
25235.77140526813
 10
41865.37081556744
 20
25235.77140526813
 10
41865.37081556744
 20
24837.102588342877
 10
41229.63508119386
 20
24837.102588342877
 10
41229.63508119386
 20
25235.77140526813
  0
LWPOLYLINE
  5
97
330
17
100
AcDbEntity
  8
F04_SEATING
100
AcDbPolyline
 90
5
 70
1
 10
41229.63508119386
 20
24612.851378822423
 10
41865.37081556744
 20
24612.851378822423
 10
41865.37081556744
 20
24214.18256189717
 10
41229.63508119386
 20
24214.18256189717
 10
41229.63508119386
 20
24612.851378822423
  0
LWPOLYLINE
  5
98
330
17
100
AcDbEntity
  8
F04_SEATING
100
AcDbPolyline
 90
5
 70
1
 10
41229.63508119386
 20
23989.931352376712
 10
41865.37081556744
 20
23989.931352376712
 10
41865.37081556744
 20
23591.262535451464
 10
41229.63508119386
 20
23591.262535451464
 10
41229.63508119386
 20
23989.931352376712
  0
LWPOLYLINE
  5
99
330
17
100
AcDbEntity
  8
F04_SEATING
100
AcDbPolyline
 90
5
 70
1
 10
41229.63508119386
 20
23367.011325931006
 10
41865.37081556744
 20
23367.011325931006
 10
41865.37081556744
 20
22968.34250900575
 10
41229.63508119386
 20
22968.34250900575
 10
41229.63508119386
 20
23367.011325931006
  0
LWPOLYLINE
  5
9A
330
17
100
AcDbEntity
  8
F04_SEATING
100
AcDbPolyline
 90
5
 70
1
 10
41229.63508119386
 20
22744.0912994853
 10
41865.37081556744
 20
22744.0912994853
 10
41865.37081556744
 20
22345.42248256004
 10
41229.63508119386
 20
22345.42248256004
 10
41229.63508119386
 20
22744.0912994853
  0
LWPOLYLINE
  5
9B
330
17
100
AcDbEntity
  8
F04_SEATING
100
AcDbPolyline
 90
5
 70
1
 10
41229.63508119386
 20
22121.171273039592
 10
41865.37081556744
 20
22121.171273039592
 10
41865.37081556744
 20
21722.502456114333
 10
41229.63508119386
 20
21722.502456114333
 10
41229.63508119386
 20
22121.171273039592
  0
LWPOLYLINE
  5
9C
330
17
100
AcDbEntity
  8
F04_SEATING
100
AcDbPolyline
 90
5
 70
1
 10
42192.87104236596
 20
27104.53148460526
 10
42828.60677673954
 20
27104.53148460526
 10
42828.60677673954
 20
26705.86266768
 10
42192.87104236596
 20
26705.86266768
 10
42192.87104236596
 20
27104.53148460526
  0
LWPOLYLINE
  5
9D
330
17
100
AcDbEntity
  8
F04_SEATING
100
AcDbPolyline
 90
5
 70
1
 10
42192.87104236596
 20
26481.61145815955
 10
42828.60677673954
 20
26481.61145815955
 10
42828.60677673954
 20
26082.942641234295
 10
42192.87104236596
 20
26082.942641234295
 10
42192.87104236596
 20
26481.61145815955
  0
LWPOLYLINE
  5
9E
330
17
100
AcDbEntity
  8
F04_SEATING
100
AcDbPolyline
 90
5
 70
1
 10
42192.87104236596
 20
25858.69143171384
 10
42828.60677673954
 20
25858.69143171384
 10
42828.60677673954
 20
25460.022614788588
 10
42192.87104236596
 20
25460.022614788588
 10
42192.87104236596
 20
25858.69143171384
  0
LWPOLYLINE
  5
9F
330
17
100
AcDbEntity
  8
F04_SEATING
100
AcDbPolyline
 90
5
 70
1
 10
42192.87104236596
 20
25235.77140526813
 10
42828.60677673954
 20
25235.77140526813
 10
42828.60677673954
 20
24837.102588342877
 10
42192.87104236596
 20
24837.102588342877
 10
42192.87104236596
 20
25235.77140526813
  0
LWPOLYLINE
  5
A0
330
17
100
AcDbEntity
  8
F04_SEATING
100
AcDbPolyline
 90
5
 70
1
 10
42192.87104236596
 20
24612.851378822423
 10
42828.60677673954
 20
24612.851378822423
 10
42828.60677673954
 20
24214.18256189717
 10
42192.87104236596
 20
24214.18256189717
 10
42192.87104236596
 20
24612.851378822423
  0
LWPOLYLINE
  5
A1
330
17
100
AcDbEntity
  8
F04_SEATING
100
AcDbPolyline
 90
5
 70
1
 10
42192.87104236596
 20
23989.931352376712
 10
42828.60677673954
 20
23989.931352376712
 10
42828.60677673954
 20
23591.262535451464
 10
42192.87104236596
 20
23591.262535451464
 10
42192.87104236596
 20
23989.931352376712
  0
LWPOLYLINE
  5
A2
330
17
100
AcDbEntity
  8
F04_SEATING
100
AcDbPolyline
 90
5
 70
1
 10
42192.87104236596
 20
23367.011325931006
 10
42828.60677673954
 20
23367.011325931006
 10
42828.60677673954
 20
22968.34250900575
 10
42192.87104236596
 20
22968.34250900575
 10
42192.87104236596
 20
23367.011325931006
  0
LWPOLYLINE
  5
A3
330
17
100
AcDbEntity
  8
F04_SEATING
100
AcDbPolyline
 90
5
 70
1
 10
42192.87104236596
 20
22744.0912994853
 10
42828.60677673954
 20
22744.0912994853
 10
42828.60677673954
 20
22345.42248256004
 10
42192.87104236596
 20
22345.42248256004
 10
42192.87104236596
 20
22744.0912994853
  0
LWPOLYLINE
  5
A4
330
17
100
AcDbEntity
  8
F04_SEATING
100
AcDbPolyline
 90
5
 70
1
 10
42192.87104236596
 20
22121.171273039592
 10
42828.60677673954
 20
22121.171273039592
 10
42828.60677673954
 20
21722.502456114333
 10
42192.87104236596
 20
21722.502456114333
 10
42192.87104236596
 20
22121.171273039592
  0
LWPOLYLINE
  5
A5
330
17
100
AcDbEntity
  8
F04_SEATING
100
AcDbPolyline
 90
5
 70
1
 10
43156.107003538054
 20
27104.53148460526
 10
43791.842737911626
 20
27104.53148460526
 10
43791.842737911626
 20
26705.86266768
 10
43156.107003538054
 20
26705.86266768
 10
43156.107003538054
 20
27104.53148460526
  0
LWPOLYLINE
  5
A6
330
17
100
AcDbEntity
  8
F04_SEATING
100
AcDbPolyline
 90
5
 70
1
 10
43156.107003538054
 20
26481.61145815955
 10
43791.842737911626
 20
26481.61145815955
 10
43791.842737911626
 20
26082.942641234295
 10
43156.107003538054
 20
26082.942641234295
 10
43156.107003538054
 20
26481.61145815955
  0
LWPOLYLINE
  5
A7
330
17
100
AcDbEntity
  8
F04_SEATING
100
AcDbPolyline
 90
5
 70
1
 10
43156.107003538054
 20
25858.69143171384
 10
43791.842737911626
 20
25858.69143171384
 10
43791.842737911626
 20
25460.022614788588
 10
43156.107003538054
 20
25460.022614788588
 10
43156.107003538054
 20
25858.69143171384
  0
LWPOLYLINE
  5
A8
330
17
100
AcDbEntity
  8
F04_SEATING
100
AcDbPolyline
 90
5
 70
1
 10
43156.107003538054
 20
25235.77140526813
 10
43791.842737911626
 20
25235.77140526813
 10
43791.842737911626
 20
24837.102588342877
 10
43156.107003538054
 20
24837.102588342877
 10
43156.107003538054
 20
25235.77140526813
  0
LWPOLYLINE
  5
A9
330
17
100
AcDbEntity
  8
F04_SEATING
100
AcDbPolyline
 90
5
 70
1
 10
43156.107003538054
 20
24612.851378822423
 10
43791.842737911626
 20
24612.851378822423
 10
43791.842737911626
 20
24214.18256189717
 10
43156.107003538054
 20
24214.18256189717
 10
43156.107003538054
 20
24612.851378822423
  0
LWPOLYLINE
  5
AA
330
17
100
AcDbEntity
  8
F04_SEATING
100
AcDbPolyline
 90
5
 70
1
 10
43156.107003538054
 20
23989.931352376712
 10
43791.842737911626
 20
23989.931352376712
 10
43791.842737911626
 20
23591.262535451464
 10
43156.107003538054
 20
23591.262535451464
 10
43156.107003538054
 20
23989.931352376712
  0
LWPOLYLINE
  5
AB
330
17
100
AcDbEntity
  8
F04_SEATING
100
AcDbPolyline
 90
5
 70
1
 10
43156.107003538054
 20
23367.011325931006
 10
43791.842737911626
 20
23367.011325931006
 10
43791.842737911626
 20
22968.34250900575
 10
43156.107003538054
 20
22968.34250900575
 10
43156.107003538054
 20
23367.011325931006
  0
LWPOLYLINE
  5
AC
330
17
100
AcDbEntity
  8
F04_SEATING
100
AcDbPolyline
 90
5
 70
1
 10
43156.107003538054
 20
22744.0912994853
 10
43791.842737911626
 20
22744.0912994853
 10
43791.842737911626
 20
22345.42248256004
 10
43156.107003538054
 20
22345.42248256004
 10
43156.107003538054
 20
22744.0912994853
  0
LWPOLYLINE
  5
AD
330
17
100
AcDbEntity
  8
F04_SEATING
100
AcDbPolyline
 90
5
 70
1
 10
43156.107003538054
 20
22121.171273039592
 10
43791.842737911626
 20
22121.171273039592
 10
43791.842737911626
 20
21722.502456114333
 10
43156.107003538054
 20
21722.502456114333
 10
43156.107003538054
 20
22121.171273039592
  0
LWPOLYLINE
  5
AE
330
17
100
AcDbEntity
  8
F04_SEATING
100
AcDbPolyline
 90
5
 70
1
 10
39303.163158849675
 20
20361.48308525034
 10
39938.89889322325
 20
20361.48308525034
 10
39938.89889322325
 20
19967.610284167793
 10
39303.163158849675
 20
19967.610284167793
 10
39303.163158849675
 20
20361.48308525034
  0
LWPOLYLINE
  5
AF
330
17
100
AcDbEntity
  8
F04_SEATING
100
AcDbPolyline
 90
5
 70
1
 10
39303.163158849675
 20
19746.056833558865
 10
39938.89889322325
 20
19746.056833558865
 10
39938.89889322325
 20
19352.184032476318
 10
39303.163158849675
 20
19352.184032476318
 10
39303.163158849675
 20
19746.056833558865
  0
LWPOLYLINE
  5
B0
330
17
100
AcDbEntity
  8
F04_SEATING
100
AcDbPolyline
 90
5
 70
1
 10
39303.163158849675
 20
19130.630581867386
 10
39938.89889322325
 20
19130.630581867386
 10
39938.89889322325
 20
18736.757780784843
 10
39303.163158849675
 20
18736.757780784843
 10
39303.163158849675
 20
19130.630581867386
  0
LWPOLYLINE
  5
B1
330
17
100
AcDbEntity
  8
F04_SEATING
100
AcDbPolyline
 90
5
 70
1
 10
39303.163158849675
 20
18515.204330175915
 10
39938.89889322325
 20
18515.204330175915
 10
39938.89889322325
 20
18121.331529093364
 10
39303.163158849675
 20
18121.331529093364
 10
39303.163158849675
 20
18515.204330175915
  0
LWPOLYLINE
  5
B2
330
17
100
AcDbEntity
  8
F04_SEATING
100
AcDbPolyline
 90
5
 70
1
 10
39303.163158849675
 20
17899.778078484436
 10
39938.89889322325
 20
17899.778078484436
 10
39938.89889322325
 20
17505.905277401893
 10
39303.163158849675
 20
17505.905277401893
 10
39303.163158849675
 20
17899.778078484436
  0
LWPOLYLINE
  5
B3
330
17
100
AcDbEntity
  8
F04_SEATING
100
AcDbPolyline
 90
5
 70
1
 10
39303.163158849675
 20
17284.351826792965
 10
39938.89889322325
 20
17284.351826792965
 10
39938.89889322325
 20
16890.47902571042
 10
39303.163158849675
 20
16890.47902571042
 10
39303.163158849675
 20
17284.351826792965
  0
LWPOLYLINE
  5
B4
330
17
100
AcDbEntity
  8
F04_SEATING
100
AcDbPolyline
 90
5
 70
1
 10
39303.163158849675
 20
16668.92557510149
 10
39938.89889322325
 20
16668.92557510149
 10
39938.89889322325
 20
16275.052774018943
 10
39303.163158849675
 20
16275.052774018943
 10
39303.163158849675
 20
16668.92557510149
  0
LWPOLYLINE
  5
B5
330
17
100
AcDbEntity
  8
F04_SEATING
100
AcDbPolyline
 90
5
 70
1
 10
39303.163158849675
 20
16053.499323410013
 10
39938.89889322325
 20
16053.499323410013
 10
39938.89889322325
 20
15659.62652232747
 10
39303.163158849675
 20
15659.62652232747
 10
39303.163158849675
 20
16053.499323410013
  0
LWPOLYLINE
  5
B6
330
17
100
AcDbEntity
  8
F04_SEATING
100
AcDbPolyline
 90
5
 70
1
 10
39303.163158849675
 20
15438.073071718538
 10
39938.89889322325
 20
15438.073071718538
 10
39938.89889322325
 20
15044.200270635994
 10
39303.163158849675
 20
15044.200270635994
 10
39303.163158849675
 20
15438.073071718538
  0
LWPOLYLINE
  5
B7
330
17
100
AcDbEntity
  8
F04_SEATING
100
AcDbPolyline
 90
5
 70
1
 10
39303.163158849675
 20
14822.646820027065
 10
39938.89889322325
 20
14822.646820027065
 10
39938.89889322325
 20
14428.774018944516
 10
39303.163158849675
 20
14428.774018944516
 10
39303.163158849675
 20
14822.646820027065
  0
LWPOLYLINE
  5
B8
330
17
100
AcDbEntity
  8
F04_SEATING
100
AcDbPolyline
 90
5
 70
1
 10
40266.39912002177
 20
20361.48308525034
 10
40902.13485439536
 20
20361.48308525034
 10
40902.13485439536
 20
19967.610284167793
 10
40266.39912002177
 20
19967.610284167793
 10
40266.39912002177
 20
20361.48308525034
  0
LWPOLYLINE
  5
B9
330
17
100
AcDbEntity
  8
F04_SEATING
100
AcDbPolyline
 90
5
 70
1
 10
40266.39912002177
 20
19746.056833558865
 10
40902.13485439536
 20
19746.056833558865
 10
40902.13485439536
 20
19352.184032476318
 10
40266.39912002177
 20
19352.184032476318
 10
40266.39912002177
 20
19746.056833558865
  0
LWPOLYLINE
  5
BA
330
17
100
AcDbEntity
  8
F04_SEATING
100
AcDbPolyline
 90
5
 70
1
 10
40266.39912002177
 20
19130.630581867386
 10
40902.13485439536
 20
19130.630581867386
 10
40902.13485439536
 20
18736.757780784843
 10
40266.39912002177
 20
18736.757780784843
 10
40266.39912002177
 20
19130.630581867386
  0
LWPOLYLINE
  5
BB
330
17
100
AcDbEntity
  8
F04_SEATING
100
AcDbPolyline
 90
5
 70
1
 10
40266.39912002177
 20
18515.204330175915
 10
40902.13485439536
 20
18515.204330175915
 10
40902.13485439536
 20
18121.331529093364
 10
40266.39912002177
 20
18121.331529093364
 10
40266.39912002177
 20
18515.204330175915
  0
LWPOLYLINE
  5
BC
330
17
100
AcDbEntity
  8
F04_SEATING
100
AcDbPolyline
 90
5
 70
1
 10
40266.39912002177
 20
17899.778078484436
 10
40902.13485439536
 20
17899.778078484436
 10
40902.13485439536
 20
17505.905277401893
 10
40266.39912002177
 20
17505.905277401893
 10
40266.39912002177
 20
17899.778078484436
  0
LWPOLYLINE
  5
BD
330
17
100
AcDbEntity
  8
F04_SEATING
100
AcDbPolyline
 90
5
 70
1
 10
40266.39912002177
 20
17284.351826792965
 10
40902.13485439536
 20
17284.351826792965
 10
40902.13485439536
 20
16890.47902571042
 10
40266.39912002177
 20
16890.47902571042
 10
40266.39912002177
 20
17284.351826792965
  0
LWPOLYLINE
  5
BE
330
17
100
AcDbEntity
  8
F04_SEATING
100
AcDbPolyline
 90
5
 70
1
 10
40266.39912002177
 20
16668.92557510149
 10
40902.13485439536
 20
16668.92557510149
 10
40902.13485439536
 20
16275.052774018943
 10
40266.39912002177
 20
16275.052774018943
 10
40266.39912002177
 20
16668.92557510149
  0
LWPOLYLINE
  5
BF
330
17
100
AcDbEntity
  8
F04_SEATING
100
AcDbPolyline
 90
5
 70
1
 10
40266.39912002177
 20
16053.499323410013
 10
40902.13485439536
 20
16053.499323410013
 10
40902.13485439536
 20
15659.62652232747
 10
40266.39912002177
 20
15659.62652232747
 10
40266.39912002177
 20
16053.499323410013
  0
LWPOLYLINE
  5
C0
330
17
100
AcDbEntity
  8
F04_SEATING
100
AcDbPolyline
 90
5
 70
1
 10
40266.39912002177
 20
15438.073071718538
 10
40902.13485439536
 20
15438.073071718538
 10
40902.13485439536
 20
15044.200270635994
 10
40266.39912002177
 20
15044.200270635994
 10
40266.39912002177
 20
15438.073071718538
  0
LWPOLYLINE
  5
C1
330
17
100
AcDbEntity
  8
F04_SEATING
100
AcDbPolyline
 90
5
 70
1
 10
40266.39912002177
 20
14822.646820027065
 10
40902.13485439536
 20
14822.646820027065
 10
40902.13485439536
 20
14428.774018944516
 10
40266.39912002177
 20
14428.774018944516
 10
40266.39912002177
 20
14822.646820027065
  0
LWPOLYLINE
  5
C2
330
17
100
AcDbEntity
  8
F04_SEATING
100
AcDbPolyline
 90
5
 70
1
 10
41229.63508119386
 20
20361.48308525034
 10
41865.37081556744
 20
20361.48308525034
 10
41865.37081556744
 20
19967.610284167793
 10
41229.63508119386
 20
19967.610284167793
 10
41229.63508119386
 20
20361.48308525034
  0
LWPOLYLINE
  5
C3
330
17
100
AcDbEntity
  8
F04_SEATING
100
AcDbPolyline
 90
5
 70
1
 10
41229.63508119386
 20
19746.056833558865
 10
41865.37081556744
 20
19746.056833558865
 10
41865.37081556744
 20
19352.184032476318
 10
41229.63508119386
 20
19352.184032476318
 10
41229.63508119386
 20
19746.056833558865
  0
LWPOLYLINE
  5
C4
330
17
100
AcDbEntity
  8
F04_SEATING
100
AcDbPolyline
 90
5
 70
1
 10
41229.63508119386
 20
19130.630581867386
 10
41865.37081556744
 20
19130.630581867386
 10
41865.37081556744
 20
18736.757780784843
 10
41229.63508119386
 20
18736.757780784843
 10
41229.63508119386
 20
19130.630581867386
  0
LWPOLYLINE
  5
C5
330
17
100
AcDbEntity
  8
F04_SEATING
100
AcDbPolyline
 90
5
 70
1
 10
41229.63508119386
 20
18515.204330175915
 10
41865.37081556744
 20
18515.204330175915
 10
41865.37081556744
 20
18121.331529093364
 10
41229.63508119386
 20
18121.331529093364
 10
41229.63508119386
 20
18515.204330175915
  0
LWPOLYLINE
  5
C6
330
17
100
AcDbEntity
  8
F04_SEATING
100
AcDbPolyline
 90
5
 70
1
 10
41229.63508119386
 20
17899.778078484436
 10
41865.37081556744
 20
17899.778078484436
 10
41865.37081556744
 20
17505.905277401893
 10
41229.63508119386
 20
17505.905277401893
 10
41229.63508119386
 20
17899.778078484436
  0
LWPOLYLINE
  5
C7
330
17
100
AcDbEntity
  8
F04_SEATING
100
AcDbPolyline
 90
5
 70
1
 10
41229.63508119386
 20
17284.351826792965
 10
41865.37081556744
 20
17284.351826792965
 10
41865.37081556744
 20
16890.47902571042
 10
41229.63508119386
 20
16890.47902571042
 10
41229.63508119386
 20
17284.351826792965
  0
LWPOLYLINE
  5
C8
330
17
100
AcDbEntity
  8
F04_SEATING
100
AcDbPolyline
 90
5
 70
1
 10
41229.63508119386
 20
16668.92557510149
 10
41865.37081556744
 20
16668.92557510149
 10
41865.37081556744
 20
16275.052774018943
 10
41229.63508119386
 20
16275.052774018943
 10
41229.63508119386
 20
16668.92557510149
  0
LWPOLYLINE
  5
C9
330
17
100
AcDbEntity
  8
F04_SEATING
100
AcDbPolyline
 90
5
 70
1
 10
41229.63508119386
 20
16053.499323410013
 10
41865.37081556744
 20
16053.499323410013
 10
41865.37081556744
 20
15659.62652232747
 10
41229.63508119386
 20
15659.62652232747
 10
41229.63508119386
 20
16053.499323410013
  0
LWPOLYLINE
  5
CA
330
17
100
AcDbEntity
  8
F04_SEATING
100
AcDbPolyline
 90
5
 70
1
 10
41229.63508119386
 20
15438.073071718538
 10
41865.37081556744
 20
15438.073071718538
 10
41865.37081556744
 20
15044.200270635994
 10
41229.63508119386
 20
15044.200270635994
 10
41229.63508119386
 20
15438.073071718538
  0
LWPOLYLINE
  5
CB
330
17
100
AcDbEntity
  8
F04_SEATING
100
AcDbPolyline
 90
5
 70
1
 10
41229.63508119386
 20
14822.646820027065
 10
41865.37081556744
 20
14822.646820027065
 10
41865.37081556744
 20
14428.774018944516
 10
41229.63508119386
 20
14428.774018944516
 10
41229.63508119386
 20
14822.646820027065
  0
LWPOLYLINE
  5
CC
330
17
100
AcDbEntity
  8
F04_SEATING
100
AcDbPolyline
 90
5
 70
1
 10
42192.87104236596
 20
20361.48308525034
 10
42828.60677673954
 20
20361.48308525034
 10
42828.60677673954
 20
19967.610284167793
 10
42192.87104236596
 20
19967.610284167793
 10
42192.87104236596
 20
20361.48308525034
  0
LWPOLYLINE
  5
CD
330
17
100
AcDbEntity
  8
F04_SEATING
100
AcDbPolyline
 90
5
 70
1
 10
42192.87104236596
 20
19746.056833558865
 10
42828.60677673954
 20
19746.056833558865
 10
42828.60677673954
 20
19352.184032476318
 10
42192.87104236596
 20
19352.184032476318
 10
42192.87104236596
 20
19746.056833558865
  0
LWPOLYLINE
  5
CE
330
17
100
AcDbEntity
  8
F04_SEATING
100
AcDbPolyline
 90
5
 70
1
 10
42192.87104236596
 20
19130.630581867386
 10
42828.60677673954
 20
19130.630581867386
 10
42828.60677673954
 20
18736.757780784843
 10
42192.87104236596
 20
18736.757780784843
 10
42192.87104236596
 20
19130.630581867386
  0
LWPOLYLINE
  5
CF
330
17
100
AcDbEntity
  8
F04_SEATING
100
AcDbPolyline
 90
5
 70
1
 10
42192.87104236596
 20
18515.204330175915
 10
42828.60677673954
 20
18515.204330175915
 10
42828.60677673954
 20
18121.331529093364
 10
42192.87104236596
 20
18121.331529093364
 10
42192.87104236596
 20
18515.204330175915
  0
LWPOLYLINE
  5
D0
330
17
100
AcDbEntity
  8
F04_SEATING
100
AcDbPolyline
 90
5
 70
1
 10
42192.87104236596
 20
17899.778078484436
 10
42828.60677673954
 20
17899.778078484436
 10
42828.60677673954
 20
17505.905277401893
 10
42192.87104236596
 20
17505.905277401893
 10
42192.87104236596
 20
17899.778078484436
  0
LWPOLYLINE
  5
D1
330
17
100
AcDbEntity
  8
F04_SEATING
100
AcDbPolyline
 90
5
 70
1
 10
42192.87104236596
 20
17284.351826792965
 10
42828.60677673954
 20
17284.351826792965
 10
42828.60677673954
 20
16890.47902571042
 10
42192.87104236596
 20
16890.47902571042
 10
42192.87104236596
 20
17284.351826792965
  0
LWPOLYLINE
  5
D2
330
17
100
AcDbEntity
  8
F04_SEATING
100
AcDbPolyline
 90
5
 70
1
 10
42192.87104236596
 20
16668.92557510149
 10
42828.60677673954
 20
16668.92557510149
 10
42828.60677673954
 20
16275.052774018943
 10
42192.87104236596
 20
16275.052774018943
 10
42192.87104236596
 20
16668.92557510149
  0
LWPOLYLINE
  5
D3
330
17
100
AcDbEntity
  8
F04_SEATING
100
AcDbPolyline
 90
5
 70
1
 10
42192.87104236596
 20
16053.499323410013
 10
42828.60677673954
 20
16053.499323410013
 10
42828.60677673954
 20
15659.62652232747
 10
42192.87104236596
 20
15659.62652232747
 10
42192.87104236596
 20
16053.499323410013
  0
LWPOLYLINE
  5
D4
330
17
100
AcDbEntity
  8
F04_SEATING
100
AcDbPolyline
 90
5
 70
1
 10
42192.87104236596
 20
15438.073071718538
 10
42828.60677673954
 20
15438.073071718538
 10
42828.60677673954
 20
15044.200270635994
 10
42192.87104236596
 20
15044.200270635994
 10
42192.87104236596
 20
15438.073071718538
  0
LWPOLYLINE
  5
D5
330
17
100
AcDbEntity
  8
F04_SEATING
100
AcDbPolyline
 90
5
 70
1
 10
42192.87104236596
 20
14822.646820027065
 10
42828.60677673954
 20
14822.646820027065
 10
42828.60677673954
 20
14428.774018944516
 10
42192.87104236596
 20
14428.774018944516
 10
42192.87104236596
 20
14822.646820027065
  0
LWPOLYLINE
  5
D6
330
17
100
AcDbEntity
  8
F04_SEATING
100
AcDbPolyline
 90
5
 70
1
 10
43156.107003538054
 20
20361.48308525034
 10
43791.842737911626
 20
20361.48308525034
 10
43791.842737911626
 20
19967.610284167793
 10
43156.107003538054
 20
19967.610284167793
 10
43156.107003538054
 20
20361.48308525034
  0
LWPOLYLINE
  5
D7
330
17
100
AcDbEntity
  8
F04_SEATING
100
AcDbPolyline
 90
5
 70
1
 10
43156.107003538054
 20
19746.056833558865
 10
43791.842737911626
 20
19746.056833558865
 10
43791.842737911626
 20
19352.184032476318
 10
43156.107003538054
 20
19352.184032476318
 10
43156.107003538054
 20
19746.056833558865
  0
LWPOLYLINE
  5
D8
330
17
100
AcDbEntity
  8
F04_SEATING
100
AcDbPolyline
 90
5
 70
1
 10
43156.107003538054
 20
19130.630581867386
 10
43791.842737911626
 20
19130.630581867386
 10
43791.842737911626
 20
18736.757780784843
 10
43156.107003538054
 20
18736.757780784843
 10
43156.107003538054
 20
19130.630581867386
  0
LWPOLYLINE
  5
D9
330
17
100
AcDbEntity
  8
F04_SEATING
100
AcDbPolyline
 90
5
 70
1
 10
43156.107003538054
 20
18515.204330175915
 10
43791.842737911626
 20
18515.204330175915
 10
43791.842737911626
 20
18121.331529093364
 10
43156.107003538054
 20
18121.331529093364
 10
43156.107003538054
 20
18515.204330175915
  0
LWPOLYLINE
  5
DA
330
17
100
AcDbEntity
  8
F04_SEATING
100
AcDbPolyline
 90
5
 70
1
 10
43156.107003538054
 20
17899.778078484436
 10
43791.842737911626
 20
17899.778078484436
 10
43791.842737911626
 20
17505.905277401893
 10
43156.107003538054
 20
17505.905277401893
 10
43156.107003538054
 20
17899.778078484436
  0
LWPOLYLINE
  5
DB
330
17
100
AcDbEntity
  8
F04_SEATING
100
AcDbPolyline
 90
5
 70
1
 10
43156.107003538054
 20
17284.351826792965
 10
43791.842737911626
 20
17284.351826792965
 10
43791.842737911626
 20
16890.47902571042
 10
43156.107003538054
 20
16890.47902571042
 10
43156.107003538054
 20
17284.351826792965
  0
LWPOLYLINE
  5
DC
330
17
100
AcDbEntity
  8
F04_SEATING
100
AcDbPolyline
 90
5
 70
1
 10
43156.107003538054
 20
16668.92557510149
 10
43791.842737911626
 20
16668.92557510149
 10
43791.842737911626
 20
16275.052774018943
 10
43156.107003538054
 20
16275.052774018943
 10
43156.107003538054
 20
16668.92557510149
  0
LWPOLYLINE
  5
DD
330
17
100
AcDbEntity
  8
F04_SEATING
100
AcDbPolyline
 90
5
 70
1
 10
43156.107003538054
 20
16053.499323410013
 10
43791.842737911626
 20
16053.499323410013
 10
43791.842737911626
 20
15659.62652232747
 10
43156.107003538054
 20
15659.62652232747
 10
43156.107003538054
 20
16053.499323410013
  0
LWPOLYLINE
  5
DE
330
17
100
AcDbEntity
  8
F04_SEATING
100
AcDbPolyline
 90
5
 70
1
 10
43156.107003538054
 20
15438.073071718538
 10
43791.842737911626
 20
15438.073071718538
 10
43791.842737911626
 20
15044.200270635994
 10
43156.107003538054
 20
15044.200270635994
 10
43156.107003538054
 20
15438.073071718538
  0
LWPOLYLINE
  5
DF
330
17
100
AcDbEntity
  8
F04_SEATING
100
AcDbPolyline
 90
5
 70
1
 10
43156.107003538054
 20
14822.646820027065
 10
43791.842737911626
 20
14822.646820027065
 10
43791.842737911626
 20
14428.774018944516
 10
43156.107003538054
 20
14428.774018944516
 10
43156.107003538054
 20
14822.646820027065
  0
LWPOLYLINE
  5
E0
330
17
100
AcDbEntity
  8
F04_SEATING
100
AcDbPolyline
 90
5
 70
1
 10
39303.163158849675
 20
13024.759115428102
 10
39938.89889322325
 20
13024.759115428102
 10
39938.89889322325
 20
12623.092788601161
 10
39303.163158849675
 20
12623.092788601161
 10
39303.163158849675
 20
13024.759115428102
  0
LWPOLYLINE
  5
E1
330
17
100
AcDbEntity
  8
F04_SEATING
100
AcDbPolyline
 90
5
 70
1
 10
39303.163158849675
 20
12397.155479760995
 10
39938.89889322325
 20
12397.155479760995
 10
39938.89889322325
 20
11995.489152934055
 10
39303.163158849675
 20
11995.489152934055
 10
39303.163158849675
 20
12397.155479760995
  0
LWPOLYLINE
  5
E2
330
17
100
AcDbEntity
  8
F04_SEATING
100
AcDbPolyline
 90
5
 70
1
 10
39303.163158849675
 20
11769.551844093894
 10
39938.89889322325
 20
11769.551844093894
 10
39938.89889322325
 20
11367.885517266954
 10
39303.163158849675
 20
11367.885517266954
 10
39303.163158849675
 20
11769.551844093894
  0
LWPOLYLINE
  5
E3
330
17
100
AcDbEntity
  8
F04_SEATING
100
AcDbPolyline
 90
5
 70
1
 10
39303.163158849675
 20
11141.948208426787
 10
39938.89889322325
 20
11141.948208426787
 10
39938.89889322325
 20
10740.281881599847
 10
39303.163158849675
 20
10740.281881599847
 10
39303.163158849675
 20
11141.948208426787
  0
LWPOLYLINE
  5
E4
330
17
100
AcDbEntity
  8
F04_SEATING
100
AcDbPolyline
 90
5
 70
1
 10
39303.163158849675
 20
10514.34457275968
 10
39938.89889322325
 20
10514.34457275968
 10
39938.89889322325
 20
10112.67824593274
 10
39303.163158849675
 20
10112.67824593274
 10
39303.163158849675
 20
10514.34457275968
  0
LWPOLYLINE
  5
E5
330
17
100
AcDbEntity
  8
F04_SEATING
100
AcDbPolyline
 90
5
 70
1
 10
39303.163158849675
 20
9886.740937092574
 10
39938.89889322325
 20
9886.740937092574
 10
39938.89889322325
 20
9485.074610265634
 10
39303.163158849675
 20
9485.074610265634
 10
39303.163158849675
 20
9886.740937092574
  0
LWPOLYLINE
  5
E6
330
17
100
AcDbEntity
  8
F04_SEATING
100
AcDbPolyline
 90
5
 70
1
 10
39303.163158849675
 20
9259.137301425468
 10
39938.89889322325
 20
9259.137301425468
 10
39938.89889322325
 20
8857.470974598527
 10
39303.163158849675
 20
8857.470974598527
 10
39303.163158849675
 20
9259.137301425468
  0
LWPOLYLINE
  5
E7
330
17
100
AcDbEntity
  8
F04_SEATING
100
AcDbPolyline
 90
5
 70
1
 10
39303.163158849675
 20
8631.53366575837
 10
39938.89889322325
 20
8631.53366575837
 10
39938.89889322325
 20
8229.867338931424
 10
39303.163158849675
 20
8229.867338931424
 10
39303.163158849675
 20
8631.53366575837
  0
LWPOLYLINE
  5
E8
330
17
100
AcDbEntity
  8
F04_SEATING
100
AcDbPolyline
 90
5
 70
1
 10
39303.163158849675
 20
8003.930030091264
 10
39938.89889322325
 20
8003.930030091264
 10
39938.89889322325
 20
7602.263703264319
 10
39303.163158849675
 20
7602.263703264319
 10
39303.163158849675
 20
8003.930030091264
  0
LWPOLYLINE
  5
E9
330
17
100
AcDbEntity
  8
F04_SEATING
100
AcDbPolyline
 90
5
 70
1
 10
40266.39912002177
 20
13024.759115428102
 10
40902.13485439536
 20
13024.759115428102
 10
40902.13485439536
 20
12623.092788601161
 10
40266.39912002177
 20
12623.092788601161
 10
40266.39912002177
 20
13024.759115428102
  0
LWPOLYLINE
  5
EA
330
17
100
AcDbEntity
  8
F04_SEATING
100
AcDbPolyline
 90
5
 70
1
 10
40266.39912002177
 20
12397.155479760995
 10
40902.13485439536
 20
12397.155479760995
 10
40902.13485439536
 20
11995.489152934055
 10
40266.39912002177
 20
11995.489152934055
 10
40266.39912002177
 20
12397.155479760995
  0
LWPOLYLINE
  5
EB
330
17
100
AcDbEntity
  8
F04_SEATING
100
AcDbPolyline
 90
5
 70
1
 10
40266.39912002177
 20
11769.551844093894
 10
40902.13485439536
 20
11769.551844093894
 10
40902.13485439536
 20
11367.885517266954
 10
40266.39912002177
 20
11367.885517266954
 10
40266.39912002177
 20
11769.551844093894
  0
LWPOLYLINE
  5
EC
330
17
100
AcDbEntity
  8
F04_SEATING
100
AcDbPolyline
 90
5
 70
1
 10
40266.39912002177
 20
11141.948208426787
 10
40902.13485439536
 20
11141.948208426787
 10
40902.13485439536
 20
10740.281881599847
 10
40266.39912002177
 20
10740.281881599847
 10
40266.39912002177
 20
11141.948208426787
  0
LWPOLYLINE
  5
ED
330
17
100
AcDbEntity
  8
F04_SEATING
100
AcDbPolyline
 90
5
 70
1
 10
40266.39912002177
 20
10514.34457275968
 10
40902.13485439536
 20
10514.34457275968
 10
40902.13485439536
 20
10112.67824593274
 10
40266.39912002177
 20
10112.67824593274
 10
40266.39912002177
 20
10514.34457275968
  0
LWPOLYLINE
  5
EE
330
17
100
AcDbEntity
  8
F04_SEATING
100
AcDbPolyline
 90
5
 70
1
 10
40266.39912002177
 20
9886.740937092574
 10
40902.13485439536
 20
9886.740937092574
 10
40902.13485439536
 20
9485.074610265634
 10
40266.39912002177
 20
9485.074610265634
 10
40266.39912002177
 20
9886.740937092574
  0
LWPOLYLINE
  5
EF
330
17
100
AcDbEntity
  8
F04_SEATING
100
AcDbPolyline
 90
5
 70
1
 10
40266.39912002177
 20
9259.137301425468
 10
40902.13485439536
 20
9259.137301425468
 10
40902.13485439536
 20
8857.470974598527
 10
40266.39912002177
 20
8857.470974598527
 10
40266.39912002177
 20
9259.137301425468
  0
LWPOLYLINE
  5
F0
330
17
100
AcDbEntity
  8
F04_SEATING
100
AcDbPolyline
 90
5
 70
1
 10
40266.39912002177
 20
8631.53366575837
 10
40902.13485439536
 20
8631.53366575837
 10
40902.13485439536
 20
8229.867338931424
 10
40266.39912002177
 20
8229.867338931424
 10
40266.39912002177
 20
8631.53366575837
  0
LWPOLYLINE
  5
F1
330
17
100
AcDbEntity
  8
F04_SEATING
100
AcDbPolyline
 90
5
 70
1
 10
40266.39912002177
 20
8003.930030091264
 10
40902.13485439536
 20
8003.930030091264
 10
40902.13485439536
 20
7602.263703264319
 10
40266.39912002177
 20
7602.263703264319
 10
40266.39912002177
 20
8003.930030091264
  0
LWPOLYLINE
  5
F2
330
17
100
AcDbEntity
  8
F04_SEATING
100
AcDbPolyline
 90
5
 70
1
 10
41229.63508119386
 20
13024.759115428102
 10
41865.37081556744
 20
13024.759115428102
 10
41865.37081556744
 20
12623.092788601161
 10
41229.63508119386
 20
12623.092788601161
 10
41229.63508119386
 20
13024.759115428102
  0
LWPOLYLINE
  5
F3
330
17
100
AcDbEntity
  8
F04_SEATING
100
AcDbPolyline
 90
5
 70
1
 10
41229.63508119386
 20
12397.155479760995
 10
41865.37081556744
 20
12397.155479760995
 10
41865.37081556744
 20
11995.489152934055
 10
41229.63508119386
 20
11995.489152934055
 10
41229.63508119386
 20
12397.155479760995
  0
LWPOLYLINE
  5
F4
330
17
100
AcDbEntity
  8
F04_SEATING
100
AcDbPolyline
 90
5
 70
1
 10
41229.63508119386
 20
11769.551844093894
 10
41865.37081556744
 20
11769.551844093894
 10
41865.37081556744
 20
11367.885517266954
 10
41229.63508119386
 20
11367.885517266954
 10
41229.63508119386
 20
11769.551844093894
  0
LWPOLYLINE
  5
F5
330
17
100
AcDbEntity
  8
F04_SEATING
100
AcDbPolyline
 90
5
 70
1
 10
41229.63508119386
 20
11141.948208426787
 10
41865.37081556744
 20
11141.948208426787
 10
41865.37081556744
 20
10740.281881599847
 10
41229.63508119386
 20
10740.281881599847
 10
41229.63508119386
 20
11141.948208426787
  0
LWPOLYLINE
  5
F6
330
17
100
AcDbEntity
  8
F04_SEATING
100
AcDbPolyline
 90
5
 70
1
 10
41229.63508119386
 20
10514.34457275968
 10
41865.37081556744
 20
10514.34457275968
 10
41865.37081556744
 20
10112.67824593274
 10
41229.63508119386
 20
10112.67824593274
 10
41229.63508119386
 20
10514.34457275968
  0
LWPOLYLINE
  5
F7
330
17
100
AcDbEntity
  8
F04_SEATING
100
AcDbPolyline
 90
5
 70
1
 10
41229.63508119386
 20
9886.740937092574
 10
41865.37081556744
 20
9886.740937092574
 10
41865.37081556744
 20
9485.074610265634
 10
41229.63508119386
 20
9485.074610265634
 10
41229.63508119386
 20
9886.740937092574
  0
LWPOLYLINE
  5
F8
330
17
100
AcDbEntity
  8
F04_SEATING
100
AcDbPolyline
 90
5
 70
1
 10
41229.63508119386
 20
9259.137301425468
 10
41865.37081556744
 20
9259.137301425468
 10
41865.37081556744
 20
8857.470974598527
 10
41229.63508119386
 20
8857.470974598527
 10
41229.63508119386
 20
9259.137301425468
  0
LWPOLYLINE
  5
F9
330
17
100
AcDbEntity
  8
F04_SEATING
100
AcDbPolyline
 90
5
 70
1
 10
41229.63508119386
 20
8631.53366575837
 10
41865.37081556744
 20
8631.53366575837
 10
41865.37081556744
 20
8229.867338931424
 10
41229.63508119386
 20
8229.867338931424
 10
41229.63508119386
 20
8631.53366575837
  0
LWPOLYLINE
  5
FA
330
17
100
AcDbEntity
  8
F04_SEATING
100
AcDbPolyline
 90
5
 70
1
 10
41229.63508119386
 20
8003.930030091264
 10
41865.37081556744
 20
8003.930030091264
 10
41865.37081556744
 20
7602.263703264319
 10
41229.63508119386
 20
7602.263703264319
 10
41229.63508119386
 20
8003.930030091264
  0
LWPOLYLINE
  5
FB
330
17
100
AcDbEntity
  8
F04_SEATING
100
AcDbPolyline
 90
5
 70
1
 10
42192.87104236596
 20
13024.759115428102
 10
42828.60677673954
 20
13024.759115428102
 10
42828.60677673954
 20
12623.092788601161
 10
42192.87104236596
 20
12623.092788601161
 10
42192.87104236596
 20
13024.759115428102
  0
LWPOLYLINE
  5
FC
330
17
100
AcDbEntity
  8
F04_SEATING
100
AcDbPolyline
 90
5
 70
1
 10
42192.87104236596
 20
12397.155479760995
 10
42828.60677673954
 20
12397.155479760995
 10
42828.60677673954
 20
11995.489152934055
 10
42192.87104236596
 20
11995.489152934055
 10
42192.87104236596
 20
12397.155479760995
  0
LWPOLYLINE
  5
FD
330
17
100
AcDbEntity
  8
F04_SEATING
100
AcDbPolyline
 90
5
 70
1
 10
42192.87104236596
 20
11769.551844093894
 10
42828.60677673954
 20
11769.551844093894
 10
42828.60677673954
 20
11367.885517266954
 10
42192.87104236596
 20
11367.885517266954
 10
42192.87104236596
 20
11769.551844093894
  0
LWPOLYLINE
  5
FE
330
17
100
AcDbEntity
  8
F04_SEATING
100
AcDbPolyline
 90
5
 70
1
 10
42192.87104236596
 20
11141.948208426787
 10
42828.60677673954
 20
11141.948208426787
 10
42828.60677673954
 20
10740.281881599847
 10
42192.87104236596
 20
10740.281881599847
 10
42192.87104236596
 20
11141.948208426787
  0
LWPOLYLINE
  5
FF
330
17
100
AcDbEntity
  8
F04_SEATING
100
AcDbPolyline
 90
5
 70
1
 10
42192.87104236596
 20
10514.34457275968
 10
42828.60677673954
 20
10514.34457275968
 10
42828.60677673954
 20
10112.67824593274
 10
42192.87104236596
 20
10112.67824593274
 10
42192.87104236596
 20
10514.34457275968
  0
LWPOLYLINE
  5
100
330
17
100
AcDbEntity
  8
F04_SEATING
100
AcDbPolyline
 90
5
 70
1
 10
42192.87104236596
 20
9886.740937092574
 10
42828.60677673954
 20
9886.740937092574
 10
42828.60677673954
 20
9485.074610265634
 10
42192.87104236596
 20
9485.074610265634
 10
42192.87104236596
 20
9886.740937092574
  0
LWPOLYLINE
  5
101
330
17
100
AcDbEntity
  8
F04_SEATING
100
AcDbPolyline
 90
5
 70
1
 10
42192.87104236596
 20
9259.137301425468
 10
42828.60677673954
 20
9259.137301425468
 10
42828.60677673954
 20
8857.470974598527
 10
42192.87104236596
 20
8857.470974598527
 10
42192.87104236596
 20
9259.137301425468
  0
LWPOLYLINE
  5
102
330
17
100
AcDbEntity
  8
F04_SEATING
100
AcDbPolyline
 90
5
 70
1
 10
42192.87104236596
 20
8631.53366575837
 10
42828.60677673954
 20
8631.53366575837
 10
42828.60677673954
 20
8229.867338931424
 10
42192.87104236596
 20
8229.867338931424
 10
42192.87104236596
 20
8631.53366575837
  0
LWPOLYLINE
  5
103
330
17
100
AcDbEntity
  8
F04_SEATING
100
AcDbPolyline
 90
5
 70
1
 10
42192.87104236596
 20
8003.930030091264
 10
42828.60677673954
 20
8003.930030091264
 10
42828.60677673954
 20
7602.263703264319
 10
42192.87104236596
 20
7602.263703264319
 10
42192.87104236596
 20
8003.930030091264
  0
LWPOLYLINE
  5
104
330
17
100
AcDbEntity
  8
F04_SEATING
100
AcDbPolyline
 90
5
 70
1
 10
43156.107003538054
 20
13024.759115428102
 10
43791.842737911626
 20
13024.759115428102
 10
43791.842737911626
 20
12623.092788601161
 10
43156.107003538054
 20
12623.092788601161
 10
43156.107003538054
 20
13024.759115428102
  0
LWPOLYLINE
  5
105
330
17
100
AcDbEntity
  8
F04_SEATING
100
AcDbPolyline
 90
5
 70
1
 10
43156.107003538054
 20
12397.155479760995
 10
43791.842737911626
 20
12397.155479760995
 10
43791.842737911626
 20
11995.489152934055
 10
43156.107003538054
 20
11995.489152934055
 10
43156.107003538054
 20
12397.155479760995
  0
LWPOLYLINE
  5
106
330
17
100
AcDbEntity
  8
F04_SEATING
100
AcDbPolyline
 90
5
 70
1
 10
43156.107003538054
 20
11769.551844093894
 10
43791.842737911626
 20
11769.551844093894
 10
43791.842737911626
 20
11367.885517266954
 10
43156.107003538054
 20
11367.885517266954
 10
43156.107003538054
 20
11769.551844093894
  0
LWPOLYLINE
  5
107
330
17
100
AcDbEntity
  8
F04_SEATING
100
AcDbPolyline
 90
5
 70
1
 10
43156.107003538054
 20
11141.948208426787
 10
43791.842737911626
 20
11141.948208426787
 10
43791.842737911626
 20
10740.281881599847
 10
43156.107003538054
 20
10740.281881599847
 10
43156.107003538054
 20
11141.948208426787
  0
LWPOLYLINE
  5
108
330
17
100
AcDbEntity
  8
F04_SEATING
100
AcDbPolyline
 90
5
 70
1
 10
43156.107003538054
 20
10514.34457275968
 10
43791.842737911626
 20
10514.34457275968
 10
43791.842737911626
 20
10112.67824593274
 10
43156.107003538054
 20
10112.67824593274
 10
43156.107003538054
 20
10514.34457275968
  0
LWPOLYLINE
  5
109
330
17
100
AcDbEntity
  8
F04_SEATING
100
AcDbPolyline
 90
5
 70
1
 10
43156.107003538054
 20
9886.740937092574
 10
43791.842737911626
 20
9886.740937092574
 10
43791.842737911626
 20
9485.074610265634
 10
43156.107003538054
 20
9485.074610265634
 10
43156.107003538054
 20
9886.740937092574
  0
LWPOLYLINE
  5
10A
330
17
100
AcDbEntity
  8
F04_SEATING
100
AcDbPolyline
 90
5
 70
1
 10
43156.107003538054
 20
9259.137301425468
 10
43791.842737911626
 20
9259.137301425468
 10
43791.842737911626
 20
8857.470974598527
 10
43156.107003538054
 20
8857.470974598527
 10
43156.107003538054
 20
9259.137301425468
  0
LWPOLYLINE
  5
10B
330
17
100
AcDbEntity
  8
F04_SEATING
100
AcDbPolyline
 90
5
 70
1
 10
43156.107003538054
 20
8631.53366575837
 10
43791.842737911626
 20
8631.53366575837
 10
43791.842737911626
 20
8229.867338931424
 10
43156.107003538054
 20
8229.867338931424
 10
43156.107003538054
 20
8631.53366575837
  0
LWPOLYLINE
  5
10C
330
17
100
AcDbEntity
  8
F04_SEATING
100
AcDbPolyline
 90
5
 70
1
 10
43156.107003538054
 20
8003.930030091264
 10
43791.842737911626
 20
8003.930030091264
 10
43791.842737911626
 20
7602.263703264319
 10
43156.107003538054
 20
7602.263703264319
 10
43156.107003538054
 20
8003.930030091264
  0
LWPOLYLINE
  5
10D
330
17
100
AcDbEntity
  8
F04_SEATING
100
AcDbPolyline
 90
5
 70
1
 10
45404.288759865725
 20
27312.090310860654
 10
46074.43753968974
 20
27312.090310860654
 10
46074.43753968974
 20
26902.03095630897
 10
45404.288759865725
 20
26902.03095630897
 10
45404.288759865725
 20
27312.090310860654
  0
LWPOLYLINE
  5
10E
330
17
100
AcDbEntity
  8
F04_SEATING
100
AcDbPolyline
 90
5
 70
1
 10
45404.288759865725
 20
26671.37256937364
 10
46074.43753968974
 20
26671.37256937364
 10
46074.43753968974
 20
26261.313214821956
 10
45404.288759865725
 20
26261.313214821956
 10
45404.288759865725
 20
26671.37256937364
  0
LWPOLYLINE
  5
10F
330
17
100
AcDbEntity
  8
F04_SEATING
100
AcDbPolyline
 90
5
 70
1
 10
45404.288759865725
 20
26030.65482788663
 10
46074.43753968974
 20
26030.65482788663
 10
46074.43753968974
 20
25620.59547333494
 10
45404.288759865725
 20
25620.59547333494
 10
45404.288759865725
 20
26030.65482788663
  0
LWPOLYLINE
  5
110
330
17
100
AcDbEntity
  8
F04_SEATING
100
AcDbPolyline
 90
5
 70
1
 10
45404.288759865725
 20
25389.937086399612
 10
46074.43753968974
 20
25389.937086399612
 10
46074.43753968974
 20
24979.877731847922
 10
45404.288759865725
 20
24979.877731847922
 10
45404.288759865725
 20
25389.937086399612
  0
LWPOLYLINE
  5
111
330
17
100
AcDbEntity
  8
F04_SEATING
100
AcDbPolyline
 90
5
 70
1
 10
45404.288759865725
 20
24749.2193449126
 10
46074.43753968974
 20
24749.2193449126
 10
46074.43753968974
 20
24339.159990360906
 10
45404.288759865725
 20
24339.159990360906
 10
45404.288759865725
 20
24749.2193449126
  0
LWPOLYLINE
  5
112
330
17
100
AcDbEntity
  8
F04_SEATING
100
AcDbPolyline
 90
5
 70
1
 10
45404.288759865725
 20
24108.50160342558
 10
46074.43753968974
 20
24108.50160342558
 10
46074.43753968974
 20
23698.442248873893
 10
45404.288759865725
 20
23698.442248873893
 10
45404.288759865725
 20
24108.50160342558
  0
LWPOLYLINE
  5
113
330
17
100
AcDbEntity
  8
F04_SEATING
100
AcDbPolyline
 90
5
 70
1
 10
45404.288759865725
 20
23467.783861938566
 10
46074.43753968974
 20
23467.783861938566
 10
46074.43753968974
 20
23057.72450738688
 10
45404.288759865725
 20
23057.72450738688
 10
45404.288759865725
 20
23467.783861938566
  0
LWPOLYLINE
  5
114
330
17
100
AcDbEntity
  8
F04_SEATING
100
AcDbPolyline
 90
5
 70
1
 10
45404.288759865725
 20
22827.066120451553
 10
46074.43753968974
 20
22827.066120451553
 10
46074.43753968974
 20
22417.006765899867
 10
45404.288759865725
 20
22417.006765899867
 10
45404.288759865725
 20
22827.066120451553
  0
LWPOLYLINE
  5
115
330
17
100
AcDbEntity
  8
F04_SEATING
100
AcDbPolyline
 90
5
 70
1
 10
45404.288759865725
 20
22186.348378964536
 10
46074.43753968974
 20
22186.348378964536
 10
46074.43753968974
 20
21776.28902441285
 10
45404.288759865725
 20
21776.28902441285
 10
45404.288759865725
 20
22186.348378964536
  0
LWPOLYLINE
  5
116
330
17
100
AcDbEntity
  8
F04_SEATING
100
AcDbPolyline
 90
5
 70
1
 10
45404.288759865725
 20
21545.630637477523
 10
46074.43753968974
 20
21545.630637477523
 10
46074.43753968974
 20
21135.571282925837
 10
45404.288759865725
 20
21135.571282925837
 10
45404.288759865725
 20
21545.630637477523
  0
LWPOLYLINE
  5
117
330
17
100
AcDbEntity
  8
F04_SEATING
100
AcDbPolyline
 90
5
 70
1
 10
46419.665698993005
 20
27312.090310860654
 10
47089.81447881702
 20
27312.090310860654
 10
47089.81447881702
 20
26902.03095630897
 10
46419.665698993005
 20
26902.03095630897
 10
46419.665698993005
 20
27312.090310860654
  0
LWPOLYLINE
  5
118
330
17
100
AcDbEntity
  8
F04_SEATING
100
AcDbPolyline
 90
5
 70
1
 10
46419.665698993005
 20
26671.37256937364
 10
47089.81447881702
 20
26671.37256937364
 10
47089.81447881702
 20
26261.313214821956
 10
46419.665698993005
 20
26261.313214821956
 10
46419.665698993005
 20
26671.37256937364
  0
LWPOLYLINE
  5
119
330
17
100
AcDbEntity
  8
F04_SEATING
100
AcDbPolyline
 90
5
 70
1
 10
46419.665698993005
 20
26030.65482788663
 10
47089.81447881702
 20
26030.65482788663
 10
47089.81447881702
 20
25620.59547333494
 10
46419.665698993005
 20
25620.59547333494
 10
46419.665698993005
 20
26030.65482788663
  0
LWPOLYLINE
  5
11A
330
17
100
AcDbEntity
  8
F04_SEATING
100
AcDbPolyline
 90
5
 70
1
 10
46419.665698993005
 20
25389.937086399612
 10
47089.81447881702
 20
25389.937086399612
 10
47089.81447881702
 20
24979.877731847922
 10
46419.665698993005
 20
24979.877731847922
 10
46419.665698993005
 20
25389.937086399612
  0
LWPOLYLINE
  5
11B
330
17
100
AcDbEntity
  8
F04_SEATING
100
AcDbPolyline
 90
5
 70
1
 10
46419.665698993005
 20
24749.2193449126
 10
47089.81447881702
 20
24749.2193449126
 10
47089.81447881702
 20
24339.159990360906
 10
46419.665698993005
 20
24339.159990360906
 10
46419.665698993005
 20
24749.2193449126
  0
LWPOLYLINE
  5
11C
330
17
100
AcDbEntity
  8
F04_SEATING
100
AcDbPolyline
 90
5
 70
1
 10
46419.665698993005
 20
24108.50160342558
 10
47089.81447881702
 20
24108.50160342558
 10
47089.81447881702
 20
23698.442248873893
 10
46419.665698993005
 20
23698.442248873893
 10
46419.665698993005
 20
24108.50160342558
  0
LWPOLYLINE
  5
11D
330
17
100
AcDbEntity
  8
F04_SEATING
100
AcDbPolyline
 90
5
 70
1
 10
46419.665698993005
 20
23467.783861938566
 10
47089.81447881702
 20
23467.783861938566
 10
47089.81447881702
 20
23057.72450738688
 10
46419.665698993005
 20
23057.72450738688
 10
46419.665698993005
 20
23467.783861938566
  0
LWPOLYLINE
  5
11E
330
17
100
AcDbEntity
  8
F04_SEATING
100
AcDbPolyline
 90
5
 70
1
 10
46419.665698993005
 20
22827.066120451553
 10
47089.81447881702
 20
22827.066120451553
 10
47089.81447881702
 20
22417.006765899867
 10
46419.665698993005
 20
22417.006765899867
 10
46419.665698993005
 20
22827.066120451553
  0
LWPOLYLINE
  5
11F
330
17
100
AcDbEntity
  8
F04_SEATING
100
AcDbPolyline
 90
5
 70
1
 10
46419.665698993005
 20
22186.348378964536
 10
47089.81447881702
 20
22186.348378964536
 10
47089.81447881702
 20
21776.28902441285
 10
46419.665698993005
 20
21776.28902441285
 10
46419.665698993005
 20
22186.348378964536
  0
LWPOLYLINE
  5
120
330
17
100
AcDbEntity
  8
F04_SEATING
100
AcDbPolyline
 90
5
 70
1
 10
46419.665698993005
 20
21545.630637477523
 10
47089.81447881702
 20
21545.630637477523
 10
47089.81447881702
 20
21135.571282925837
 10
46419.665698993005
 20
21135.571282925837
 10
46419.665698993005
 20
21545.630637477523
  0
LWPOLYLINE
  5
121
330
17
100
AcDbEntity
  8
F04_SEATING
100
AcDbPolyline
 90
5
 70
1
 10
47435.042638120285
 20
27312.090310860654
 10
48105.1914179443
 20
27312.090310860654
 10
48105.1914179443
 20
26902.03095630897
 10
47435.042638120285
 20
26902.03095630897
 10
47435.042638120285
 20
27312.090310860654
  0
LWPOLYLINE
  5
122
330
17
100
AcDbEntity
  8
F04_SEATING
100
AcDbPolyline
 90
5
 70
1
 10
47435.042638120285
 20
26671.37256937364
 10
48105.1914179443
 20
26671.37256937364
 10
48105.1914179443
 20
26261.313214821956
 10
47435.042638120285
 20
26261.313214821956
 10
47435.042638120285
 20
26671.37256937364
  0
LWPOLYLINE
  5
123
330
17
100
AcDbEntity
  8
F04_SEATING
100
AcDbPolyline
 90
5
 70
1
 10
47435.042638120285
 20
26030.65482788663
 10
48105.1914179443
 20
26030.65482788663
 10
48105.1914179443
 20
25620.59547333494
 10
47435.042638120285
 20
25620.59547333494
 10
47435.042638120285
 20
26030.65482788663
  0
LWPOLYLINE
  5
124
330
17
100
AcDbEntity
  8
F04_SEATING
100
AcDbPolyline
 90
5
 70
1
 10
47435.042638120285
 20
25389.937086399612
 10
48105.1914179443
 20
25389.937086399612
 10
48105.1914179443
 20
24979.877731847922
 10
47435.042638120285
 20
24979.877731847922
 10
47435.042638120285
 20
25389.937086399612
  0
LWPOLYLINE
  5
125
330
17
100
AcDbEntity
  8
F04_SEATING
100
AcDbPolyline
 90
5
 70
1
 10
47435.042638120285
 20
24749.2193449126
 10
48105.1914179443
 20
24749.2193449126
 10
48105.1914179443
 20
24339.159990360906
 10
47435.042638120285
 20
24339.159990360906
 10
47435.042638120285
 20
24749.2193449126
  0
LWPOLYLINE
  5
126
330
17
100
AcDbEntity
  8
F04_SEATING
100
AcDbPolyline
 90
5
 70
1
 10
47435.042638120285
 20
24108.50160342558
 10
48105.1914179443
 20
24108.50160342558
 10
48105.1914179443
 20
23698.442248873893
 10
47435.042638120285
 20
23698.442248873893
 10
47435.042638120285
 20
24108.50160342558
  0
LWPOLYLINE
  5
127
330
17
100
AcDbEntity
  8
F04_SEATING
100
AcDbPolyline
 90
5
 70
1
 10
47435.042638120285
 20
23467.783861938566
 10
48105.1914179443
 20
23467.783861938566
 10
48105.1914179443
 20
23057.72450738688
 10
47435.042638120285
 20
23057.72450738688
 10
47435.042638120285
 20
23467.783861938566
  0
LWPOLYLINE
  5
128
330
17
100
AcDbEntity
  8
F04_SEATING
100
AcDbPolyline
 90
5
 70
1
 10
47435.042638120285
 20
22827.066120451553
 10
48105.1914179443
 20
22827.066120451553
 10
48105.1914179443
 20
22417.006765899867
 10
47435.042638120285
 20
22417.006765899867
 10
47435.042638120285
 20
22827.066120451553
  0
LWPOLYLINE
  5
129
330
17
100
AcDbEntity
  8
F04_SEATING
100
AcDbPolyline
 90
5
 70
1
 10
47435.042638120285
 20
22186.348378964536
 10
48105.1914179443
 20
22186.348378964536
 10
48105.1914179443
 20
21776.28902441285
 10
47435.042638120285
 20
21776.28902441285
 10
47435.042638120285
 20
22186.348378964536
  0
LWPOLYLINE
  5
12A
330
17
100
AcDbEntity
  8
F04_SEATING
100
AcDbPolyline
 90
5
 70
1
 10
47435.042638120285
 20
21545.630637477523
 10
48105.1914179443
 20
21545.630637477523
 10
48105.1914179443
 20
21135.571282925837
 10
47435.042638120285
 20
21135.571282925837
 10
47435.042638120285
 20
21545.630637477523
  0
LWPOLYLINE
  5
12B
330
17
100
AcDbEntity
  8
F04_SEATING
100
AcDbPolyline
 90
5
 70
1
 10
45338.97532432187
 20
19808.56896583684
 10
45755.554295563816
 20
19808.56896583684
 10
45755.554295563816
 20
19397.160731829386
 10
45338.97532432187
 20
19397.160731829386
 10
45338.97532432187
 20
19808.56896583684
  0
LWPOLYLINE
  5
12C
330
17
100
AcDbEntity
  8
F04_SEATING
100
AcDbPolyline
 90
5
 70
1
 10
45338.97532432187
 20
19165.743600200196
 10
45755.554295563816
 20
19165.743600200196
 10
45755.554295563816
 20
18754.335366192743
 10
45338.97532432187
 20
18754.335366192743
 10
45338.97532432187
 20
19165.743600200196
  0
LWPOLYLINE
  5
12D
330
17
100
AcDbEntity
  8
F04_SEATING
100
AcDbPolyline
 90
5
 70
1
 10
45338.97532432187
 20
18522.918234563553
 10
45755.554295563816
 20
18522.918234563553
 10
45755.554295563816
 20
18111.510000556103
 10
45338.97532432187
 20
18111.510000556103
 10
45338.97532432187
 20
18522.918234563553
  0
LWPOLYLINE
  5
12E
330
17
100
AcDbEntity
  8
F04_SEATING
100
AcDbPolyline
 90
5
 70
1
 10
45338.97532432187
 20
17880.092868926906
 10
45755.554295563816
 20
17880.092868926906
 10
45755.554295563816
 20
17468.684634919457
 10
45338.97532432187
 20
17468.684634919457
 10
45338.97532432187
 20
17880.092868926906
  0
LWPOLYLINE
  5
12F
330
17
100
AcDbEntity
  8
F04_SEATING
100
AcDbPolyline
 90
5
 70
1
 10
45338.97532432187
 20
17237.267503290266
 10
45755.554295563816
 20
17237.267503290266
 10
45755.554295563816
 20
16825.859269282817
 10
45338.97532432187
 20
16825.859269282817
 10
45338.97532432187
 20
17237.267503290266
  0
LWPOLYLINE
  5
130
330
17
100
AcDbEntity
  8
F04_SEATING
100
AcDbPolyline
 90
5
 70
1
 10
45338.97532432187
 20
16594.442137653627
 10
45755.554295563816
 20
16594.442137653627
 10
45755.554295563816
 20
16183.03390364617
 10
45338.97532432187
 20
16183.03390364617
 10
45338.97532432187
 20
16594.442137653627
  0
LWPOLYLINE
  5
131
330
17
100
AcDbEntity
  8
F04_SEATING
100
AcDbPolyline
 90
5
 70
1
 10
45338.97532432187
 20
15951.61677201698
 10
45755.554295563816
 20
15951.61677201698
 10
45755.554295563816
 20
15540.208538009529
 10
45338.97532432187
 20
15540.208538009529
 10
45338.97532432187
 20
15951.61677201698
  0
LWPOLYLINE
  5
132
330
17
100
AcDbEntity
  8
F04_SEATING
100
AcDbPolyline
 90
5
 70
1
 10
45338.97532432187
 20
15308.791406380338
 10
45755.554295563816
 20
15308.791406380338
 10
45755.554295563816
 20
14897.383172372882
 10
45338.97532432187
 20
14897.383172372882
 10
45338.97532432187
 20
15308.791406380338
  0
LWPOLYLINE
  5
133
330
17
100
AcDbEntity
  8
F04_SEATING
100
AcDbPolyline
 90
5
 70
1
 10
45970.155583779364
 20
19808.56896583684
 10
46386.734555021314
 20
19808.56896583684
 10
46386.734555021314
 20
19397.160731829386
 10
45970.155583779364
 20
19397.160731829386
 10
45970.155583779364
 20
19808.56896583684
  0
LWPOLYLINE
  5
134
330
17
100
AcDbEntity
  8
F04_SEATING
100
AcDbPolyline
 90
5
 70
1
 10
45970.155583779364
 20
19165.743600200196
 10
46386.734555021314
 20
19165.743600200196
 10
46386.734555021314
 20
18754.335366192743
 10
45970.155583779364
 20
18754.335366192743
 10
45970.155583779364
 20
19165.743600200196
  0
LWPOLYLINE
  5
135
330
17
100
AcDbEntity
  8
F04_SEATING
100
AcDbPolyline
 90
5
 70
1
 10
45970.155583779364
 20
18522.918234563553
 10
46386.734555021314
 20
18522.918234563553
 10
46386.734555021314
 20
18111.510000556103
 10
45970.155583779364
 20
18111.510000556103
 10
45970.155583779364
 20
18522.918234563553
  0
LWPOLYLINE
  5
136
330
17
100
AcDbEntity
  8
F04_SEATING
100
AcDbPolyline
 90
5
 70
1
 10
45970.155583779364
 20
17880.092868926906
 10
46386.734555021314
 20
17880.092868926906
 10
46386.734555021314
 20
17468.684634919457
 10
45970.155583779364
 20
17468.684634919457
 10
45970.155583779364
 20
17880.092868926906
  0
LWPOLYLINE
  5
137
330
17
100
AcDbEntity
  8
F04_SEATING
100
AcDbPolyline
 90
5
 70
1
 10
45970.155583779364
 20
17237.267503290266
 10
46386.734555021314
 20
17237.267503290266
 10
46386.734555021314
 20
16825.859269282817
 10
45970.155583779364
 20
16825.859269282817
 10
45970.155583779364
 20
17237.267503290266
  0
LWPOLYLINE
  5
138
330
17
100
AcDbEntity
  8
F04_SEATING
100
AcDbPolyline
 90
5
 70
1
 10
45970.155583779364
 20
16594.442137653627
 10
46386.734555021314
 20
16594.442137653627
 10
46386.734555021314
 20
16183.03390364617
 10
45970.155583779364
 20
16183.03390364617
 10
45970.155583779364
 20
16594.442137653627
  0
LWPOLYLINE
  5
139
330
17
100
AcDbEntity
  8
F04_SEATING
100
AcDbPolyline
 90
5
 70
1
 10
45970.155583779364
 20
15951.61677201698
 10
46386.734555021314
 20
15951.61677201698
 10
46386.734555021314
 20
15540.208538009529
 10
45970.155583779364
 20
15540.208538009529
 10
45970.155583779364
 20
15951.61677201698
  0
LWPOLYLINE
  5
13A
330
17
100
AcDbEntity
  8
F04_SEATING
100
AcDbPolyline
 90
5
 70
1
 10
45970.155583779364
 20
15308.791406380338
 10
46386.734555021314
 20
15308.791406380338
 10
46386.734555021314
 20
14897.383172372882
 10
45970.155583779364
 20
14897.383172372882
 10
45970.155583779364
 20
15308.791406380338
  0
LWPOLYLINE
  5
13B
330
17
100
AcDbEntity
  8
F04_SEATING
100
AcDbPolyline
 90
5
 70
1
 10
46601.33584323686
 20
19808.56896583684
 10
47017.914814478805
 20
19808.56896583684
 10
47017.914814478805
 20
19397.160731829386
 10
46601.33584323686
 20
19397.160731829386
 10
46601.33584323686
 20
19808.56896583684
  0
LWPOLYLINE
  5
13C
330
17
100
AcDbEntity
  8
F04_SEATING
100
AcDbPolyline
 90
5
 70
1
 10
46601.33584323686
 20
19165.743600200196
 10
47017.914814478805
 20
19165.743600200196
 10
47017.914814478805
 20
18754.335366192743
 10
46601.33584323686
 20
18754.335366192743
 10
46601.33584323686
 20
19165.743600200196
  0
LWPOLYLINE
  5
13D
330
17
100
AcDbEntity
  8
F04_SEATING
100
AcDbPolyline
 90
5
 70
1
 10
46601.33584323686
 20
18522.918234563553
 10
47017.914814478805
 20
18522.918234563553
 10
47017.914814478805
 20
18111.510000556103
 10
46601.33584323686
 20
18111.510000556103
 10
46601.33584323686
 20
18522.918234563553
  0
LWPOLYLINE
  5
13E
330
17
100
AcDbEntity
  8
F04_SEATING
100
AcDbPolyline
 90
5
 70
1
 10
46601.33584323686
 20
17880.092868926906
 10
47017.914814478805
 20
17880.092868926906
 10
47017.914814478805
 20
17468.684634919457
 10
46601.33584323686
 20
17468.684634919457
 10
46601.33584323686
 20
17880.092868926906
  0
LWPOLYLINE
  5
13F
330
17
100
AcDbEntity
  8
F04_SEATING
100
AcDbPolyline
 90
5
 70
1
 10
46601.33584323686
 20
17237.267503290266
 10
47017.914814478805
 20
17237.267503290266
 10
47017.914814478805
 20
16825.859269282817
 10
46601.33584323686
 20
16825.859269282817
 10
46601.33584323686
 20
17237.267503290266
  0
LWPOLYLINE
  5
140
330
17
100
AcDbEntity
  8
F04_SEATING
100
AcDbPolyline
 90
5
 70
1
 10
46601.33584323686
 20
16594.442137653627
 10
47017.914814478805
 20
16594.442137653627
 10
47017.914814478805
 20
16183.03390364617
 10
46601.33584323686
 20
16183.03390364617
 10
46601.33584323686
 20
16594.442137653627
  0
LWPOLYLINE
  5
141
330
17
100
AcDbEntity
  8
F04_SEATING
100
AcDbPolyline
 90
5
 70
1
 10
46601.33584323686
 20
15951.61677201698
 10
47017.914814478805
 20
15951.61677201698
 10
47017.914814478805
 20
15540.208538009529
 10
46601.33584323686
 20
15540.208538009529
 10
46601.33584323686
 20
15951.61677201698
  0
LWPOLYLINE
  5
142
330
17
100
AcDbEntity
  8
F04_SEATING
100
AcDbPolyline
 90
5
 70
1
 10
46601.33584323686
 20
15308.791406380338
 10
47017.914814478805
 20
15308.791406380338
 10
47017.914814478805
 20
14897.383172372882
 10
46601.33584323686
 20
14897.383172372882
 10
46601.33584323686
 20
15308.791406380338
  0
LWPOLYLINE
  5
143
330
17
100
AcDbEntity
  8
F04_SEATING
100
AcDbPolyline
 90
5
 70
1
 10
45404.288759865725
 20
13571.898344671623
 10
46074.43753968974
 20
13571.898344671623
 10
46074.43753968974
 20
13167.234507942982
 10
45404.288759865725
 20
13167.234507942982
 10
45404.288759865725
 20
13571.898344671623
  0
LWPOLYLINE
  5
144
330
17
100
AcDbEntity
  8
F04_SEATING
100
AcDbPolyline
 90
5
 70
1
 10
45404.288759865725
 20
12939.611099783117
 10
46074.43753968974
 20
12939.611099783117
 10
46074.43753968974
 20
12534.94726305448
 10
45404.288759865725
 20
12534.94726305448
 10
45404.288759865725
 20
12939.611099783117
  0
LWPOLYLINE
  5
145
330
17
100
AcDbEntity
  8
F04_SEATING
100
AcDbPolyline
 90
5
 70
1
 10
45404.288759865725
 20
12307.323854894616
 10
46074.43753968974
 20
12307.323854894616
 10
46074.43753968974
 20
11902.66001816598
 10
45404.288759865725
 20
11902.66001816598
 10
45404.288759865725
 20
12307.323854894616
  0
LWPOLYLINE
  5
146
330
17
100
AcDbEntity
  8
F04_SEATING
100
AcDbPolyline
 90
5
 70
1
 10
45404.288759865725
 20
11675.036610006115
 10
46074.43753968974
 20
11675.036610006115
 10
46074.43753968974
 20
11270.372773277479
 10
45404.288759865725
 20
11270.372773277479
 10
45404.288759865725
 20
11675.036610006115
  0
LWPOLYLINE
  5
147
330
17
100
AcDbEntity
  8
F04_SEATING
100
AcDbPolyline
 90
5
 70
1
 10
45404.288759865725
 20
11042.749365117614
 10
46074.43753968974
 20
11042.749365117614
 10
46074.43753968974
 20
10638.085528388978
 10
45404.288759865725
 20
10638.085528388978
 10
45404.288759865725
 20
11042.749365117614
  0
LWPOLYLINE
  5
148
330
17
100
AcDbEntity
  8
F04_SEATING
100
AcDbPolyline
 90
5
 70
1
 10
45404.288759865725
 20
10410.462120229113
 10
46074.43753968974
 20
10410.462120229113
 10
46074.43753968974
 20
10005.798283500473
 10
45404.288759865725
 20
10005.798283500473
 10
45404.288759865725
 20
10410.462120229113
  0
LWPOLYLINE
  5
149
330
17
100
AcDbEntity
  8
F04_SEATING
100
AcDbPolyline
 90
5
 70
1
 10
45404.288759865725
 20
9778.174875340614
 10
46074.43753968974
 20
9778.174875340614
 10
46074.43753968974
 20
9373.511038611972
 10
45404.288759865725
 20
9373.511038611972
 10
45404.288759865725
 20
9778.174875340614
  0
LWPOLYLINE
  5
14A
330
17
100
AcDbEntity
  8
F04_SEATING
100
AcDbPolyline
 90
5
 70
1
 10
45404.288759865725
 20
9145.887630452107
 10
46074.43753968974
 20
9145.887630452107
 10
46074.43753968974
 20
8741.223793723471
 10
45404.288759865725
 20
8741.223793723471
 10
45404.288759865725
 20
9145.887630452107
  0
LWPOLYLINE
  5
14B
330
17
100
AcDbEntity
  8
F04_SEATING
100
AcDbPolyline
 90
5
 70
1
 10
45404.288759865725
 20
8513.600385563606
 10
46074.43753968974
 20
8513.600385563606
 10
46074.43753968974
 20
8108.93654883497
 10
45404.288759865725
 20
8108.93654883497
 10
45404.288759865725
 20
8513.600385563606
  0
LWPOLYLINE
  5
14C
330
17
100
AcDbEntity
  8
F04_SEATING
100
AcDbPolyline
 90
5
 70
1
 10
45404.288759865725
 20
7881.313140675105
 10
46074.43753968974
 20
7881.313140675105
 10
46074.43753968974
 20
7476.64930394647
 10
45404.288759865725
 20
7476.64930394647
 10
45404.288759865725
 20
7881.313140675105
  0
LWPOLYLINE
  5
14D
330
17
100
AcDbEntity
  8
F04_SEATING
100
AcDbPolyline
 90
5
 70
1
 10
46419.665698993005
 20
13571.898344671623
 10
47089.81447881702
 20
13571.898344671623
 10
47089.81447881702
 20
13167.234507942982
 10
46419.665698993005
 20
13167.234507942982
 10
46419.665698993005
 20
13571.898344671623
  0
LWPOLYLINE
  5
14E
330
17
100
AcDbEntity
  8
F04_SEATING
100
AcDbPolyline
 90
5
 70
1
 10
46419.665698993005
 20
12939.611099783117
 10
47089.81447881702
 20
12939.611099783117
 10
47089.81447881702
 20
12534.94726305448
 10
46419.665698993005
 20
12534.94726305448
 10
46419.665698993005
 20
12939.611099783117
  0
LWPOLYLINE
  5
14F
330
17
100
AcDbEntity
  8
F04_SEATING
100
AcDbPolyline
 90
5
 70
1
 10
46419.665698993005
 20
12307.323854894616
 10
47089.81447881702
 20
12307.323854894616
 10
47089.81447881702
 20
11902.66001816598
 10
46419.665698993005
 20
11902.66001816598
 10
46419.665698993005
 20
12307.323854894616
  0
LWPOLYLINE
  5
150
330
17
100
AcDbEntity
  8
F04_SEATING
100
AcDbPolyline
 90
5
 70
1
 10
46419.665698993005
 20
11675.036610006115
 10
47089.81447881702
 20
11675.036610006115
 10
47089.81447881702
 20
11270.372773277479
 10
46419.665698993005
 20
11270.372773277479
 10
46419.665698993005
 20
11675.036610006115
  0
LWPOLYLINE
  5
151
330
17
100
AcDbEntity
  8
F04_SEATING
100
AcDbPolyline
 90
5
 70
1
 10
46419.665698993005
 20
11042.749365117614
 10
47089.81447881702
 20
11042.749365117614
 10
47089.81447881702
 20
10638.085528388978
 10
46419.665698993005
 20
10638.085528388978
 10
46419.665698993005
 20
11042.749365117614
  0
LWPOLYLINE
  5
152
330
17
100
AcDbEntity
  8
F04_SEATING
100
AcDbPolyline
 90
5
 70
1
 10
46419.665698993005
 20
10410.462120229113
 10
47089.81447881702
 20
10410.462120229113
 10
47089.81447881702
 20
10005.798283500473
 10
46419.665698993005
 20
10005.798283500473
 10
46419.665698993005
 20
10410.462120229113
  0
LWPOLYLINE
  5
153
330
17
100
AcDbEntity
  8
F04_SEATING
100
AcDbPolyline
 90
5
 70
1
 10
46419.665698993005
 20
9778.174875340614
 10
47089.81447881702
 20
9778.174875340614
 10
47089.81447881702
 20
9373.511038611972
 10
46419.665698993005
 20
9373.511038611972
 10
46419.665698993005
 20
9778.174875340614
  0
LWPOLYLINE
  5
154
330
17
100
AcDbEntity
  8
F04_SEATING
100
AcDbPolyline
 90
5
 70
1
 10
46419.665698993005
 20
9145.887630452107
 10
47089.81447881702
 20
9145.887630452107
 10
47089.81447881702
 20
8741.223793723471
 10
46419.665698993005
 20
8741.223793723471
 10
46419.665698993005
 20
9145.887630452107
  0
LWPOLYLINE
  5
155
330
17
100
AcDbEntity
  8
F04_SEATING
100
AcDbPolyline
 90
5
 70
1
 10
46419.665698993005
 20
8513.600385563606
 10
47089.81447881702
 20
8513.600385563606
 10
47089.81447881702
 20
8108.93654883497
 10
46419.665698993005
 20
8108.93654883497
 10
46419.665698993005
 20
8513.600385563606
  0
LWPOLYLINE
  5
156
330
17
100
AcDbEntity
  8
F04_SEATING
100
AcDbPolyline
 90
5
 70
1
 10
46419.665698993005
 20
7881.313140675105
 10
47089.81447881702
 20
7881.313140675105
 10
47089.81447881702
 20
7476.64930394647
 10
46419.665698993005
 20
7476.64930394647
 10
46419.665698993005
 20
7881.313140675105
  0
LWPOLYLINE
  5
157
330
17
100
AcDbEntity
  8
F04_SEATING
100
AcDbPolyline
 90
5
 70
1
 10
47435.042638120285
 20
13571.898344671623
 10
48105.1914179443
 20
13571.898344671623
 10
48105.1914179443
 20
13167.234507942982
 10
47435.042638120285
 20
13167.234507942982
 10
47435.042638120285
 20
13571.898344671623
  0
LWPOLYLINE
  5
158
330
17
100
AcDbEntity
  8
F04_SEATING
100
AcDbPolyline
 90
5
 70
1
 10
47435.042638120285
 20
12939.611099783117
 10
48105.1914179443
 20
12939.611099783117
 10
48105.1914179443
 20
12534.94726305448
 10
47435.042638120285
 20
12534.94726305448
 10
47435.042638120285
 20
12939.611099783117
  0
LWPOLYLINE
  5
159
330
17
100
AcDbEntity
  8
F04_SEATING
100
AcDbPolyline
 90
5
 70
1
 10
47435.042638120285
 20
12307.323854894616
 10
48105.1914179443
 20
12307.323854894616
 10
48105.1914179443
 20
11902.66001816598
 10
47435.042638120285
 20
11902.66001816598
 10
47435.042638120285
 20
12307.323854894616
  0
LWPOLYLINE
  5
15A
330
17
100
AcDbEntity
  8
F04_SEATING
100
AcDbPolyline
 90
5
 70
1
 10
47435.042638120285
 20
11675.036610006115
 10
48105.1914179443
 20
11675.036610006115
 10
48105.1914179443
 20
11270.372773277479
 10
47435.042638120285
 20
11270.372773277479
 10
47435.042638120285
 20
11675.036610006115
  0
LWPOLYLINE
  5
15B
330
17
100
AcDbEntity
  8
F04_SEATING
100
AcDbPolyline
 90
5
 70
1
 10
47435.042638120285
 20
11042.749365117614
 10
48105.1914179443
 20
11042.749365117614
 10
48105.1914179443
 20
10638.085528388978
 10
47435.042638120285
 20
10638.085528388978
 10
47435.042638120285
 20
11042.749365117614
  0
LWPOLYLINE
  5
15C
330
17
100
AcDbEntity
  8
F04_SEATING
100
AcDbPolyline
 90
5
 70
1
 10
47435.042638120285
 20
10410.462120229113
 10
48105.1914179443
 20
10410.462120229113
 10
48105.1914179443
 20
10005.798283500473
 10
47435.042638120285
 20
10005.798283500473
 10
47435.042638120285
 20
10410.462120229113
  0
LWPOLYLINE
  5
15D
330
17
100
AcDbEntity
  8
F04_SEATING
100
AcDbPolyline
 90
5
 70
1
 10
47435.042638120285
 20
9778.174875340614
 10
48105.1914179443
 20
9778.174875340614
 10
48105.1914179443
 20
9373.511038611972
 10
47435.042638120285
 20
9373.511038611972
 10
47435.042638120285
 20
9778.174875340614
  0
LWPOLYLINE
  5
15E
330
17
100
AcDbEntity
  8
F04_SEATING
100
AcDbPolyline
 90
5
 70
1
 10
47435.042638120285
 20
9145.887630452107
 10
48105.1914179443
 20
9145.887630452107
 10
48105.1914179443
 20
8741.223793723471
 10
47435.042638120285
 20
8741.223793723471
 10
47435.042638120285
 20
9145.887630452107
  0
LWPOLYLINE
  5
15F
330
17
100
AcDbEntity
  8
F04_SEATING
100
AcDbPolyline
 90
5
 70
1
 10
47435.042638120285
 20
8513.600385563606
 10
48105.1914179443
 20
8513.600385563606
 10
48105.1914179443
 20
8108.93654883497
 10
47435.042638120285
 20
8108.93654883497
 10
47435.042638120285
 20
8513.600385563606
  0
LWPOLYLINE
  5
160
330
17
100
AcDbEntity
  8
F04_SEATING
100
AcDbPolyline
 90
5
 70
1
 10
47435.042638120285
 20
7881.313140675105
 10
48105.1914179443
 20
7881.313140675105
 10
48105.1914179443
 20
7476.64930394647
 10
47435.042638120285
 20
7476.64930394647
 10
47435.042638120285
 20
7881.313140675105
  0
LWPOLYLINE
  5
162
330
17
100
AcDbEntity
  8
F04_STAIRS
100
AcDbPolyline
 90
5
 70
1
 10
28107.47981493241
 20
33039.5295382505
 10
28313.299464755506
 20
33039.5295382505
 10
28313.299464755506
 20
34039.5295382505
 10
28107.47981493241
 20
34039.5295382505
 10
28107.47981493241
 20
33039.5295382505
  0
LWPOLYLINE
  5
163
330
17
100
AcDbEntity
  8
F04_STAIRS
100
AcDbPolyline
 90
5
 70
1
 10
28313.299464755506
 20
33039.5295382505
 10
28519.119114578607
 20
33039.5295382505
 10
28519.119114578607
 20
34039.5295382505
 10
28313.299464755506
 20
34039.5295382505
 10
28313.299464755506
 20
33039.5295382505
  0
LWPOLYLINE
  5
164
330
17
100
AcDbEntity
  8
F04_STAIRS
100
AcDbPolyline
 90
5
 70
1
 10
28519.119114578607
 20
33039.5295382505
 10
28724.9387644017
 20
33039.5295382505
 10
28724.9387644017
 20
34039.5295382505
 10
28519.119114578607
 20
34039.5295382505
 10
28519.119114578607
 20
33039.5295382505
  0
LWPOLYLINE
  5
165
330
17
100
AcDbEntity
  8
F04_STAIRS
100
AcDbPolyline
 90
5
 70
1
 10
28724.9387644017
 20
33039.5295382505
 10
28930.758414224798
 20
33039.5295382505
 10
28930.758414224798
 20
34039.5295382505
 10
28724.9387644017
 20
34039.5295382505
 10
28724.9387644017
 20
33039.5295382505
  0
LWPOLYLINE
  5
166
330
17
100
AcDbEntity
  8
F04_STAIRS
100
AcDbPolyline
 90
5
 70
1
 10
28930.758414224798
 20
33039.5295382505
 10
29136.578064047895
 20
33039.5295382505
 10
29136.578064047895
 20
34039.5295382505
 10
28930.758414224798
 20
34039.5295382505
 10
28930.758414224798
 20
33039.5295382505
  0
LWPOLYLINE
  5
167
330
17
100
AcDbEntity
  8
F04_STAIRS
100
AcDbPolyline
 90
5
 70
1
 10
29136.578064047895
 20
33039.5295382505
 10
29342.397713870992
 20
33039.5295382505
 10
29342.397713870992
 20
34039.5295382505
 10
29136.578064047895
 20
34039.5295382505
 10
29136.578064047895
 20
33039.5295382505
  0
LWPOLYLINE
  5
168
330
17
100
AcDbEntity
  8
F04_STAIRS
100
AcDbPolyline
 90
5
 70
1
 10
29342.397713870992
 20
33039.5295382505
 10
29548.21736369409
 20
33039.5295382505
 10
29548.21736369409
 20
34039.5295382505
 10
29342.397713870992
 20
34039.5295382505
 10
29342.397713870992
 20
33039.5295382505
  0
LWPOLYLINE
  5
169
330
17
100
AcDbEntity
  8
F04_STAIRS
100
AcDbPolyline
 90
5
 70
1
 10
29548.21736369409
 20
33039.5295382505
 10
29754.03701351719
 20
33039.5295382505
 10
29754.03701351719
 20
34039.5295382505
 10
29548.21736369409
 20
34039.5295382505
 10
29548.21736369409
 20
33039.5295382505
  0
LWPOLYLINE
  5
16A
330
17
100
AcDbEntity
  8
F04_STAIRS
100
AcDbPolyline
 90
5
 70
1
 10
29754.03701351719
 20
33039.5295382505
 10
29959.85666334028
 20
33039.5295382505
 10
29959.85666334028
 20
34039.5295382505
 10
29754.03701351719
 20
34039.5295382505
 10
29754.03701351719
 20
33039.5295382505
  0
LWPOLYLINE
  5
16B
330
17
100
AcDbEntity
  8
F04_STAIRS
100
AcDbPolyline
 90
5
 70
1
 10
29959.85666334028
 20
33039.5295382505
 10
30165.67631316338
 20
33039.5295382505
 10
30165.67631316338
 20
34039.5295382505
 10
29959.85666334028
 20
34039.5295382505
 10
29959.85666334028
 20
33039.5295382505
  0
LWPOLYLINE
  5
16C
330
17
100
AcDbEntity
  8
F04_STAIRS
100
AcDbPolyline
 90
5
 70
1
 10
30165.67631316338
 20
33039.5295382505
 10
30371.49596298648
 20
33039.5295382505
 10
30371.49596298648
 20
34039.5295382505
 10
30165.67631316338
 20
34039.5295382505
 10
30165.67631316338
 20
33039.5295382505
  0
LWPOLYLINE
  5
16D
330
17
100
AcDbEntity
  8
F04_STAIRS
100
AcDbPolyline
 90
5
 70
1
 10
30371.49596298648
 20
33039.5295382505
 10
30577.315612809576
 20
33039.5295382505
 10
30577.315612809576
 20
34039.5295382505
 10
30371.49596298648
 20
34039.5295382505
 10
30371.49596298648
 20
33039.5295382505
  0
LWPOLYLINE
  5
16E
330
17
100
AcDbEntity
  8
F04_STAIRS
100
AcDbPolyline
 90
5
 70
1
 10
28066.31588496779
 20
1509.472259810555
 10
28272.135534790887
 20
1509.472259810555
 10
28272.135534790887
 20
2509.472259810555
 10
28066.31588496779
 20
2509.472259810555
 10
28066.31588496779
 20
1509.472259810555
  0
LWPOLYLINE
  5
16F
330
17
100
AcDbEntity
  8
F04_STAIRS
100
AcDbPolyline
 90
5
 70
1
 10
28272.135534790887
 20
1509.472259810555
 10
28477.955184613984
 20
1509.472259810555
 10
28477.955184613984
 20
2509.472259810555
 10
28272.135534790887
 20
2509.472259810555
 10
28272.135534790887
 20
1509.472259810555
  0
LWPOLYLINE
  5
170
330
17
100
AcDbEntity
  8
F04_STAIRS
100
AcDbPolyline
 90
5
 70
1
 10
28477.955184613984
 20
1509.472259810555
 10
28683.77483443708
 20
1509.472259810555
 10
28683.77483443708
 20
2509.472259810555
 10
28477.955184613984
 20
2509.472259810555
 10
28477.955184613984
 20
1509.472259810555
  0
LWPOLYLINE
  5
171
330
17
100
AcDbEntity
  8
F04_STAIRS
100
AcDbPolyline
 90
5
 70
1
 10
28683.77483443708
 20
1509.472259810555
 10
28889.59448426018
 20
1509.472259810555
 10
28889.59448426018
 20
2509.472259810555
 10
28683.77483443708
 20
2509.472259810555
 10
28683.77483443708
 20
1509.472259810555
  0
LWPOLYLINE
  5
172
330
17
100
AcDbEntity
  8
F04_STAIRS
100
AcDbPolyline
 90
5
 70
1
 10
28889.59448426018
 20
1509.472259810555
 10
29095.414134083272
 20
1509.472259810555
 10
29095.414134083272
 20
2509.472259810555
 10
28889.59448426018
 20
2509.472259810555
 10
28889.59448426018
 20
1509.472259810555
  0
LWPOLYLINE
  5
173
330
17
100
AcDbEntity
  8
F04_STAIRS
100
AcDbPolyline
 90
5
 70
1
 10
29095.414134083272
 20
1509.472259810555
 10
29301.233783906373
 20
1509.472259810555
 10
29301.233783906373
 20
2509.472259810555
 10
29095.414134083272
 20
2509.472259810555
 10
29095.414134083272
 20
1509.472259810555
  0
LWPOLYLINE
  5
174
330
17
100
AcDbEntity
  8
F04_STAIRS
100
AcDbPolyline
 90
5
 70
1
 10
29301.233783906373
 20
1509.472259810555
 10
29507.05343372947
 20
1509.472259810555
 10
29507.05343372947
 20
2509.472259810555
 10
29301.233783906373
 20
2509.472259810555
 10
29301.233783906373
 20
1509.472259810555
  0
LWPOLYLINE
  5
175
330
17
100
AcDbEntity
  8
F04_STAIRS
100
AcDbPolyline
 90
5
 70
1
 10
29507.05343372947
 20
1509.472259810555
 10
29712.873083552568
 20
1509.472259810555
 10
29712.873083552568
 20
2509.472259810555
 10
29507.05343372947
 20
2509.472259810555
 10
29507.05343372947
 20
1509.472259810555
  0
LWPOLYLINE
  5
176
330
17
100
AcDbEntity
  8
F04_STAIRS
100
AcDbPolyline
 90
5
 70
1
 10
29712.873083552568
 20
1509.472259810555
 10
29918.692733375665
 20
1509.472259810555
 10
29918.692733375665
 20
2509.472259810555
 10
29712.873083552568
 20
2509.472259810555
 10
29712.873083552568
 20
1509.472259810555
  0
LWPOLYLINE
  5
177
330
17
100
AcDbEntity
  8
F04_STAIRS
100
AcDbPolyline
 90
5
 70
1
 10
29918.692733375665
 20
1509.472259810555
 10
30124.512383198762
 20
1509.472259810555
 10
30124.512383198762
 20
2509.472259810555
 10
29918.692733375665
 20
2509.472259810555
 10
29918.692733375665
 20
1509.472259810555
  0
LWPOLYLINE
  5
178
330
17
100
AcDbEntity
  8
F04_STAIRS
100
AcDbPolyline
 90
5
 70
1
 10
30124.512383198762
 20
1509.472259810555
 10
30330.332033021856
 20
1509.472259810555
 10
30330.332033021856
 20
2509.472259810555
 10
30124.512383198762
 20
2509.472259810555
 10
30124.512383198762
 20
1509.472259810555
  0
LWPOLYLINE
  5
179
330
17
100
AcDbEntity
  8
F04_STAIRS
100
AcDbPolyline
 90
5
 70
1
 10
30330.332033021856
 20
1509.472259810555
 10
30536.151682844957
 20
1509.472259810555
 10
30536.151682844957
 20
2509.472259810555
 10
30330.332033021856
 20
2509.472259810555
 10
30330.332033021856
 20
1509.472259810555
  0
TEXT
  5
17B
330
17
100
AcDbEntity
  8
F04_ROOMS
100
AcDbText
 10
13329.628957634035
 20
17437.281035089996
 30
0.0
 40
450.0
  1
舞台上部・吹抜
  7
JAPANESE
100
AcDbText
  0
TEXT
  5
17C
330
17
100
AcDbEntity
  8
F04_ROOMS
100
AcDbText
 10
30494.987752880337
 20
17395.12855209743
 30
0.0
 40
450.0
  1
客席上部・吹抜
  7
JAPANESE
100
AcDbText
  0
TEXT
  5
17D
330
17
100
AcDbEntity
  8
F04_ROOMS
100
AcDbText
 10
41897.396353079916
 20
17437.281035089996
 30
0.0
 40
450.0
  1
客席
  7
JAPANESE
100
AcDbText
  0
TEXT
  5
17E
330
17
100
AcDbEntity
  8
F04_ROOMS
100
AcDbText
 10
51282.772385013144
 20
17395.12855209743
 30
0.0
 40
450.0
  1
ホワイエ
  7
JAPANESE
100
AcDbText
  0
TEXT
  5
17F
330
17
100
AcDbEntity
  8
F04_ROOMS
100
AcDbText
 10
19915.857751973144
 20
4496.468756371996
 30
0.0
 40
450.0
  1
操作室
  7
JAPANESE
100
AcDbText
  0
TEXT
  5
180
330
17
100
AcDbEntity
  8
F04_ROOMS
100
AcDbText
 10
20944.956001088627
 20
33202.30967430997
 30
0.0
 40
450.0
  1
倉庫
  7
JAPANESE
100
AcDbText
  0
TEXT
  5
182
330
17
100
AcDbEntity
  8
ANNOTATION
100
AcDbText
 10
-1000.0
 20
-2500.0
 30
0.0
 40
650.0
  1
4F / SCHEMATIC / Z 14129 mm
  7
JAPANESE
100
AcDbText
  0
ENDSEC
  0
SECTION
  2
OBJECTS
  0
DICTIONARY
  5
A
330
0
100
AcDbDictionary
281
1
  3
ACAD_COLOR
350
B
  3
ACAD_GROUP
350
C
  3
ACAD_LAYOUT
350
D
  3
ACAD_MATERIAL
350
E
  3
ACAD_MLEADERSTYLE
350
F
  3
ACAD_MLINESTYLE
350
10
  3
ACAD_PLOTSETTINGS
350
11
  3
ACAD_PLOTSTYLENAME
350
12
  3
ACAD_SCALELIST
350
14
  3
ACAD_TABLESTYLE
350
15
  3
ACAD_VISUALSTYLE
350
16
  3
EZDXF_META
350
2D
  0
DICTIONARY
  5
B
330
A
100
AcDbDictionary
281
1
  0
DICTIONARY
  5
C
330
A
100
AcDbDictionary
281
1
  0
DICTIONARY
  5
D
330
A
100
AcDbDictionary
281
1
  3
Model
350
1A
  3
Layout1
350
1E
  0
DICTIONARY
  5
E
330
A
100
AcDbDictionary
281
1
  3
ByBlock
350
1F
  3
ByLayer
350
20
  3
Global
350
21
  0
DICTIONARY
  5
F
330
A
100
AcDbDictionary
281
1
  3
Standard
350
2C
  0
DICTIONARY
  5
10
330
A
100
AcDbDictionary
281
1
  3
Standard
350
22
  0
DICTIONARY
  5
11
330
A
100
AcDbDictionary
281
1
  0
ACDBDICTIONARYWDFLT
  5
12
330
A
100
AcDbDictionary
281
1
  3
Normal
350
13
100
AcDbDictionaryWithDefault
340
13
  0
ACDBPLACEHOLDER
  5
13
330
12
  0
DICTIONARY
  5
14
330
A
100
AcDbDictionary
281
1
  0
DICTIONARY
  5
15
330
A
100
AcDbDictionary
281
1
  0
DICTIONARY
  5
16
330
A
100
AcDbDictionary
281
1
  0
LAYOUT
  5
1A
330
D
100
AcDbPlotSettings
  1

  4
A3
  6

 40
7.5
 41
20.0
 42
7.5
 43
20.0
 44
420.0
 45
297.0
 46
0.0
 47
0.0
 48
0.0
 49
0.0
140
0.0
141
0.0
142
1.0
143
1.0
 70
1024
 72
1
 73
0
 74
5
  7

 75
16
 76
0
 77
2
 78
300
147
1.0
148
0.0
149
0.0
100
AcDbLayout
  1
Model
 70
1
 71
0
 10
0.0
 20
0.0
 11
420.0
 21
297.0
 12
0.0
 22
0.0
 32
0.0
 14
1e+20
 24
1e+20
 34
1e+20
 15
-1e+20
 25
-1e+20
 35
-1e+20
146
0.0
 13
0.0
 23
0.0
 33
0.0
 16
1.0
 26
0.0
 36
0.0
 17
0.0
 27
1.0
 37
0.0
 76
1
330
17
  0
LAYOUT
  5
1E
330
D
100
AcDbPlotSettings
  1

  4
A3
  6

 40
7.5
 41
20.0
 42
7.5
 43
20.0
 44
420.0
 45
297.0
 46
0.0
 47
0.0
 48
0.0
 49
0.0
140
0.0
141
0.0
142
1.0
143
1.0
 70
0
 72
1
 73
0
 74
5
  7

 75
16
 76
0
 77
2
 78
300
147
1.0
148
0.0
149
0.0
100
AcDbLayout
  1
Layout1
 70
1
 71
1
 10
0.0
 20
0.0
 11
420.0
 21
297.0
 12
0.0
 22
0.0
 32
0.0
 14
1e+20
 24
1e+20
 34
1e+20
 15
-1e+20
 25
-1e+20
 35
-1e+20
146
0.0
 13
0.0
 23
0.0
 33
0.0
 16
1.0
 26
0.0
 36
0.0
 17
0.0
 27
1.0
 37
0.0
 76
1
330
1B
  0
MATERIAL
  5
1F
102
{ACAD_REACTORS
330
E
102
}
330
E
100
AcDbMaterial
  1
ByBlock
  2

 70
0
 40
1.0
 71
1
 41
1.0
 91
-1023410177
 42
1.0
 72
1
  3

 73
1
 74
1
 75
1
 44
0.5
 73
0
 45
1.0
 46
1.0
 77
1
  4

 78
1
 79
1
170
1
 48
1.0
171
1
  6

172
1
173
1
174
1
140
1.0
141
1.0
175
1
  7

176
1
177
1
178
1
143
1.0
179
1
  8

270
1
271
1
272
1
145
1.0
146
1.0
273
1
  9

274
1
275
1
276
1
 42
1.0
 72
1
  3

 73
1
 74
1
 75
1
 94
63
  0
MATERIAL
  5
20
102
{ACAD_REACTORS
330
E
102
}
330
E
100
AcDbMaterial
  1
ByLayer
  2

 70
0
 40
1.0
 71
1
 41
1.0
 91
-1023410177
 42
1.0
 72
1
  3

 73
1
 74
1
 75
1
 44
0.5
 73
0
 45
1.0
 46
1.0
 77
1
  4

 78
1
 79
1
170
1
 48
1.0
171
1
  6

172
1
173
1
174
1
140
1.0
141
1.0
175
1
  7

176
1
177
1
178
1
143
1.0
179
1
  8

270
1
271
1
272
1
145
1.0
146
1.0
273
1
  9

274
1
275
1
276
1
 42
1.0
 72
1
  3

 73
1
 74
1
 75
1
 94
63
  0
MATERIAL
  5
21
102
{ACAD_REACTORS
330
E
102
}
330
E
100
AcDbMaterial
  1
Global
  2

 70
0
 40
1.0
 71
1
 41
1.0
 91
-1023410177
 42
1.0
 72
1
  3

 73
1
 74
1
 75
1
 44
0.5
 73
0
 45
1.0
 46
1.0
 77
1
  4

 78
1
 79
1
170
1
 48
1.0
171
1
  6

172
1
173
1
174
1
140
1.0
141
1.0
175
1
  7

176
1
177
1
178
1
143
1.0
179
1
  8

270
1
271
1
272
1
145
1.0
146
1.0
273
1
  9

274
1
275
1
276
1
 42
1.0
 72
1
  3

 73
1
 74
1
 75
1
 94
63
  0
MLINESTYLE
  5
22
102
{ACAD_REACTORS
330
10
102
}
330
10
100
AcDbMlineStyle
  2
Standard
 70
0
  3

 62
256
 51
90.0
 52
90.0
 71
2
 49
0.5
 62
256
  6
BYLAYER
 49
-0.5
 62
256
  6
BYLAYER
  0
MLEADERSTYLE
  5
2C
102
{ACAD_REACTORS
330
F
102
}
330
F
100
AcDbMLeaderStyle
179
2
170
2
171
1
172
0
 90
2
 40
0.0
 41
0.0
173
1
 91
-1056964608
 92
-2
290
1
 42
2.0
291
1
 43
8.0
  3
Standard
 44
4.0
300

342
29
174
1
175
1
176
0
178
1
 93
-1056964608
 45
4.0
292
0
297
0
 46
4.0
 94
-1056964608
 47
1.0
 49
1.0
140
1.0
294
1
141
0.0
177
0
142
1.0
295
0
296
0
143
3.75
271
0
272
9
273
9
  0
DICTIONARY
  5
2D
330
A
100
AcDbDictionary
280
1
281
1
  3
CREATED_BY_EZDXF
350
2E
  3
WRITTEN_BY_EZDXF
350
186
  0
DICTIONARYVAR
  5
2E
330
2D
100
DictionaryVariables
280
0
  1
1.4.4 @ 2026-09-10T15:48:15.212619+00:00
  0
DICTIONARYVAR
  5
186
330
2D
100
DictionaryVariables
280
0
  1
1.4.4 @ 2026-09-10T15:48:15.239125+00:00
  0
ENDSEC
  0
EOF
