  0
SECTION
  2
HEADER
  9
$ACADVER
  1
AC1024
  9
$ACADMAINTVER
 70
6
  9
$DWGCODEPAGE
  3
ANSI_1252
  9
$LASTSAVEDBY
  1
ezdxf
  9
$INSBASE
 10
0.0
 20
0.0
 30
0.0
  9
$EXTMIN
 10
1e+20
 20
1e+20
 30
1e+20
  9
$EXTMAX
 10
-1e+20
 20
-1e+20
 30
-1e+20
  9
$LIMMIN
 10
0.0
 20
0.0
  9
$LIMMAX
 10
420.0
 20
297.0
  9
$ORTHOMODE
 70
0
  9
$REGENMODE
 70
1
  9
$FILLMODE
 70
1
  9
$QTEXTMODE
 70
0
  9
$MIRRTEXT
 70
1
  9
$LTSCALE
 40
1.0
  9
$ATTMODE
 70
1
  9
$TEXTSIZE
 40
2.5
  9
$TRACEWID
 40
1.0
  9
$TEXTSTYLE
  7
Standard
  9
$CLAYER
  8
0
  9
$CELTYPE
  6
ByLayer
  9
$CECOLOR
 62
256
  9
$CELTSCALE
 40
1.0
  9
$DISPSILH
 70
0
  9
$DIMSCALE
 40
1.0
  9
$DIMASZ
 40
2.5
  9
$DIMEXO
 40
0.625
  9
$DIMDLI
 40
3.75
  9
$DIMRND
 40
0.0
  9
$DIMDLE
 40
0.0
  9
$DIMEXE
 40
1.25
  9
$DIMTP
 40
0.0
  9
$DIMTM
 40
0.0
  9
$DIMTXT
 40
2.5
  9
$DIMCEN
 40
2.5
  9
$DIMTSZ
 40
0.0
  9
$DIMTOL
 70
0
  9
$DIMLIM
 70
0
  9
$DIMTIH
 70
0
  9
$DIMTOH
 70
0
  9
$DIMSE1
 70
0
  9
$DIMSE2
 70
0
  9
$DIMTAD
 70
1
  9
$DIMZIN
 70
8
  9
$DIMBLK
  1

  9
$DIMASO
 70
1
  9
$DIMSHO
 70
1
  9
$DIMPOST
  1

  9
$DIMAPOST
  1

  9
$DIMALT
 70
0
  9
$DIMALTD
 70
3
  9
$DIMALTF
 40
0.03937007874
  9
$DIMLFAC
 40
1.0
  9
$DIMTOFL
 70
1
  9
$DIMTVP
 40
0.0
  9
$DIMTIX
 70
0
  9
$DIMSOXD
 70
0
  9
$DIMSAH
 70
0
  9
$DIMBLK1
  1

  9
$DIMBLK2
  1

  9
$DIMSTYLE
  2
ISO-25
  9
$DIMCLRD
 70
0
  9
$DIMCLRE
 70
0
  9
$DIMCLRT
 70
0
  9
$DIMTFAC
 40
1.0
  9
$DIMGAP
 40
0.625
  9
$DIMJUST
 70
0
  9
$DIMSD1
 70
0
  9
$DIMSD2
 70
0
  9
$DIMTOLJ
 70
0
  9
$DIMTZIN
 70
8
  9
$DIMALTZ
 70
0
  9
$DIMALTTZ
 70
0
  9
$DIMUPT
 70
0
  9
$DIMDEC
 70
2
  9
$DIMTDEC
 70
2
  9
$DIMALTU
 70
2
  9
$DIMALTTD
 70
3
  9
$DIMTXSTY
  7
Standard
  9
$DIMAUNIT
 70
0
  9
$DIMADEC
 70
0
  9
$DIMALTRND
 40
0.0
  9
$DIMAZIN
 70
0
  9
$DIMDSEP
 70
44
  9
$DIMATFIT
 70
3
  9
$DIMFRAC
 70
0
  9
$DIMLDRBLK
  1

  9
$DIMLUNIT
 70
2
  9
$DIMLWD
 70
-2
  9
$DIMLWE
 70
-2
  9
$DIMTMOVE
 70
0
  9
$DIMFXL
 40
1.0
  9
$DIMFXLON
 70
0
  9
$DIMJOGANG
 40
0.785398163397
  9
$DIMTFILL
 70
0
  9
$DIMTFILLCLR
 70
0
  9
$DIMARCSYM
 70
0
  9
$DIMLTYPE
  6

  9
$DIMLTEX1
  6

  9
$DIMLTEX2
  6

  9
$DIMTXTDIRECTION
 70
0
  9
$LUNITS
 70
2
  9
$LUPREC
 70
4
  9
$SKETCHINC
 40
1.0
  9
$FILLETRAD
 40
10.0
  9
$AUNITS
 70
0
  9
$AUPREC
 70
2
  9
$MENU
  1
.
  9
$ELEVATION
 40
0.0
  9
$PELEVATION
 40
0.0
  9
$THICKNESS
 40
0.0
  9
$LIMCHECK
 70
0
  9
$CHAMFERA
 40
0.0
  9
$CHAMFERB
 40
0.0
  9
$CHAMFERC
 40
0.0
  9
$CHAMFERD
 40
0.0
  9
$SKPOLY
 70
0
  9
$TDCREATE
 40
2461295.0335069443
  9
$TDUCREATE
 40
2458532.153996898
  9
$TDUPDATE
 40
2461295.0335069443
  9
$TDUUPDATE
 40
2458532.1544311
  9
$TDINDWG
 40
0.0
  9
$TDUSRTIMER
 40
0.0
  9
$USRTIMER
 70
1
  9
$ANGBASE
 50
0.0
  9
$ANGDIR
 70
0
  9
$PDMODE
 70
0
  9
$PDSIZE
 40
0.0
  9
$PLINEWID
 40
0.0
  9
$SPLFRAME
 70
0
  9
$SPLINETYPE
 70
6
  9
$SPLINESEGS
 70
8
  9
$HANDSEED
  5
9C
  9
$SURFTAB1
 70
6
  9
$SURFTAB2
 70
6
  9
$SURFTYPE
 70
6
  9
$SURFU
 70
6
  9
$SURFV
 70
6
  9
$UCSBASE
  2

  9
$UCSNAME
  2

  9
$UCSORG
 10
0.0
 20
0.0
 30
0.0
  9
$UCSXDIR
 10
1.0
 20
0.0
 30
0.0
  9
$UCSYDIR
 10
0.0
 20
1.0
 30
0.0
  9
$UCSORTHOREF
  2

  9
$UCSORTHOVIEW
 70
0
  9
$UCSORGTOP
 10
0.0
 20
0.0
 30
0.0
  9
$UCSORGBOTTOM
 10
0.0
 20
0.0
 30
0.0
  9
$UCSORGLEFT
 10
0.0
 20
0.0
 30
0.0
  9
$UCSORGRIGHT
 10
0.0
 20
0.0
 30
0.0
  9
$UCSORGFRONT
 10
0.0
 20
0.0
 30
0.0
  9
$UCSORGBACK
 10
0.0
 20
0.0
 30
0.0
  9
$PUCSBASE
  2

  9
$PUCSNAME
  2

  9
$PUCSORG
 10
0.0
 20
0.0
 30
0.0
  9
$PUCSXDIR
 10
1.0
 20
0.0
 30
0.0
  9
$PUCSYDIR
 10
0.0
 20
1.0
 30
0.0
  9
$PUCSORTHOREF
  2

  9
$PUCSORTHOVIEW
 70
0
  9
$PUCSORGTOP
 10
0.0
 20
0.0
 30
0.0
  9
$PUCSORGBOTTOM
 10
0.0
 20
0.0
 30
0.0
  9
$PUCSORGLEFT
 10
0.0
 20
0.0
 30
0.0
  9
$PUCSORGRIGHT
 10
0.0
 20
0.0
 30
0.0
  9
$PUCSORGFRONT
 10
0.0
 20
0.0
 30
0.0
  9
$PUCSORGBACK
 10
0.0
 20
0.0
 30
0.0
  9
$USERI1
 70
0
  9
$USERI2
 70
0
  9
$USERI3
 70
0
  9
$USERI4
 70
0
  9
$USERI5
 70
0
  9
$USERR1
 40
0.0
  9
$USERR2
 40
0.0
  9
$USERR3
 40
0.0
  9
$USERR4
 40
0.0
  9
$USERR5
 40
0.0
  9
$WORLDVIEW
 70
1
  9
$SHADEDGE
 70
3
  9
$SHADEDIF
 70
70
  9
$TILEMODE
 70
1
  9
$MAXACTVP
 70
64
  9
$PINSBASE
 10
0.0
 20
0.0
 30
0.0
  9
$PLIMCHECK
 70
0
  9
$PEXTMIN
 10
1e+20
 20
1e+20
 30
1e+20
  9
$PEXTMAX
 10
-1e+20
 20
-1e+20
 30
-1e+20
  9
$PLIMMIN
 10
0.0
 20
0.0
  9
$PLIMMAX
 10
420.0
 20
297.0
  9
$UNITMODE
 70
0
  9
$VISRETAIN
 70
1
  9
$PLINEGEN
 70
0
  9
$PSLTSCALE
 70
1
  9
$TREEDEPTH
 70
3020
  9
$CMLSTYLE
  2
Standard
  9
$CMLJUST
 70
0
  9
$CMLSCALE
 40
20.0
  9
$PROXYGRAPHICS
 70
1
  9
$MEASUREMENT
 70
1
  9
$CELWEIGHT
370
-1
  9
$ENDCAPS
280
0
  9
$JOINSTYLE
280
0
  9
$LWDISPLAY
290
0
  9
$INSUNITS
 70
4
  9
$HYPERLINKBASE
  1

  9
$STYLESHEET
  1

  9
$XEDIT
290
1
  9
$CEPSNTYPE
380
0
  9
$PSTYLEMODE
290
1
  9
$FINGERPRINTGUID
  2
{437B9526-B91D-446B-A2E8-0F83FF1B26A0}
  9
$VERSIONGUID
  2
{3089A6A1-3093-4E5C-9328-412D2DBD94DE}
  9
$EXTNAMES
290
1
  9
$PSVPSCALE
 40
0.0
  9
$OLESTARTUP
290
0
  9
$SORTENTS
280
127
  9
$INDEXCTL
280
0
  9
$HIDETEXT
280
1
  9
$XCLIPFRAME
280
1
  9
$HALOGAP
280
0
  9
$OBSCOLOR
 70
257
  9
$OBSLTYPE
280
0
  9
$INTERSECTIONDISPLAY
280
0
  9
$INTERSECTIONCOLOR
 70
257
  9
$DIMASSOC
280
2
  9
$PROJECTNAME
  1

  9
$CAMERADISPLAY
290
0
  9
$LENSLENGTH
 40
50.0
  9
$CAMERAHEIGHT
 40
0.0
  9
$STEPSPERSEC
 40
24.0
  9
$STEPSIZE
 40
100.0
  9
$3DDWFPREC
 40
2.0
  9
$PSOLWIDTH
 40
0.005
  9
$PSOLHEIGHT
 40
0.08
  9
$LOFTANG1
 40
1.570796326795
  9
$LOFTANG2
 40
1.570796326795
  9
$LOFTMAG1
 40
0.0
  9
$LOFTMAG2
 40
0.0
  9
$LOFTPARAM
 70
7
  9
$LOFTNORMALS
280
1
  9
$LATITUDE
 40
37.795
  9
$LONGITUDE
 40
-122.394
  9
$NORTHDIRECTION
 40
0.0
  9
$TIMEZONE
 70
-8000
  9
$LIGHTGLYPHDISPLAY
280
1
  9
$TILEMODELIGHTSYNCH
280
1
  9
$CMATERIAL
347
20
  9
$SOLIDHIST
280
0
  9
$SHOWHIST
280
1
  9
$DWFFRAME
280
2
  9
$DGNFRAME
280
2
  9
$REALWORLDSCALE
290
1
  9
$INTERFERECOLOR
 62
256
  9
$CSHADOW
280
0
  9
$SHADOWPLANELOCATION
 40
0.0
  0
ENDSEC
  0
SECTION
  2
CLASSES
  0
CLASS
  1
ACDBDICTIONARYWDFLT
  2
AcDbDictionaryWithDefault
  3
ObjectDBX Classes
 90
0
 91
0
280
0
281
0
  0
CLASS
  1
SUN
  2
AcDbSun
  3
SCENEOE
 90
1153
 91
0
280
0
281
0
  0
CLASS
  1
VISUALSTYLE
  2
AcDbVisualStyle
  3
ObjectDBX Classes
 90
4095
 91
0
280
0
281
0
  0
CLASS
  1
MATERIAL
  2
AcDbMaterial
  3
ObjectDBX Classes
 90
1153
 91
0
280
0
281
0
  0
CLASS
  1
SCALE
  2
AcDbScale
  3
ObjectDBX Classes
 90
1153
 91
0
280
0
281
0
  0
CLASS
  1
TABLESTYLE
  2
AcDbTableStyle
  3
ObjectDBX Classes
 90
4095
 91
0
280
0
281
0
  0
CLASS
  1
MLEADERSTYLE
  2
AcDbMLeaderStyle
  3
ACDB_MLEADERSTYLE_CLASS
 90
4095
 91
0
280
0
281
0
  0
CLASS
  1
DICTIONARYVAR
  2
AcDbDictionaryVar
  3
ObjectDBX Classes
 90
0
 91
0
280
0
281
0
  0
CLASS
  1
CELLSTYLEMAP
  2
AcDbCellStyleMap
  3
ObjectDBX Classes
 90
1152
 91
0
280
0
281
0
  0
CLASS
  1
MENTALRAYRENDERSETTINGS
  2
AcDbMentalRayRenderSettings
  3
SCENEOE
 90
1024
 91
0
280
0
281
0
  0
CLASS
  1
ACDBDETAILVIEWSTYLE
  2
AcDbDetailViewStyle
  3
ObjectDBX Classes
 90
1025
 91
0
280
0
281
0
  0
CLASS
  1
ACDBSECTIONVIEWSTYLE
  2
AcDbSectionViewStyle
  3
ObjectDBX Classes
 90
1025
 91
0
280
0
281
0
  0
CLASS
  1
RASTERVARIABLES
  2
AcDbRasterVariables
  3
ISM
 90
0
 91
0
280
0
281
0
  0
CLASS
  1
ACDBPLACEHOLDER
  2
AcDbPlaceHolder
  3
ObjectDBX Classes
 90
0
 91
0
280
0
281
0
  0
CLASS
  1
LAYOUT
  2
AcDbLayout
  3
ObjectDBX Classes
 90
0
 91
0
280
0
281
0
  0
ENDSEC
  0
SECTION
  2
TABLES
  0
TABLE
  2
VPORT
  5
8
330
0
100
AcDbSymbolTable
 70
1
  0
VPORT
  5
98
330
8
100
AcDbSymbolTableRecord
100
AcDbViewportTableRecord
  2
*Active
 70
0
 10
0.0
 20
0.0
 11
1.0
 21
1.0
 12
29000.0
 22
17000.0
 13
0.0
 23
0.0
 14
0.5
 24
0.5
 15
0.5
 25
0.5
 16
0.0
 26
0.0
 36
1.0
 17
0.0
 27
0.0
 37
0.0
 40
44000.0
 41
1.34
 42
50.0
 43
0.0
 44
0.0
 50
0.0
 51
0.0
 71
0
 72
1000
 73
1
 74
3
 75
0
 76
0
 77
0
 78
0
281
0
 65
1
110
0.0
120
0.0
130
0.0
111
1.0
121
0.0
131
0.0
112
0.0
122
1.0
132
0.0
 79
0
146
0.0
  0
ENDTAB
  0
TABLE
  2
LTYPE
  5
2
330
0
100
AcDbSymbolTable
 70
3
  0
LTYPE
  5
24
330
2
100
AcDbSymbolTableRecord
100
AcDbLinetypeTableRecord
  2
ByBlock
 70
0
  3

 72
65
 73
0
 40
0.0
  0
LTYPE
  5
25
330
2
100
AcDbSymbolTableRecord
100
AcDbLinetypeTableRecord
  2
ByLayer
 70
0
  3

 72
65
 73
0
 40
0.0
  0
LTYPE
  5
26
330
2
100
AcDbSymbolTableRecord
100
AcDbLinetypeTableRecord
  2
Continuous
 70
0
  3

 72
65
 73
0
 40
0.0
  0
ENDTAB
  0
TABLE
  2
LAYER
  5
1
330
0
100
AcDbSymbolTable
 70
6
  0
LAYER
  5
27
330
1
100
AcDbSymbolTableRecord
100
AcDbLayerTableRecord
  2
0
 70
0
 62
7
  6
Continuous
370
-3
390
13
347
21
  0
LAYER
  5
28
330
1
100
AcDbSymbolTableRecord
100
AcDbLayerTableRecord
  2
Defpoints
 70
0
 62
7
  6
Continuous
290
0
370
-3
390
13
347
21
  0
LAYER
  5
31
330
1
100
AcDbSymbolTableRecord
100
AcDbLayerTableRecord
  2
F08_WALLS
 70
0
 62
7
420
12897493
  6
Continuous
370
18
390
13
347
21
  0
LAYER
  5
76
330
1
100
AcDbSymbolTableRecord
100
AcDbLayerTableRecord
  2
F08_STAIRS
 70
0
 62
7
420
10069169
  6
Continuous
370
18
390
13
347
21
  0
LAYER
  5
8F
330
1
100
AcDbSymbolTableRecord
100
AcDbLayerTableRecord
  2
F08_ROOMS
 70
0
 62
7
420
5264735
  6
Continuous
370
18
390
13
347
21
  0
LAYER
  5
96
330
1
100
AcDbSymbolTableRecord
100
AcDbLayerTableRecord
  2
ANNOTATION
 70
0
 62
7
420
5264735
  6
Continuous
370
18
390
13
347
21
  0
ENDTAB
  0
TABLE
  2
STYLE
  5
5
330
0
100
AcDbSymbolTable
 70
2
  0
STYLE
  5
29
330
5
100
AcDbSymbolTableRecord
100
AcDbTextStyleTableRecord
  2
Standard
 70
0
 40
0.0
 41
1.0
 50
0.0
 71
0
 42
2.5
  3
txt
  4

  0
STYLE
  5
2F
330
5
100
AcDbSymbolTableRecord
100
AcDbTextStyleTableRecord
  2
JAPANESE
 70
0
 40
0.0
 41
1.0
 50
0.0
 71
0
 42
2.5
  3
msgothic.ttc
  4

  0
ENDTAB
  0
TABLE
  2
VIEW
  5
7
330
0
100
AcDbSymbolTable
 70
0
  0
ENDTAB
  0
TABLE
  2
UCS
  5
6
330
0
100
AcDbSymbolTable
 70
0
  0
ENDTAB
  0
TABLE
  2
APPID
  5
3
330
0
100
AcDbSymbolTable
 70
4
  0
APPID
  5
2A
330
3
100
AcDbSymbolTableRecord
100
AcDbRegAppTableRecord
  2
ACAD
 70
0
  0
APPID
  5
30
330
3
100
AcDbSymbolTableRecord
100
AcDbRegAppTableRecord
  2
SHOCHIKUZA
 70
0
  0
APPID
  5
99
330
3
100
AcDbSymbolTableRecord
100
AcDbRegAppTableRecord
  2
HATCHBACKGROUNDCOLOR
 70
0
  0
APPID
  5
9A
330
3
100
AcDbSymbolTableRecord
100
AcDbRegAppTableRecord
  2
EZDXF
 70
0
  0
ENDTAB
  0
TABLE
  2
DIMSTYLE
  5
4
330
0
100
AcDbSymbolTable
 70
1
100
AcDbDimStyleTable
  0
DIMSTYLE
105
2B
330
4
100
AcDbSymbolTableRecord
100
AcDbDimStyleTableRecord
  2
Standard
 70
0
 40
1.0
 41
2.5
 42
0.625
 43
3.75
 44
1.25
 45
0.0
 46
0.0
 47
0.0
 48
0.0
 49
2.5
140
2.5
141
2.5
142
0.0
143
0.03937007874
144
1.0
145
0.0
146
1.0
147
0.625
148
0.0
 69
0
 70
0
 71
0
 72
0
 73
0
 74
0
 75
0
 76
0
 77
1
 78
8
 79
3
170
0
171
3
172
1
173
0
174
0
175
0
176
0
177
0
178
0
179
2
271
2
272
2
273
2
274
3
275
0
276
0
277
2
278
44
279
0
280
0
281
0
282
0
283
0
284
8
285
0
286
0
288
0
289
3
290
0
371
-2
372
-2
  0
ENDTAB
  0
TABLE
  2
BLOCK_RECORD
  5
9
330
0
100
AcDbSymbolTable
 70
2
  0
BLOCK_RECORD
  5
17
330
9
100
AcDbSymbolTableRecord
100
AcDbBlockTableRecord
  2
*Model_Space
340
1A
 70
0
280
1
281
0
  0
BLOCK_RECORD
  5
1B
330
9
100
AcDbSymbolTableRecord
100
AcDbBlockTableRecord
  2
*Paper_Space
340
1E
 70
0
280
1
281
0
  0
ENDTAB
  0
ENDSEC
  0
SECTION
  2
BLOCKS
  0
BLOCK
  5
18
330
17
100
AcDbEntity
  8
0
100
AcDbBlockBegin
  2
*Model_Space
 70
0
 10
0.0
 20
0.0
 30
0.0
  3
*Model_Space
  1

  0
ENDBLK
  5
19
330
17
100
AcDbEntity
  8
0
100
AcDbBlockEnd
  0
BLOCK
  5
1C
330
1B
100
AcDbEntity
  8
0
100
AcDbBlockBegin
  2
*Paper_Space
 70
0
 10
0.0
 20
0.0
 30
0.0
  3
*Paper_Space
  1

  0
ENDBLK
  5
1D
330
1B
100
AcDbEntity
  8
0
100
AcDbBlockEnd
  0
ENDSEC
  0
SECTION
  2
ENTITIES
  0
LWPOLYLINE
  5
32
330
17
100
AcDbEntity
  8
F08_WALLS
100
AcDbPolyline
 90
5
 70
1
 10
18108.474036317297
 20
35013.67100892091
 10
50529.513493833336
 20
35013.67100892091
 10
50529.513493833336
 20
35293.67100892091
 10
18108.474036317297
 20
35293.67100892091
 10
18108.474036317297
 20
35013.67100892091
  0
LWPOLYLINE
  5
33
330
17
100
AcDbEntity
  8
F08_WALLS
100
AcDbPolyline
 90
5
 70
1
 10
50389.513493833336
 20
35153.67100892091
 10
50389.513493833336
 20
-71.2179463252568
 10
50669.513493833336
 20
-71.2179463252568
 10
50669.513493833336
 20
35153.67100892091
 10
50389.513493833336
 20
35153.67100892091
  0
LWPOLYLINE
  5
34
330
17
100
AcDbEntity
  8
F08_WALLS
100
AcDbPolyline
 90
5
 70
1
 10
50529.513493833336
 20
68.7820536747432
 10
18108.474036317297
 20
68.7820536747432
 10
18108.474036317297
 20
-211.2179463252568
 10
50529.513493833336
 20
-211.2179463252568
 10
50529.513493833336
 20
68.7820536747432
  0
LWPOLYLINE
  5
35
330
17
100
AcDbEntity
  8
F08_WALLS
100
AcDbPolyline
 90
5
 70
1
 10
18248.474036317297
 20
-71.2179463252568
 10
18248.474036317297
 20
3408.8313239520717
 10
17968.474036317297
 20
3408.8313239520717
 10
17968.474036317297
 20
-71.2179463252568
 10
18248.474036317297
 20
-71.2179463252568
  0
LWPOLYLINE
  5
36
330
17
100
AcDbEntity
  8
F08_WALLS
100
AcDbPolyline
 90
5
 70
1
 10
18000.669913075137
 20
5530.8125863162995
 10
18000.669913075137
 20
28363.330969355382
 10
17720.669913075137
 20
28363.330969355382
 10
17720.669913075137
 20
5530.8125863162995
 10
18000.669913075137
 20
5530.8125863162995
  0
LWPOLYLINE
  5
37
330
17
100
AcDbEntity
  8
F08_WALLS
100
AcDbPolyline
 90
5
 70
1
 10
16662.949984071358
 20
34971.23138367362
 10
19223.592590907025
 20
34971.23138367362
 10
19223.592590907025
 20
35251.23138367362
 10
16662.949984071358
 20
35251.23138367362
 10
16662.949984071358
 20
34971.23138367362
  0
LWPOLYLINE
  5
38
330
17
100
AcDbEntity
  8
F08_WALLS
100
AcDbPolyline
 90
5
 70
1
 10
19083.592590907025
 20
35111.23138367362
 10
19083.592590907025
 20
32055.578365869133
 10
19363.592590907025
 20
32055.578365869133
 10
19363.592590907025
 20
35111.23138367362
 10
19083.592590907025
 20
35111.23138367362
  0
LWPOLYLINE
  5
39
330
17
100
AcDbEntity
  8
F08_WALLS
100
AcDbPolyline
 90
5
 70
1
 10
19223.592590907025
 20
32195.578365869133
 10
16662.949984071358
 20
32195.578365869133
 10
16662.949984071358
 20
31915.578365869133
 10
19223.592590907025
 20
31915.578365869133
 10
19223.592590907025
 20
32195.578365869133
  0
LWPOLYLINE
  5
3A
330
17
100
AcDbEntity
  8
F08_WALLS
100
AcDbPolyline
 90
5
 70
1
 10
16802.949984071358
 20
32055.578365869133
 10
16802.949984071358
 20
35111.23138367362
 10
16522.949984071358
 20
35111.23138367362
 10
16522.949984071358
 20
32055.578365869133
 10
16802.949984071358
 20
32055.578365869133
  0
LWPOLYLINE
  5
3B
330
17
100
AcDbEntity
  8
F08_WALLS
100
AcDbPolyline
 90
5
 70
1
 10
21932.03932098484
 20
35153.67100892091
 10
21932.03932098484
 20
31546.302862901717
 10
22132.03932098484
 20
31546.302862901717
 10
22132.03932098484
 20
35153.67100892091
 10
21932.03932098484
 20
35153.67100892091
  0
LWPOLYLINE
  5
3C
330
17
100
AcDbEntity
  8
F08_WALLS
100
AcDbPolyline
 90
5
 70
1
 10
22032.03932098484
 20
31446.302862901717
 10
24138.374368543213
 20
31446.302862901717
 10
24138.374368543213
 20
31646.302862901717
 10
22032.03932098484
 20
31646.302862901717
 10
22032.03932098484
 20
31446.302862901717
  0
LWPOLYLINE
  5
3D
330
17
100
AcDbEntity
  8
F08_WALLS
100
AcDbPolyline
 90
5
 70
1
 10
24238.374368543213
 20
31546.302862901717
 10
24238.374368543213
 20
35153.67100892091
 10
24038.374368543213
 20
35153.67100892091
 10
24038.374368543213
 20
31546.302862901717
 10
24238.374368543213
 20
31546.302862901717
  0
LWPOLYLINE
  5
3E
330
17
100
AcDbEntity
  8
F08_WALLS
100
AcDbPolyline
 90
5
 70
1
 10
26368.611477722658
 20
31785.819864879995
 10
33141.92417967506
 20
31785.819864879995
 10
33141.92417967506
 20
31985.819864879995
 10
26368.611477722658
 20
31985.819864879995
 10
26368.611477722658
 20
31785.819864879995
  0
LWPOLYLINE
  5
3F
330
17
100
AcDbEntity
  8
F08_WALLS
100
AcDbPolyline
 90
5
 70
1
 10
33241.92417967506
 20
31885.819864879995
 10
33241.92417967506
 20
35153.67100892091
 10
33041.92417967506
 20
35153.67100892091
 10
33041.92417967506
 20
31885.819864879995
 10
33241.92417967506
 20
31885.819864879995
  0
LWPOLYLINE
  5
40
330
17
100
AcDbEntity
  8
F08_WALLS
100
AcDbPolyline
 90
5
 70
1
 10
33389.72830291722
 20
34968.791758426334
 10
35702.56678651071
 20
34968.791758426334
 10
35702.56678651071
 20
35168.791758426334
 10
33389.72830291722
 20
35168.791758426334
 10
33389.72830291722
 20
34968.791758426334
  0
LWPOLYLINE
  5
41
330
17
100
AcDbEntity
  8
F08_WALLS
100
AcDbPolyline
 90
5
 70
1
 10
35602.56678651071
 20
35068.791758426334
 10
35602.56678651071
 20
31588.742488149004
 10
35802.56678651071
 20
31588.742488149004
 10
35802.56678651071
 20
35068.791758426334
 10
35602.56678651071
 20
35068.791758426334
  0
LWPOLYLINE
  5
42
330
17
100
AcDbEntity
  8
F08_WALLS
100
AcDbPolyline
 90
5
 70
1
 10
35702.56678651071
 20
31688.742488149004
 10
34380.94479588586
 20
31688.742488149004
 10
34380.94479588586
 20
31488.742488149004
 10
35702.56678651071
 20
31488.742488149004
 10
35702.56678651071
 20
31688.742488149004
  0
LWPOLYLINE
  5
43
330
17
100
AcDbEntity
  8
F08_WALLS
100
AcDbPolyline
 90
5
 70
1
 10
36445.9791562372
 20
33695.6030010078
 10
44127.90697674418
 20
33695.6030010078
 10
44127.90697674418
 20
33895.6030010078
 10
36445.9791562372
 20
33895.6030010078
 10
36445.9791562372
 20
33695.6030010078
  0
LWPOLYLINE
  5
44
330
17
100
AcDbEntity
  8
F08_WALLS
100
AcDbPolyline
 90
5
 70
1
 10
44027.90697674418
 20
33795.6030010078
 10
44027.90697674418
 20
31631.182113396288
 10
44227.90697674418
 20
31631.182113396288
 10
44227.90697674418
 20
33795.6030010078
 10
44027.90697674418
 20
33795.6030010078
  0
LWPOLYLINE
  5
45
330
17
100
AcDbEntity
  8
F08_WALLS
100
AcDbPolyline
 90
5
 70
1
 10
44127.90697674418
 20
31731.182113396288
 10
36487.27984344422
 20
31731.182113396288
 10
36487.27984344422
 20
31531.182113396288
 10
44127.90697674418
 20
31531.182113396288
 10
44127.90697674418
 20
31731.182113396288
  0
LWPOLYLINE
  5
46
330
17
100
AcDbEntity
  8
F08_WALLS
100
AcDbPolyline
 90
5
 70
1
 10
36587.261642976475
 20
31633.089929501977
 10
36545.96095576945
 20
33797.51081711349
 10
36345.997356704946
 20
33793.69518490211
 10
36387.29804391197
 20
31629.274297290598
 10
36587.261642976475
 20
31633.089929501977
  0
LWPOLYLINE
  5
47
330
17
100
AcDbEntity
  8
F08_WALLS
100
AcDbPolyline
 90
5
 70
1
 10
40145.64237928366
 20
33753.163375760516
 10
40145.64237928366
 20
31631.182113396288
 10
40345.64237928366
 20
31631.182113396288
 10
40345.64237928366
 20
33753.163375760516
 10
40145.64237928366
 20
33753.163375760516
  0
LWPOLYLINE
  5
48
330
17
100
AcDbEntity
  8
F08_WALLS
100
AcDbPolyline
 90
5
 70
1
 10
45821.23515223227
 20
35053.67100892091
 10
47679.76607654849
 20
35053.67100892091
 10
47679.76607654849
 20
35253.67100892091
 10
45821.23515223227
 20
35253.67100892091
 10
45821.23515223227
 20
35053.67100892091
  0
LWPOLYLINE
  5
49
330
17
100
AcDbEntity
  8
F08_WALLS
100
AcDbPolyline
 90
5
 70
1
 10
47579.76607654849
 20
35153.67100892091
 10
47579.76607654849
 20
31461.42361240715
 10
47779.76607654849
 20
31461.42361240715
 10
47779.76607654849
 20
35153.67100892091
 10
47579.76607654849
 20
35153.67100892091
  0
LWPOLYLINE
  5
4A
330
17
100
AcDbEntity
  8
F08_WALLS
100
AcDbPolyline
 90
5
 70
1
 10
47679.76607654849
 20
31561.42361240715
 10
45821.23515223227
 20
31561.42361240715
 10
45821.23515223227
 20
31361.42361240715
 10
47679.76607654849
 20
31361.42361240715
 10
47679.76607654849
 20
31561.42361240715
  0
LWPOLYLINE
  5
4B
330
17
100
AcDbEntity
  8
F08_WALLS
100
AcDbPolyline
 90
5
 70
1
 10
45921.23515223227
 20
31461.42361240715
 10
45921.23515223227
 20
35153.67100892091
 10
45721.23515223227
 20
35153.67100892091
 10
45721.23515223227
 20
31461.42361240715
 10
45921.23515223227
 20
31461.42361240715
  0
LWPOLYLINE
  5
4C
330
17
100
AcDbEntity
  8
F08_WALLS
100
AcDbPolyline
 90
5
 70
1
 10
22262.444818641055
 20
29763.838602515767
 10
22262.444818641055
 20
5361.054085327163
 10
22462.444818641055
 20
5361.054085327163
 10
22462.444818641055
 20
29763.838602515767
 10
22262.444818641055
 20
29763.838602515767
  0
LWPOLYLINE
  5
4D
330
17
100
AcDbEntity
  8
F08_WALLS
100
AcDbPolyline
 90
5
 70
1
 10
22362.444818641055
 20
5261.054085327163
 10
26905.520411414003
 20
5261.054085327163
 10
26905.520411414003
 20
5461.054085327163
 10
22362.444818641055
 20
5461.054085327163
 10
22362.444818641055
 20
5261.054085327163
  0
LWPOLYLINE
  5
4E
330
17
100
AcDbEntity
  8
F08_WALLS
100
AcDbPolyline
 90
5
 70
1
 10
29407.463705456696
 20
29763.838602515767
 10
29407.463705456696
 20
8671.344854615356
 10
29607.463705456696
 20
8671.344854615356
 10
29607.463705456696
 20
29763.838602515767
 10
29407.463705456696
 20
29763.838602515767
  0
LWPOLYLINE
  5
4F
330
17
100
AcDbEntity
  8
F08_WALLS
100
AcDbPolyline
 90
5
 70
1
 10
29507.463705456696
 20
8771.344854615356
 10
28392.34515086697
 20
8771.344854615356
 10
28392.34515086697
 20
8571.344854615356
 10
29507.463705456696
 20
8571.344854615356
 10
29507.463705456696
 20
8771.344854615356
  0
LWPOLYLINE
  5
50
330
17
100
AcDbEntity
  8
F08_WALLS
100
AcDbPolyline
 90
5
 70
1
 10
28292.34515086697
 20
8671.344854615356
 10
28292.34515086697
 20
7567.914598185957
 10
28492.34515086697
 20
7567.914598185957
 10
28492.34515086697
 20
8671.344854615356
 10
28292.34515086697
 20
8671.344854615356
  0
LWPOLYLINE
  5
51
330
17
100
AcDbEntity
  8
F08_WALLS
100
AcDbPolyline
 90
5
 70
1
 10
22362.444818641055
 20
17441.226531297823
 10
28227.142402038866
 20
17441.226531297823
 10
28227.142402038866
 20
17641.226531297823
 10
22362.444818641055
 20
17641.226531297823
 10
22362.444818641055
 20
17441.226531297823
  0
LWPOLYLINE
  5
52
330
17
100
AcDbEntity
  8
F08_WALLS
100
AcDbPolyline
 90
5
 70
1
 10
22486.346880262136
 20
29706.27822776305
 10
27070.723160242112
 20
29706.27822776305
 10
27070.723160242112
 20
29906.27822776305
 10
22486.346880262136
 20
29906.27822776305
 10
22486.346880262136
 20
29706.27822776305
  0
LWPOLYLINE
  5
53
330
17
100
AcDbEntity
  8
F08_WALLS
100
AcDbPolyline
 90
5
 70
1
 10
31389.89669139398
 20
26411.108207980287
 10
31389.89669139398
 20
5445.933335821729
 10
31589.89669139398
 20
5445.933335821729
 10
31589.89669139398
 20
26411.108207980287
 10
31389.89669139398
 20
26411.108207980287
  0
LWPOLYLINE
  5
54
330
17
100
AcDbEntity
  8
F08_WALLS
100
AcDbPolyline
 90
5
 70
1
 10
31489.89669139398
 20
5345.933335821729
 10
33183.22486688208
 20
5345.933335821729
 10
33183.22486688208
 20
5545.933335821729
 10
31489.89669139398
 20
5545.933335821729
 10
31489.89669139398
 20
5345.933335821729
  0
LWPOLYLINE
  5
55
330
17
100
AcDbEntity
  8
F08_WALLS
100
AcDbPolyline
 90
5
 70
1
 10
31489.89669139398
 20
26311.108207980287
 10
33678.8331133664
 20
26311.108207980287
 10
33678.8331133664
 20
26511.108207980287
 10
31489.89669139398
 20
26511.108207980287
 10
31489.89669139398
 20
26311.108207980287
  0
LWPOLYLINE
  5
56
330
17
100
AcDbEntity
  8
F08_WALLS
100
AcDbPolyline
 90
5
 70
1
 10
33578.8331133664
 20
26411.108207980287
 10
33578.8331133664
 20
23058.37781344481
 10
33778.8331133664
 20
23058.37781344481
 10
33778.8331133664
 20
26411.108207980287
 10
33578.8331133664
 20
26411.108207980287
  0
LWPOLYLINE
  5
57
330
17
100
AcDbEntity
  8
F08_WALLS
100
AcDbPolyline
 90
5
 70
1
 10
31489.89669139398
 20
21812.50793176813
 10
33678.8331133664
 20
21812.50793176813
 10
33678.8331133664
 20
22012.50793176813
 10
31489.89669139398
 20
22012.50793176813
 10
31489.89669139398
 20
21812.50793176813
  0
LWPOLYLINE
  5
58
330
17
100
AcDbEntity
  8
F08_WALLS
100
AcDbPolyline
 90
5
 70
1
 10
33578.8331133664
 20
21912.50793176813
 10
33578.8331133664
 20
19153.932290694636
 10
33778.8331133664
 20
19153.932290694636
 10
33778.8331133664
 20
21912.50793176813
 10
33578.8331133664
 20
21912.50793176813
  0
LWPOLYLINE
  5
59
330
17
100
AcDbEntity
  8
F08_WALLS
100
AcDbPolyline
 90
5
 70
1
 10
34752.650980749095
 20
17653.424657534244
 10
50570.814181040354
 20
17653.424657534244
 10
50570.814181040354
 20
17853.424657534244
 10
34752.650980749095
 20
17853.424657534244
 10
34752.650980749095
 20
17653.424657534244
  0
LWPOLYLINE
  5
5A
330
17
100
AcDbEntity
  8
F08_WALLS
100
AcDbPolyline
 90
5
 70
1
 10
31531.197378601006
 20
14046.056511515062
 10
38800.11832703773
 20
14046.056511515062
 10
38800.11832703773
 20
14246.056511515062
 10
31531.197378601006
 20
14246.056511515062
 10
31531.197378601006
 20
14046.056511515062
  0
LWPOLYLINE
  5
5B
330
17
100
AcDbEntity
  8
F08_WALLS
100
AcDbPolyline
 90
5
 70
1
 10
38700.11832703773
 20
14146.056511515062
 10
38700.11832703773
 20
5361.054085327163
 10
38900.11832703773
 20
5361.054085327163
 10
38900.11832703773
 20
14146.056511515062
 10
38700.11832703773
 20
14146.056511515062
  0
LWPOLYLINE
  5
5C
330
17
100
AcDbEntity
  8
F08_WALLS
100
AcDbPolyline
 90
5
 70
1
 10
38800.11832703773
 20
5461.054085327163
 10
34091.83998543667
 20
5461.054085327163
 10
34091.83998543667
 20
5261.054085327163
 10
38800.11832703773
 20
5261.054085327163
 10
38800.11832703773
 20
5461.054085327163
  0
LWPOLYLINE
  5
5D
330
17
100
AcDbEntity
  8
F08_WALLS
100
AcDbPolyline
 90
5
 70
1
 10
34693.95166795613
 20
17541.226531297823
 10
34693.95166795613
 20
9859.65436153932
 10
34893.95166795613
 20
9859.65436153932
 10
34893.95166795613
 20
17541.226531297823
 10
34693.95166795613
 20
17541.226531297823
  0
LWPOLYLINE
  5
5E
330
17
100
AcDbEntity
  8
F08_WALLS
100
AcDbPolyline
 90
5
 70
1
 10
45201.72484412688
 20
8953.301481840917
 10
50570.814181040354
 20
8953.301481840917
 10
50570.814181040354
 20
9153.301481840917
 10
45201.72484412688
 20
9153.301481840917
 10
45201.72484412688
 20
8953.301481840917
  0
LWPOLYLINE
  5
5F
330
17
100
AcDbEntity
  8
F08_WALLS
100
AcDbPolyline
 90
5
 70
1
 10
44482.21453602148
 20
8034.7504759060885
 10
44482.21453602148
 20
5658.131462058155
 10
44682.21453602148
 20
5658.131462058155
 10
44682.21453602148
 20
8034.7504759060885
 10
44482.21453602148
 20
8034.7504759060885
  0
LWPOLYLINE
  5
60
330
17
100
AcDbEntity
  8
F08_WALLS
100
AcDbPolyline
 90
5
 70
1
 10
44582.21453602148
 20
5558.131462058155
 10
50570.814181040354
 20
5558.131462058155
 10
50570.814181040354
 20
5758.131462058155
 10
44582.21453602148
 20
5758.131462058155
 10
44582.21453602148
 20
5558.131462058155
  0
LWPOLYLINE
  5
61
330
17
100
AcDbEntity
  8
F08_WALLS
100
AcDbPolyline
 90
5
 70
1
 10
34133.1406726437
 20
29791.15747825762
 10
38511.01351658854
 20
29791.15747825762
 10
38511.01351658854
 20
29991.15747825762
 10
34133.1406726437
 20
29991.15747825762
 10
34133.1406726437
 20
29791.15747825762
  0
LWPOLYLINE
  5
62
330
17
100
AcDbEntity
  8
F08_WALLS
100
AcDbPolyline
 90
5
 70
1
 10
39543.53069676421
 20
29791.15747825762
 10
44251.80903836527
 20
29791.15747825762
 10
44251.80903836527
 20
29991.15747825762
 10
39543.53069676421
 20
29991.15747825762
 10
39543.53069676421
 20
29791.15747825762
  0
LWPOLYLINE
  5
63
330
17
100
AcDbEntity
  8
F08_WALLS
100
AcDbPolyline
 90
5
 70
1
 10
47390.6612660993
 20
29621.398977268484
 10
50570.814181040354
 20
29621.398977268484
 10
50570.814181040354
 20
29821.398977268484
 10
47390.6612660993
 20
29821.398977268484
 10
47390.6612660993
 20
29621.398977268484
  0
LWPOLYLINE
  5
64
330
17
100
AcDbEntity
  8
F08_WALLS
100
AcDbPolyline
 90
5
 70
1
 10
27507.632093933466
 20
29933.597103504908
 10
27507.632093933466
 20
26580.866708969428
 10
27707.632093933466
 20
26580.866708969428
 10
27707.632093933466
 20
29933.597103504908
 10
27507.632093933466
 20
29933.597103504908
  0
LWPOLYLINE
  5
65
330
17
100
AcDbEntity
  8
F08_WALLS
100
AcDbPolyline
 90
5
 70
1
 10
27607.632093933466
 20
26480.866708969428
 10
29259.659582214535
 20
26480.866708969428
 10
29259.659582214535
 20
26680.866708969428
 10
27607.632093933466
 20
26680.866708969428
 10
27607.632093933466
 20
26480.866708969428
  0
LWPOLYLINE
  5
66
330
17
100
AcDbEntity
  8
F08_WALLS
100
AcDbPolyline
 90
5
 70
1
 10
31448.59600418695
 20
29791.15747825762
 10
32770.217994811814
 20
29791.15747825762
 10
32770.217994811814
 20
29991.15747825762
 10
31448.59600418695
 20
29991.15747825762
 10
31448.59600418695
 20
29791.15747825762
  0
LWPOLYLINE
  5
67
330
17
100
AcDbEntity
  8
F08_WALLS
100
AcDbPolyline
 90
5
 70
1
 10
32670.217994811814
 20
29891.15747825762
 10
32670.217994811814
 20
26580.866708969428
 10
32870.217994811814
 20
26580.866708969428
 10
32870.217994811814
 20
29891.15747825762
 10
32670.217994811814
 20
29891.15747825762
  0
LWPOLYLINE
  5
68
330
17
100
AcDbEntity
  8
F08_WALLS
100
AcDbPolyline
 90
5
 70
1
 10
26038.205980066443
 20
3266.391698704791
 10
33224.52555408911
 20
3266.391698704791
 10
33224.52555408911
 20
3466.391698704791
 10
26038.205980066443
 20
3466.391698704791
 10
26038.205980066443
 20
3266.391698704791
  0
LWPOLYLINE
  5
69
330
17
100
AcDbEntity
  8
F08_WALLS
100
AcDbPolyline
 90
5
 70
1
 10
33124.52555408911
 20
3366.391698704791
 10
33124.52555408911
 20
140.9801799111641
 10
33324.52555408911
 20
140.9801799111641
 10
33324.52555408911
 20
3366.391698704791
 10
33124.52555408911
 20
3366.391698704791
  0
LWPOLYLINE
  5
6A
330
17
100
AcDbEntity
  8
F08_WALLS
100
AcDbPolyline
 90
5
 70
1
 10
35041.75579119829
 20
3605.9087006830628
 10
44830.01865926363
 20
3605.9087006830628
 10
44830.01865926363
 20
3805.9087006830628
 10
35041.75579119829
 20
3805.9087006830628
 10
35041.75579119829
 20
3605.9087006830628
  0
LWPOLYLINE
  5
6B
330
17
100
AcDbEntity
  8
F08_WALLS
100
AcDbPolyline
 90
5
 70
1
 10
44730.01865926363
 20
3705.9087006830628
 10
44730.01865926363
 20
98.54055466387899
 10
44930.01865926363
 20
98.54055466387899
 10
44930.01865926363
 20
3705.9087006830628
 10
44730.01865926363
 20
3705.9087006830628
  0
LWPOLYLINE
  5
6C
330
17
100
AcDbEntity
  8
F08_WALLS
100
AcDbPolyline
 90
5
 70
1
 10
44830.01865926363
 20
198.540554663879
 10
37230.69221317071
 20
198.540554663879
 10
37230.69221317071
 20
-1.4594453361210071
 10
44830.01865926363
 20
-1.4594453361210071
 10
44830.01865926363
 20
198.540554663879
  0
LWPOLYLINE
  5
6D
330
17
100
AcDbEntity
  8
F08_WALLS
100
AcDbPolyline
 90
5
 70
1
 10
37330.69221317071
 20
98.54055466387899
 10
37330.69221317071
 20
2305.4010675226773
 10
37130.69221317071
 20
2305.4010675226773
 10
37130.69221317071
 20
98.54055466387899
 10
37330.69221317071
 20
98.54055466387899
  0
LWPOLYLINE
  5
6E
330
17
100
AcDbEntity
  8
F08_WALLS
100
AcDbPolyline
 90
5
 70
1
 10
39732.635507213396
 20
3663.469075435782
 10
39732.635507213396
 20
1711.24631406069
 10
39932.635507213396
 20
1711.24631406069
 10
39932.635507213396
 20
3663.469075435782
 10
39732.635507213396
 20
3663.469075435782
  0
LWPOLYLINE
  5
6F
330
17
100
AcDbEntity
  8
F08_WALLS
100
AcDbPolyline
 90
5
 70
1
 10
41962.87261639284
 20
3663.469075435782
 10
41962.87261639284
 20
1711.24631406069
 10
42162.87261639284
 20
1711.24631406069
 10
42162.87261639284
 20
3663.469075435782
 10
41962.87261639284
 20
3663.469075435782
  0
LWPOLYLINE
  5
70
330
17
100
AcDbEntity
  8
F08_WALLS
100
AcDbPolyline
 90
5
 70
1
 10
44953.920720884715
 20
3605.9087006830628
 10
47225.45851727119
 20
3605.9087006830628
 10
47225.45851727119
 20
3805.9087006830628
 10
44953.920720884715
 20
3805.9087006830628
 10
44953.920720884715
 20
3605.9087006830628
  0
LWPOLYLINE
  5
71
330
17
100
AcDbEntity
  8
F08_WALLS
100
AcDbPolyline
 90
5
 70
1
 10
48836.18531834524
 20
3605.9087006830628
 10
50570.814181040354
 20
3605.9087006830628
 10
50570.814181040354
 20
3805.9087006830628
 10
48836.18531834524
 20
3805.9087006830628
 10
48836.18531834524
 20
3605.9087006830628
  0
LWPOLYLINE
  5
72
330
17
100
AcDbEntity
  8
F08_WALLS
100
AcDbPolyline
 90
5
 70
1
 10
19264.89327811405
 20
3011.7539472210806
 10
21825.53588494971
 20
3011.7539472210806
 10
21825.53588494971
 20
3211.7539472210806
 10
19264.89327811405
 20
3211.7539472210806
 10
19264.89327811405
 20
3011.7539472210806
  0
LWPOLYLINE
  5
73
330
17
100
AcDbEntity
  8
F08_WALLS
100
AcDbPolyline
 90
5
 70
1
 10
21725.53588494971
 20
3111.7539472210806
 10
21725.53588494971
 20
183.41980515844924
 10
21925.53588494971
 20
183.41980515844924
 10
21925.53588494971
 20
3111.7539472210806
 10
21725.53588494971
 20
3111.7539472210806
  0
LWPOLYLINE
  5
74
330
17
100
AcDbEntity
  8
F08_WALLS
100
AcDbPolyline
 90
5
 70
1
 10
21825.53588494971
 20
283.4198051584492
 10
19264.89327811405
 20
283.4198051584492
 10
19264.89327811405
 20
83.41980515844924
 10
21825.53588494971
 20
83.41980515844924
 10
21825.53588494971
 20
283.4198051584492
  0
LWPOLYLINE
  5
75
330
17
100
AcDbEntity
  8
F08_WALLS
100
AcDbPolyline
 90
5
 70
1
 10
19364.89327811405
 20
183.41980515844924
 10
19364.89327811405
 20
3111.7539472210806
 10
19164.89327811405
 20
3111.7539472210806
 10
19164.89327811405
 20
183.41980515844924
 10
19364.89327811405
 20
183.41980515844924
  0
LWPOLYLINE
  5
77
330
17
100
AcDbEntity
  8
F08_STAIRS
100
AcDbPolyline
 90
5
 70
1
 10
28020.63896600373
 20
32956.08599902952
 10
28227.142402038866
 20
32956.08599902952
 10
28227.142402038866
 20
33956.08599902952
 10
28020.63896600373
 20
33956.08599902952
 10
28020.63896600373
 20
32956.08599902952
  0
LWPOLYLINE
  5
78
330
17
100
AcDbEntity
  8
F08_STAIRS
100
AcDbPolyline
 90
5
 70
1
 10
28227.142402038866
 20
32956.08599902952
 10
28433.645838074
 20
32956.08599902952
 10
28433.645838074
 20
33956.08599902952
 10
28227.142402038866
 20
33956.08599902952
 10
28227.142402038866
 20
32956.08599902952
  0
LWPOLYLINE
  5
79
330
17
100
AcDbEntity
  8
F08_STAIRS
100
AcDbPolyline
 90
5
 70
1
 10
28433.645838074
 20
32956.08599902952
 10
28640.14927410913
 20
32956.08599902952
 10
28640.14927410913
 20
33956.08599902952
 10
28433.645838074
 20
33956.08599902952
 10
28433.645838074
 20
32956.08599902952
  0
LWPOLYLINE
  5
7A
330
17
100
AcDbEntity
  8
F08_STAIRS
100
AcDbPolyline
 90
5
 70
1
 10
28640.14927410913
 20
32956.08599902952
 10
28846.652710144266
 20
32956.08599902952
 10
28846.652710144266
 20
33956.08599902952
 10
28640.14927410913
 20
33956.08599902952
 10
28640.14927410913
 20
32956.08599902952
  0
LWPOLYLINE
  5
7B
330
17
100
AcDbEntity
  8
F08_STAIRS
100
AcDbPolyline
 90
5
 70
1
 10
28846.652710144266
 20
32956.08599902952
 10
29053.1561461794
 20
32956.08599902952
 10
29053.1561461794
 20
33956.08599902952
 10
28846.652710144266
 20
33956.08599902952
 10
28846.652710144266
 20
32956.08599902952
  0
LWPOLYLINE
  5
7C
330
17
100
AcDbEntity
  8
F08_STAIRS
100
AcDbPolyline
 90
5
 70
1
 10
29053.1561461794
 20
32956.08599902952
 10
29259.659582214535
 20
32956.08599902952
 10
29259.659582214535
 20
33956.08599902952
 10
29053.1561461794
 20
33956.08599902952
 10
29053.1561461794
 20
32956.08599902952
  0
LWPOLYLINE
  5
7D
330
17
100
AcDbEntity
  8
F08_STAIRS
100
AcDbPolyline
 90
5
 70
1
 10
29259.659582214535
 20
32956.08599902952
 10
29466.163018249666
 20
32956.08599902952
 10
29466.163018249666
 20
33956.08599902952
 10
29259.659582214535
 20
33956.08599902952
 10
29259.659582214535
 20
32956.08599902952
  0
LWPOLYLINE
  5
7E
330
17
100
AcDbEntity
  8
F08_STAIRS
100
AcDbPolyline
 90
5
 70
1
 10
29466.163018249666
 20
32956.08599902952
 10
29672.6664542848
 20
32956.08599902952
 10
29672.6664542848
 20
33956.08599902952
 10
29466.163018249666
 20
33956.08599902952
 10
29466.163018249666
 20
32956.08599902952
  0
LWPOLYLINE
  5
7F
330
17
100
AcDbEntity
  8
F08_STAIRS
100
AcDbPolyline
 90
5
 70
1
 10
29672.6664542848
 20
32956.08599902952
 10
29879.169890319936
 20
32956.08599902952
 10
29879.169890319936
 20
33956.08599902952
 10
29672.6664542848
 20
33956.08599902952
 10
29672.6664542848
 20
32956.08599902952
  0
LWPOLYLINE
  5
80
330
17
100
AcDbEntity
  8
F08_STAIRS
100
AcDbPolyline
 90
5
 70
1
 10
29879.169890319936
 20
32956.08599902952
 10
30085.67332635507
 20
32956.08599902952
 10
30085.67332635507
 20
33956.08599902952
 10
29879.169890319936
 20
33956.08599902952
 10
29879.169890319936
 20
32956.08599902952
  0
LWPOLYLINE
  5
81
330
17
100
AcDbEntity
  8
F08_STAIRS
100
AcDbPolyline
 90
5
 70
1
 10
30085.67332635507
 20
32956.08599902952
 10
30292.1767623902
 20
32956.08599902952
 10
30292.1767623902
 20
33956.08599902952
 10
30085.67332635507
 20
33956.08599902952
 10
30085.67332635507
 20
32956.08599902952
  0
LWPOLYLINE
  5
82
330
17
100
AcDbEntity
  8
F08_STAIRS
100
AcDbPolyline
 90
5
 70
1
 10
30292.1767623902
 20
32956.08599902952
 10
30498.680198425336
 20
32956.08599902952
 10
30498.680198425336
 20
33956.08599902952
 10
30292.1767623902
 20
33956.08599902952
 10
30292.1767623902
 20
32956.08599902952
  0
LWPOLYLINE
  5
83
330
17
100
AcDbEntity
  8
F08_STAIRS
100
AcDbPolyline
 90
5
 70
1
 10
28020.63896600373
 20
1635.6425665335369
 10
28227.142402038866
 20
1635.6425665335369
 10
28227.142402038866
 20
2635.642566533537
 10
28020.63896600373
 20
2635.642566533537
 10
28020.63896600373
 20
1635.6425665335369
  0
LWPOLYLINE
  5
84
330
17
100
AcDbEntity
  8
F08_STAIRS
100
AcDbPolyline
 90
5
 70
1
 10
28227.142402038866
 20
1635.6425665335369
 10
28433.645838074
 20
1635.6425665335369
 10
28433.645838074
 20
2635.642566533537
 10
28227.142402038866
 20
2635.642566533537
 10
28227.142402038866
 20
1635.6425665335369
  0
LWPOLYLINE
  5
85
330
17
100
AcDbEntity
  8
F08_STAIRS
100
AcDbPolyline
 90
5
 70
1
 10
28433.645838074
 20
1635.6425665335369
 10
28640.14927410913
 20
1635.6425665335369
 10
28640.14927410913
 20
2635.642566533537
 10
28433.645838074
 20
2635.642566533537
 10
28433.645838074
 20
1635.6425665335369
  0
LWPOLYLINE
  5
86
330
17
100
AcDbEntity
  8
F08_STAIRS
100
AcDbPolyline
 90
5
 70
1
 10
28640.14927410913
 20
1635.6425665335369
 10
28846.652710144266
 20
1635.6425665335369
 10
28846.652710144266
 20
2635.642566533537
 10
28640.14927410913
 20
2635.642566533537
 10
28640.14927410913
 20
1635.6425665335369
  0
LWPOLYLINE
  5
87
330
17
100
AcDbEntity
  8
F08_STAIRS
100
AcDbPolyline
 90
5
 70
1
 10
28846.652710144266
 20
1635.6425665335369
 10
29053.1561461794
 20
1635.6425665335369
 10
29053.1561461794
 20
2635.642566533537
 10
28846.652710144266
 20
2635.642566533537
 10
28846.652710144266
 20
1635.6425665335369
  0
LWPOLYLINE
  5
88
330
17
100
AcDbEntity
  8
F08_STAIRS
100
AcDbPolyline
 90
5
 70
1
 10
29053.1561461794
 20
1635.6425665335369
 10
29259.659582214535
 20
1635.6425665335369
 10
29259.659582214535
 20
2635.642566533537
 10
29053.1561461794
 20
2635.642566533537
 10
29053.1561461794
 20
1635.6425665335369
  0
LWPOLYLINE
  5
89
330
17
100
AcDbEntity
  8
F08_STAIRS
100
AcDbPolyline
 90
5
 70
1
 10
29259.659582214535
 20
1635.6425665335369
 10
29466.163018249666
 20
1635.6425665335369
 10
29466.163018249666
 20
2635.642566533537
 10
29259.659582214535
 20
2635.642566533537
 10
29259.659582214535
 20
1635.6425665335369
  0
LWPOLYLINE
  5
8A
330
17
100
AcDbEntity
  8
F08_STAIRS
100
AcDbPolyline
 90
5
 70
1
 10
29466.163018249666
 20
1635.6425665335369
 10
29672.6664542848
 20
1635.6425665335369
 10
29672.6664542848
 20
2635.642566533537
 10
29466.163018249666
 20
2635.642566533537
 10
29466.163018249666
 20
1635.6425665335369
  0
LWPOLYLINE
  5
8B
330
17
100
AcDbEntity
  8
F08_STAIRS
100
AcDbPolyline
 90
5
 70
1
 10
29672.6664542848
 20
1635.6425665335369
 10
29879.169890319936
 20
1635.6425665335369
 10
29879.169890319936
 20
2635.642566533537
 10
29672.6664542848
 20
2635.642566533537
 10
29672.6664542848
 20
1635.6425665335369
  0
LWPOLYLINE
  5
8C
330
17
100
AcDbEntity
  8
F08_STAIRS
100
AcDbPolyline
 90
5
 70
1
 10
29879.169890319936
 20
1635.6425665335369
 10
30085.67332635507
 20
1635.6425665335369
 10
30085.67332635507
 20
2635.642566533537
 10
29879.169890319936
 20
2635.642566533537
 10
29879.169890319936
 20
1635.6425665335369
  0
LWPOLYLINE
  5
8D
330
17
100
AcDbEntity
  8
F08_STAIRS
100
AcDbPolyline
 90
5
 70
1
 10
30085.67332635507
 20
1635.6425665335369
 10
30292.1767623902
 20
1635.6425665335369
 10
30292.1767623902
 20
2635.642566533537
 10
30085.67332635507
 20
2635.642566533537
 10
30085.67332635507
 20
1635.6425665335369
  0
LWPOLYLINE
  5
8E
330
17
100
AcDbEntity
  8
F08_STAIRS
100
AcDbPolyline
 90
5
 70
1
 10
30292.1767623902
 20
1635.6425665335369
 10
30498.680198425336
 20
1635.6425665335369
 10
30498.680198425336
 20
2635.642566533537
 10
30292.1767623902
 20
2635.642566533537
 10
30292.1767623902
 20
1635.6425665335369
  0
TEXT
  5
90
330
17
100
AcDbEntity
  8
F08_ROOMS
100
AcDbText
 10
8237.609793837892
 20
17668.545407039674
 30
0.0
 40
450.0
  1
屋上
  7
JAPANESE
100
AcDbText
  0
TEXT
  5
91
330
17
100
AcDbEntity
  8
F08_ROOMS
100
AcDbText
 10
14969.62180858326
 20
17668.545407039674
 30
0.0
 40
450.0
  1
屋外機械置場
  7
JAPANESE
100
AcDbText
  0
TEXT
  5
92
330
17
100
AcDbEntity
  8
F08_ROOMS
100
AcDbText
 10
25583.898420789148
 20
22973.498562950244
 30
0.0
 40
450.0
  1
楽屋
  7
JAPANESE
100
AcDbText
  0
TEXT
  5
93
330
17
100
AcDbEntity
  8
F08_ROOMS
100
AcDbText
 10
25583.898420789148
 20
11939.195998656263
 30
0.0
 40
450.0
  1
楽屋
  7
JAPANESE
100
AcDbText
  0
TEXT
  5
94
330
17
100
AcDbEntity
  8
F08_ROOMS
100
AcDbText
 10
41856.3691803577
 20
23015.938188197524
 30
0.0
 40
450.0
  1
稽古場
  7
JAPANESE
100
AcDbText
  0
TEXT
  5
95
330
17
100
AcDbEntity
  8
F08_ROOMS
100
AcDbText
 10
41815.068493150684
 20
11939.195998656263
 30
0.0
 40
450.0
  1
事務室
  7
JAPANESE
100
AcDbText
  0
TEXT
  5
97
330
17
100
AcDbEntity
  8
ANNOTATION
100
AcDbText
 10
-1000.0
 20
-2500.0
 30
0.0
 40
650.0
  1
8F / SCHEMATIC / Z 31977 mm
  7
JAPANESE
100
AcDbText
  0
ENDSEC
  0
SECTION
  2
OBJECTS
  0
DICTIONARY
  5
A
330
0
100
AcDbDictionary
281
1
  3
ACAD_COLOR
350
B
  3
ACAD_GROUP
350
C
  3
ACAD_LAYOUT
350
D
  3
ACAD_MATERIAL
350
E
  3
ACAD_MLEADERSTYLE
350
F
  3
ACAD_MLINESTYLE
350
10
  3
ACAD_PLOTSETTINGS
350
11
  3
ACAD_PLOTSTYLENAME
350
12
  3
ACAD_SCALELIST
350
14
  3
ACAD_TABLESTYLE
350
15
  3
ACAD_VISUALSTYLE
350
16
  3
EZDXF_META
350
2D
  0
DICTIONARY
  5
B
330
A
100
AcDbDictionary
281
1
  0
DICTIONARY
  5
C
330
A
100
AcDbDictionary
281
1
  0
DICTIONARY
  5
D
330
A
100
AcDbDictionary
281
1
  3
Model
350
1A
  3
Layout1
350
1E
  0
DICTIONARY
  5
E
330
A
100
AcDbDictionary
281
1
  3
ByBlock
350
1F
  3
ByLayer
350
20
  3
Global
350
21
  0
DICTIONARY
  5
F
330
A
100
AcDbDictionary
281
1
  3
Standard
350
2C
  0
DICTIONARY
  5
10
330
A
100
AcDbDictionary
281
1
  3
Standard
350
22
  0
DICTIONARY
  5
11
330
A
100
AcDbDictionary
281
1
  0
ACDBDICTIONARYWDFLT
  5
12
330
A
100
AcDbDictionary
281
1
  3
Normal
350
13
100
AcDbDictionaryWithDefault
340
13
  0
ACDBPLACEHOLDER
  5
13
330
12
  0
DICTIONARY
  5
14
330
A
100
AcDbDictionary
281
1
  0
DICTIONARY
  5
15
330
A
100
AcDbDictionary
281
1
  0
DICTIONARY
  5
16
330
A
100
AcDbDictionary
281
1
  0
LAYOUT
  5
1A
330
D
100
AcDbPlotSettings
  1

  4
A3
  6

 40
7.5
 41
20.0
 42
7.5
 43
20.0
 44
420.0
 45
297.0
 46
0.0
 47
0.0
 48
0.0
 49
0.0
140
0.0
141
0.0
142
1.0
143
1.0
 70
1024
 72
1
 73
0
 74
5
  7

 75
16
 76
0
 77
2
 78
300
147
1.0
148
0.0
149
0.0
100
AcDbLayout
  1
Model
 70
1
 71
0
 10
0.0
 20
0.0
 11
420.0
 21
297.0
 12
0.0
 22
0.0
 32
0.0
 14
1e+20
 24
1e+20
 34
1e+20
 15
-1e+20
 25
-1e+20
 35
-1e+20
146
0.0
 13
0.0
 23
0.0
 33
0.0
 16
1.0
 26
0.0
 36
0.0
 17
0.0
 27
1.0
 37
0.0
 76
1
330
17
  0
LAYOUT
  5
1E
330
D
100
AcDbPlotSettings
  1

  4
A3
  6

 40
7.5
 41
20.0
 42
7.5
 43
20.0
 44
420.0
 45
297.0
 46
0.0
 47
0.0
 48
0.0
 49
0.0
140
0.0
141
0.0
142
1.0
143
1.0
 70
0
 72
1
 73
0
 74
5
  7

 75
16
 76
0
 77
2
 78
300
147
1.0
148
0.0
149
0.0
100
AcDbLayout
  1
Layout1
 70
1
 71
1
 10
0.0
 20
0.0
 11
420.0
 21
297.0
 12
0.0
 22
0.0
 32
0.0
 14
1e+20
 24
1e+20
 34
1e+20
 15
-1e+20
 25
-1e+20
 35
-1e+20
146
0.0
 13
0.0
 23
0.0
 33
0.0
 16
1.0
 26
0.0
 36
0.0
 17
0.0
 27
1.0
 37
0.0
 76
1
330
1B
  0
MATERIAL
  5
1F
102
{ACAD_REACTORS
330
E
102
}
330
E
100
AcDbMaterial
  1
ByBlock
  2

 70
0
 40
1.0
 71
1
 41
1.0
 91
-1023410177
 42
1.0
 72
1
  3

 73
1
 74
1
 75
1
 44
0.5
 73
0
 45
1.0
 46
1.0
 77
1
  4

 78
1
 79
1
170
1
 48
1.0
171
1
  6

172
1
173
1
174
1
140
1.0
141
1.0
175
1
  7

176
1
177
1
178
1
143
1.0
179
1
  8

270
1
271
1
272
1
145
1.0
146
1.0
273
1
  9

274
1
275
1
276
1
 42
1.0
 72
1
  3

 73
1
 74
1
 75
1
 94
63
  0
MATERIAL
  5
20
102
{ACAD_REACTORS
330
E
102
}
330
E
100
AcDbMaterial
  1
ByLayer
  2

 70
0
 40
1.0
 71
1
 41
1.0
 91
-1023410177
 42
1.0
 72
1
  3

 73
1
 74
1
 75
1
 44
0.5
 73
0
 45
1.0
 46
1.0
 77
1
  4

 78
1
 79
1
170
1
 48
1.0
171
1
  6

172
1
173
1
174
1
140
1.0
141
1.0
175
1
  7

176
1
177
1
178
1
143
1.0
179
1
  8

270
1
271
1
272
1
145
1.0
146
1.0
273
1
  9

274
1
275
1
276
1
 42
1.0
 72
1
  3

 73
1
 74
1
 75
1
 94
63
  0
MATERIAL
  5
21
102
{ACAD_REACTORS
330
E
102
}
330
E
100
AcDbMaterial
  1
Global
  2

 70
0
 40
1.0
 71
1
 41
1.0
 91
-1023410177
 42
1.0
 72
1
  3

 73
1
 74
1
 75
1
 44
0.5
 73
0
 45
1.0
 46
1.0
 77
1
  4

 78
1
 79
1
170
1
 48
1.0
171
1
  6

172
1
173
1
174
1
140
1.0
141
1.0
175
1
  7

176
1
177
1
178
1
143
1.0
179
1
  8

270
1
271
1
272
1
145
1.0
146
1.0
273
1
  9

274
1
275
1
276
1
 42
1.0
 72
1
  3

 73
1
 74
1
 75
1
 94
63
  0
MLINESTYLE
  5
22
102
{ACAD_REACTORS
330
10
102
}
330
10
100
AcDbMlineStyle
  2
Standard
 70
0
  3

 62
256
 51
90.0
 52
90.0
 71
2
 49
0.5
 62
256
  6
BYLAYER
 49
-0.5
 62
256
  6
BYLAYER
  0
MLEADERSTYLE
  5
2C
102
{ACAD_REACTORS
330
F
102
}
330
F
100
AcDbMLeaderStyle
179
2
170
2
171
1
172
0
 90
2
 40
0.0
 41
0.0
173
1
 91
-1056964608
 92
-2
290
1
 42
2.0
291
1
 43
8.0
  3
Standard
 44
4.0
300

342
29
174
1
175
1
176
0
178
1
 93
-1056964608
 45
4.0
292
0
297
0
 46
4.0
 94
-1056964608
 47
1.0
 49
1.0
140
1.0
294
1
141
0.0
177
0
142
1.0
295
0
296
0
143
3.75
271
0
272
9
273
9
  0
DICTIONARY
  5
2D
330
A
100
AcDbDictionary
280
1
281
1
  3
CREATED_BY_EZDXF
350
2E
  3
WRITTEN_BY_EZDXF
350
9B
  0
DICTIONARYVAR
  5
2E
330
2D
100
DictionaryVariables
280
0
  1
1.4.4 @ 2026-09-10T15:48:15.289652+00:00
  0
DICTIONARYVAR
  5
9B
330
2D
100
DictionaryVariables
280
0
  1
1.4.4 @ 2026-09-10T15:48:15.298657+00:00
  0
ENDSEC
  0
EOF
