  0
SECTION
  2
HEADER
  9
$ACADVER
  1
AC1024
  9
$ACADMAINTVER
 70
6
  9
$DWGCODEPAGE
  3
ANSI_1252
  9
$LASTSAVEDBY
  1
ezdxf
  9
$INSBASE
 10
0.0
 20
0.0
 30
0.0
  9
$EXTMIN
 10
1e+20
 20
1e+20
 30
1e+20
  9
$EXTMAX
 10
-1e+20
 20
-1e+20
 30
-1e+20
  9
$LIMMIN
 10
0.0
 20
0.0
  9
$LIMMAX
 10
420.0
 20
297.0
  9
$ORTHOMODE
 70
0
  9
$REGENMODE
 70
1
  9
$FILLMODE
 70
1
  9
$QTEXTMODE
 70
0
  9
$MIRRTEXT
 70
1
  9
$LTSCALE
 40
1.0
  9
$ATTMODE
 70
1
  9
$TEXTSIZE
 40
2.5
  9
$TRACEWID
 40
1.0
  9
$TEXTSTYLE
  7
Standard
  9
$CLAYER
  8
0
  9
$CELTYPE
  6
ByLayer
  9
$CECOLOR
 62
256
  9
$CELTSCALE
 40
1.0
  9
$DISPSILH
 70
0
  9
$DIMSCALE
 40
1.0
  9
$DIMASZ
 40
2.5
  9
$DIMEXO
 40
0.625
  9
$DIMDLI
 40
3.75
  9
$DIMRND
 40
0.0
  9
$DIMDLE
 40
0.0
  9
$DIMEXE
 40
1.25
  9
$DIMTP
 40
0.0
  9
$DIMTM
 40
0.0
  9
$DIMTXT
 40
2.5
  9
$DIMCEN
 40
2.5
  9
$DIMTSZ
 40
0.0
  9
$DIMTOL
 70
0
  9
$DIMLIM
 70
0
  9
$DIMTIH
 70
0
  9
$DIMTOH
 70
0
  9
$DIMSE1
 70
0
  9
$DIMSE2
 70
0
  9
$DIMTAD
 70
1
  9
$DIMZIN
 70
8
  9
$DIMBLK
  1

  9
$DIMASO
 70
1
  9
$DIMSHO
 70
1
  9
$DIMPOST
  1

  9
$DIMAPOST
  1

  9
$DIMALT
 70
0
  9
$DIMALTD
 70
3
  9
$DIMALTF
 40
0.03937007874
  9
$DIMLFAC
 40
1.0
  9
$DIMTOFL
 70
1
  9
$DIMTVP
 40
0.0
  9
$DIMTIX
 70
0
  9
$DIMSOXD
 70
0
  9
$DIMSAH
 70
0
  9
$DIMBLK1
  1

  9
$DIMBLK2
  1

  9
$DIMSTYLE
  2
ISO-25
  9
$DIMCLRD
 70
0
  9
$DIMCLRE
 70
0
  9
$DIMCLRT
 70
0
  9
$DIMTFAC
 40
1.0
  9
$DIMGAP
 40
0.625
  9
$DIMJUST
 70
0
  9
$DIMSD1
 70
0
  9
$DIMSD2
 70
0
  9
$DIMTOLJ
 70
0
  9
$DIMTZIN
 70
8
  9
$DIMALTZ
 70
0
  9
$DIMALTTZ
 70
0
  9
$DIMUPT
 70
0
  9
$DIMDEC
 70
2
  9
$DIMTDEC
 70
2
  9
$DIMALTU
 70
2
  9
$DIMALTTD
 70
3
  9
$DIMTXSTY
  7
Standard
  9
$DIMAUNIT
 70
0
  9
$DIMADEC
 70
0
  9
$DIMALTRND
 40
0.0
  9
$DIMAZIN
 70
0
  9
$DIMDSEP
 70
44
  9
$DIMATFIT
 70
3
  9
$DIMFRAC
 70
0
  9
$DIMLDRBLK
  1

  9
$DIMLUNIT
 70
2
  9
$DIMLWD
 70
-2
  9
$DIMLWE
 70
-2
  9
$DIMTMOVE
 70
0
  9
$DIMFXL
 40
1.0
  9
$DIMFXLON
 70
0
  9
$DIMJOGANG
 40
0.785398163397
  9
$DIMTFILL
 70
0
  9
$DIMTFILLCLR
 70
0
  9
$DIMARCSYM
 70
0
  9
$DIMLTYPE
  6

  9
$DIMLTEX1
  6

  9
$DIMLTEX2
  6

  9
$DIMTXTDIRECTION
 70
0
  9
$LUNITS
 70
2
  9
$LUPREC
 70
4
  9
$SKETCHINC
 40
1.0
  9
$FILLETRAD
 40
10.0
  9
$AUNITS
 70
0
  9
$AUPREC
 70
2
  9
$MENU
  1
.
  9
$ELEVATION
 40
0.0
  9
$PELEVATION
 40
0.0
  9
$THICKNESS
 40
0.0
  9
$LIMCHECK
 70
0
  9
$CHAMFERA
 40
0.0
  9
$CHAMFERB
 40
0.0
  9
$CHAMFERC
 40
0.0
  9
$CHAMFERD
 40
0.0
  9
$SKPOLY
 70
0
  9
$TDCREATE
 40
2461295.0335069443
  9
$TDUCREATE
 40
2458532.153996898
  9
$TDUPDATE
 40
2461295.0335069443
  9
$TDUUPDATE
 40
2458532.1544311
  9
$TDINDWG
 40
0.0
  9
$TDUSRTIMER
 40
0.0
  9
$USRTIMER
 70
1
  9
$ANGBASE
 50
0.0
  9
$ANGDIR
 70
0
  9
$PDMODE
 70
0
  9
$PDSIZE
 40
0.0
  9
$PLINEWID
 40
0.0
  9
$SPLFRAME
 70
0
  9
$SPLINETYPE
 70
6
  9
$SPLINESEGS
 70
8
  9
$HANDSEED
  5
C2
  9
$SURFTAB1
 70
6
  9
$SURFTAB2
 70
6
  9
$SURFTYPE
 70
6
  9
$SURFU
 70
6
  9
$SURFV
 70
6
  9
$UCSBASE
  2

  9
$UCSNAME
  2

  9
$UCSORG
 10
0.0
 20
0.0
 30
0.0
  9
$UCSXDIR
 10
1.0
 20
0.0
 30
0.0
  9
$UCSYDIR
 10
0.0
 20
1.0
 30
0.0
  9
$UCSORTHOREF
  2

  9
$UCSORTHOVIEW
 70
0
  9
$UCSORGTOP
 10
0.0
 20
0.0
 30
0.0
  9
$UCSORGBOTTOM
 10
0.0
 20
0.0
 30
0.0
  9
$UCSORGLEFT
 10
0.0
 20
0.0
 30
0.0
  9
$UCSORGRIGHT
 10
0.0
 20
0.0
 30
0.0
  9
$UCSORGFRONT
 10
0.0
 20
0.0
 30
0.0
  9
$UCSORGBACK
 10
0.0
 20
0.0
 30
0.0
  9
$PUCSBASE
  2

  9
$PUCSNAME
  2

  9
$PUCSORG
 10
0.0
 20
0.0
 30
0.0
  9
$PUCSXDIR
 10
1.0
 20
0.0
 30
0.0
  9
$PUCSYDIR
 10
0.0
 20
1.0
 30
0.0
  9
$PUCSORTHOREF
  2

  9
$PUCSORTHOVIEW
 70
0
  9
$PUCSORGTOP
 10
0.0
 20
0.0
 30
0.0
  9
$PUCSORGBOTTOM
 10
0.0
 20
0.0
 30
0.0
  9
$PUCSORGLEFT
 10
0.0
 20
0.0
 30
0.0
  9
$PUCSORGRIGHT
 10
0.0
 20
0.0
 30
0.0
  9
$PUCSORGFRONT
 10
0.0
 20
0.0
 30
0.0
  9
$PUCSORGBACK
 10
0.0
 20
0.0
 30
0.0
  9
$USERI1
 70
0
  9
$USERI2
 70
0
  9
$USERI3
 70
0
  9
$USERI4
 70
0
  9
$USERI5
 70
0
  9
$USERR1
 40
0.0
  9
$USERR2
 40
0.0
  9
$USERR3
 40
0.0
  9
$USERR4
 40
0.0
  9
$USERR5
 40
0.0
  9
$WORLDVIEW
 70
1
  9
$SHADEDGE
 70
3
  9
$SHADEDIF
 70
70
  9
$TILEMODE
 70
1
  9
$MAXACTVP
 70
64
  9
$PINSBASE
 10
0.0
 20
0.0
 30
0.0
  9
$PLIMCHECK
 70
0
  9
$PEXTMIN
 10
1e+20
 20
1e+20
 30
1e+20
  9
$PEXTMAX
 10
-1e+20
 20
-1e+20
 30
-1e+20
  9
$PLIMMIN
 10
0.0
 20
0.0
  9
$PLIMMAX
 10
420.0
 20
297.0
  9
$UNITMODE
 70
0
  9
$VISRETAIN
 70
1
  9
$PLINEGEN
 70
0
  9
$PSLTSCALE
 70
1
  9
$TREEDEPTH
 70
3020
  9
$CMLSTYLE
  2
Standard
  9
$CMLJUST
 70
0
  9
$CMLSCALE
 40
20.0
  9
$PROXYGRAPHICS
 70
1
  9
$MEASUREMENT
 70
1
  9
$CELWEIGHT
370
-1
  9
$ENDCAPS
280
0
  9
$JOINSTYLE
280
0
  9
$LWDISPLAY
290
0
  9
$INSUNITS
 70
4
  9
$HYPERLINKBASE
  1

  9
$STYLESHEET
  1

  9
$XEDIT
290
1
  9
$CEPSNTYPE
380
0
  9
$PSTYLEMODE
290
1
  9
$FINGERPRINTGUID
  2
{85A73829-4CC0-419C-8BE5-D84A9B6083FE}
  9
$VERSIONGUID
  2
{01CDD023-9CED-418D-93AA-993CC30429F9}
  9
$EXTNAMES
290
1
  9
$PSVPSCALE
 40
0.0
  9
$OLESTARTUP
290
0
  9
$SORTENTS
280
127
  9
$INDEXCTL
280
0
  9
$HIDETEXT
280
1
  9
$XCLIPFRAME
280
1
  9
$HALOGAP
280
0
  9
$OBSCOLOR
 70
257
  9
$OBSLTYPE
280
0
  9
$INTERSECTIONDISPLAY
280
0
  9
$INTERSECTIONCOLOR
 70
257
  9
$DIMASSOC
280
2
  9
$PROJECTNAME
  1

  9
$CAMERADISPLAY
290
0
  9
$LENSLENGTH
 40
50.0
  9
$CAMERAHEIGHT
 40
0.0
  9
$STEPSPERSEC
 40
24.0
  9
$STEPSIZE
 40
100.0
  9
$3DDWFPREC
 40
2.0
  9
$PSOLWIDTH
 40
0.005
  9
$PSOLHEIGHT
 40
0.08
  9
$LOFTANG1
 40
1.570796326795
  9
$LOFTANG2
 40
1.570796326795
  9
$LOFTMAG1
 40
0.0
  9
$LOFTMAG2
 40
0.0
  9
$LOFTPARAM
 70
7
  9
$LOFTNORMALS
280
1
  9
$LATITUDE
 40
37.795
  9
$LONGITUDE
 40
-122.394
  9
$NORTHDIRECTION
 40
0.0
  9
$TIMEZONE
 70
-8000
  9
$LIGHTGLYPHDISPLAY
280
1
  9
$TILEMODELIGHTSYNCH
280
1
  9
$CMATERIAL
347
20
  9
$SOLIDHIST
280
0
  9
$SHOWHIST
280
1
  9
$DWFFRAME
280
2
  9
$DGNFRAME
280
2
  9
$REALWORLDSCALE
290
1
  9
$INTERFERECOLOR
 62
256
  9
$CSHADOW
280
0
  9
$SHADOWPLANELOCATION
 40
0.0
  0
ENDSEC
  0
SECTION
  2
CLASSES
  0
CLASS
  1
ACDBDICTIONARYWDFLT
  2
AcDbDictionaryWithDefault
  3
ObjectDBX Classes
 90
0
 91
0
280
0
281
0
  0
CLASS
  1
SUN
  2
AcDbSun
  3
SCENEOE
 90
1153
 91
0
280
0
281
0
  0
CLASS
  1
VISUALSTYLE
  2
AcDbVisualStyle
  3
ObjectDBX Classes
 90
4095
 91
0
280
0
281
0
  0
CLASS
  1
MATERIAL
  2
AcDbMaterial
  3
ObjectDBX Classes
 90
1153
 91
0
280
0
281
0
  0
CLASS
  1
SCALE
  2
AcDbScale
  3
ObjectDBX Classes
 90
1153
 91
0
280
0
281
0
  0
CLASS
  1
TABLESTYLE
  2
AcDbTableStyle
  3
ObjectDBX Classes
 90
4095
 91
0
280
0
281
0
  0
CLASS
  1
MLEADERSTYLE
  2
AcDbMLeaderStyle
  3
ACDB_MLEADERSTYLE_CLASS
 90
4095
 91
0
280
0
281
0
  0
CLASS
  1
DICTIONARYVAR
  2
AcDbDictionaryVar
  3
ObjectDBX Classes
 90
0
 91
0
280
0
281
0
  0
CLASS
  1
CELLSTYLEMAP
  2
AcDbCellStyleMap
  3
ObjectDBX Classes
 90
1152
 91
0
280
0
281
0
  0
CLASS
  1
MENTALRAYRENDERSETTINGS
  2
AcDbMentalRayRenderSettings
  3
SCENEOE
 90
1024
 91
0
280
0
281
0
  0
CLASS
  1
ACDBDETAILVIEWSTYLE
  2
AcDbDetailViewStyle
  3
ObjectDBX Classes
 90
1025
 91
0
280
0
281
0
  0
CLASS
  1
ACDBSECTIONVIEWSTYLE
  2
AcDbSectionViewStyle
  3
ObjectDBX Classes
 90
1025
 91
0
280
0
281
0
  0
CLASS
  1
RASTERVARIABLES
  2
AcDbRasterVariables
  3
ISM
 90
0
 91
0
280
0
281
0
  0
CLASS
  1
ACDBPLACEHOLDER
  2
AcDbPlaceHolder
  3
ObjectDBX Classes
 90
0
 91
0
280
0
281
0
  0
CLASS
  1
LAYOUT
  2
AcDbLayout
  3
ObjectDBX Classes
 90
0
 91
0
280
0
281
0
  0
ENDSEC
  0
SECTION
  2
TABLES
  0
TABLE
  2
VPORT
  5
8
330
0
100
AcDbSymbolTable
 70
1
  0
VPORT
  5
BE
330
8
100
AcDbSymbolTableRecord
100
AcDbViewportTableRecord
  2
*Active
 70
0
 10
0.0
 20
0.0
 11
1.0
 21
1.0
 12
29000.0
 22
17000.0
 13
0.0
 23
0.0
 14
0.5
 24
0.5
 15
0.5
 25
0.5
 16
0.0
 26
0.0
 36
1.0
 17
0.0
 27
0.0
 37
0.0
 40
44000.0
 41
1.34
 42
50.0
 43
0.0
 44
0.0
 50
0.0
 51
0.0
 71
0
 72
1000
 73
1
 74
3
 75
0
 76
0
 77
0
 78
0
281
0
 65
1
110
0.0
120
0.0
130
0.0
111
1.0
121
0.0
131
0.0
112
0.0
122
1.0
132
0.0
 79
0
146
0.0
  0
ENDTAB
  0
TABLE
  2
LTYPE
  5
2
330
0
100
AcDbSymbolTable
 70
3
  0
LTYPE
  5
24
330
2
100
AcDbSymbolTableRecord
100
AcDbLinetypeTableRecord
  2
ByBlock
 70
0
  3

 72
65
 73
0
 40
0.0
  0
LTYPE
  5
25
330
2
100
AcDbSymbolTableRecord
100
AcDbLinetypeTableRecord
  2
ByLayer
 70
0
  3

 72
65
 73
0
 40
0.0
  0
LTYPE
  5
26
330
2
100
AcDbSymbolTableRecord
100
AcDbLinetypeTableRecord
  2
Continuous
 70
0
  3

 72
65
 73
0
 40
0.0
  0
ENDTAB
  0
TABLE
  2
LAYER
  5
1
330
0
100
AcDbSymbolTable
 70
7
  0
LAYER
  5
27
330
1
100
AcDbSymbolTableRecord
100
AcDbLayerTableRecord
  2
0
 70
0
 62
7
  6
Continuous
370
-3
390
13
347
21
  0
LAYER
  5
28
330
1
100
AcDbSymbolTableRecord
100
AcDbLayerTableRecord
  2
Defpoints
 70
0
 62
7
  6
Continuous
290
0
370
-3
390
13
347
21
  0
LAYER
  5
31
330
1
100
AcDbSymbolTableRecord
100
AcDbLayerTableRecord
  2
F02_WALLS
 70
0
 62
7
420
12897493
  6
Continuous
370
18
390
13
347
21
  0
LAYER
  5
97
330
1
100
AcDbSymbolTableRecord
100
AcDbLayerTableRecord
  2
F02_PIT
 70
0
 62
7
420
4815495
  6
Continuous
370
18
390
13
347
21
  0
LAYER
  5
99
330
1
100
AcDbSymbolTableRecord
100
AcDbLayerTableRecord
  2
F02_STAIRS
 70
0
 62
7
420
10069169
  6
Continuous
370
18
390
13
347
21
  0
LAYER
  5
B2
330
1
100
AcDbSymbolTableRecord
100
AcDbLayerTableRecord
  2
F02_ROOMS
 70
0
 62
7
420
5264735
  6
Continuous
370
18
390
13
347
21
  0
LAYER
  5
BC
330
1
100
AcDbSymbolTableRecord
100
AcDbLayerTableRecord
  2
ANNOTATION
 70
0
 62
7
420
5264735
  6
Continuous
370
18
390
13
347
21
  0
ENDTAB
  0
TABLE
  2
STYLE
  5
5
330
0
100
AcDbSymbolTable
 70
2
  0
STYLE
  5
29
330
5
100
AcDbSymbolTableRecord
100
AcDbTextStyleTableRecord
  2
Standard
 70
0
 40
0.0
 41
1.0
 50
0.0
 71
0
 42
2.5
  3
txt
  4

  0
STYLE
  5
2F
330
5
100
AcDbSymbolTableRecord
100
AcDbTextStyleTableRecord
  2
JAPANESE
 70
0
 40
0.0
 41
1.0
 50
0.0
 71
0
 42
2.5
  3
msgothic.ttc
  4

  0
ENDTAB
  0
TABLE
  2
VIEW
  5
7
330
0
100
AcDbSymbolTable
 70
0
  0
ENDTAB
  0
TABLE
  2
UCS
  5
6
330
0
100
AcDbSymbolTable
 70
0
  0
ENDTAB
  0
TABLE
  2
APPID
  5
3
330
0
100
AcDbSymbolTable
 70
4
  0
APPID
  5
2A
330
3
100
AcDbSymbolTableRecord
100
AcDbRegAppTableRecord
  2
ACAD
 70
0
  0
APPID
  5
30
330
3
100
AcDbSymbolTableRecord
100
AcDbRegAppTableRecord
  2
SHOCHIKUZA
 70
0
  0
APPID
  5
BF
330
3
100
AcDbSymbolTableRecord
100
AcDbRegAppTableRecord
  2
HATCHBACKGROUNDCOLOR
 70
0
  0
APPID
  5
C0
330
3
100
AcDbSymbolTableRecord
100
AcDbRegAppTableRecord
  2
EZDXF
 70
0
  0
ENDTAB
  0
TABLE
  2
DIMSTYLE
  5
4
330
0
100
AcDbSymbolTable
 70
1
100
AcDbDimStyleTable
  0
DIMSTYLE
105
2B
330
4
100
AcDbSymbolTableRecord
100
AcDbDimStyleTableRecord
  2
Standard
 70
0
 40
1.0
 41
2.5
 42
0.625
 43
3.75
 44
1.25
 45
0.0
 46
0.0
 47
0.0
 48
0.0
 49
2.5
140
2.5
141
2.5
142
0.0
143
0.03937007874
144
1.0
145
0.0
146
1.0
147
0.625
148
0.0
 69
0
 70
0
 71
0
 72
0
 73
0
 74
0
 75
0
 76
0
 77
1
 78
8
 79
3
170
0
171
3
172
1
173
0
174
0
175
0
176
0
177
0
178
0
179
2
271
2
272
2
273
2
274
3
275
0
276
0
277
2
278
44
279
0
280
0
281
0
282
0
283
0
284
8
285
0
286
0
288
0
289
3
290
0
371
-2
372
-2
  0
ENDTAB
  0
TABLE
  2
BLOCK_RECORD
  5
9
330
0
100
AcDbSymbolTable
 70
2
  0
BLOCK_RECORD
  5
17
330
9
100
AcDbSymbolTableRecord
100
AcDbBlockTableRecord
  2
*Model_Space
340
1A
 70
0
280
1
281
0
  0
BLOCK_RECORD
  5
1B
330
9
100
AcDbSymbolTableRecord
100
AcDbBlockTableRecord
  2
*Paper_Space
340
1E
 70
0
280
1
281
0
  0
ENDTAB
  0
ENDSEC
  0
SECTION
  2
BLOCKS
  0
BLOCK
  5
18
330
17
100
AcDbEntity
  8
0
100
AcDbBlockBegin
  2
*Model_Space
 70
0
 10
0.0
 20
0.0
 30
0.0
  3
*Model_Space
  1

  0
ENDBLK
  5
19
330
17
100
AcDbEntity
  8
0
100
AcDbBlockEnd
  0
BLOCK
  5
1C
330
1B
100
AcDbEntity
  8
0
100
AcDbBlockBegin
  2
*Paper_Space
 70
0
 10
0.0
 20
0.0
 30
0.0
  3
*Paper_Space
  1

  0
ENDBLK
  5
1D
330
1B
100
AcDbEntity
  8
0
100
AcDbBlockEnd
  0
ENDSEC
  0
SECTION
  2
ENTITIES
  0
LWPOLYLINE
  5
32
330
17
100
AcDbEntity
  8
F02_WALLS
100
AcDbPolyline
 90
5
 70
1
 10
6019.747375911761
 20
35191.895156941
 10
53034.299946628715
 20
35191.895156941
 10
53034.299946628715
 20
35471.895156941
 10
6019.747375911761
 20
35471.895156941
 10
6019.747375911761
 20
35191.895156941
  0
LWPOLYLINE
  5
33
330
17
100
AcDbEntity
  8
F02_WALLS
100
AcDbPolyline
 90
5
 70
1
 10
52894.299946628715
 20
35331.895156941
 10
52894.299946628715
 20
32592.924172149713
 10
53174.299946628715
 20
32592.924172149713
 10
53174.299946628715
 20
35331.895156941
 10
52894.299946628715
 20
35331.895156941
  0
LWPOLYLINE
  5
34
330
17
100
AcDbEntity
  8
F02_WALLS
100
AcDbPolyline
 90
5
 70
1
 10
53034.299946628715
 20
32452.924172149713
 10
55083.757338551855
 20
32452.924172149713
 10
55083.757338551855
 20
32732.924172149713
 10
53034.299946628715
 20
32732.924172149713
 10
53034.299946628715
 20
32452.924172149713
  0
LWPOLYLINE
  5
35
330
17
100
AcDbEntity
  8
F02_WALLS
100
AcDbPolyline
 90
5
 70
1
 10
54943.757338551855
 20
32592.924172149713
 10
54943.757338551855
 20
23803.688922446334
 10
55223.757338551855
 20
23803.688922446334
 10
55223.757338551855
 20
32592.924172149713
 10
54943.757338551855
 20
32592.924172149713
  0
LWPOLYLINE
  5
36
330
17
100
AcDbEntity
  8
F02_WALLS
100
AcDbPolyline
 90
5
 70
1
 10
54943.757338551855
 20
11866.681048430592
 10
54943.757338551855
 20
4099.449897529934
 10
55223.757338551855
 20
4099.449897529934
 10
55223.757338551855
 20
11866.681048430592
 10
54943.757338551855
 20
11866.681048430592
  0
LWPOLYLINE
  5
37
330
17
100
AcDbEntity
  8
F02_WALLS
100
AcDbPolyline
 90
5
 70
1
 10
55083.757338551855
 20
4239.449897529934
 10
53321.223981497955
 20
4239.449897529934
 10
53321.223981497955
 20
3959.449897529934
 10
55083.757338551855
 20
3959.449897529934
 10
55083.757338551855
 20
4239.449897529934
  0
LWPOLYLINE
  5
38
330
17
100
AcDbEntity
  8
F02_WALLS
100
AcDbPolyline
 90
5
 70
1
 10
53181.223981497955
 20
4099.449897529934
 10
53181.223981497955
 20
134.07399417538315
 10
53461.223981497955
 20
134.07399417538315
 10
53461.223981497955
 20
4099.449897529934
 10
53181.223981497955
 20
4099.449897529934
  0
LWPOLYLINE
  5
39
330
17
100
AcDbEntity
  8
F02_WALLS
100
AcDbPolyline
 90
5
 70
1
 10
53321.223981497955
 20
274.0739941753832
 10
9708.77068137342
 20
274.0739941753832
 10
9708.77068137342
 20
-5.926005824616851
 10
53321.223981497955
 20
-5.926005824616851
 10
53321.223981497955
 20
274.0739941753832
  0
LWPOLYLINE
  5
3A
330
17
100
AcDbEntity
  8
F02_WALLS
100
AcDbPolyline
 90
5
 70
1
 10
9800.388069059762
 20
239.93359115898562
 10
4840.70118060575
 20
4532.350806130406
 10
4657.466405233069
 20
4320.631612163202
 10
9617.153293687079
 20
28.214397191780662
 10
9800.388069059762
 20
239.93359115898562
  0
LWPOLYLINE
  5
3B
330
17
100
AcDbEntity
  8
F02_WALLS
100
AcDbPolyline
 90
5
 70
1
 10
4889.014454514312
 20
4430.896881128784
 10
4356.155532614295
 20
21355.28475730179
 10
4076.29420942449
 20
21346.473413337833
 10
4609.153131324507
 20
4422.085537164824
 10
4889.014454514312
 20
4430.896881128784
  0
LWPOLYLINE
  5
3C
330
17
100
AcDbEntity
  8
F02_WALLS
100
AcDbPolyline
 90
5
 70
1
 10
4315.1870133449165
 20
22131.294947549282
 10
4028.262978475676
 20
33005.4185588102
 10
3748.360398147702
 20
32998.033064531395
 10
4035.2844330169432
 20
22123.909453270473
 10
4315.1870133449165
 20
22131.294947549282
  0
LWPOLYLINE
  5
3D
330
17
100
AcDbEntity
  8
F02_WALLS
100
AcDbPolyline
 90
5
 70
1
 10
3991.6137489115154
 20
32907.23409628881
 10
6123.049436511587
 20
35237.403441559014
 10
5916.445315311935
 20
35426.38687232298
 10
3785.009627711863
 20
33096.21752705278
 10
3991.6137489115154
 20
32907.23409628881
  0
LWPOLYLINE
  5
3E
330
17
100
AcDbEntity
  8
F02_WALLS
100
AcDbPolyline
 90
5
 70
1
 10
6821.508628357944
 20
35168.37450113257
 10
6821.508628357944
 20
29567.792039693668
 10
7021.508628357944
 20
29567.792039693668
 10
7021.508628357944
 20
35168.37450113257
 10
6821.508628357944
 20
35168.37450113257
  0
LWPOLYLINE
  5
3F
330
17
100
AcDbEntity
  8
F02_WALLS
100
AcDbPolyline
 90
5
 70
1
 10
6206.671410781
 20
29486.03171178945
 10
6206.671410781
 20
27114.982202567146
 10
6406.671410781
 20
27114.982202567146
 10
6406.671410781
 20
29486.03171178945
 10
6206.671410781
 20
29486.03171178945
  0
LWPOLYLINE
  5
40
330
17
100
AcDbEntity
  8
F02_WALLS
100
AcDbPolyline
 90
5
 70
1
 10
8192.172211350293
 20
26974.102038615038
 10
10692.51022949653
 20
26974.102038615038
 10
10692.51022949653
 20
27174.102038615038
 10
8192.172211350293
 20
27174.102038615038
 10
8192.172211350293
 20
26974.102038615038
  0
LWPOLYLINE
  5
41
330
17
100
AcDbEntity
  8
F02_WALLS
100
AcDbPolyline
 90
5
 70
1
 10
10792.51022949653
 20
27074.102038615038
 10
10792.51022949653
 20
33328.76712328767
 10
10592.51022949653
 20
33328.76712328767
 10
10592.51022949653
 20
27074.102038615038
 10
10792.51022949653
 20
27074.102038615038
  0
LWPOLYLINE
  5
42
330
17
100
AcDbEntity
  8
F02_WALLS
100
AcDbPolyline
 90
5
 70
1
 10
10692.51022949653
 20
33228.76712328767
 10
13520.761430350472
 20
33228.76712328767
 10
13520.761430350472
 20
33428.76712328767
 10
10692.51022949653
 20
33428.76712328767
 10
10692.51022949653
 20
33228.76712328767
  0
LWPOLYLINE
  5
43
330
17
100
AcDbEntity
  8
F02_WALLS
100
AcDbPolyline
 90
5
 70
1
 10
13420.761430350472
 20
33328.76712328767
 10
13420.761430350472
 20
27114.982202567146
 10
13620.761430350472
 20
27114.982202567146
 10
13620.761430350472
 20
33328.76712328767
 10
13420.761430350472
 20
33328.76712328767
  0
LWPOLYLINE
  5
44
330
17
100
AcDbEntity
  8
F02_WALLS
100
AcDbPolyline
 90
5
 70
1
 10
13520.761430350472
 20
27214.982202567146
 10
11799.21722113503
 20
27214.982202567146
 10
11799.21722113503
 20
27014.982202567146
 10
13520.761430350472
 20
27014.982202567146
 10
13520.761430350472
 20
27214.982202567146
  0
LWPOLYLINE
  5
45
330
17
100
AcDbEntity
  8
F02_WALLS
100
AcDbPolyline
 90
5
 70
1
 10
15037.3599003736
 20
26974.102038615038
 10
17086.817292296742
 20
26974.102038615038
 10
17086.817292296742
 20
27174.102038615038
 10
15037.3599003736
 20
27174.102038615038
 10
15037.3599003736
 20
26974.102038615038
  0
LWPOLYLINE
  5
46
330
17
100
AcDbEntity
  8
F02_WALLS
100
AcDbPolyline
 90
5
 70
1
 10
17186.817292296742
 20
27074.102038615038
 10
17186.817292296742
 20
31816.201057059643
 10
16986.817292296742
 20
31816.201057059643
 10
16986.817292296742
 20
27074.102038615038
 10
17186.817292296742
 20
27074.102038615038
  0
LWPOLYLINE
  5
47
330
17
100
AcDbEntity
  8
F02_WALLS
100
AcDbPolyline
 90
5
 70
1
 10
17086.817292296742
 20
31716.201057059643
 10
19669.133606119907
 20
31716.201057059643
 10
19669.133606119907
 20
31916.201057059643
 10
17086.817292296742
 20
31916.201057059643
 10
17086.817292296742
 20
31716.201057059643
  0
LWPOLYLINE
  5
48
330
17
100
AcDbEntity
  8
F02_WALLS
100
AcDbPolyline
 90
5
 70
1
 10
16986.817292296742
 20
35250.13482903678
 10
16986.817292296742
 20
31897.961384963863
 10
17186.817292296742
 20
31897.961384963863
 10
17186.817292296742
 20
35250.13482903678
 10
16986.817292296742
 20
35250.13482903678
  0
LWPOLYLINE
  5
49
330
17
100
AcDbEntity
  8
F02_WALLS
100
AcDbPolyline
 90
5
 70
1
 10
21864.52588507383
 20
35250.13482903678
 10
21864.52588507383
 20
31530.039909394884
 10
22064.52588507383
 20
31530.039909394884
 10
22064.52588507383
 20
35250.13482903678
 10
21864.52588507383
 20
35250.13482903678
  0
LWPOLYLINE
  5
4A
330
17
100
AcDbEntity
  8
F02_WALLS
100
AcDbPolyline
 90
5
 70
1
 10
21964.52588507383
 20
31430.039909394884
 10
25448.603451343173
 20
31430.039909394884
 10
25448.603451343173
 20
31630.039909394884
 10
21964.52588507383
 20
31630.039909394884
 10
21964.52588507383
 20
31430.039909394884
  0
LWPOLYLINE
  5
4B
330
17
100
AcDbEntity
  8
F02_WALLS
100
AcDbPolyline
 90
5
 70
1
 10
25548.603451343173
 20
31530.039909394884
 10
25548.603451343173
 20
35209.25466508467
 10
25348.603451343173
 20
35209.25466508467
 10
25348.603451343173
 20
31530.039909394884
 10
25548.603451343173
 20
31530.039909394884
  0
LWPOLYLINE
  5
4C
330
17
100
AcDbEntity
  8
F02_WALLS
100
AcDbPolyline
 90
5
 70
1
 10
26145.418964597047
 20
31511.8002372991
 10
33195.552392812664
 20
31511.8002372991
 10
33195.552392812664
 20
31711.8002372991
 10
26145.418964597047
 20
31711.8002372991
 10
26145.418964597047
 20
31511.8002372991
  0
LWPOLYLINE
  5
4D
330
17
100
AcDbEntity
  8
F02_WALLS
100
AcDbPolyline
 90
5
 70
1
 10
33295.552392812664
 20
31611.8002372991
 10
33295.552392812664
 20
35291.01499298889
 10
33095.552392812664
 20
35291.01499298889
 10
33095.552392812664
 20
31611.8002372991
 10
33295.552392812664
 20
31611.8002372991
  0
LWPOLYLINE
  5
4E
330
17
100
AcDbEntity
  8
F02_WALLS
100
AcDbPolyline
 90
5
 70
1
 10
33974.346201743465
 20
35150.13482903678
 10
35941.82529798968
 20
35150.13482903678
 10
35941.82529798968
 20
35350.13482903678
 10
33974.346201743465
 20
35350.13482903678
 10
33974.346201743465
 20
35150.13482903678
  0
LWPOLYLINE
  5
4F
330
17
100
AcDbEntity
  8
F02_WALLS
100
AcDbPolyline
 90
5
 70
1
 10
35841.82529798968
 20
35250.13482903678
 10
35841.82529798968
 20
32347.643188437058
 10
36041.82529798968
 20
32347.643188437058
 10
36041.82529798968
 20
35250.13482903678
 10
35841.82529798968
 20
35250.13482903678
  0
LWPOLYLINE
  5
50
330
17
100
AcDbEntity
  8
F02_WALLS
100
AcDbPolyline
 90
5
 70
1
 10
35941.82529798968
 20
32447.643188437058
 10
34015.335349581925
 20
32447.643188437058
 10
34015.335349581925
 20
32247.643188437058
 10
35941.82529798968
 20
32247.643188437058
 10
35941.82529798968
 20
32447.643188437058
  0
LWPOLYLINE
  5
51
330
17
100
AcDbEntity
  8
F02_WALLS
100
AcDbPolyline
 90
5
 70
1
 10
34115.335349581925
 20
32347.643188437058
 10
34115.335349581925
 20
35250.13482903678
 10
33915.335349581925
 20
35250.13482903678
 10
33915.335349581925
 20
32347.643188437058
 10
34115.335349581925
 20
32347.643188437058
  0
LWPOLYLINE
  5
52
330
17
100
AcDbEntity
  8
F02_WALLS
100
AcDbPolyline
 90
5
 70
1
 10
39425.90286425903
 20
33596.68859885665
 10
44344.60060487457
 20
33596.68859885665
 10
44344.60060487457
 20
33796.68859885665
 10
39425.90286425903
 20
33796.68859885665
 10
39425.90286425903
 20
33596.68859885665
  0
LWPOLYLINE
  5
53
330
17
100
AcDbEntity
  8
F02_WALLS
100
AcDbPolyline
 90
5
 70
1
 10
44244.60060487457
 20
33696.68859885665
 10
44244.60060487457
 20
29281.630892028905
 10
44444.60060487457
 20
29281.630892028905
 10
44444.60060487457
 20
33696.68859885665
 10
44244.60060487457
 20
33696.68859885665
  0
LWPOLYLINE
  5
54
330
17
100
AcDbEntity
  8
F02_WALLS
100
AcDbPolyline
 90
5
 70
1
 10
44344.60060487457
 20
29381.630892028905
 10
39425.90286425903
 20
29381.630892028905
 10
39425.90286425903
 20
29181.630892028905
 10
44344.60060487457
 20
29181.630892028905
 10
44344.60060487457
 20
29381.630892028905
  0
LWPOLYLINE
  5
55
330
17
100
AcDbEntity
  8
F02_WALLS
100
AcDbPolyline
 90
5
 70
1
 10
39525.90286425903
 20
29281.630892028905
 10
39525.90286425903
 20
30099.23417107108
 10
39325.90286425903
 20
30099.23417107108
 10
39325.90286425903
 20
29281.630892028905
 10
39525.90286425903
 20
29281.630892028905
  0
LWPOLYLINE
  5
56
330
17
100
AcDbEntity
  8
F02_WALLS
100
AcDbPolyline
 90
5
 70
1
 10
39425.90286425903
 20
30199.23417107108
 10
37253.47802882049
 20
30199.23417107108
 10
37253.47802882049
 20
29999.23417107108
 10
39425.90286425903
 20
29999.23417107108
 10
39425.90286425903
 20
30199.23417107108
  0
LWPOLYLINE
  5
57
330
17
100
AcDbEntity
  8
F02_WALLS
100
AcDbPolyline
 90
5
 70
1
 10
35800.83615015122
 20
33574.04810700032
 10
35800.83615015122
 20
31570.92007334699
 10
36000.83615015122
 20
31570.92007334699
 10
36000.83615015122
 20
33574.04810700032
 10
35800.83615015122
 20
33574.04810700032
  0
LWPOLYLINE
  5
58
330
17
100
AcDbEntity
  8
F02_WALLS
100
AcDbPolyline
 90
5
 70
1
 10
35900.83615015122
 20
31470.92007334699
 10
39138.97882938979
 20
31470.92007334699
 10
39138.97882938979
 20
31670.92007334699
 10
35900.83615015122
 20
31670.92007334699
 10
35900.83615015122
 20
31470.92007334699
  0
LWPOLYLINE
  5
59
330
17
100
AcDbEntity
  8
F02_WALLS
100
AcDbPolyline
 90
5
 70
1
 10
35941.82529798968
 20
28404.907776938842
 10
37499.412915851266
 20
28404.907776938842
 10
37499.412915851266
 20
28604.907776938842
 10
35941.82529798968
 20
28604.907776938842
 10
35941.82529798968
 20
28404.907776938842
  0
LWPOLYLINE
  5
5A
330
17
100
AcDbEntity
  8
F02_WALLS
100
AcDbPolyline
 90
5
 70
1
 10
35800.83615015122
 20
28504.907776938842
 10
35800.83615015122
 20
24866.573185201163
 10
36000.83615015122
 20
24866.573185201163
 10
36000.83615015122
 20
28504.907776938842
 10
35800.83615015122
 20
28504.907776938842
  0
LWPOLYLINE
  5
5B
330
17
100
AcDbEntity
  8
F02_WALLS
100
AcDbPolyline
 90
5
 70
1
 10
35900.83615015122
 20
24766.573185201163
 10
47582.74328411315
 20
24766.573185201163
 10
47582.74328411315
 20
24966.573185201163
 10
35900.83615015122
 20
24966.573185201163
 10
35900.83615015122
 20
24766.573185201163
  0
LWPOLYLINE
  5
5C
330
17
100
AcDbEntity
  8
F02_WALLS
100
AcDbPolyline
 90
5
 70
1
 10
47682.74328411315
 20
24866.573185201163
 10
47682.74328411315
 20
27319.38302232769
 10
47482.74328411315
 20
27319.38302232769
 10
47482.74328411315
 20
24866.573185201163
 10
47682.74328411315
 20
24866.573185201163
  0
LWPOLYLINE
  5
5D
330
17
100
AcDbEntity
  8
F02_WALLS
100
AcDbPolyline
 90
5
 70
1
 10
44900.426970289984
 20
31325.63908963434
 10
44900.426970289984
 20
27401.143350231905
 10
45100.426970289984
 20
27401.143350231905
 10
45100.426970289984
 20
31325.63908963434
 10
44900.426970289984
 20
31325.63908963434
  0
LWPOLYLINE
  5
5E
330
17
100
AcDbEntity
  8
F02_WALLS
100
AcDbPolyline
 90
5
 70
1
 10
45000.426970289984
 20
27301.143350231905
 10
46230.101405443864
 20
27301.143350231905
 10
46230.101405443864
 20
27501.143350231905
 10
45000.426970289984
 20
27501.143350231905
 10
45000.426970289984
 20
27301.143350231905
  0
LWPOLYLINE
  5
5F
330
17
100
AcDbEntity
  8
F02_WALLS
100
AcDbPolyline
 90
5
 70
1
 10
47682.74328411315
 20
30221.874662927406
 10
47682.74328411315
 20
31325.63908963434
 10
47482.74328411315
 20
31325.63908963434
 10
47482.74328411315
 20
30221.874662927406
 10
47682.74328411315
 20
30221.874662927406
  0
LWPOLYLINE
  5
60
330
17
100
AcDbEntity
  8
F02_WALLS
100
AcDbPolyline
 90
5
 70
1
 10
45310.31844867462
 20
35127.494337180455
 10
45310.31844867462
 20
32388.523352389166
 10
45510.31844867462
 20
32388.523352389166
 10
45510.31844867462
 20
35127.494337180455
 10
45310.31844867462
 20
35127.494337180455
  0
LWPOLYLINE
  5
61
330
17
100
AcDbEntity
  8
F02_WALLS
100
AcDbPolyline
 90
5
 70
1
 10
18767.372353673723
 20
29345.15154783734
 10
25407.614303504713
 20
29345.15154783734
 10
25407.614303504713
 20
29545.15154783734
 10
18767.372353673723
 20
29545.15154783734
 10
18767.372353673723
 20
29345.15154783734
  0
LWPOLYLINE
  5
62
330
17
100
AcDbEntity
  8
F02_WALLS
100
AcDbPolyline
 90
5
 70
1
 10
25307.614303504713
 20
29445.15154783734
 10
25307.614303504713
 20
24866.573185201163
 10
25507.614303504713
 20
24866.573185201163
 10
25507.614303504713
 20
29445.15154783734
 10
25307.614303504713
 20
29445.15154783734
  0
LWPOLYLINE
  5
63
330
17
100
AcDbEntity
  8
F02_WALLS
100
AcDbPolyline
 90
5
 70
1
 10
25407.614303504713
 20
24966.573185201163
 10
18767.372353673723
 20
24966.573185201163
 10
18767.372353673723
 20
24766.573185201163
 10
25407.614303504713
 20
24766.573185201163
 10
25407.614303504713
 20
24966.573185201163
  0
LWPOLYLINE
  5
64
330
17
100
AcDbEntity
  8
F02_WALLS
100
AcDbPolyline
 90
5
 70
1
 10
18867.372353673723
 20
24866.573185201163
 10
18867.372353673723
 20
29445.15154783734
 10
18667.372353673723
 20
29445.15154783734
 10
18667.372353673723
 20
24866.573185201163
 10
18867.372353673723
 20
24866.573185201163
  0
LWPOLYLINE
  5
65
330
17
100
AcDbEntity
  8
F02_WALLS
100
AcDbPolyline
 90
5
 70
1
 10
20921.77548478918
 20
24743.932693344836
 10
20921.77548478918
 20
12684.284327472767
 10
21121.77548478918
 20
12684.284327472767
 10
21121.77548478918
 20
24743.932693344836
 10
20921.77548478918
 20
24743.932693344836
  0
LWPOLYLINE
  5
66
330
17
100
AcDbEntity
  8
F02_WALLS
100
AcDbPolyline
 90
5
 70
1
 10
21021.77548478918
 20
12584.284327472767
 10
25448.603451343173
 20
12584.284327472767
 10
25448.603451343173
 20
12784.284327472767
 10
21021.77548478918
 20
12784.284327472767
 10
21021.77548478918
 20
12584.284327472767
  0
LWPOLYLINE
  5
67
330
17
100
AcDbEntity
  8
F02_WALLS
100
AcDbPolyline
 90
5
 70
1
 10
25548.603451343173
 20
12684.284327472767
 10
25548.603451343173
 20
24703.052529392728
 10
25348.603451343173
 20
24703.052529392728
 10
25348.603451343173
 20
12684.284327472767
 10
25548.603451343173
 20
12684.284327472767
  0
LWPOLYLINE
  5
68
330
17
100
AcDbEntity
  8
F02_WALLS
100
AcDbPolyline
 90
5
 70
1
 10
20120.014232343
 20
23004.325315499947
 10
18808.361501512187
 20
23004.325315499947
 10
18808.361501512187
 20
22804.325315499947
 10
20120.014232343
 20
22804.325315499947
 10
20120.014232343
 20
23004.325315499947
  0
LWPOLYLINE
  5
69
330
17
100
AcDbEntity
  8
F02_WALLS
100
AcDbPolyline
 90
5
 70
1
 10
27029.158512720158
 20
28627.54826879517
 10
27029.158512720158
 20
6020.817603279046
 10
27229.158512720158
 20
6020.817603279046
 10
27229.158512720158
 20
28627.54826879517
 10
27029.158512720158
 20
28627.54826879517
  0
LWPOLYLINE
  5
6A
330
17
100
AcDbEntity
  8
F02_WALLS
100
AcDbPolyline
 90
5
 70
1
 10
27129.158512720158
 20
5920.817603279046
 10
33851.37875822807
 20
5920.817603279046
 10
33851.37875822807
 20
6120.817603279046
 10
27129.158512720158
 20
6120.817603279046
 10
27129.158512720158
 20
5920.817603279046
  0
LWPOLYLINE
  5
6B
330
17
100
AcDbEntity
  8
F02_WALLS
100
AcDbPolyline
 90
5
 70
1
 10
33951.37875822807
 20
6020.817603279046
 10
33951.37875822807
 20
6838.420882321222
 10
33751.37875822807
 20
6838.420882321222
 10
33751.37875822807
 20
6020.817603279046
 10
33951.37875822807
 20
6020.817603279046
  0
LWPOLYLINE
  5
6C
330
17
100
AcDbEntity
  8
F02_WALLS
100
AcDbPolyline
 90
5
 70
1
 10
28563.77868706636
 20
28609.308596699386
 10
33605.4438711973
 20
28609.308596699386
 10
33605.4438711973
 20
28809.308596699386
 10
28563.77868706636
 20
28809.308596699386
 10
28563.77868706636
 20
28609.308596699386
  0
LWPOLYLINE
  5
6D
330
17
100
AcDbEntity
  8
F02_WALLS
100
AcDbPolyline
 90
5
 70
1
 10
31742.91051414339
 20
24866.573185201163
 10
31742.91051414339
 20
10435.875310106785
 10
31942.91051414339
 20
10435.875310106785
 10
31942.91051414339
 20
24866.573185201163
 10
31742.91051414339
 20
24866.573185201163
  0
LWPOLYLINE
  5
6E
330
17
100
AcDbEntity
  8
F02_WALLS
100
AcDbPolyline
 90
5
 70
1
 10
27129.158512720158
 20
24766.573185201163
 10
28563.77868706636
 20
24766.573185201163
 10
28563.77868706636
 20
24966.573185201163
 10
27129.158512720158
 20
24966.573185201163
 10
27129.158512720158
 20
24766.573185201163
  0
LWPOLYLINE
  5
6F
330
17
100
AcDbEntity
  8
F02_WALLS
100
AcDbPolyline
 90
5
 70
1
 10
30203.344600604876
 20
24766.573185201163
 10
31801.921366304923
 20
24766.573185201163
 10
31801.921366304923
 20
24966.573185201163
 10
30203.344600604876
 20
24966.573185201163
 10
30203.344600604876
 20
24766.573185201163
  0
LWPOLYLINE
  5
70
330
17
100
AcDbEntity
  8
F02_WALLS
100
AcDbPolyline
 90
5
 70
1
 10
36082.814445828146
 20
9168.590227591412
 10
36082.814445828146
 20
10435.875310106785
 10
35882.814445828146
 20
10435.875310106785
 10
35882.814445828146
 20
9168.590227591412
 10
36082.814445828146
 20
9168.590227591412
  0
LWPOLYLINE
  5
71
330
17
100
AcDbEntity
  8
F02_WALLS
100
AcDbPolyline
 90
5
 70
1
 10
35982.814445828146
 20
10335.875310106785
 10
43278.882761074536
 20
10335.875310106785
 10
43278.882761074536
 20
10535.875310106785
 10
35982.814445828146
 20
10535.875310106785
 10
35982.814445828146
 20
10335.875310106785
  0
LWPOLYLINE
  5
72
330
17
100
AcDbEntity
  8
F02_WALLS
100
AcDbPolyline
 90
5
 70
1
 10
43178.882761074536
 20
10435.875310106785
 10
43178.882761074536
 20
6020.817603279046
 10
43378.882761074536
 20
6020.817603279046
 10
43378.882761074536
 20
10435.875310106785
 10
43178.882761074536
 20
10435.875310106785
  0
LWPOLYLINE
  5
73
330
17
100
AcDbEntity
  8
F02_WALLS
100
AcDbPolyline
 90
5
 70
1
 10
43278.882761074536
 20
6120.817603279046
 10
36023.803593666606
 20
6120.817603279046
 10
36023.803593666606
 20
5920.817603279046
 10
43278.882761074536
 20
5920.817603279046
 10
43278.882761074536
 20
6120.817603279046
  0
LWPOLYLINE
  5
74
330
17
100
AcDbEntity
  8
F02_WALLS
100
AcDbPolyline
 90
5
 70
1
 10
36123.803593666606
 20
6020.817603279046
 10
36123.803593666606
 20
7247.2225218423
 10
35923.803593666606
 20
7247.2225218423
 10
35923.803593666606
 20
6020.817603279046
 10
36123.803593666606
 20
6020.817603279046
  0
LWPOLYLINE
  5
75
330
17
100
AcDbEntity
  8
F02_WALLS
100
AcDbPolyline
 90
5
 70
1
 10
45187.351005159224
 20
10272.35465429835
 10
45187.351005159224
 20
4344.730881242586
 10
45387.351005159224
 20
4344.730881242586
 10
45387.351005159224
 20
10272.35465429835
 10
45187.351005159224
 20
10272.35465429835
  0
LWPOLYLINE
  5
76
330
17
100
AcDbEntity
  8
F02_WALLS
100
AcDbPolyline
 90
5
 70
1
 10
45287.351005159224
 20
4244.730881242586
 10
47582.74328411315
 20
4244.730881242586
 10
47582.74328411315
 20
4444.730881242586
 10
45287.351005159224
 20
4444.730881242586
 10
45287.351005159224
 20
4244.730881242586
  0
LWPOLYLINE
  5
77
330
17
100
AcDbEntity
  8
F02_WALLS
100
AcDbPolyline
 90
5
 70
1
 10
47682.74328411315
 20
4344.730881242586
 10
47682.74328411315
 20
9209.470391543522
 10
47482.74328411315
 20
9209.470391543522
 10
47482.74328411315
 20
4344.730881242586
 10
47682.74328411315
 20
4344.730881242586
  0
LWPOLYLINE
  5
78
330
17
100
AcDbEntity
  8
F02_WALLS
100
AcDbPolyline
 90
5
 70
1
 10
50188.02704145169
 20
28545.78794089095
 10
50188.02704145169
 20
24907.45334915327
 10
50388.02704145169
 20
24907.45334915327
 10
50388.02704145169
 20
28545.78794089095
 10
50188.02704145169
 20
28545.78794089095
  0
LWPOLYLINE
  5
79
330
17
100
AcDbEntity
  8
F02_WALLS
100
AcDbPolyline
 90
5
 70
1
 10
50288.02704145169
 20
24807.45334915327
 10
54632.87671232877
 20
24807.45334915327
 10
54632.87671232877
 20
25007.45334915327
 10
50288.02704145169
 20
25007.45334915327
 10
50288.02704145169
 20
24807.45334915327
  0
LWPOLYLINE
  5
7A
330
17
100
AcDbEntity
  8
F02_WALLS
100
AcDbPolyline
 90
5
 70
1
 10
54732.87671232877
 20
24907.45334915327
 10
54732.87671232877
 20
30548.915974544278
 10
54532.87671232877
 20
30548.915974544278
 10
54532.87671232877
 20
24907.45334915327
 10
54732.87671232877
 20
24907.45334915327
  0
LWPOLYLINE
  5
7B
330
17
100
AcDbEntity
  8
F02_WALLS
100
AcDbPolyline
 90
5
 70
1
 10
54632.87671232877
 20
30648.915974544278
 10
50697.91851983633
 20
30648.915974544278
 10
50697.91851983633
 20
30448.915974544278
 10
54632.87671232877
 20
30448.915974544278
 10
54632.87671232877
 20
30648.915974544278
  0
LWPOLYLINE
  5
7C
330
17
100
AcDbEntity
  8
F02_WALLS
100
AcDbPolyline
 90
5
 70
1
 10
50247.03789361324
 20
10335.875310106785
 10
54632.87671232877
 20
10335.875310106785
 10
54632.87671232877
 20
10535.875310106785
 10
50247.03789361324
 20
10535.875310106785
 10
50247.03789361324
 20
10335.875310106785
  0
LWPOLYLINE
  5
7D
330
17
100
AcDbEntity
  8
F02_WALLS
100
AcDbPolyline
 90
5
 70
1
 10
54532.87671232877
 20
10435.875310106785
 10
54532.87671232877
 20
4671.7721928594565
 10
54732.87671232877
 20
4671.7721928594565
 10
54732.87671232877
 20
10435.875310106785
 10
54532.87671232877
 20
10435.875310106785
  0
LWPOLYLINE
  5
7E
330
17
100
AcDbEntity
  8
F02_WALLS
100
AcDbPolyline
 90
5
 70
1
 10
54632.87671232877
 20
4771.7721928594565
 10
50247.03789361324
 20
4771.7721928594565
 10
50247.03789361324
 20
4571.7721928594565
 10
54632.87671232877
 20
4571.7721928594565
 10
54632.87671232877
 20
4771.7721928594565
  0
LWPOLYLINE
  5
7F
330
17
100
AcDbEntity
  8
F02_WALLS
100
AcDbPolyline
 90
5
 70
1
 10
50347.03789361324
 20
4671.7721928594565
 10
50347.03789361324
 20
6306.978750943807
 10
50147.03789361324
 20
6306.978750943807
 10
50147.03789361324
 20
4671.7721928594565
 10
50347.03789361324
 20
4671.7721928594565
  0
LWPOLYLINE
  5
80
330
17
100
AcDbEntity
  8
F02_WALLS
100
AcDbPolyline
 90
5
 70
1
 10
6288.649706457926
 20
13133.966130945964
 10
6288.649706457926
 20
7696.904325315497
 10
6488.649706457926
 20
7696.904325315497
 10
6488.649706457926
 20
13133.966130945964
 10
6288.649706457926
 20
13133.966130945964
  0
LWPOLYLINE
  5
81
330
17
100
AcDbEntity
  8
F02_WALLS
100
AcDbPolyline
 90
5
 70
1
 10
6388.649706457926
 20
7596.904325315497
 10
7577.33499377335
 20
7596.904325315497
 10
7577.33499377335
 20
7796.904325315497
 10
6388.649706457926
 20
7796.904325315497
 10
6388.649706457926
 20
7596.904325315497
  0
LWPOLYLINE
  5
82
330
17
100
AcDbEntity
  8
F02_WALLS
100
AcDbPolyline
 90
5
 70
1
 10
6429.638854296389
 20
13033.966130945964
 10
7454.367550257962
 20
13033.966130945964
 10
7454.367550257962
 20
13233.966130945964
 10
6429.638854296389
 20
13233.966130945964
 10
6429.638854296389
 20
13033.966130945964
  0
LWPOLYLINE
  5
83
330
17
100
AcDbEntity
  8
F02_WALLS
100
AcDbPolyline
 90
5
 70
1
 10
7400.144356481579
 20
13049.943245630779
 10
9490.590896243186
 20
11700.897835211188
 10
9599.037283795951
 20
11868.94360584156
 10
7508.590744034344
 20
13217.98901626115
 10
7400.144356481579
 20
13049.943245630779
  0
LWPOLYLINE
  5
84
330
17
100
AcDbEntity
  8
F02_WALLS
100
AcDbPolyline
 90
5
 70
1
 10
9444.814090019569
 20
11784.920720526374
 10
9444.814090019569
 20
6225.218423039591
 10
9644.814090019569
 20
6225.218423039591
 10
9644.814090019569
 20
11784.920720526374
 10
9444.814090019569
 20
11784.920720526374
  0
LWPOLYLINE
  5
85
330
17
100
AcDbEntity
  8
F02_WALLS
100
AcDbPolyline
 90
5
 70
1
 10
9544.814090019569
 20
6325.218423039591
 10
8151.183063511831
 20
6325.218423039591
 10
8151.183063511831
 20
6125.218423039591
 10
9544.814090019569
 20
6125.218423039591
 10
9544.814090019569
 20
6325.218423039591
  0
LWPOLYLINE
  5
86
330
17
100
AcDbEntity
  8
F02_WALLS
100
AcDbPolyline
 90
5
 70
1
 10
19136.27468421989
 20
3958.5697335778254
 10
21841.55844155844
 20
3958.5697335778254
 10
21841.55844155844
 20
4158.569733577826
 10
19136.27468421989
 20
4158.569733577826
 10
19136.27468421989
 20
3958.5697335778254
  0
LWPOLYLINE
  5
87
330
17
100
AcDbEntity
  8
F02_WALLS
100
AcDbPolyline
 90
5
 70
1
 10
21741.55844155844
 20
4058.5697335778254
 10
21741.55844155844
 20
338.474813935927
 10
21941.55844155844
 20
338.474813935927
 10
21941.55844155844
 20
4058.5697335778254
 10
21741.55844155844
 20
4058.5697335778254
  0
LWPOLYLINE
  5
88
330
17
100
AcDbEntity
  8
F02_WALLS
100
AcDbPolyline
 90
5
 70
1
 10
26022.451521081657
 20
3795.0490777693904
 10
33236.54154065113
 20
3795.0490777693904
 10
33236.54154065113
 20
3995.0490777693904
 10
26022.451521081657
 20
3995.0490777693904
 10
26022.451521081657
 20
3795.0490777693904
  0
LWPOLYLINE
  5
89
330
17
100
AcDbEntity
  8
F02_WALLS
100
AcDbPolyline
 90
5
 70
1
 10
33136.54154065113
 20
3895.0490777693904
 10
33136.54154065113
 20
501.9954697443621
 10
33336.54154065113
 20
501.9954697443621
 10
33336.54154065113
 20
3895.0490777693904
 10
33136.54154065113
 20
3895.0490777693904
  0
LWPOLYLINE
  5
8A
330
17
100
AcDbEntity
  8
F02_WALLS
100
AcDbPolyline
 90
5
 70
1
 10
21800.56929371998
 20
9967.953834537806
 10
25530.581747020104
 20
9967.953834537806
 10
25530.581747020104
 20
10167.953834537806
 10
21800.56929371998
 20
10167.953834537806
 10
21800.56929371998
 20
9967.953834537806
  0
LWPOLYLINE
  5
8B
330
17
100
AcDbEntity
  8
F02_WALLS
100
AcDbPolyline
 90
5
 70
1
 10
25430.581747020104
 20
10067.953834537806
 10
25430.581747020104
 20
5939.057275374829
 10
25630.581747020104
 20
5939.057275374829
 10
25630.581747020104
 20
10067.953834537806
 10
25430.581747020104
 20
10067.953834537806
  0
LWPOLYLINE
  5
8C
330
17
100
AcDbEntity
  8
F02_WALLS
100
AcDbPolyline
 90
5
 70
1
 10
25530.581747020104
 20
6039.057275374829
 10
21841.55844155844
 20
6039.057275374829
 10
21841.55844155844
 20
5839.057275374829
 10
25530.581747020104
 20
5839.057275374829
 10
25530.581747020104
 20
6039.057275374829
  0
LWPOLYLINE
  5
8D
330
17
100
AcDbEntity
  8
F02_WALLS
100
AcDbPolyline
 90
5
 70
1
 10
21941.55844155844
 20
5939.057275374829
 10
21941.55844155844
 20
8228.34645669291
 10
21741.55844155844
 20
8228.34645669291
 10
21741.55844155844
 20
5939.057275374829
 10
21941.55844155844
 20
5939.057275374829
  0
LWPOLYLINE
  5
8E
330
17
100
AcDbEntity
  8
F02_WALLS
100
AcDbPolyline
 90
5
 70
1
 10
33523.46557552037
 20
3795.0490777693904
 10
35736.879558797365
 20
3795.0490777693904
 10
35736.879558797365
 20
3995.0490777693904
 10
33523.46557552037
 20
3995.0490777693904
 10
33523.46557552037
 20
3795.0490777693904
  0
LWPOLYLINE
  5
8F
330
17
100
AcDbEntity
  8
F02_WALLS
100
AcDbPolyline
 90
5
 70
1
 10
35636.879558797365
 20
3895.0490777693904
 10
35636.879558797365
 20
256.71448603170944
 10
35836.879558797365
 20
256.71448603170944
 10
35836.879558797365
 20
3895.0490777693904
 10
35636.879558797365
 20
3895.0490777693904
  0
LWPOLYLINE
  5
90
330
17
100
AcDbEntity
  8
F02_WALLS
100
AcDbPolyline
 90
5
 70
1
 10
37171.499733143566
 20
3876.8094056736077
 10
39712.826899128275
 20
3876.8094056736077
 10
39712.826899128275
 20
4076.8094056736077
 10
37171.499733143566
 20
4076.8094056736077
 10
37171.499733143566
 20
3876.8094056736077
  0
LWPOLYLINE
  5
91
330
17
100
AcDbEntity
  8
F02_WALLS
100
AcDbPolyline
 90
5
 70
1
 10
39612.826899128275
 20
3976.8094056736077
 10
39612.826899128275
 20
1851.0408801639517
 10
39812.826899128275
 20
1851.0408801639517
 10
39812.826899128275
 20
3976.8094056736077
 10
39612.826899128275
 20
3976.8094056736077
  0
LWPOLYLINE
  5
92
330
17
100
AcDbEntity
  8
F02_WALLS
100
AcDbPolyline
 90
5
 70
1
 10
39712.826899128275
 20
1951.0408801639517
 10
37171.499733143566
 20
1951.0408801639517
 10
37171.499733143566
 20
1751.0408801639517
 10
39712.826899128275
 20
1751.0408801639517
 10
39712.826899128275
 20
1951.0408801639517
  0
LWPOLYLINE
  5
93
330
17
100
AcDbEntity
  8
F02_WALLS
100
AcDbPolyline
 90
5
 70
1
 10
40081.72922967443
 20
3795.0490777693904
 10
43975.69827432841
 20
3795.0490777693904
 10
43975.69827432841
 20
3995.0490777693904
 10
40081.72922967443
 20
3995.0490777693904
 10
40081.72922967443
 20
3795.0490777693904
  0
LWPOLYLINE
  5
94
330
17
100
AcDbEntity
  8
F02_WALLS
100
AcDbPolyline
 90
5
 70
1
 10
43875.69827432841
 20
3895.0490777693904
 10
43875.69827432841
 20
1769.2805522597341
 10
44075.69827432841
 20
1769.2805522597341
 10
44075.69827432841
 20
3895.0490777693904
 10
43875.69827432841
 20
3895.0490777693904
  0
LWPOLYLINE
  5
95
330
17
100
AcDbEntity
  8
F02_WALLS
100
AcDbPolyline
 90
5
 70
1
 10
43975.69827432841
 20
1869.2805522597341
 10
40081.72922967443
 20
1869.2805522597341
 10
40081.72922967443
 20
1669.2805522597341
 10
43975.69827432841
 20
1669.2805522597341
 10
43975.69827432841
 20
1869.2805522597341
  0
LWPOLYLINE
  5
96
330
17
100
AcDbEntity
  8
F02_WALLS
100
AcDbPolyline
 90
5
 70
1
 10
40181.72922967443
 20
1769.2805522597341
 10
40181.72922967443
 20
3895.0490777693904
 10
39981.72922967443
 20
3895.0490777693904
 10
39981.72922967443
 20
1769.2805522597341
 10
40181.72922967443
 20
1769.2805522597341
  0
LWPOLYLINE
  5
98
330
17
100
AcDbEntity
  8
F02_PIT
100
AcDbPolyline
 90
193
 70
1
 10
20693.862302081478
 20
17630.78416567792
 10
20690.065626247633
 20
17398.76913881264
 10
20678.679664321673
 20
17167.00255944947
 10
20659.716608676823
 20
16935.73260904671
 10
20633.196765428034
 20
16705.206937259936
 10
20599.14853268771
 20
16475.672396752536
 10
20557.608370156275
 20
16247.374778859692
 10
20508.62076008025
 20
16020.558550388881
 10
20452.2381596195
 20
15795.466591838675
 10
20388.520944674834
 20
15572.339937316228
 10
20317.537345235956
 20
15351.417516431919
 10
20239.363372319087
 20
15132.93589844753
 10
20154.082736572473
 20
14917.129038951967
 10
20061.786758636918
 20
14704.22802933575
 10
19962.57427135736
 20
14494.460849332569
 10
19856.551513950177
 20
14288.052122892863
 10
19743.832018239584
 20
14085.222877650878
 10
19624.536487084897
 20
13886.190308242742
 10
19498.79266512891
 20
13691.167543728992
 10
19366.73520200571
 20
13500.363419370662
 10
19228.505508154492
 20
13313.982253003236
 10
19084.251603393703
 20
13132.223626248
 10
18934.12795841773
 20
12955.28217079504
 10
18778.295329385797
 20
12783.347359986758
 10
18616.92058578026
 20
12616.603305925059
 10
18450.17653171856
 20
12455.22856231952
 10
18278.241720910275
 20
12299.39593328759
 10
18101.300265457314
 20
12149.272288311615
 10
17919.54163870208
 20
12005.018383550825
 10
17733.160472334654
 20
11866.788689699606
 10
17542.356347976325
 20
11734.731226576407
 10
17347.333583462576
 20
11608.98740462042
 10
17148.30101405444
 20
11489.691873465734
 10
16945.471768812455
 20
11376.97237775514
 10
16739.06304237275
 20
11270.949620347956
 10
16529.295862369567
 20
11171.737133068396
 10
16316.39485275335
 20
11079.441155132843
 10
16100.587993257788
 20
10994.16051938623
 10
15882.106375273399
 20
10915.986546469361
 10
15661.183954389087
 20
10845.00294703048
 10
15438.057299866641
 20
10781.285732085813
 10
15212.965341316436
 20
10724.903131625066
 10
14986.149112845624
 20
10675.91552154904
 10
14757.851494952782
 20
10634.37535901761
 10
14528.31695444538
 20
10600.327126277283
 10
14297.791282658605
 20
10573.807283028495
 10
14066.521332255847
 20
10554.84422738364
 10
13834.754752892677
 20
10543.458265457683
 10
13602.739726027396
 20
10539.661589623836
 10
13370.724699162116
 20
10543.458265457683
 10
13138.958119798946
 20
10554.84422738364
 10
12907.688169396188
 20
10573.807283028493
 10
12677.162497609414
 20
10600.327126277283
 10
12447.627957102011
 20
10634.37535901761
 10
12219.33033920917
 20
10675.91552154904
 10
11992.514110738357
 20
10724.903131625066
 10
11767.422152188152
 20
10781.285732085813
 10
11544.295497665706
 20
10845.00294703048
 10
11323.373076781394
 20
10915.986546469361
 10
11104.891458797007
 20
10994.160519386229
 10
10889.084599301445
 20
11079.441155132841
 10
10676.183589685228
 20
11171.737133068396
 10
10466.416409682046
 20
11270.949620347956
 10
10260.007683242342
 20
11376.972377755137
 10
10057.178438000356
 20
11489.691873465734
 10
9858.145868592215
 20
11608.98740462042
 10
9663.12310407847
 20
11734.731226576405
 10
9472.318979720138
 20
11866.788689699606
 10
9285.937813352713
 20
12005.018383550823
 10
9104.179186597477
 20
12149.272288311613
 10
8927.23773114452
 20
12299.395933287586
 10
8755.302920336235
 20
12455.228562319518
 10
8588.558866274534
 20
12616.603305925059
 10
8427.184122668998
 20
12783.347359986754
 10
8271.351493637065
 20
12955.282170795039
 10
8121.227848661092
 20
13132.223626247998
 10
7976.9739439003015
 20
13313.982253003234
 10
7838.7442500490815
 20
13500.363419370662
 10
7706.686786925883
 20
13691.167543728989
 10
7580.942964969895
 20
13886.19030824274
 10
7461.647433815211
 20
14085.222877650876
 10
7348.927938104615
 20
14288.052122892863
 10
7242.905180697432
 20
14494.460849332567
 10
7143.692693417873
 20
14704.228029335749
 10
7051.3967154823185
 20
14917.129038951965
 10
6966.116079735705
 20
15132.935898447526
 10
6887.942106818837
 20
15351.417516431917
 10
6816.958507379957
 20
15572.339937316226
 10
6753.241292435289
 20
15795.466591838673
 10
6696.858691974541
 20
16020.558550388878
 10
6647.871081898515
 20
16247.37477885969
 10
6606.330919367085
 20
16475.672396752532
 10
6572.282686626758
 20
16705.206937259936
 10
6545.762843377969
 20
16935.73260904671
 10
6526.799787733116
 20
17167.002559449465
 10
6515.413825807158
 20
17398.769138812637
 10
6511.617149973313
 20
17630.78416567792
 10
6515.413825807158
 20
17862.799192543196
 10
6526.799787733116
 20
18094.565771906367
 10
6545.762843377968
 20
18325.835722309126
 10
6572.282686626758
 20
18556.3613940959
 10
6606.330919367084
 20
18785.8959346033
 10
6647.871081898514
 20
19014.193552496145
 10
6696.858691974541
 20
19241.009780966957
 10
6753.241292435288
 20
19466.101739517162
 10
6816.958507379955
 20
19689.22839403961
 10
6887.942106818835
 20
19910.15081492392
 10
6966.116079735704
 20
20128.63243290831
 10
7051.396715482317
 20
20344.43929240387
 10
7143.692693417871
 20
20557.340302020086
 10
7242.905180697431
 20
20767.107482023268
 10
7348.927938104613
 20
20973.516208462974
 10
7461.647433815208
 20
21176.34545370496
 10
7580.942964969892
 20
21375.3780231131
 10
7706.6867869258795
 20
21570.400787626848
 10
7838.744250049078
 20
21761.204911985173
 10
7976.973943900299
 20
21947.5860783526
 10
8121.2278486610885
 20
22129.34470510784
 10
8271.351493637061
 20
22306.286160560798
 10
8427.184122668994
 20
22478.220971369083
 10
8588.558866274532
 20
22644.965025430778
 10
8755.302920336231
 20
22806.33976903632
 10
8927.237731144516
 20
22962.17239806825
 10
9104.179186597474
 20
23112.296043044225
 10
9285.93781335271
 20
23256.54994780501
 10
9472.318979720138
 20
23394.779641656234
 10
9663.123104078462
 20
23526.83710477943
 10
9858.145868592212
 20
23652.58092673542
 10
10057.178438000352
 20
23771.876457890103
 10
10260.007683242336
 20
23884.5959536007
 10
10466.416409682044
 20
23990.618711007883
 10
10676.18358968522
 20
24089.83119828744
 10
10889.084599301437
 20
24182.127176222995
 10
11104.891458797001
 20
24267.40781196961
 10
11323.373076781392
 20
24345.58178488648
 10
11544.295497665704
 20
24416.56538432536
 10
11767.422152188145
 20
24480.282599270024
 10
11992.514110738353
 20
24536.665199730774
 10
12219.330339209166
 20
24585.6528098068
 10
12447.62795710201
 20
24627.19297233823
 10
12677.162497609406
 20
24661.241205078557
 10
12907.688169396182
 20
24687.761048327346
 10
13138.958119798941
 20
24706.7241039722
 10
13370.724699162112
 20
24718.11006589816
 10
13602.739726027396
 20
24721.906741732004
 10
13834.75475289267
 20
24718.11006589816
 10
14066.521332255841
 20
24706.7241039722
 10
14297.7912826586
 20
24687.761048327346
 10
14528.316954445376
 20
24661.241205078557
 10
14757.85149495278
 20
24627.19297233823
 10
14986.149112845618
 20
24585.6528098068
 10
15212.96534131643
 20
24536.665199730778
 10
15438.057299866638
 20
24480.282599270027
 10
15661.183954389086
 20
24416.56538432536
 10
15882.106375273397
 20
24345.58178488648
 10
16100.58799325778
 20
24267.407811969613
 10
16316.394852753345
 20
24182.127176223
 10
16529.29586236956
 20
24089.831198287444
 10
16739.063042372745
 20
23990.618711007883
 10
16945.471768812447
 20
23884.595953600707
 10
17148.301014054432
 20
23771.87645789011
 10
17347.333583462572
 20
23652.580926735423
 10
17542.35634797632
 20
23526.837104779435
 10
17733.160472334654
 20
23394.779641656234
 10
17919.541638702074
 20
23256.54994780502
 10
18101.30026545731
 20
23112.29604304423
 10
18278.24172091027
 20
22962.172398068255
 10
18450.176531718556
 20
22806.339769036324
 10
18616.920585780255
 20
22644.96502543078
 10
18778.295329385794
 20
22478.22097136909
 10
18934.127958417725
 20
22306.286160560805
 10
19084.2516033937
 20
22129.344705107844
 10
19228.50550815449
 20
21947.586078352608
 10
19366.735202005708
 20
21761.20491198518
 10
19498.792665128905
 20
21570.400787626855
 10
19624.536487084893
 20
21375.378023113102
 10
19743.83201823958
 20
21176.345453704966
 10
19856.551513950173
 20
20973.516208462977
 10
19962.574271357356
 20
20767.107482023275
 10
20061.786758636918
 20
20557.340302020093
 10
20154.082736572473
 20
20344.439292403877
 10
20239.363372319087
 20
20128.632432908315
 10
20317.537345235956
 20
19910.150814923923
 10
20388.520944674834
 20
19689.22839403962
 10
20452.2381596195
 20
19466.10173951717
 10
20508.62076008025
 20
19241.009780966964
 10
20557.608370156275
 20
19014.193552496152
 10
20599.14853268771
 20
18785.895934603308
 10
20633.19676542803
 20
18556.36139409591
 10
20659.716608676823
 20
18325.835722309133
 10
20678.679664321673
 20
18094.565771906375
 10
20690.065626247633
 20
17862.799192543203
 10
20693.862302081478
 20
17630.78416567792
  0
LWPOLYLINE
  5
9A
330
17
100
AcDbEntity
  8
F02_STAIRS
100
AcDbPolyline
 90
5
 70
1
 10
28235.865504358655
 20
32951.407615143995
 10
28440.81124355097
 20
32951.407615143995
 10
28440.81124355097
 20
33951.407615143995
 10
28235.865504358655
 20
33951.407615143995
 10
28235.865504358655
 20
32951.407615143995
  0
LWPOLYLINE
  5
9B
330
17
100
AcDbEntity
  8
F02_STAIRS
100
AcDbPolyline
 90
5
 70
1
 10
28440.81124355097
 20
32951.407615143995
 10
28645.75698274328
 20
32951.407615143995
 10
28645.75698274328
 20
33951.407615143995
 10
28440.81124355097
 20
33951.407615143995
 10
28440.81124355097
 20
32951.407615143995
  0
LWPOLYLINE
  5
9C
330
17
100
AcDbEntity
  8
F02_STAIRS
100
AcDbPolyline
 90
5
 70
1
 10
28645.75698274328
 20
32951.407615143995
 10
28850.7027219356
 20
32951.407615143995
 10
28850.7027219356
 20
33951.407615143995
 10
28645.75698274328
 20
33951.407615143995
 10
28645.75698274328
 20
32951.407615143995
  0
LWPOLYLINE
  5
9D
330
17
100
AcDbEntity
  8
F02_STAIRS
100
AcDbPolyline
 90
5
 70
1
 10
28850.7027219356
 20
32951.407615143995
 10
29055.648461127912
 20
32951.407615143995
 10
29055.648461127912
 20
33951.407615143995
 10
28850.7027219356
 20
33951.407615143995
 10
28850.7027219356
 20
32951.407615143995
  0
LWPOLYLINE
  5
9E
330
17
100
AcDbEntity
  8
F02_STAIRS
100
AcDbPolyline
 90
5
 70
1
 10
29055.648461127912
 20
32951.407615143995
 10
29260.59420032023
 20
32951.407615143995
 10
29260.59420032023
 20
33951.407615143995
 10
29055.648461127912
 20
33951.407615143995
 10
29055.648461127912
 20
32951.407615143995
  0
LWPOLYLINE
  5
9F
330
17
100
AcDbEntity
  8
F02_STAIRS
100
AcDbPolyline
 90
5
 70
1
 10
29260.59420032023
 20
32951.407615143995
 10
29465.53993951254
 20
32951.407615143995
 10
29465.53993951254
 20
33951.407615143995
 10
29260.59420032023
 20
33951.407615143995
 10
29260.59420032023
 20
32951.407615143995
  0
LWPOLYLINE
  5
A0
330
17
100
AcDbEntity
  8
F02_STAIRS
100
AcDbPolyline
 90
5
 70
1
 10
29465.53993951254
 20
32951.407615143995
 10
29670.485678704856
 20
32951.407615143995
 10
29670.485678704856
 20
33951.407615143995
 10
29465.53993951254
 20
33951.407615143995
 10
29465.53993951254
 20
32951.407615143995
  0
LWPOLYLINE
  5
A1
330
17
100
AcDbEntity
  8
F02_STAIRS
100
AcDbPolyline
 90
5
 70
1
 10
29670.485678704856
 20
32951.407615143995
 10
29875.431417897173
 20
32951.407615143995
 10
29875.431417897173
 20
33951.407615143995
 10
29670.485678704856
 20
33951.407615143995
 10
29670.485678704856
 20
32951.407615143995
  0
LWPOLYLINE
  5
A2
330
17
100
AcDbEntity
  8
F02_STAIRS
100
AcDbPolyline
 90
5
 70
1
 10
29875.431417897173
 20
32951.407615143995
 10
30080.377157089482
 20
32951.407615143995
 10
30080.377157089482
 20
33951.407615143995
 10
29875.431417897173
 20
33951.407615143995
 10
29875.431417897173
 20
32951.407615143995
  0
LWPOLYLINE
  5
A3
330
17
100
AcDbEntity
  8
F02_STAIRS
100
AcDbPolyline
 90
5
 70
1
 10
30080.377157089482
 20
32951.407615143995
 10
30285.3228962818
 20
32951.407615143995
 10
30285.3228962818
 20
33951.407615143995
 10
30080.377157089482
 20
33951.407615143995
 10
30080.377157089482
 20
32951.407615143995
  0
LWPOLYLINE
  5
A4
330
17
100
AcDbEntity
  8
F02_STAIRS
100
AcDbPolyline
 90
5
 70
1
 10
30285.3228962818
 20
32951.407615143995
 10
30490.268635474116
 20
32951.407615143995
 10
30490.268635474116
 20
33951.407615143995
 10
30285.3228962818
 20
33951.407615143995
 10
30285.3228962818
 20
32951.407615143995
  0
LWPOLYLINE
  5
A5
330
17
100
AcDbEntity
  8
F02_STAIRS
100
AcDbPolyline
 90
5
 70
1
 10
30490.268635474116
 20
32951.407615143995
 10
30695.21437466643
 20
32951.407615143995
 10
30695.21437466643
 20
33951.407615143995
 10
30490.268635474116
 20
33951.407615143995
 10
30490.268635474116
 20
32951.407615143995
  0
LWPOLYLINE
  5
A6
330
17
100
AcDbEntity
  8
F02_STAIRS
100
AcDbPolyline
 90
5
 70
1
 10
28112.898060843265
 20
1637.2020278287132
 10
28317.843800035578
 20
1637.2020278287132
 10
28317.843800035578
 20
2637.202027828713
 10
28112.898060843265
 20
2637.202027828713
 10
28112.898060843265
 20
1637.2020278287132
  0
LWPOLYLINE
  5
A7
330
17
100
AcDbEntity
  8
F02_STAIRS
100
AcDbPolyline
 90
5
 70
1
 10
28317.843800035578
 20
1637.2020278287132
 10
28522.789539227895
 20
1637.2020278287132
 10
28522.789539227895
 20
2637.202027828713
 10
28317.843800035578
 20
2637.202027828713
 10
28317.843800035578
 20
1637.2020278287132
  0
LWPOLYLINE
  5
A8
330
17
100
AcDbEntity
  8
F02_STAIRS
100
AcDbPolyline
 90
5
 70
1
 10
28522.789539227895
 20
1637.2020278287132
 10
28727.73527842021
 20
1637.2020278287132
 10
28727.73527842021
 20
2637.202027828713
 10
28522.789539227895
 20
2637.202027828713
 10
28522.789539227895
 20
1637.2020278287132
  0
LWPOLYLINE
  5
A9
330
17
100
AcDbEntity
  8
F02_STAIRS
100
AcDbPolyline
 90
5
 70
1
 10
28727.73527842021
 20
1637.2020278287132
 10
28932.681017612525
 20
1637.2020278287132
 10
28932.681017612525
 20
2637.202027828713
 10
28727.73527842021
 20
2637.202027828713
 10
28727.73527842021
 20
1637.2020278287132
  0
LWPOLYLINE
  5
AA
330
17
100
AcDbEntity
  8
F02_STAIRS
100
AcDbPolyline
 90
5
 70
1
 10
28932.681017612525
 20
1637.2020278287132
 10
29137.626756804835
 20
1637.2020278287132
 10
29137.626756804835
 20
2637.202027828713
 10
28932.681017612525
 20
2637.202027828713
 10
28932.681017612525
 20
1637.2020278287132
  0
LWPOLYLINE
  5
AB
330
17
100
AcDbEntity
  8
F02_STAIRS
100
AcDbPolyline
 90
5
 70
1
 10
29137.626756804835
 20
1637.2020278287132
 10
29342.572495997152
 20
1637.2020278287132
 10
29342.572495997152
 20
2637.202027828713
 10
29137.626756804835
 20
2637.202027828713
 10
29137.626756804835
 20
1637.2020278287132
  0
LWPOLYLINE
  5
AC
330
17
100
AcDbEntity
  8
F02_STAIRS
100
AcDbPolyline
 90
5
 70
1
 10
29342.572495997152
 20
1637.2020278287132
 10
29547.51823518947
 20
1637.2020278287132
 10
29547.51823518947
 20
2637.202027828713
 10
29342.572495997152
 20
2637.202027828713
 10
29342.572495997152
 20
1637.2020278287132
  0
LWPOLYLINE
  5
AD
330
17
100
AcDbEntity
  8
F02_STAIRS
100
AcDbPolyline
 90
5
 70
1
 10
29547.51823518947
 20
1637.2020278287132
 10
29752.46397438178
 20
1637.2020278287132
 10
29752.46397438178
 20
2637.202027828713
 10
29547.51823518947
 20
2637.202027828713
 10
29547.51823518947
 20
1637.2020278287132
  0
LWPOLYLINE
  5
AE
330
17
100
AcDbEntity
  8
F02_STAIRS
100
AcDbPolyline
 90
5
 70
1
 10
29752.46397438178
 20
1637.2020278287132
 10
29957.409713574096
 20
1637.2020278287132
 10
29957.409713574096
 20
2637.202027828713
 10
29752.46397438178
 20
2637.202027828713
 10
29752.46397438178
 20
1637.2020278287132
  0
LWPOLYLINE
  5
AF
330
17
100
AcDbEntity
  8
F02_STAIRS
100
AcDbPolyline
 90
5
 70
1
 10
29957.409713574096
 20
1637.2020278287132
 10
30162.355452766413
 20
1637.2020278287132
 10
30162.355452766413
 20
2637.202027828713
 10
29957.409713574096
 20
2637.202027828713
 10
29957.409713574096
 20
1637.2020278287132
  0
LWPOLYLINE
  5
B0
330
17
100
AcDbEntity
  8
F02_STAIRS
100
AcDbPolyline
 90
5
 70
1
 10
30162.355452766413
 20
1637.2020278287132
 10
30367.301191958726
 20
1637.2020278287132
 10
30367.301191958726
 20
2637.202027828713
 10
30162.355452766413
 20
2637.202027828713
 10
30162.355452766413
 20
1637.2020278287132
  0
LWPOLYLINE
  5
B1
330
17
100
AcDbEntity
  8
F02_STAIRS
100
AcDbPolyline
 90
5
 70
1
 10
30367.301191958726
 20
1637.2020278287132
 10
30572.24693115104
 20
1637.2020278287132
 10
30572.24693115104
 20
2637.202027828713
 10
30367.301191958726
 20
2637.202027828713
 10
30367.301191958726
 20
1637.2020278287132
  0
TEXT
  5
B3
330
17
100
AcDbEntity
  8
F02_ROOMS
100
AcDbText
 10
8766.020281088775
 20
30835.077122209037
 30
0.0
 40
450.0
  1
控室
  7
JAPANESE
100
AcDbText
  0
TEXT
  5
B4
330
17
100
AcDbEntity
  8
F02_ROOMS
100
AcDbText
 10
12496.032734388898
 20
30835.077122209037
 30
0.0
 40
450.0
  1
控室
  7
JAPANESE
100
AcDbText
  0
TEXT
  5
B5
330
17
100
AcDbEntity
  8
F02_ROOMS
100
AcDbText
 10
15447.251378758227
 20
30835.077122209037
 30
0.0
 40
450.0
  1
控室
  7
JAPANESE
100
AcDbText
  0
TEXT
  5
B6
330
17
100
AcDbEntity
  8
F02_ROOMS
100
AcDbText
 10
13602.739726027396
 20
17630.78416567792
 30
0.0
 40
450.0
  1
奈落
  7
JAPANESE
100
AcDbText
  0
TEXT
  5
B7
330
17
100
AcDbEntity
  8
F02_ROOMS
100
AcDbText
 10
23194.20032022772
 20
17712.54449358214
 30
0.0
 40
450.0
  1
倉庫
  7
JAPANESE
100
AcDbText
  0
TEXT
  5
B8
330
17
100
AcDbEntity
  8
F02_ROOMS
100
AcDbText
 10
14709.446717665896
 20
5979.937439326937
 30
0.0
 40
450.0
  1
大道具置場
  7
JAPANESE
100
AcDbText
  0
TEXT
  5
B9
330
17
100
AcDbEntity
  8
F02_ROOMS
100
AcDbText
 10
42336.132360789896
 20
17549.0238377737
 30
0.0
 40
450.0
  1
ロビー
  7
JAPANESE
100
AcDbText
  0
TEXT
  5
BA
330
17
100
AcDbEntity
  8
F02_ROOMS
100
AcDbText
 10
41803.273438889875
 20
31489.159745442776
 30
0.0
 40
450.0
  1
休憩室
  7
JAPANESE
100
AcDbText
  0
TEXT
  5
BB
330
17
100
AcDbEntity
  8
F02_ROOMS
100
AcDbText
 10
39425.90286425903
 20
7901.30514507604
 30
0.0
 40
450.0
  1
コインロッカー
  7
JAPANESE
100
AcDbText
  0
TEXT
  5
BD
330
17
100
AcDbEntity
  8
ANNOTATION
100
AcDbText
 10
-1000.0
 20
-2500.0
 30
0.0
 40
650.0
  1
2F / SCHEMATIC / Z 4834 mm
  7
JAPANESE
100
AcDbText
  0
ENDSEC
  0
SECTION
  2
OBJECTS
  0
DICTIONARY
  5
A
330
0
100
AcDbDictionary
281
1
  3
ACAD_COLOR
350
B
  3
ACAD_GROUP
350
C
  3
ACAD_LAYOUT
350
D
  3
ACAD_MATERIAL
350
E
  3
ACAD_MLEADERSTYLE
350
F
  3
ACAD_MLINESTYLE
350
10
  3
ACAD_PLOTSETTINGS
350
11
  3
ACAD_PLOTSTYLENAME
350
12
  3
ACAD_SCALELIST
350
14
  3
ACAD_TABLESTYLE
350
15
  3
ACAD_VISUALSTYLE
350
16
  3
EZDXF_META
350
2D
  0
DICTIONARY
  5
B
330
A
100
AcDbDictionary
281
1
  0
DICTIONARY
  5
C
330
A
100
AcDbDictionary
281
1
  0
DICTIONARY
  5
D
330
A
100
AcDbDictionary
281
1
  3
Model
350
1A
  3
Layout1
350
1E
  0
DICTIONARY
  5
E
330
A
100
AcDbDictionary
281
1
  3
ByBlock
350
1F
  3
ByLayer
350
20
  3
Global
350
21
  0
DICTIONARY
  5
F
330
A
100
AcDbDictionary
281
1
  3
Standard
350
2C
  0
DICTIONARY
  5
10
330
A
100
AcDbDictionary
281
1
  3
Standard
350
22
  0
DICTIONARY
  5
11
330
A
100
AcDbDictionary
281
1
  0
ACDBDICTIONARYWDFLT
  5
12
330
A
100
AcDbDictionary
281
1
  3
Normal
350
13
100
AcDbDictionaryWithDefault
340
13
  0
ACDBPLACEHOLDER
  5
13
330
12
  0
DICTIONARY
  5
14
330
A
100
AcDbDictionary
281
1
  0
DICTIONARY
  5
15
330
A
100
AcDbDictionary
281
1
  0
DICTIONARY
  5
16
330
A
100
AcDbDictionary
281
1
  0
LAYOUT
  5
1A
330
D
100
AcDbPlotSettings
  1

  4
A3
  6

 40
7.5
 41
20.0
 42
7.5
 43
20.0
 44
420.0
 45
297.0
 46
0.0
 47
0.0
 48
0.0
 49
0.0
140
0.0
141
0.0
142
1.0
143
1.0
 70
1024
 72
1
 73
0
 74
5
  7

 75
16
 76
0
 77
2
 78
300
147
1.0
148
0.0
149
0.0
100
AcDbLayout
  1
Model
 70
1
 71
0
 10
0.0
 20
0.0
 11
420.0
 21
297.0
 12
0.0
 22
0.0
 32
0.0
 14
1e+20
 24
1e+20
 34
1e+20
 15
-1e+20
 25
-1e+20
 35
-1e+20
146
0.0
 13
0.0
 23
0.0
 33
0.0
 16
1.0
 26
0.0
 36
0.0
 17
0.0
 27
1.0
 37
0.0
 76
1
330
17
  0
LAYOUT
  5
1E
330
D
100
AcDbPlotSettings
  1

  4
A3
  6

 40
7.5
 41
20.0
 42
7.5
 43
20.0
 44
420.0
 45
297.0
 46
0.0
 47
0.0
 48
0.0
 49
0.0
140
0.0
141
0.0
142
1.0
143
1.0
 70
0
 72
1
 73
0
 74
5
  7

 75
16
 76
0
 77
2
 78
300
147
1.0
148
0.0
149
0.0
100
AcDbLayout
  1
Layout1
 70
1
 71
1
 10
0.0
 20
0.0
 11
420.0
 21
297.0
 12
0.0
 22
0.0
 32
0.0
 14
1e+20
 24
1e+20
 34
1e+20
 15
-1e+20
 25
-1e+20
 35
-1e+20
146
0.0
 13
0.0
 23
0.0
 33
0.0
 16
1.0
 26
0.0
 36
0.0
 17
0.0
 27
1.0
 37
0.0
 76
1
330
1B
  0
MATERIAL
  5
1F
102
{ACAD_REACTORS
330
E
102
}
330
E
100
AcDbMaterial
  1
ByBlock
  2

 70
0
 40
1.0
 71
1
 41
1.0
 91
-1023410177
 42
1.0
 72
1
  3

 73
1
 74
1
 75
1
 44
0.5
 73
0
 45
1.0
 46
1.0
 77
1
  4

 78
1
 79
1
170
1
 48
1.0
171
1
  6

172
1
173
1
174
1
140
1.0
141
1.0
175
1
  7

176
1
177
1
178
1
143
1.0
179
1
  8

270
1
271
1
272
1
145
1.0
146
1.0
273
1
  9

274
1
275
1
276
1
 42
1.0
 72
1
  3

 73
1
 74
1
 75
1
 94
63
  0
MATERIAL
  5
20
102
{ACAD_REACTORS
330
E
102
}
330
E
100
AcDbMaterial
  1
ByLayer
  2

 70
0
 40
1.0
 71
1
 41
1.0
 91
-1023410177
 42
1.0
 72
1
  3

 73
1
 74
1
 75
1
 44
0.5
 73
0
 45
1.0
 46
1.0
 77
1
  4

 78
1
 79
1
170
1
 48
1.0
171
1
  6

172
1
173
1
174
1
140
1.0
141
1.0
175
1
  7

176
1
177
1
178
1
143
1.0
179
1
  8

270
1
271
1
272
1
145
1.0
146
1.0
273
1
  9

274
1
275
1
276
1
 42
1.0
 72
1
  3

 73
1
 74
1
 75
1
 94
63
  0
MATERIAL
  5
21
102
{ACAD_REACTORS
330
E
102
}
330
E
100
AcDbMaterial
  1
Global
  2

 70
0
 40
1.0
 71
1
 41
1.0
 91
-1023410177
 42
1.0
 72
1
  3

 73
1
 74
1
 75
1
 44
0.5
 73
0
 45
1.0
 46
1.0
 77
1
  4

 78
1
 79
1
170
1
 48
1.0
171
1
  6

172
1
173
1
174
1
140
1.0
141
1.0
175
1
  7

176
1
177
1
178
1
143
1.0
179
1
  8

270
1
271
1
272
1
145
1.0
146
1.0
273
1
  9

274
1
275
1
276
1
 42
1.0
 72
1
  3

 73
1
 74
1
 75
1
 94
63
  0
MLINESTYLE
  5
22
102
{ACAD_REACTORS
330
10
102
}
330
10
100
AcDbMlineStyle
  2
Standard
 70
0
  3

 62
256
 51
90.0
 52
90.0
 71
2
 49
0.5
 62
256
  6
BYLAYER
 49
-0.5
 62
256
  6
BYLAYER
  0
MLEADERSTYLE
  5
2C
102
{ACAD_REACTORS
330
F
102
}
330
F
100
AcDbMLeaderStyle
179
2
170
2
171
1
172
0
 90
2
 40
0.0
 41
0.0
173
1
 91
-1056964608
 92
-2
290
1
 42
2.0
291
1
 43
8.0
  3
Standard
 44
4.0
300

342
29
174
1
175
1
176
0
178
1
 93
-1056964608
 45
4.0
292
0
297
0
 46
4.0
 94
-1056964608
 47
1.0
 49
1.0
140
1.0
294
1
141
0.0
177
0
142
1.0
295
0
296
0
143
3.75
271
0
272
9
273
9
  0
DICTIONARY
  5
2D
330
A
100
AcDbDictionary
280
1
281
1
  3
CREATED_BY_EZDXF
350
2E
  3
WRITTEN_BY_EZDXF
350
C1
  0
DICTIONARYVAR
  5
2E
330
2D
100
DictionaryVariables
280
0
  1
1.4.4 @ 2026-09-10T15:48:15.097499+00:00
  0
DICTIONARYVAR
  5
C1
330
2D
100
DictionaryVariables
280
0
  1
1.4.4 @ 2026-09-10T15:48:15.109720+00:00
  0
ENDSEC
  0
EOF
